<svg width="41" height="136" viewBox="0 0 41 136" fill="none" xmlns="http://www.w3.org/2000/svg">
<rect width="279" height="136" rx="8" fill="#FF631F"/>
<path d="M22.08 26.128C21.6213 26.128 21.248 26.1067 20.96 26.064C20.672 26.0213 20.368 25.92 20.048 25.76C19.7387 25.6 19.4933 25.3707 19.312 25.072C19.1413 24.7733 18.9973 24.352 18.88 23.808C18.7733 23.264 18.72 22.5973 18.72 21.808V20.512C18.72 19.7013 18.7733 19.0187 18.88 18.464C18.9973 17.8987 19.1413 17.456 19.312 17.136C19.4933 16.816 19.7387 16.576 20.048 16.416C20.368 16.2453 20.6773 16.1387 20.976 16.096C21.2747 16.0533 21.6587 16.032 22.128 16.032C22.8427 16.032 23.5787 16.1333 24.336 16.336C24.4853 16.3787 24.5867 16.4427 24.64 16.528C24.6933 16.6133 24.72 16.7947 24.72 17.072C24.72 17.4773 24.6293 17.68 24.448 17.68L23.76 17.552C23.312 17.456 22.88 17.408 22.464 17.408C21.984 17.408 21.6213 17.4347 21.376 17.488C21.1413 17.5413 20.928 17.6853 20.736 17.92C20.544 18.144 20.416 18.4693 20.352 18.896C20.2987 19.312 20.272 19.8987 20.272 20.656V21.488C20.272 22.0107 20.2827 22.4533 20.304 22.816C20.336 23.168 20.3947 23.4667 20.48 23.712C20.5653 23.9573 20.6507 24.1493 20.736 24.288C20.832 24.416 20.976 24.5173 21.168 24.592C21.36 24.6667 21.5467 24.7147 21.728 24.736C21.9093 24.7467 22.1547 24.752 22.464 24.752C22.9013 24.752 23.3387 24.7093 23.776 24.624C24.2133 24.528 24.4373 24.48 24.448 24.48C24.5547 24.48 24.624 24.5227 24.656 24.608C24.6987 24.6827 24.72 24.848 24.72 25.104C24.72 25.36 24.6933 25.536 24.64 25.632C24.5867 25.7173 24.4853 25.7813 24.336 25.824C23.6427 26.0267 22.8907 26.128 22.08 26.128ZM27.5224 25.92C27.4264 25.9733 27.2237 26 26.9144 26C26.605 26 26.397 25.9733 26.2904 25.92C26.1837 25.856 26.1304 25.7227 26.1304 25.52V16.016C26.1304 15.8133 26.1837 15.6853 26.2904 15.632C26.397 15.568 26.605 15.536 26.9144 15.536C27.2237 15.536 27.4264 15.568 27.5224 15.632C27.629 15.6853 27.6824 15.8133 27.6824 16.016V25.52C27.6824 25.7227 27.629 25.856 27.5224 25.92ZM32.4814 26.16C31.6494 26.16 31.02 26.0587 30.5934 25.856C30.1774 25.6427 29.868 25.2533 29.6654 24.688C29.4734 24.112 29.3774 23.2587 29.3774 22.128C29.3774 20.496 29.6227 19.3973 30.1134 18.832C30.604 18.256 31.4787 17.968 32.7374 17.968C33.5694 17.968 34.1934 18.0693 34.6094 18.272C35.0254 18.4747 35.3294 18.8587 35.5214 19.424C35.724 19.9893 35.8254 20.8373 35.8254 21.968C35.8254 23.6107 35.58 24.72 35.0894 25.296C34.5987 25.872 33.7294 26.16 32.4814 26.16ZM32.5134 24.848C33.2387 24.848 33.708 24.6773 33.9214 24.336C34.1454 23.984 34.2574 23.2427 34.2574 22.112C34.2574 20.8853 34.1614 20.1067 33.9694 19.776C33.788 19.4453 33.356 19.28 32.6734 19.28C31.9587 19.28 31.4947 19.4507 31.2814 19.792C31.068 20.1333 30.9614 20.864 30.9614 21.984C30.9614 23.2213 31.052 24.0107 31.2334 24.352C31.4147 24.6827 31.8414 24.848 32.5134 24.848ZM39.8094 26.16C39.0094 26.16 38.3054 26.064 37.6974 25.872C37.5374 25.8187 37.4254 25.7493 37.3614 25.664C37.308 25.568 37.2814 25.408 37.2814 25.184C37.2814 24.7573 37.3667 24.544 37.5374 24.544C37.548 24.544 37.7987 24.592 38.2894 24.688C38.7907 24.7733 39.2494 24.816 39.6654 24.816C40.2627 24.816 40.6787 24.7307 40.9134 24.56C41.1587 24.3787 41.2814 24.096 41.2814 23.712C41.2814 23.4987 41.2387 23.3333 41.1534 23.216C41.068 23.0987 40.924 22.9973 40.7214 22.912L38.6734 22.048C37.9054 21.7067 37.5214 21.0613 37.5214 20.112C37.5214 18.6827 38.38 17.968 40.0974 17.968C40.8547 17.968 41.58 18.0587 42.2734 18.24C42.4334 18.2827 42.54 18.352 42.5934 18.448C42.6467 18.5333 42.6734 18.7093 42.6734 18.976C42.6734 19.1467 42.6574 19.28 42.6254 19.376C42.5934 19.472 42.5614 19.5307 42.5294 19.552C42.4974 19.5627 42.4494 19.568 42.3854 19.568C42.3747 19.568 42.124 19.52 41.6334 19.424C41.1427 19.328 40.7107 19.28 40.3374 19.28C39.868 19.28 39.5427 19.3493 39.3614 19.488C39.18 19.616 39.0894 19.8293 39.0894 20.128C39.0894 20.352 39.1267 20.528 39.2014 20.656C39.2867 20.7733 39.436 20.88 39.6494 20.976L41.6494 21.776C42.0974 21.9573 42.4067 22.192 42.5774 22.48C42.7587 22.768 42.8494 23.152 42.8494 23.632C42.8494 25.3173 41.836 26.16 39.8094 26.16ZM45.8193 25.92C45.7233 25.9733 45.5206 26 45.2113 26C44.9019 26 44.6939 25.9733 44.5872 25.92C44.4806 25.856 44.4273 25.7227 44.4273 25.52V18.608C44.4273 18.4053 44.4806 18.2773 44.5872 18.224C44.6939 18.16 44.9019 18.128 45.2113 18.128C45.5206 18.128 45.7233 18.16 45.8193 18.224C45.9259 18.2773 45.9793 18.4053 45.9793 18.608V25.52C45.9793 25.7227 45.9259 25.856 45.8193 25.92ZM45.2113 17.008C44.8379 17.008 44.5979 16.9707 44.4913 16.896C44.3953 16.8213 44.3473 16.6613 44.3473 16.416V16.112C44.3473 15.8773 44.3953 15.7227 44.4913 15.648C44.5979 15.5733 44.8379 15.536 45.2113 15.536C45.5739 15.536 45.8033 15.5733 45.8993 15.648C46.0059 15.7227 46.0593 15.8773 46.0593 16.112V16.416C46.0593 16.6613 46.0059 16.8213 45.8993 16.896C45.8033 16.9707 45.5739 17.008 45.2113 17.008ZM49.4331 25.92C49.3371 25.9733 49.1345 26 48.8251 26C48.5158 26 48.3078 25.9733 48.2011 25.92C48.0945 25.856 48.0411 25.7227 48.0411 25.52V21.184C48.0411 20.6933 48.0091 20.2507 47.9451 19.856C47.8918 19.4507 47.8331 19.136 47.7691 18.912C47.7158 18.688 47.6891 18.5493 47.6891 18.496C47.6891 18.368 47.7371 18.2773 47.8331 18.224C47.9291 18.16 48.1211 18.128 48.4091 18.128C48.6865 18.128 48.8678 18.1547 48.9531 18.208C49.0491 18.2507 49.1185 18.3627 49.1611 18.544L49.3851 19.456C49.8011 18.464 50.6811 17.968 52.0251 17.968C52.8571 17.968 53.4278 18.1387 53.7371 18.48C54.0465 18.8107 54.2011 19.3547 54.2011 20.112V25.52C54.2011 25.7227 54.1478 25.856 54.0411 25.92C53.9451 25.9733 53.7425 26 53.4331 26C53.1238 26 52.9158 25.9733 52.8091 25.92C52.7131 25.856 52.6651 25.7227 52.6651 25.52V20.48C52.6651 20.032 52.5851 19.728 52.4251 19.568C52.2651 19.3973 51.9505 19.312 51.4811 19.312C50.7878 19.312 50.2971 19.5147 50.0091 19.92C49.7318 20.3253 49.5931 21.008 49.5931 21.968V25.52C49.5931 25.7227 49.5398 25.856 49.4331 25.92ZM55.9086 22C55.9086 20.8907 56.0206 20.0427 56.2446 19.456C56.4686 18.8587 56.7833 18.464 57.1886 18.272C57.6046 18.0693 58.186 17.968 58.9326 17.968C60.0633 17.968 60.794 18.352 61.1246 19.12L61.2686 18.544C61.3113 18.3627 61.3753 18.2507 61.4606 18.208C61.546 18.1547 61.7273 18.128 62.0046 18.128C62.2926 18.128 62.4846 18.16 62.5806 18.224C62.6766 18.2773 62.7246 18.368 62.7246 18.496C62.7246 18.5493 62.6926 18.688 62.6286 18.912C62.5753 19.136 62.5166 19.4507 62.4526 19.856C62.3993 20.2507 62.3726 20.6933 62.3726 21.184V25.36C62.3726 26.1173 62.2873 26.7467 62.1166 27.248C61.9566 27.76 61.706 28.144 61.3646 28.4C61.0233 28.6667 60.65 28.848 60.2446 28.944C59.85 29.0507 59.37 29.104 58.8046 29.104C58.0153 29.104 57.2846 29.0347 56.6126 28.896C56.4633 28.864 56.3566 28.8 56.2926 28.704C56.2286 28.608 56.1966 28.4373 56.1966 28.192C56.1966 27.7653 56.2926 27.552 56.4846 27.552C56.5273 27.552 56.6553 27.5627 56.8686 27.584C57.082 27.616 57.3593 27.648 57.7006 27.68C58.042 27.712 58.3993 27.728 58.7726 27.728C59.594 27.728 60.1433 27.5627 60.4206 27.232C60.698 26.9013 60.8366 26.2933 60.8366 25.408V25.2C60.4313 25.84 59.658 26.16 58.5166 26.16C57.4713 26.16 56.7726 25.8827 56.4206 25.328C56.0793 24.7627 55.9086 23.6533 55.9086 22ZM57.4926 22.16C57.4926 23.2907 57.5886 24.0213 57.7806 24.352C57.9726 24.6827 58.3886 24.848 59.0286 24.848C59.7113 24.848 60.1966 24.6987 60.4846 24.4C60.7833 24.1013 60.9326 23.504 60.9326 22.608V21.552C60.9326 20.6667 60.8153 20.0693 60.5806 19.76C60.3566 19.44 59.898 19.28 59.2046 19.28C58.5006 19.28 58.0366 19.456 57.8126 19.808C57.5993 20.1493 57.4926 20.9333 57.4926 22.16ZM70.5763 26.16C69.9896 26.16 69.5203 26.112 69.1683 26.016C68.8163 25.9307 68.4963 25.7547 68.2083 25.488C67.9309 25.2107 67.7283 24.8053 67.6003 24.272C67.4829 23.728 67.4243 23.0187 67.4243 22.144C67.4243 21.3973 67.4723 20.768 67.5683 20.256C67.6749 19.7333 67.8083 19.328 67.9683 19.04C68.1283 18.7413 68.3523 18.512 68.6403 18.352C68.9283 18.192 69.2109 18.0907 69.4883 18.048C69.7763 17.9947 70.1389 17.968 70.5763 17.968C71.2696 17.968 71.9309 18.064 72.5603 18.256C72.7203 18.3093 72.8269 18.3787 72.8803 18.464C72.9443 18.5493 72.9763 18.7093 72.9763 18.944C72.9763 19.36 72.8803 19.568 72.6883 19.568C72.6776 19.568 72.4269 19.5253 71.9363 19.44C71.4563 19.344 71.0563 19.296 70.7363 19.296C70.2563 19.296 69.9043 19.3493 69.6803 19.456C69.4563 19.5627 69.2856 19.808 69.1683 20.192C69.0509 20.576 68.9923 21.1733 68.9923 21.984C68.9923 23.232 69.0883 24.016 69.2803 24.336C69.4829 24.656 69.9789 24.816 70.7682 24.816C71.1949 24.816 71.6269 24.7627 72.0643 24.656L72.7203 24.512C72.8909 24.512 72.9763 24.72 72.9763 25.136C72.9763 25.36 72.9496 25.52 72.8963 25.616C72.8429 25.7013 72.7363 25.7707 72.5763 25.824C71.9363 26.048 71.2696 26.16 70.5763 26.16ZM77.5956 26.16C77.0943 26.16 76.6836 26.1333 76.3636 26.08C76.0436 26.0267 75.7396 25.9253 75.4516 25.776C75.1636 25.616 74.9396 25.3867 74.7796 25.088C74.6303 24.7893 74.5076 24.4 74.4116 23.92C74.3263 23.44 74.2836 22.848 74.2836 22.144C74.2836 21.3973 74.3316 20.768 74.4276 20.256C74.5343 19.744 74.6676 19.3387 74.8276 19.04C74.9876 18.7413 75.2116 18.512 75.4996 18.352C75.7983 18.192 76.0916 18.0907 76.3796 18.048C76.6676 17.9947 77.041 17.968 77.4996 17.968C78.0116 17.968 78.4383 18.0213 78.7796 18.128C79.1316 18.224 79.409 18.3627 79.6116 18.544C79.825 18.7253 79.985 18.9813 80.0916 19.312C80.209 19.632 80.2836 19.9733 80.3156 20.336C80.3583 20.688 80.3796 21.1413 80.3796 21.696C80.3796 21.9733 80.337 22.1707 80.2516 22.288C80.1663 22.4053 79.9956 22.464 79.7396 22.464H75.8516C75.8623 23.4773 75.9796 24.1227 76.2036 24.4C76.4276 24.6773 76.9343 24.816 77.7236 24.816C78.0863 24.816 78.4383 24.7893 78.7796 24.736C79.1316 24.6827 79.4143 24.6347 79.6276 24.592C79.841 24.5387 79.969 24.512 80.0116 24.512C80.1823 24.512 80.2676 24.72 80.2676 25.136C80.2676 25.36 80.2356 25.52 80.1716 25.616C80.1183 25.7013 80.0116 25.7707 79.8516 25.824C79.233 26.048 78.481 26.16 77.5956 26.16ZM77.4676 19.264C76.8596 19.264 76.4436 19.3973 76.2196 19.664C76.0063 19.9307 75.8836 20.5227 75.8516 21.44H78.8916C78.8916 20.5867 78.8116 20.0107 78.6516 19.712C78.5023 19.4133 78.1076 19.264 77.4676 19.264ZM83.5269 25.92C83.4309 25.9733 83.2282 26 82.9189 26C82.6095 26 82.4015 25.9733 82.2949 25.92C82.1882 25.856 82.1349 25.7227 82.1349 25.52V21.184C82.1349 20.6933 82.1029 20.2507 82.0389 19.856C81.9855 19.4507 81.9269 19.136 81.8629 18.912C81.8095 18.688 81.7829 18.5493 81.7829 18.496C81.7829 18.368 81.8309 18.2773 81.9269 18.224C82.0229 18.16 82.2149 18.128 82.5029 18.128C82.7802 18.128 82.9615 18.1547 83.0469 18.208C83.1429 18.2507 83.2122 18.3627 83.2549 18.544L83.4629 19.36C83.8575 18.4533 84.5135 18 85.4309 18C85.6869 18 85.9269 18.032 86.1509 18.096C86.2682 18.1387 86.3482 18.208 86.3909 18.304C86.4335 18.4 86.4549 18.5707 86.4549 18.816C86.4549 19.2427 86.3535 19.456 86.1509 19.456C86.1295 19.456 86.0229 19.4453 85.8309 19.424C85.6389 19.392 85.4629 19.376 85.3029 19.376C84.2255 19.376 83.6869 20.3627 83.6869 22.336V25.52C83.6869 25.7227 83.6335 25.856 83.5269 25.92ZM90.455 26.16C89.9537 26.16 89.543 26.1333 89.223 26.08C88.903 26.0267 88.599 25.9253 88.311 25.776C88.023 25.616 87.799 25.3867 87.639 25.088C87.4897 24.7893 87.367 24.4 87.271 23.92C87.1857 23.44 87.143 22.848 87.143 22.144C87.143 21.3973 87.191 20.768 87.287 20.256C87.3937 19.744 87.527 19.3387 87.687 19.04C87.847 18.7413 88.071 18.512 88.359 18.352C88.6577 18.192 88.951 18.0907 89.239 18.048C89.527 17.9947 89.9003 17.968 90.359 17.968C90.871 17.968 91.2977 18.0213 91.639 18.128C91.991 18.224 92.2683 18.3627 92.471 18.544C92.6843 18.7253 92.8443 18.9813 92.951 19.312C93.0683 19.632 93.143 19.9733 93.175 20.336C93.2177 20.688 93.239 21.1413 93.239 21.696C93.239 21.9733 93.1963 22.1707 93.111 22.288C93.0257 22.4053 92.855 22.464 92.599 22.464H88.711C88.7217 23.4773 88.839 24.1227 89.063 24.4C89.287 24.6773 89.7937 24.816 90.583 24.816C90.9457 24.816 91.2977 24.7893 91.639 24.736C91.991 24.6827 92.2737 24.6347 92.487 24.592C92.7003 24.5387 92.8283 24.512 92.871 24.512C93.0417 24.512 93.127 24.72 93.127 25.136C93.127 25.36 93.095 25.52 93.031 25.616C92.9777 25.7013 92.871 25.7707 92.711 25.824C92.0923 26.048 91.3403 26.16 90.455 26.16ZM90.327 19.264C89.719 19.264 89.303 19.3973 89.079 19.664C88.8657 19.9307 88.743 20.5227 88.711 21.44H91.751C91.751 20.5867 91.671 20.0107 91.511 19.712C91.3617 19.4133 90.967 19.264 90.327 19.264ZM96.3863 25.92C96.2903 25.9733 96.0876 26 95.7783 26C95.4689 26 95.2609 25.9733 95.1543 25.92C95.0476 25.856 94.9943 25.7227 94.9943 25.52V21.184C94.9943 20.6933 94.9623 20.2507 94.8983 19.856C94.8449 19.4507 94.7863 19.136 94.7223 18.912C94.6689 18.688 94.6423 18.5493 94.6423 18.496C94.6423 18.368 94.6903 18.2773 94.7863 18.224C94.8823 18.16 95.0743 18.128 95.3623 18.128C95.6396 18.128 95.8209 18.1547 95.9062 18.208C96.0023 18.2507 96.0716 18.3627 96.1143 18.544L96.3063 19.376C96.6796 18.4373 97.5169 17.968 98.8183 17.968C99.4476 17.968 99.9223 18.0693 100.242 18.272C100.573 18.464 100.792 18.7627 100.898 19.168C101.272 18.368 102.066 17.968 103.282 17.968C104.114 17.968 104.685 18.1387 104.994 18.48C105.304 18.8107 105.458 19.3547 105.458 20.112V25.52C105.458 25.7227 105.405 25.856 105.298 25.92C105.192 25.9733 104.984 26 104.674 26C104.365 26 104.157 25.9733 104.05 25.92C103.954 25.856 103.906 25.7227 103.906 25.52V20.48C103.906 20.032 103.826 19.728 103.666 19.568C103.506 19.3973 103.192 19.312 102.722 19.312C102.05 19.312 101.592 19.5093 101.346 19.904C101.112 20.2987 100.994 20.9867 100.994 21.968V25.52C100.994 25.7227 100.941 25.856 100.834 25.92C100.738 25.9733 100.536 26 100.226 26C99.9169 26 99.7089 25.9733 99.6023 25.92C99.5063 25.856 99.4583 25.7227 99.4583 25.52V20.48C99.4583 20.032 99.3783 19.728 99.2183 19.568C99.0583 19.3973 98.7436 19.312 98.2743 19.312C97.6023 19.312 97.1436 19.5093 96.8983 19.904C96.6636 20.2987 96.5463 20.9867 96.5463 21.968V25.52C96.5463 25.7227 96.4929 25.856 96.3863 25.92ZM110.263 26.16C109.431 26.16 108.801 26.0587 108.375 25.856C107.959 25.6427 107.649 25.2533 107.447 24.688C107.255 24.112 107.159 23.2587 107.159 22.128C107.159 20.496 107.404 19.3973 107.895 18.832C108.385 18.256 109.26 17.968 110.519 17.968C111.351 17.968 111.975 18.0693 112.391 18.272C112.807 18.4747 113.111 18.8587 113.303 19.424C113.505 19.9893 113.607 20.8373 113.607 21.968C113.607 23.6107 113.361 24.72 112.871 25.296C112.38 25.872 111.511 26.16 110.263 26.16ZM110.295 24.848C111.02 24.848 111.489 24.6773 111.703 24.336C111.927 23.984 112.039 23.2427 112.039 22.112C112.039 20.8853 111.943 20.1067 111.751 19.776C111.569 19.4453 111.137 19.28 110.455 19.28C109.74 19.28 109.276 19.4507 109.063 19.792C108.849 20.1333 108.743 20.864 108.743 21.984C108.743 23.2213 108.833 24.0107 109.015 24.352C109.196 24.6827 109.623 24.848 110.295 24.848ZM116.871 25.92C116.775 25.9733 116.572 26 116.263 26C115.953 26 115.745 25.9733 115.639 25.92C115.532 25.856 115.479 25.7227 115.479 25.52V21.184C115.479 20.6933 115.447 20.2507 115.383 19.856C115.329 19.4507 115.271 19.136 115.207 18.912C115.153 18.688 115.127 18.5493 115.127 18.496C115.127 18.368 115.175 18.2773 115.271 18.224C115.367 18.16 115.559 18.128 115.847 18.128C116.124 18.128 116.305 18.1547 116.391 18.208C116.487 18.2507 116.556 18.3627 116.599 18.544L116.823 19.456C117.239 18.464 118.119 17.968 119.463 17.968C120.295 17.968 120.865 18.1387 121.175 18.48C121.484 18.8107 121.639 19.3547 121.639 20.112V25.52C121.639 25.7227 121.585 25.856 121.479 25.92C121.383 25.9733 121.18 26 120.871 26C120.561 26 120.353 25.9733 120.247 25.92C120.151 25.856 120.103 25.7227 120.103 25.52V20.48C120.103 20.032 120.023 19.728 119.863 19.568C119.703 19.3973 119.388 19.312 118.919 19.312C118.225 19.312 117.735 19.5147 117.447 19.92C117.169 20.3253 117.031 21.008 117.031 21.968V25.52C117.031 25.7227 116.977 25.856 116.871 25.92ZM122.93 18.528C122.93 18.3893 122.978 18.288 123.074 18.224C123.181 18.16 123.399 18.128 123.73 18.128C124.039 18.128 124.247 18.1547 124.354 18.208C124.461 18.2507 124.535 18.3573 124.578 18.528L126.178 24.672H126.322L127.954 18.528C127.997 18.3573 128.066 18.2507 128.162 18.208C128.269 18.1547 128.477 18.128 128.786 18.128C129.117 18.128 129.335 18.16 129.442 18.224C129.559 18.2773 129.618 18.3733 129.618 18.512C129.618 18.6827 129.543 19.008 129.394 19.488L127.218 26.656C126.93 27.6267 126.631 28.2773 126.322 28.608C126.023 28.9387 125.511 29.104 124.786 29.104C124.253 29.104 123.783 29.04 123.378 28.912C123.229 28.8693 123.122 28.8053 123.058 28.72C123.005 28.6347 122.978 28.4853 122.978 28.272C122.978 27.8453 123.074 27.632 123.266 27.632C123.287 27.632 123.442 27.6533 123.73 27.696C124.029 27.7387 124.322 27.76 124.61 27.76C124.983 27.76 125.245 27.696 125.394 27.568C125.543 27.4507 125.666 27.2053 125.762 26.832L125.97 26C125.618 25.9893 125.367 25.9307 125.218 25.824C125.079 25.7067 124.962 25.4987 124.866 25.2L123.186 19.696C123.015 19.1413 122.93 18.752 122.93 18.528ZM137.106 26.16C136.274 26.16 135.645 26.0587 135.218 25.856C134.802 25.6427 134.493 25.2533 134.29 24.688C134.098 24.112 134.002 23.2587 134.002 22.128C134.002 20.496 134.248 19.3973 134.738 18.832C135.229 18.256 136.104 17.968 137.362 17.968C138.194 17.968 138.818 18.0693 139.234 18.272C139.65 18.4747 139.954 18.8587 140.146 19.424C140.349 19.9893 140.45 20.8373 140.45 21.968C140.45 23.6107 140.205 24.72 139.714 25.296C139.224 25.872 138.354 26.16 137.106 26.16ZM137.138 24.848C137.864 24.848 138.333 24.6773 138.546 24.336C138.77 23.984 138.882 23.2427 138.882 22.112C138.882 20.8853 138.786 20.1067 138.594 19.776C138.413 19.4453 137.981 19.28 137.298 19.28C136.584 19.28 136.12 19.4507 135.906 19.792C135.693 20.1333 135.586 20.864 135.586 21.984C135.586 23.2213 135.677 24.0107 135.858 24.352C136.04 24.6827 136.466 24.848 137.138 24.848ZM141.762 19.28C141.709 19.1947 141.682 19.0293 141.682 18.784C141.682 18.5387 141.709 18.3733 141.762 18.288C141.816 18.2027 141.917 18.16 142.066 18.16H142.738V17.248C142.738 16.544 142.882 16.048 143.17 15.76C143.458 15.4613 143.917 15.312 144.546 15.312C144.952 15.312 145.346 15.36 145.73 15.456C145.89 15.4987 145.997 15.5573 146.05 15.632C146.104 15.696 146.13 15.84 146.13 16.064C146.13 16.4693 146.034 16.672 145.842 16.672C145.81 16.672 145.682 16.6613 145.458 16.64C145.245 16.608 145.053 16.592 144.882 16.592C144.605 16.592 144.424 16.6507 144.338 16.768C144.264 16.8853 144.226 17.1573 144.226 17.584V18.16H145.538C145.688 18.16 145.789 18.2027 145.842 18.288C145.896 18.3733 145.922 18.5387 145.922 18.784C145.922 19.0293 145.896 19.1947 145.842 19.28C145.789 19.3653 145.688 19.408 145.538 19.408H144.29V25.52C144.29 25.7227 144.237 25.856 144.13 25.92C144.034 25.9733 143.832 26 143.522 26C143.213 26 143.005 25.9733 142.898 25.92C142.792 25.856 142.738 25.7227 142.738 25.52V19.408H142.066C141.917 19.408 141.816 19.3653 141.762 19.28ZM21.216 42.16C20.5973 42.16 20.1547 42.0053 19.888 41.696C19.632 41.3867 19.504 40.8747 19.504 40.16V35.408H18.736C18.5867 35.408 18.4853 35.3653 18.432 35.28C18.3787 35.1947 18.352 35.0293 18.352 34.784C18.352 34.5387 18.3787 34.3733 18.432 34.288C18.4853 34.2027 18.5867 34.16 18.736 34.16H19.504V32.976C19.504 32.7733 19.5573 32.6453 19.664 32.592C19.7707 32.528 19.9787 32.496 20.288 32.496C20.5973 32.496 20.8 32.528 20.896 32.592C21.0027 32.6453 21.056 32.7733 21.056 32.976V34.16H22.416C22.5653 34.16 22.6613 34.2027 22.704 34.288C22.7573 34.3733 22.784 34.5387 22.784 34.784C22.784 35.0293 22.7573 35.1947 22.704 35.28C22.6613 35.3653 22.5653 35.408 22.416 35.408H21.056V39.856C21.056 40.2613 21.0933 40.5173 21.168 40.624C21.2427 40.7307 21.4187 40.784 21.696 40.784C21.8453 40.784 22.016 40.7733 22.208 40.752C22.4 40.72 22.512 40.704 22.544 40.704C22.6507 40.704 22.7253 40.7467 22.768 40.832C22.8213 40.9067 22.848 41.0613 22.848 41.296C22.848 41.5093 22.816 41.6587 22.752 41.744C22.688 41.8293 22.5813 41.8987 22.432 41.952C22.1013 42.0907 21.696 42.16 21.216 42.16ZM25.4599 41.92C25.3639 41.9733 25.1612 42 24.8519 42C24.5425 42 24.3345 41.9733 24.2279 41.92C24.1212 41.856 24.0679 41.7227 24.0679 41.52V32.016C24.0679 31.8133 24.1212 31.6853 24.2279 31.632C24.3345 31.568 24.5425 31.536 24.8519 31.536C25.1612 31.536 25.3639 31.568 25.4599 31.632C25.5665 31.6853 25.6199 31.8133 25.6199 32.016V35.088C26.0252 34.3413 26.8359 33.968 28.0519 33.968C28.8839 33.968 29.4545 34.1387 29.7639 34.48C30.0732 34.8107 30.2279 35.3547 30.2279 36.112V41.52C30.2279 41.7227 30.1745 41.856 30.0679 41.92C29.9719 41.9733 29.7692 42 29.4599 42C29.1505 42 28.9425 41.9733 28.8359 41.92C28.7399 41.856 28.6919 41.7227 28.6919 41.52V36.48C28.6919 36.032 28.6119 35.728 28.4519 35.568C28.2919 35.3973 27.9772 35.312 27.5079 35.312C26.8145 35.312 26.3239 35.5147 26.0359 35.92C25.7585 36.3253 25.6199 37.008 25.6199 37.968V41.52C25.6199 41.7227 25.5665 41.856 25.4599 41.92ZM35.2519 42.16C34.7505 42.16 34.3399 42.1333 34.0199 42.08C33.6999 42.0267 33.3959 41.9253 33.1079 41.776C32.8199 41.616 32.5959 41.3867 32.4359 41.088C32.2865 40.7893 32.1639 40.4 32.0679 39.92C31.9825 39.44 31.9399 38.848 31.9399 38.144C31.9399 37.3973 31.9879 36.768 32.0839 36.256C32.1905 35.744 32.3239 35.3387 32.4839 35.04C32.6439 34.7413 32.8679 34.512 33.1559 34.352C33.4545 34.192 33.7479 34.0907 34.0359 34.048C34.3239 33.9947 34.6972 33.968 35.1559 33.968C35.6679 33.968 36.0945 34.0213 36.4359 34.128C36.7879 34.224 37.0652 34.3627 37.2679 34.544C37.4812 34.7253 37.6412 34.9813 37.7479 35.312C37.8652 35.632 37.9399 35.9733 37.9719 36.336C38.0145 36.688 38.0359 37.1413 38.0359 37.696C38.0359 37.9733 37.9932 38.1707 37.9079 38.288C37.8225 38.4053 37.6519 38.464 37.3959 38.464H33.5079C33.5185 39.4773 33.6359 40.1227 33.8599 40.4C34.0839 40.6773 34.5905 40.816 35.3799 40.816C35.7425 40.816 36.0945 40.7893 36.4359 40.736C36.7879 40.6827 37.0705 40.6347 37.2839 40.592C37.4972 40.5387 37.6252 40.512 37.6679 40.512C37.8385 40.512 37.9239 40.72 37.9239 41.136C37.9239 41.36 37.8919 41.52 37.8279 41.616C37.7745 41.7013 37.6679 41.7707 37.5079 41.824C36.8892 42.048 36.1372 42.16 35.2519 42.16ZM35.1239 35.264C34.5159 35.264 34.0999 35.3973 33.8759 35.664C33.6625 35.9307 33.5399 36.5227 33.5079 37.44H36.5479C36.5479 36.5867 36.4679 36.0107 36.3079 35.712C36.1585 35.4133 35.7639 35.264 35.1239 35.264ZM46.2084 40.672L48.3044 32.544C48.3577 32.3627 48.4377 32.2453 48.5444 32.192C48.6617 32.1387 48.8857 32.112 49.2164 32.112C49.5257 32.112 49.723 32.1387 49.8084 32.192C49.9044 32.2347 49.9524 32.3253 49.9524 32.464C49.9524 32.6027 49.915 32.7893 49.8404 33.024L47.5044 41.376C47.4297 41.6427 47.307 41.8133 47.1364 41.888C46.9764 41.9627 46.6297 42 46.0964 42C45.563 42 45.2164 41.9627 45.0564 41.888C44.8964 41.8133 44.779 41.6427 44.7044 41.376L42.3524 33.024C42.2777 32.7893 42.2404 32.6027 42.2404 32.464C42.2404 32.3253 42.283 32.2347 42.3684 32.192C42.4644 32.1387 42.667 32.112 42.9764 32.112C43.3177 32.112 43.547 32.144 43.6644 32.208C43.7817 32.2613 43.8564 32.3733 43.8884 32.544L46.0004 40.672H46.2084ZM51.9151 42C51.5951 42 51.3818 41.9733 51.2751 41.92C51.1791 41.856 51.1311 41.7227 51.1311 41.52V32.592C51.1311 32.3893 51.1791 32.2613 51.2751 32.208C51.3818 32.144 51.5951 32.112 51.9151 32.112C52.2245 32.112 52.4271 32.144 52.5231 32.208C52.6298 32.272 52.6831 32.4 52.6831 32.592V41.52C52.6831 41.712 52.6298 41.84 52.5231 41.904C52.4271 41.968 52.2245 42 51.9151 42ZM55.3214 42C55.0014 42 54.788 41.9733 54.6814 41.92C54.5854 41.856 54.5374 41.7227 54.5374 41.52V32.592C54.5374 32.3893 54.5854 32.2613 54.6814 32.208C54.788 32.144 55.0014 32.112 55.3214 32.112C55.6307 32.112 55.8334 32.144 55.9294 32.208C56.036 32.272 56.0894 32.4 56.0894 32.592V41.52C56.0894 41.712 56.036 41.84 55.9294 41.904C55.8334 41.968 55.6307 42 55.3214 42ZM63.7049 42.128C62.8089 42.128 62.0302 42.032 61.3689 41.84C61.2089 41.7867 61.0969 41.712 61.0329 41.616C60.9689 41.5093 60.9369 41.3333 60.9369 41.088C60.9369 40.832 60.9582 40.6667 61.0009 40.592C61.0435 40.5067 61.1235 40.464 61.2409 40.464C61.2622 40.464 61.5129 40.512 61.9929 40.608C62.4835 40.6933 62.9689 40.736 63.4489 40.736C64.1635 40.736 64.6755 40.6293 64.9849 40.416C65.3049 40.2027 65.4649 39.8347 65.4649 39.312C65.4649 38.9173 65.4115 38.6293 65.3049 38.448C65.1982 38.256 64.9902 38.0907 64.6809 37.952L62.6969 37.056C62.1315 36.8 61.7315 36.5067 61.4969 36.176C61.2622 35.8453 61.1449 35.3333 61.1449 34.64C61.1449 34.1067 61.2142 33.6587 61.3529 33.296C61.5022 32.9333 61.7155 32.6667 61.9929 32.496C62.2702 32.3147 62.5582 32.192 62.8569 32.128C63.1555 32.064 63.5022 32.032 63.8969 32.032C64.8142 32.032 65.6355 32.1387 66.3609 32.352C66.4889 32.384 66.5795 32.448 66.6329 32.544C66.6969 32.64 66.7289 32.816 66.7289 33.072C66.7289 33.3173 66.7075 33.4827 66.6649 33.568C66.6222 33.6533 66.5475 33.696 66.4409 33.696C66.3982 33.696 66.2702 33.6747 66.0569 33.632C65.8542 33.5787 65.5875 33.5307 65.2569 33.488C64.9262 33.4453 64.5955 33.424 64.2649 33.424C63.6462 33.424 63.2249 33.4987 63.0009 33.648C62.7769 33.7867 62.6649 34.1173 62.6649 34.64C62.6649 34.9707 62.7235 35.216 62.8409 35.376C62.9582 35.5253 63.1769 35.6693 63.4969 35.808L65.4649 36.688C66.0302 36.9333 66.4249 37.2427 66.6489 37.616C66.8729 37.9787 66.9849 38.512 66.9849 39.216C66.9849 41.1573 65.8915 42.128 63.7049 42.128ZM70.105 44.912C70.009 44.976 69.8063 45.008 69.497 45.008C69.1877 45.008 68.9797 44.976 68.873 44.912C68.7663 44.8587 68.713 44.7307 68.713 44.528V37.184C68.713 36.6933 68.681 36.2507 68.617 35.856C68.5637 35.4507 68.505 35.136 68.441 34.912C68.3877 34.688 68.361 34.5493 68.361 34.496C68.361 34.368 68.409 34.2773 68.505 34.224C68.601 34.16 68.793 34.128 69.081 34.128C69.3583 34.128 69.5397 34.1547 69.625 34.208C69.721 34.2507 69.7903 34.3627 69.833 34.544L70.025 35.328C70.4623 34.4213 71.3157 33.968 72.585 33.968C73.6623 33.968 74.377 34.24 74.729 34.784C75.081 35.328 75.257 36.4 75.257 38C75.257 39.152 75.145 40.0373 74.921 40.656C74.697 41.264 74.3823 41.6693 73.977 41.872C73.5823 42.064 73.0223 42.16 72.297 42.16C71.273 42.16 70.5957 41.872 70.265 41.296V44.528C70.265 44.7307 70.2117 44.8587 70.105 44.912ZM71.977 40.848C72.457 40.848 72.809 40.7787 73.033 40.64C73.257 40.5013 73.417 40.2347 73.513 39.84C73.6197 39.4347 73.673 38.8107 73.673 37.968C73.673 36.8373 73.577 36.1067 73.385 35.776C73.2037 35.4453 72.793 35.28 72.153 35.28C71.4703 35.28 70.9797 35.4453 70.681 35.776C70.3823 36.096 70.233 36.736 70.233 37.696V38.576C70.233 39.4613 70.345 40.064 70.569 40.384C70.8037 40.6933 71.273 40.848 71.977 40.848ZM79.9033 42.16C79.0713 42.16 78.4419 42.0587 78.0153 41.856C77.5993 41.6427 77.2899 41.2533 77.0872 40.688C76.8953 40.112 76.7993 39.2587 76.7993 38.128C76.7993 36.496 77.0446 35.3973 77.5353 34.832C78.0259 34.256 78.9006 33.968 80.1593 33.968C80.9913 33.968 81.6153 34.0693 82.0313 34.272C82.4473 34.4747 82.7513 34.8587 82.9433 35.424C83.1459 35.9893 83.2473 36.8373 83.2473 37.968C83.2473 39.6107 83.0019 40.72 82.5113 41.296C82.0206 41.872 81.1513 42.16 79.9033 42.16ZM79.9353 40.848C80.6606 40.848 81.1299 40.6773 81.3433 40.336C81.5673 39.984 81.6793 39.2427 81.6793 38.112C81.6793 36.8853 81.5833 36.1067 81.3913 35.776C81.2099 35.4453 80.7779 35.28 80.0953 35.28C79.3806 35.28 78.9166 35.4507 78.7033 35.792C78.4899 36.1333 78.3832 36.864 78.3832 37.984C78.3832 39.2213 78.4739 40.0107 78.6553 40.352C78.8366 40.6827 79.2633 40.848 79.9353 40.848ZM86.5113 41.92C86.4153 41.9733 86.2126 42 85.9033 42C85.5939 42 85.3859 41.9733 85.2793 41.92C85.1726 41.856 85.1193 41.7227 85.1193 41.52V37.184C85.1193 36.6933 85.0873 36.2507 85.0233 35.856C84.9699 35.4507 84.9113 35.136 84.8473 34.912C84.7939 34.688 84.7673 34.5493 84.7673 34.496C84.7673 34.368 84.8153 34.2773 84.9113 34.224C85.0073 34.16 85.1993 34.128 85.4873 34.128C85.7646 34.128 85.9459 34.1547 86.0312 34.208C86.1273 34.2507 86.1966 34.3627 86.2393 34.544L86.4473 35.36C86.8419 34.4533 87.4979 34 88.4153 34C88.6713 34 88.9113 34.032 89.1353 34.096C89.2526 34.1387 89.3326 34.208 89.3753 34.304C89.4179 34.4 89.4393 34.5707 89.4393 34.816C89.4393 35.2427 89.3379 35.456 89.1353 35.456C89.1139 35.456 89.0073 35.4453 88.8153 35.424C88.6233 35.392 88.4473 35.376 88.2873 35.376C87.2099 35.376 86.6713 36.3627 86.6713 38.336V41.52C86.6713 41.7227 86.6179 41.856 86.5113 41.92ZM92.8098 42.16C92.1911 42.16 91.7484 42.0053 91.4818 41.696C91.2258 41.3867 91.0978 40.8747 91.0978 40.16V35.408H90.3298C90.1804 35.408 90.0791 35.3653 90.0258 35.28C89.9724 35.1947 89.9458 35.0293 89.9458 34.784C89.9458 34.5387 89.9724 34.3733 90.0258 34.288C90.0791 34.2027 90.1804 34.16 90.3298 34.16H91.0978V32.976C91.0978 32.7733 91.1511 32.6453 91.2578 32.592C91.3644 32.528 91.5724 32.496 91.8818 32.496C92.1911 32.496 92.3938 32.528 92.4898 32.592C92.5964 32.6453 92.6498 32.7733 92.6498 32.976V34.16H94.0098C94.1591 34.16 94.2551 34.2027 94.2977 34.288C94.3511 34.3733 94.3778 34.5387 94.3778 34.784C94.3778 35.0293 94.3511 35.1947 94.2977 35.28C94.2551 35.3653 94.1591 35.408 94.0098 35.408H92.6498V39.856C92.6498 40.2613 92.6871 40.5173 92.7618 40.624C92.8364 40.7307 93.0124 40.784 93.2898 40.784C93.4391 40.784 93.6098 40.7733 93.8018 40.752C93.9938 40.72 94.1058 40.704 94.1378 40.704C94.2444 40.704 94.3191 40.7467 94.3618 40.832C94.4151 40.9067 94.4418 41.0613 94.4418 41.296C94.4418 41.5093 94.4098 41.6587 94.3458 41.744C94.2818 41.8293 94.1751 41.8987 94.0258 41.952C93.6951 42.0907 93.2898 42.16 92.8098 42.16ZM97.9656 42.16C97.1656 42.16 96.4616 42.064 95.8536 41.872C95.6936 41.8187 95.5816 41.7493 95.5176 41.664C95.4643 41.568 95.4376 41.408 95.4376 41.184C95.4376 40.7573 95.523 40.544 95.6936 40.544C95.7043 40.544 95.955 40.592 96.4456 40.688C96.947 40.7733 97.4056 40.816 97.8216 40.816C98.419 40.816 98.835 40.7307 99.0696 40.56C99.315 40.3787 99.4376 40.096 99.4376 39.712C99.4376 39.4987 99.395 39.3333 99.3096 39.216C99.2243 39.0987 99.0803 38.9973 98.8776 38.912L96.8296 38.048C96.0616 37.7067 95.6776 37.0613 95.6776 36.112C95.6776 34.6827 96.5363 33.968 98.2536 33.968C99.011 33.968 99.7363 34.0587 100.43 34.24C100.59 34.2827 100.696 34.352 100.75 34.448C100.803 34.5333 100.83 34.7093 100.83 34.976C100.83 35.1467 100.814 35.28 100.782 35.376C100.75 35.472 100.718 35.5307 100.686 35.552C100.654 35.5627 100.606 35.568 100.542 35.568C100.531 35.568 100.28 35.52 99.7896 35.424C99.299 35.328 98.867 35.28 98.4936 35.28C98.0243 35.28 97.699 35.3493 97.5176 35.488C97.3363 35.616 97.2456 35.8293 97.2456 36.128C97.2456 36.352 97.283 36.528 97.3576 36.656C97.443 36.7733 97.5923 36.88 97.8056 36.976L99.8056 37.776C100.254 37.9573 100.563 38.192 100.734 38.48C100.915 38.768 101.006 39.152 101.006 39.632C101.006 41.3173 99.9923 42.16 97.9656 42.16ZM108.969 42.128C108.595 42.128 108.281 42.112 108.025 42.08C107.779 42.0587 107.518 42 107.241 41.904C106.963 41.808 106.734 41.664 106.553 41.472C106.382 41.28 106.222 41.0293 106.073 40.72C105.923 40.4107 105.811 40.016 105.737 39.536C105.673 39.0453 105.641 38.4693 105.641 37.808V36.512C105.641 35.8293 105.673 35.2373 105.737 34.736C105.811 34.2347 105.923 33.824 106.073 33.504C106.222 33.1733 106.382 32.912 106.553 32.72C106.734 32.5173 106.969 32.368 107.257 32.272C107.555 32.176 107.833 32.112 108.089 32.08C108.355 32.048 108.686 32.032 109.081 32.032C109.902 32.032 110.691 32.1333 111.449 32.336C111.598 32.3787 111.699 32.4427 111.753 32.528C111.806 32.6133 111.833 32.7947 111.833 33.072C111.833 33.4773 111.742 33.68 111.561 33.68C111.55 33.68 111.289 33.6373 110.777 33.552C110.265 33.456 109.801 33.408 109.385 33.408C109.011 33.408 108.718 33.4293 108.505 33.472C108.291 33.504 108.083 33.5787 107.881 33.696C107.689 33.8027 107.55 33.9787 107.465 34.224C107.379 34.4693 107.31 34.784 107.257 35.168C107.214 35.552 107.193 36.048 107.193 36.656V37.488C107.193 38.1067 107.219 38.6187 107.273 39.024C107.326 39.4187 107.39 39.7333 107.465 39.968C107.55 40.2027 107.683 40.3787 107.865 40.496C108.046 40.6133 108.222 40.688 108.393 40.72C108.574 40.7413 108.819 40.752 109.129 40.752C109.737 40.752 110.158 40.6347 110.393 40.4C110.627 40.1547 110.745 39.6587 110.745 38.912V37.904H109.385C109.235 37.904 109.134 37.8613 109.081 37.776C109.027 37.68 109.001 37.488 109.001 37.2C109.001 36.944 109.027 36.7787 109.081 36.704C109.134 36.6187 109.235 36.576 109.385 36.576H111.529C111.785 36.576 111.95 36.608 112.025 36.672C112.099 36.736 112.137 36.848 112.137 37.008V39.2C112.137 40.3093 111.897 41.0773 111.417 41.504C110.937 41.92 110.121 42.128 108.969 42.128ZM115.531 42.16C114.817 42.16 114.294 41.984 113.963 41.632C113.633 41.2693 113.467 40.6827 113.467 39.872C113.467 39.04 113.686 38.448 114.123 38.096C114.561 37.7333 115.329 37.552 116.427 37.552H118.011V36.512C118.011 35.9893 117.91 35.6587 117.707 35.52C117.515 35.3707 117.147 35.296 116.603 35.296C116.123 35.296 115.611 35.344 115.067 35.44C114.534 35.536 114.257 35.584 114.235 35.584C114.043 35.584 113.947 35.376 113.947 34.96C113.947 34.736 113.974 34.5813 114.027 34.496C114.081 34.4 114.171 34.3307 114.299 34.288C115.003 34.0747 115.825 33.968 116.763 33.968C117.777 33.968 118.491 34.112 118.907 34.4C119.334 34.688 119.547 35.2747 119.547 36.16V38.944C119.547 39.4347 119.574 39.8827 119.627 40.288C119.681 40.6827 119.734 40.992 119.787 41.216C119.851 41.44 119.883 41.5787 119.883 41.632C119.883 41.76 119.835 41.856 119.739 41.92C119.643 41.9733 119.451 42 119.163 42C118.897 42 118.715 41.9787 118.619 41.936C118.534 41.8827 118.47 41.7653 118.427 41.584L118.171 40.624C117.723 41.648 116.843 42.16 115.531 42.16ZM116.043 40.88C116.598 40.88 117.062 40.7253 117.435 40.416C117.819 40.096 118.011 39.6427 118.011 39.056V38.528L116.395 38.576C115.819 38.5973 115.435 38.688 115.243 38.848C115.051 38.9973 114.955 39.2853 114.955 39.712C114.955 40.192 115.035 40.5067 115.195 40.656C115.355 40.8053 115.638 40.88 116.043 40.88ZM123.121 41.92C123.025 41.9733 122.822 42 122.513 42C122.203 42 121.995 41.9733 121.889 41.92C121.782 41.856 121.729 41.7227 121.729 41.52V37.184C121.729 36.6933 121.697 36.2507 121.633 35.856C121.579 35.4507 121.521 35.136 121.457 34.912C121.403 34.688 121.377 34.5493 121.377 34.496C121.377 34.368 121.425 34.2773 121.521 34.224C121.617 34.16 121.809 34.128 122.097 34.128C122.374 34.128 122.555 34.1547 122.641 34.208C122.737 34.2507 122.806 34.3627 122.849 34.544L123.041 35.376C123.414 34.4373 124.251 33.968 125.553 33.968C126.182 33.968 126.657 34.0693 126.977 34.272C127.307 34.464 127.526 34.7627 127.633 35.168C128.006 34.368 128.801 33.968 130.017 33.968C130.849 33.968 131.419 34.1387 131.729 34.48C132.038 34.8107 132.193 35.3547 132.193 36.112V41.52C132.193 41.7227 132.139 41.856 132.033 41.92C131.926 41.9733 131.718 42 131.409 42C131.099 42 130.891 41.9733 130.785 41.92C130.689 41.856 130.641 41.7227 130.641 41.52V36.48C130.641 36.032 130.561 35.728 130.401 35.568C130.241 35.3973 129.926 35.312 129.457 35.312C128.785 35.312 128.326 35.5093 128.081 35.904C127.846 36.2987 127.729 36.9867 127.729 37.968V41.52C127.729 41.7227 127.675 41.856 127.569 41.92C127.473 41.9733 127.27 42 126.961 42C126.651 42 126.443 41.9733 126.337 41.92C126.241 41.856 126.193 41.7227 126.193 41.52V36.48C126.193 36.032 126.113 35.728 125.953 35.568C125.793 35.3973 125.478 35.312 125.009 35.312C124.337 35.312 123.878 35.5093 123.633 35.904C123.398 36.2987 123.281 36.9867 123.281 37.968V41.52C123.281 41.7227 123.227 41.856 123.121 41.92ZM137.205 42.16C136.704 42.16 136.293 42.1333 135.973 42.08C135.653 42.0267 135.349 41.9253 135.061 41.776C134.773 41.616 134.549 41.3867 134.389 41.088C134.24 40.7893 134.117 40.4 134.021 39.92C133.936 39.44 133.893 38.848 133.893 38.144C133.893 37.3973 133.941 36.768 134.037 36.256C134.144 35.744 134.277 35.3387 134.437 35.04C134.597 34.7413 134.821 34.512 135.109 34.352C135.408 34.192 135.701 34.0907 135.989 34.048C136.277 33.9947 136.65 33.968 137.109 33.968C137.621 33.968 138.048 34.0213 138.389 34.128C138.741 34.224 139.018 34.3627 139.221 34.544C139.434 34.7253 139.594 34.9813 139.701 35.312C139.818 35.632 139.893 35.9733 139.925 36.336C139.968 36.688 139.989 37.1413 139.989 37.696C139.989 37.9733 139.946 38.1707 139.861 38.288C139.776 38.4053 139.605 38.464 139.349 38.464H135.461C135.472 39.4773 135.589 40.1227 135.813 40.4C136.037 40.6773 136.544 40.816 137.333 40.816C137.696 40.816 138.048 40.7893 138.389 40.736C138.741 40.6827 139.024 40.6347 139.237 40.592C139.45 40.5387 139.578 40.512 139.621 40.512C139.792 40.512 139.877 40.72 139.877 41.136C139.877 41.36 139.845 41.52 139.781 41.616C139.728 41.7013 139.621 41.7707 139.461 41.824C138.842 42.048 138.09 42.16 137.205 42.16ZM137.077 35.264C136.469 35.264 136.053 35.3973 135.829 35.664C135.616 35.9307 135.493 36.5227 135.461 37.44H138.501C138.501 36.5867 138.421 36.0107 138.261 35.712C138.112 35.4133 137.717 35.264 137.077 35.264ZM143.856 42.16C143.056 42.16 142.352 42.064 141.744 41.872C141.584 41.8187 141.472 41.7493 141.408 41.664C141.355 41.568 141.328 41.408 141.328 41.184C141.328 40.7573 141.414 40.544 141.584 40.544C141.595 40.544 141.846 40.592 142.336 40.688C142.838 40.7733 143.296 40.816 143.712 40.816C144.31 40.816 144.726 40.7307 144.96 40.56C145.206 40.3787 145.328 40.096 145.328 39.712C145.328 39.4987 145.286 39.3333 145.2 39.216C145.115 39.0987 144.971 38.9973 144.768 38.912L142.72 38.048C141.952 37.7067 141.568 37.0613 141.568 36.112C141.568 34.6827 142.427 33.968 144.144 33.968C144.902 33.968 145.627 34.0587 146.32 34.24C146.48 34.2827 146.587 34.352 146.64 34.448C146.694 34.5333 146.72 34.7093 146.72 34.976C146.72 35.1467 146.704 35.28 146.672 35.376C146.64 35.472 146.608 35.5307 146.576 35.552C146.544 35.5627 146.496 35.568 146.432 35.568C146.422 35.568 146.171 35.52 145.68 35.424C145.19 35.328 144.758 35.28 144.384 35.28C143.915 35.28 143.59 35.3493 143.408 35.488C143.227 35.616 143.136 35.8293 143.136 36.128C143.136 36.352 143.174 36.528 143.248 36.656C143.334 36.7733 143.483 36.88 143.696 36.976L145.696 37.776C146.144 37.9573 146.454 38.192 146.624 38.48C146.806 38.768 146.896 39.152 146.896 39.632C146.896 41.3173 145.883 42.16 143.856 42.16ZM19.44 51.296C19.1093 51.296 18.8907 51.2587 18.784 51.184C18.688 51.1093 18.64 50.9547 18.64 50.72V50.288C18.64 49.9253 18.72 49.4773 18.88 48.944L19.136 48.08C19.2213 47.856 19.312 47.712 19.408 47.648C19.5147 47.5733 19.7013 47.536 19.968 47.536C20.16 47.536 20.288 47.5573 20.352 47.6C20.416 47.6427 20.448 47.7173 20.448 47.824C20.448 47.888 20.4107 48.1653 20.336 48.656C20.272 49.136 20.24 49.5253 20.24 49.824V50.72C20.24 50.9547 20.192 51.1093 20.096 51.184C20 51.2587 19.7813 51.296 19.44 51.296ZM21.984 51.296C21.6533 51.296 21.44 51.2587 21.344 51.184C21.248 51.1093 21.2 50.9547 21.2 50.72V50.288C21.2 49.9253 21.28 49.4773 21.44 48.944L21.696 48.08C21.7813 47.856 21.872 47.712 21.968 47.648C22.064 47.5733 22.2453 47.536 22.512 47.536C22.704 47.536 22.832 47.5573 22.896 47.6C22.96 47.6427 22.992 47.7173 22.992 47.824C22.992 47.888 22.9547 48.1653 22.88 48.656C22.816 49.136 22.784 49.5253 22.784 49.824V50.72C22.784 50.9547 22.736 51.1093 22.64 51.184C22.544 51.2587 22.3253 51.296 21.984 51.296ZM27.7675 58.128C27.3088 58.128 26.9355 58.1067 26.6475 58.064C26.3595 58.0213 26.0555 57.92 25.7355 57.76C25.4262 57.6 25.1808 57.3707 24.9995 57.072C24.8288 56.7733 24.6848 56.352 24.5675 55.808C24.4608 55.264 24.4075 54.5973 24.4075 53.808V52.512C24.4075 51.7013 24.4608 51.0187 24.5675 50.464C24.6848 49.8987 24.8288 49.456 24.9995 49.136C25.1808 48.816 25.4262 48.576 25.7355 48.416C26.0555 48.2453 26.3648 48.1387 26.6635 48.096C26.9622 48.0533 27.3462 48.032 27.8155 48.032C28.5302 48.032 29.2662 48.1333 30.0235 48.336C30.1728 48.3787 30.2742 48.4427 30.3275 48.528C30.3808 48.6133 30.4075 48.7947 30.4075 49.072C30.4075 49.4773 30.3168 49.68 30.1355 49.68L29.4475 49.552C28.9995 49.456 28.5675 49.408 28.1515 49.408C27.6715 49.408 27.3088 49.4347 27.0635 49.488C26.8288 49.5413 26.6155 49.6853 26.4235 49.92C26.2315 50.144 26.1035 50.4693 26.0395 50.896C25.9862 51.312 25.9595 51.8987 25.9595 52.656V53.488C25.9595 54.0107 25.9702 54.4533 25.9915 54.816C26.0235 55.168 26.0822 55.4667 26.1675 55.712C26.2528 55.9573 26.3382 56.1493 26.4235 56.288C26.5195 56.416 26.6635 56.5173 26.8555 56.592C27.0475 56.6667 27.2342 56.7147 27.4155 56.736C27.5968 56.7467 27.8422 56.752 28.1515 56.752C28.5888 56.752 29.0262 56.7093 29.4635 56.624C29.9008 56.528 30.1248 56.48 30.1355 56.48C30.2422 56.48 30.3115 56.5227 30.3435 56.608C30.3862 56.6827 30.4075 56.848 30.4075 57.104C30.4075 57.36 30.3808 57.536 30.3275 57.632C30.2742 57.7173 30.1728 57.7813 30.0235 57.824C29.3302 58.0267 28.5782 58.128 27.7675 58.128ZM33.2099 57.92C33.1139 57.9733 32.9112 58 32.6019 58C32.2925 58 32.0845 57.9733 31.9779 57.92C31.8712 57.856 31.8179 57.7227 31.8179 57.52V48.016C31.8179 47.8133 31.8712 47.6853 31.9779 47.632C32.0845 47.568 32.2925 47.536 32.6019 47.536C32.9112 47.536 33.1139 47.568 33.2099 47.632C33.3165 47.6853 33.3699 47.8133 33.3699 48.016V51.088C33.7752 50.3413 34.5859 49.968 35.8019 49.968C36.6339 49.968 37.2045 50.1387 37.5139 50.48C37.8232 50.8107 37.9779 51.3547 37.9779 52.112V57.52C37.9779 57.7227 37.9245 57.856 37.8179 57.92C37.7219 57.9733 37.5192 58 37.2099 58C36.9005 58 36.6925 57.9733 36.5859 57.92C36.4899 57.856 36.4419 57.7227 36.4419 57.52V52.48C36.4419 52.032 36.3619 51.728 36.2019 51.568C36.0419 51.3973 35.7272 51.312 35.2579 51.312C34.5645 51.312 34.0739 51.5147 33.7859 51.92C33.5085 52.3253 33.3699 53.008 33.3699 53.968V57.52C33.3699 57.7227 33.3165 57.856 33.2099 57.92ZM41.2099 57.92C41.1139 57.9733 40.9112 58 40.6019 58C40.2925 58 40.0845 57.9733 39.9779 57.92C39.8712 57.856 39.8179 57.7227 39.8179 57.52V50.608C39.8179 50.4053 39.8712 50.2773 39.9779 50.224C40.0845 50.16 40.2925 50.128 40.6019 50.128C40.9112 50.128 41.1139 50.16 41.2099 50.224C41.3165 50.2773 41.3699 50.4053 41.3699 50.608V57.52C41.3699 57.7227 41.3165 57.856 41.2099 57.92ZM40.6019 49.008C40.2285 49.008 39.9885 48.9707 39.8819 48.896C39.7859 48.8213 39.7379 48.6613 39.7379 48.416V48.112C39.7379 47.8773 39.7859 47.7227 39.8819 47.648C39.9885 47.5733 40.2285 47.536 40.6019 47.536C40.9645 47.536 41.1939 47.5733 41.2899 47.648C41.3965 47.7227 41.4499 47.8773 41.4499 48.112V48.416C41.4499 48.6613 41.3965 48.8213 41.2899 48.896C41.1939 48.9707 40.9645 49.008 40.6019 49.008ZM44.6318 57.92C44.5358 57.9733 44.3331 58 44.0238 58C43.7144 58 43.5064 57.9733 43.3997 57.92C43.2931 57.856 43.2398 57.7227 43.2398 57.52V48.016C43.2398 47.8133 43.2931 47.6853 43.3997 47.632C43.5064 47.568 43.7144 47.536 44.0238 47.536C44.3331 47.536 44.5358 47.568 44.6318 47.632C44.7384 47.6853 44.7918 47.8133 44.7918 48.016V57.52C44.7918 57.7227 44.7384 57.856 44.6318 57.92ZM49.1748 58.16C48.0974 58.16 47.3774 57.888 47.0148 57.344C46.6628 56.8 46.4868 55.728 46.4868 54.128C46.4868 52.976 46.5988 52.096 46.8228 51.488C47.0468 50.8693 47.3561 50.464 47.7508 50.272C48.1561 50.0693 48.7214 49.968 49.4468 49.968C50.4814 49.968 51.1588 50.272 51.4788 50.88V48.016C51.4788 47.8133 51.5321 47.6853 51.6388 47.632C51.7454 47.568 51.9534 47.536 52.2628 47.536C52.5721 47.536 52.7748 47.568 52.8708 47.632C52.9774 47.6853 53.0308 47.8133 53.0308 48.016V54.944C53.0308 55.4347 53.0574 55.8827 53.1108 56.288C53.1748 56.6827 53.2334 56.992 53.2868 57.216C53.3508 57.44 53.3828 57.5787 53.3828 57.632C53.3828 57.76 53.3348 57.856 53.2388 57.92C53.1428 57.9733 52.9508 58 52.6628 58C52.3854 58 52.2041 57.9787 52.1188 57.936C52.0334 57.8827 51.9641 57.7653 51.9108 57.584L51.7028 56.8C51.3188 57.7067 50.4761 58.16 49.1748 58.16ZM49.6068 56.848C50.2894 56.848 50.7748 56.6987 51.0628 56.4C51.3614 56.1013 51.5108 55.504 51.5108 54.608V53.552C51.5108 52.6667 51.3934 52.0693 51.1588 51.76C50.9348 51.44 50.4761 51.28 49.7828 51.28C49.0788 51.28 48.6148 51.456 48.3908 51.808C48.1774 52.1493 48.0707 52.9333 48.0707 54.16C48.0707 55.2907 48.1668 56.0213 48.3588 56.352C48.5508 56.6827 48.9668 56.848 49.6068 56.848ZM56.4956 57.92C56.3996 57.9733 56.197 58 55.8876 58C55.5783 58 55.3703 57.9733 55.2636 57.92C55.157 57.856 55.1036 57.7227 55.1036 57.52V53.184C55.1036 52.6933 55.0716 52.2507 55.0076 51.856C54.9543 51.4507 54.8956 51.136 54.8316 50.912C54.7783 50.688 54.7516 50.5493 54.7516 50.496C54.7516 50.368 54.7996 50.2773 54.8956 50.224C54.9916 50.16 55.1836 50.128 55.4716 50.128C55.749 50.128 55.9303 50.1547 56.0156 50.208C56.1116 50.2507 56.181 50.3627 56.2236 50.544L56.4316 51.36C56.8263 50.4533 57.4823 50 58.3996 50C58.6556 50 58.8956 50.032 59.1196 50.096C59.237 50.1387 59.317 50.208 59.3596 50.304C59.4023 50.4 59.4236 50.5707 59.4236 50.816C59.4236 51.2427 59.3223 51.456 59.1196 51.456C59.0983 51.456 58.9916 51.4453 58.7996 51.424C58.6076 51.392 58.4316 51.376 58.2716 51.376C57.1943 51.376 56.6556 52.3627 56.6556 54.336V57.52C56.6556 57.7227 56.6023 57.856 56.4956 57.92ZM63.4238 58.16C62.9224 58.16 62.5118 58.1333 62.1918 58.08C61.8718 58.0267 61.5678 57.9253 61.2798 57.776C60.9918 57.616 60.7678 57.3867 60.6078 57.088C60.4584 56.7893 60.3358 56.4 60.2398 55.92C60.1544 55.44 60.1118 54.848 60.1118 54.144C60.1118 53.3973 60.1598 52.768 60.2558 52.256C60.3624 51.744 60.4958 51.3387 60.6558 51.04C60.8158 50.7413 61.0398 50.512 61.3278 50.352C61.6264 50.192 61.9198 50.0907 62.2078 50.048C62.4958 49.9947 62.8691 49.968 63.3278 49.968C63.8398 49.968 64.2664 50.0213 64.6078 50.128C64.9598 50.224 65.2371 50.3627 65.4398 50.544C65.6531 50.7253 65.8131 50.9813 65.9198 51.312C66.0371 51.632 66.1118 51.9733 66.1438 52.336C66.1864 52.688 66.2078 53.1413 66.2078 53.696C66.2078 53.9733 66.1651 54.1707 66.0798 54.288C65.9944 54.4053 65.8238 54.464 65.5678 54.464H61.6798C61.6904 55.4773 61.8078 56.1227 62.0318 56.4C62.2558 56.6773 62.7624 56.816 63.5518 56.816C63.9144 56.816 64.2664 56.7893 64.6078 56.736C64.9598 56.6827 65.2424 56.6347 65.4558 56.592C65.6691 56.5387 65.7971 56.512 65.8398 56.512C66.0104 56.512 66.0958 56.72 66.0958 57.136C66.0958 57.36 66.0638 57.52 65.9998 57.616C65.9464 57.7013 65.8398 57.7707 65.6798 57.824C65.0611 58.048 64.3091 58.16 63.4238 58.16ZM63.2958 51.264C62.6878 51.264 62.2718 51.3973 62.0478 51.664C61.8344 51.9307 61.7118 52.5227 61.6798 53.44H64.7198C64.7198 52.5867 64.6398 52.0107 64.4798 51.712C64.3304 51.4133 63.9358 51.264 63.2958 51.264ZM69.355 57.92C69.259 57.9733 69.0563 58 68.747 58C68.4377 58 68.2297 57.9733 68.123 57.92C68.0163 57.856 67.963 57.7227 67.963 57.52V53.184C67.963 52.6933 67.931 52.2507 67.867 51.856C67.8137 51.4507 67.755 51.136 67.691 50.912C67.6377 50.688 67.611 50.5493 67.611 50.496C67.611 50.368 67.659 50.2773 67.755 50.224C67.851 50.16 68.043 50.128 68.331 50.128C68.6083 50.128 68.7897 50.1547 68.875 50.208C68.971 50.2507 69.0403 50.3627 69.083 50.544L69.307 51.456C69.723 50.464 70.603 49.968 71.947 49.968C72.779 49.968 73.3497 50.1387 73.659 50.48C73.9683 50.8107 74.123 51.3547 74.123 52.112V57.52C74.123 57.7227 74.0697 57.856 73.963 57.92C73.867 57.9733 73.6643 58 73.355 58C73.0457 58 72.8377 57.9733 72.731 57.92C72.635 57.856 72.587 57.7227 72.587 57.52V52.48C72.587 52.032 72.507 51.728 72.347 51.568C72.187 51.3973 71.8723 51.312 71.403 51.312C70.7097 51.312 70.219 51.5147 69.931 51.92C69.6537 52.3253 69.515 53.008 69.515 53.968V57.52C69.515 57.7227 69.4617 57.856 69.355 57.92ZM82.2158 58.16C81.3838 58.16 80.7544 58.0587 80.3278 57.856C79.9118 57.6427 79.6024 57.2533 79.3997 56.688C79.2078 56.112 79.1118 55.2587 79.1118 54.128C79.1118 52.496 79.3571 51.3973 79.8478 50.832C80.3384 50.256 81.2131 49.968 82.4718 49.968C83.3038 49.968 83.9278 50.0693 84.3438 50.272C84.7598 50.4747 85.0638 50.8587 85.2558 51.424C85.4584 51.9893 85.5598 52.8373 85.5598 53.968C85.5598 55.6107 85.3144 56.72 84.8238 57.296C84.3331 57.872 83.4638 58.16 82.2158 58.16ZM82.2478 56.848C82.9731 56.848 83.4424 56.6773 83.6558 56.336C83.8798 55.984 83.9918 55.2427 83.9918 54.112C83.9918 52.8853 83.8958 52.1067 83.7038 51.776C83.5224 51.4453 83.0904 51.28 82.4078 51.28C81.6931 51.28 81.2291 51.4507 81.0158 51.792C80.8024 52.1333 80.6957 52.864 80.6957 53.984C80.6957 55.2213 80.7864 56.0107 80.9678 56.352C81.1491 56.6827 81.5758 56.848 82.2478 56.848ZM86.8717 51.28C86.8184 51.1947 86.7918 51.0293 86.7918 50.784C86.7918 50.5387 86.8184 50.3733 86.8717 50.288C86.9251 50.2027 87.0264 50.16 87.1758 50.16H87.8478V49.248C87.8478 48.544 87.9918 48.048 88.2798 47.76C88.5678 47.4613 89.0264 47.312 89.6558 47.312C90.0611 47.312 90.4558 47.36 90.8398 47.456C90.9998 47.4987 91.1064 47.5573 91.1598 47.632C91.2131 47.696 91.2398 47.84 91.2398 48.064C91.2398 48.4693 91.1438 48.672 90.9518 48.672C90.9198 48.672 90.7918 48.6613 90.5677 48.64C90.3544 48.608 90.1624 48.592 89.9918 48.592C89.7144 48.592 89.5331 48.6507 89.4478 48.768C89.3731 48.8853 89.3358 49.1573 89.3358 49.584V50.16H90.6478C90.7971 50.16 90.8984 50.2027 90.9518 50.288C91.0051 50.3733 91.0318 50.5387 91.0318 50.784C91.0318 51.0293 91.0051 51.1947 90.9518 51.28C90.8984 51.3653 90.7971 51.408 90.6478 51.408H89.3998V57.52C89.3998 57.7227 89.3464 57.856 89.2398 57.92C89.1438 57.9733 88.9411 58 88.6318 58C88.3224 58 88.1144 57.9733 88.0078 57.92C87.9011 57.856 87.8478 57.7227 87.8478 57.52V51.408H87.1758C87.0264 51.408 86.9251 51.3653 86.8717 51.28ZM95.6326 58C95.334 58 95.1366 57.9733 95.0406 57.92C94.9446 57.8667 94.8966 57.7707 94.8966 57.632C94.8966 57.5467 94.9286 57.392 94.9926 57.168L97.3766 48.816C97.462 48.5067 97.59 48.3147 97.7606 48.24C97.9313 48.1547 98.2886 48.112 98.8326 48.112C99.366 48.112 99.718 48.1547 99.8886 48.24C100.059 48.3147 100.187 48.5067 100.273 48.816L102.657 57.168C102.721 57.392 102.753 57.5467 102.753 57.632C102.753 57.7707 102.705 57.8667 102.609 57.92C102.513 57.9733 102.315 58 102.017 58C101.697 58 101.483 57.9733 101.377 57.92C101.27 57.856 101.19 57.7387 101.137 57.568L100.449 55.168H97.1526L96.5126 57.568C96.4593 57.7493 96.3793 57.8667 96.2726 57.92C96.1766 57.9733 95.9633 58 95.6326 58ZM98.7206 49.44L97.4886 53.952H100.161L98.9286 49.44H98.7206ZM106.216 58.16C105.416 58.16 104.712 58.064 104.104 57.872C103.944 57.8187 103.832 57.7493 103.768 57.664C103.714 57.568 103.688 57.408 103.688 57.184C103.688 56.7573 103.773 56.544 103.944 56.544C103.954 56.544 104.205 56.592 104.696 56.688C105.197 56.7733 105.656 56.816 106.072 56.816C106.669 56.816 107.085 56.7307 107.32 56.56C107.565 56.3787 107.688 56.096 107.688 55.712C107.688 55.4987 107.645 55.3333 107.56 55.216C107.474 55.0987 107.33 54.9973 107.128 54.912L105.08 54.048C104.312 53.7067 103.928 53.0613 103.928 52.112C103.928 50.6827 104.786 49.968 106.504 49.968C107.261 49.968 107.986 50.0587 108.68 50.24C108.84 50.2827 108.946 50.352 109 50.448C109.053 50.5333 109.08 50.7093 109.08 50.976C109.08 51.1467 109.064 51.28 109.032 51.376C109 51.472 108.968 51.5307 108.936 51.552C108.904 51.5627 108.856 51.568 108.792 51.568C108.781 51.568 108.53 51.52 108.04 51.424C107.549 51.328 107.117 51.28 106.744 51.28C106.274 51.28 105.949 51.3493 105.768 51.488C105.586 51.616 105.496 51.8293 105.496 52.128C105.496 52.352 105.533 52.528 105.608 52.656C105.693 52.7733 105.842 52.88 106.056 52.976L108.056 53.776C108.504 53.9573 108.813 54.192 108.984 54.48C109.165 54.768 109.256 55.152 109.256 55.632C109.256 57.3173 108.242 58.16 106.216 58.16ZM112.226 57.92C112.13 57.9733 111.927 58 111.618 58C111.308 58 111.1 57.9733 110.993 57.92C110.887 57.856 110.834 57.7227 110.834 57.52V50.608C110.834 50.4053 110.887 50.2773 110.993 50.224C111.1 50.16 111.308 50.128 111.618 50.128C111.927 50.128 112.13 50.16 112.226 50.224C112.332 50.2773 112.386 50.4053 112.386 50.608V57.52C112.386 57.7227 112.332 57.856 112.226 57.92ZM111.618 49.008C111.244 49.008 111.004 48.9707 110.898 48.896C110.802 48.8213 110.754 48.6613 110.754 48.416V48.112C110.754 47.8773 110.802 47.7227 110.898 47.648C111.004 47.5733 111.244 47.536 111.618 47.536C111.98 47.536 112.21 47.5733 112.306 47.648C112.412 47.7227 112.466 47.8773 112.466 48.112V48.416C112.466 48.6613 112.412 48.8213 112.306 48.896C112.21 48.9707 111.98 49.008 111.618 49.008ZM116.031 58.16C115.317 58.16 114.794 57.984 114.463 57.632C114.133 57.2693 113.967 56.6827 113.967 55.872C113.967 55.04 114.186 54.448 114.623 54.096C115.061 53.7333 115.829 53.552 116.927 53.552H118.511V52.512C118.511 51.9893 118.41 51.6587 118.207 51.52C118.015 51.3707 117.647 51.296 117.103 51.296C116.623 51.296 116.111 51.344 115.567 51.44C115.034 51.536 114.757 51.584 114.735 51.584C114.543 51.584 114.447 51.376 114.447 50.96C114.447 50.736 114.474 50.5813 114.527 50.496C114.581 50.4 114.671 50.3307 114.799 50.288C115.503 50.0747 116.325 49.968 117.263 49.968C118.277 49.968 118.991 50.112 119.407 50.4C119.834 50.688 120.047 51.2747 120.047 52.16V54.944C120.047 55.4347 120.074 55.8827 120.127 56.288C120.181 56.6827 120.234 56.992 120.287 57.216C120.351 57.44 120.383 57.5787 120.383 57.632C120.383 57.76 120.335 57.856 120.239 57.92C120.143 57.9733 119.951 58 119.663 58C119.397 58 119.215 57.9787 119.119 57.936C119.034 57.8827 118.97 57.7653 118.927 57.584L118.671 56.624C118.223 57.648 117.343 58.16 116.031 58.16ZM116.543 56.88C117.098 56.88 117.562 56.7253 117.935 56.416C118.319 56.096 118.511 55.6427 118.511 55.056V54.528L116.895 54.576C116.319 54.5973 115.935 54.688 115.743 54.848C115.551 54.9973 115.455 55.2853 115.455 55.712C115.455 56.192 115.535 56.5067 115.695 56.656C115.855 56.8053 116.138 56.88 116.543 56.88ZM125.381 47.536C125.711 47.536 125.925 47.5733 126.021 47.648C126.117 47.7227 126.165 47.8773 126.165 48.112V48.544C126.165 48.928 126.085 49.376 125.925 49.888L125.669 50.768C125.583 50.992 125.493 51.136 125.397 51.2C125.301 51.264 125.119 51.296 124.853 51.296C124.661 51.296 124.533 51.2747 124.469 51.232C124.405 51.1893 124.373 51.1147 124.373 51.008C124.373 50.944 124.405 50.672 124.469 50.192C124.543 49.712 124.581 49.3173 124.581 49.008V48.112C124.581 47.8773 124.629 47.7227 124.725 47.648C124.821 47.5733 125.039 47.536 125.381 47.536ZM122.821 47.536C123.162 47.536 123.381 47.5733 123.477 47.648C123.573 47.7227 123.621 47.8773 123.621 48.112V48.544C123.621 48.928 123.541 49.376 123.381 49.888L123.125 50.768C123.039 50.992 122.943 51.136 122.837 51.2C122.741 51.264 122.565 51.296 122.309 51.296C122.106 51.296 121.973 51.2747 121.909 51.232C121.845 51.1893 121.813 51.1147 121.813 51.008C121.813 50.944 121.85 50.672 121.925 50.192C121.999 49.712 122.037 49.3173 122.037 49.008V48.112C122.037 47.8773 122.085 47.7227 122.181 47.648C122.277 47.5733 122.49 47.536 122.821 47.536Z" fill="white"/>
<path d="M19.29 92.09C18.93 92.09 18.6133 92.0467 18.34 91.96C18.2467 91.9333 18.18 91.8967 18.14 91.85C18.1067 91.7967 18.09 91.7033 18.09 91.57C18.09 91.43 18.1 91.3433 18.12 91.31C18.14 91.2767 18.1833 91.26 18.25 91.26C18.2767 91.26 18.3867 91.2767 18.58 91.31C18.78 91.3367 18.9567 91.35 19.11 91.35C19.4233 91.35 19.6333 91.29 19.74 91.17C19.8533 91.05 19.91 90.81 19.91 90.45V86.11C19.91 86.0033 19.9367 85.9333 19.99 85.9C20.0433 85.8667 20.1533 85.85 20.32 85.85C20.4867 85.85 20.5967 85.8667 20.65 85.9C20.7033 85.9333 20.73 86.0033 20.73 86.11V90.5C20.73 91.06 20.61 91.4667 20.37 91.72C20.1367 91.9667 19.7767 92.09 19.29 92.09ZM23.2996 92.1C22.7863 92.1 22.4329 92 22.2396 91.8C22.0529 91.6 21.9596 91.27 21.9596 90.81V87.35C21.9596 87.2367 21.9863 87.1667 22.0396 87.14C22.0929 87.1067 22.2029 87.09 22.3696 87.09C22.5363 87.09 22.6463 87.1067 22.6996 87.14C22.7529 87.1667 22.7796 87.2367 22.7796 87.35V90.62C22.7796 90.92 22.8329 91.1233 22.9396 91.23C23.0463 91.33 23.2629 91.38 23.5896 91.38C24.0629 91.38 24.3929 91.25 24.5796 90.99C24.7729 90.73 24.8696 90.2967 24.8696 89.69V87.35C24.8696 87.2367 24.8963 87.1667 24.9496 87.14C25.0029 87.1067 25.1129 87.09 25.2796 87.09C25.4463 87.09 25.5563 87.1067 25.6096 87.14C25.6629 87.1667 25.6896 87.2367 25.6896 87.35V90.2C25.6896 90.48 25.7096 90.74 25.7496 90.98C25.7896 91.22 25.8263 91.41 25.8596 91.55C25.8996 91.69 25.9196 91.7733 25.9196 91.8C25.9196 91.8667 25.8929 91.9167 25.8396 91.95C25.7929 91.9833 25.6929 92 25.5396 92C25.3863 92 25.2863 91.9867 25.2396 91.96C25.1929 91.9333 25.1563 91.87 25.1296 91.77L24.9896 91.21C24.7296 91.8033 24.1663 92.1 23.2996 92.1ZM27.6996 91.95C27.6463 91.9833 27.5363 92 27.3696 92C27.2029 92 27.0929 91.9833 27.0396 91.95C26.9863 91.9167 26.9596 91.8433 26.9596 91.73V85.74C26.9596 85.6267 26.9863 85.5533 27.0396 85.52C27.0929 85.4867 27.2029 85.47 27.3696 85.47C27.5363 85.47 27.6463 85.4867 27.6996 85.52C27.7529 85.5533 27.7796 85.6267 27.7796 85.74V91.73C27.7796 91.8433 27.7529 91.9167 27.6996 91.95ZM28.6504 87.31C28.6504 87.23 28.6771 87.1733 28.7304 87.14C28.7837 87.1067 28.8971 87.09 29.0704 87.09C29.2371 87.09 29.3471 87.1033 29.4004 87.13C29.4537 87.15 29.4937 87.2033 29.5204 87.29L30.6304 91.28H30.7104L31.8204 87.29C31.8471 87.2033 31.8871 87.15 31.9404 87.13C31.9937 87.1033 32.1004 87.09 32.2604 87.09C32.4337 87.09 32.5504 87.1067 32.6104 87.14C32.6704 87.1733 32.7004 87.2267 32.7004 87.3C32.7004 87.4067 32.6637 87.5733 32.5904 87.8L31.1404 92.46C30.9604 93.0333 30.7837 93.42 30.6104 93.62C30.4371 93.8267 30.1437 93.93 29.7304 93.93C29.3971 93.93 29.1271 93.8933 28.9204 93.82C28.8337 93.7933 28.7704 93.7567 28.7304 93.71C28.6971 93.6633 28.6804 93.5833 28.6804 93.47C28.6804 93.3367 28.6904 93.2467 28.7104 93.2C28.7371 93.16 28.7837 93.14 28.8504 93.14C28.8571 93.14 28.9437 93.15 29.1104 93.17C29.2837 93.1967 29.4604 93.21 29.6404 93.21C29.8604 93.21 30.0137 93.17 30.1004 93.09C30.1937 93.01 30.2771 92.8433 30.3504 92.59L30.5104 92C30.3304 91.9933 30.2004 91.9567 30.1204 91.89C30.0404 91.8167 29.9737 91.6933 29.9204 91.52L28.8004 87.95C28.7004 87.6233 28.6504 87.41 28.6504 87.31ZM36.4029 91.25H38.8029C38.9029 91.25 38.9696 91.2767 39.0029 91.33C39.0362 91.3767 39.0529 91.4767 39.0529 91.63C39.0529 91.7767 39.0362 91.8767 39.0029 91.93C38.9696 91.9767 38.9029 92 38.8029 92H35.7529C35.6529 92 35.5829 91.98 35.5429 91.94C35.5096 91.9 35.4929 91.82 35.4929 91.7V91.05C35.4929 90.7033 35.5529 90.43 35.6729 90.23C35.7996 90.03 36.0262 89.7767 36.3529 89.47L37.7229 88.19C37.8762 88.0433 37.9829 87.92 38.0429 87.82C38.1029 87.7133 38.1329 87.5633 38.1329 87.37C38.1329 87.0033 38.0696 86.7733 37.9429 86.68C37.8162 86.58 37.5462 86.53 37.1329 86.53C36.8529 86.53 36.5596 86.5633 36.2529 86.63C35.9529 86.69 35.7996 86.72 35.7929 86.72C35.7329 86.72 35.6929 86.7 35.6729 86.66C35.6529 86.6133 35.6429 86.5233 35.6429 86.39C35.6429 86.2567 35.6596 86.1633 35.6929 86.11C35.7329 86.0567 35.7962 86.0167 35.8829 85.99C36.3029 85.8633 36.7929 85.8 37.3529 85.8C37.6062 85.8 37.8129 85.8133 37.9729 85.84C38.1329 85.8667 38.2962 85.9267 38.4629 86.02C38.6362 86.1133 38.7629 86.2667 38.8429 86.48C38.9296 86.6933 38.9729 86.9667 38.9729 87.3C38.9729 87.4867 38.9562 87.65 38.9229 87.79C38.8896 87.9233 38.8196 88.0633 38.7129 88.21C38.6062 88.35 38.5096 88.4633 38.4229 88.55C38.3429 88.63 38.1929 88.77 37.9729 88.97L36.8229 90.03C36.7162 90.13 36.6396 90.21 36.5929 90.27C36.5462 90.3233 36.5029 90.4067 36.4629 90.52C36.4229 90.6267 36.4029 90.7567 36.4029 90.91V91.25ZM41.8818 92.09C41.5485 92.09 41.2818 92.0633 41.0818 92.01C40.8818 91.9633 40.6951 91.86 40.5218 91.7C40.3485 91.5333 40.2218 91.2867 40.1418 90.96C40.0685 90.6267 40.0318 90.1933 40.0318 89.66V88.38C40.0318 87.9267 40.0718 87.5367 40.1518 87.21C40.2318 86.8833 40.3318 86.63 40.4518 86.45C40.5718 86.27 40.7285 86.13 40.9218 86.03C41.1151 85.93 41.2951 85.8667 41.4618 85.84C41.6351 85.8133 41.8418 85.8 42.0818 85.8C42.4818 85.8 42.8551 85.8433 43.2018 85.93C43.2951 85.95 43.3551 85.9833 43.3818 86.03C43.4151 86.07 43.4318 86.1633 43.4318 86.31C43.4318 86.5367 43.3785 86.65 43.2718 86.65C43.2585 86.65 43.1151 86.63 42.8418 86.59C42.5685 86.5433 42.3385 86.52 42.1518 86.52C41.9585 86.52 41.8085 86.5267 41.7018 86.54C41.5951 86.5533 41.4785 86.5933 41.3518 86.66C41.2251 86.7267 41.1285 86.8267 41.0618 86.96C40.9951 87.0867 40.9385 87.2733 40.8918 87.52C40.8518 87.76 40.8318 88.0567 40.8318 88.41V88.82C41.0451 88.4267 41.5118 88.23 42.2318 88.23C42.7918 88.23 43.1885 88.3567 43.4218 88.61C43.6551 88.8633 43.7718 89.37 43.7718 90.13C43.7718 90.8633 43.6218 91.3733 43.3218 91.66C43.0285 91.9467 42.5485 92.09 41.8818 92.09ZM41.8918 91.37C42.2918 91.37 42.5718 91.2933 42.7318 91.14C42.8985 90.9867 42.9818 90.6667 42.9818 90.18C42.9818 89.6667 42.9185 89.33 42.7918 89.17C42.6651 89.0033 42.3885 88.92 41.9618 88.92C41.5618 88.92 41.2718 88.9933 41.0918 89.14C40.9185 89.28 40.8318 89.54 40.8318 89.92C40.8318 90.54 40.9051 90.9367 41.0518 91.11C41.1985 91.2833 41.4785 91.37 41.8918 91.37ZM44.6207 91.13C44.674 91.09 44.7907 91.07 44.9707 91.07C45.1507 91.07 45.264 91.09 45.3107 91.13C45.364 91.17 45.3907 91.2533 45.3907 91.38V91.66C45.3907 91.8733 45.3474 92.1333 45.2607 92.44L45.1007 93.03C45.054 93.1433 45.004 93.2167 44.9507 93.25C44.8974 93.2833 44.804 93.3 44.6707 93.3C44.564 93.3 44.494 93.29 44.4607 93.27C44.4274 93.25 44.4107 93.21 44.4107 93.15C44.4107 93.11 44.4307 92.94 44.4707 92.64C44.5174 92.34 44.5407 92.0933 44.5407 91.9V91.38C44.5407 91.2533 44.5674 91.17 44.6207 91.13ZM49.2545 91.25H51.6545C51.7545 91.25 51.8211 91.2767 51.8545 91.33C51.8878 91.3767 51.9045 91.4767 51.9045 91.63C51.9045 91.7767 51.8878 91.8767 51.8545 91.93C51.8211 91.9767 51.7545 92 51.6545 92H48.6045C48.5045 92 48.4345 91.98 48.3945 91.94C48.3611 91.9 48.3445 91.82 48.3445 91.7V91.05C48.3445 90.7033 48.4045 90.43 48.5245 90.23C48.6511 90.03 48.8778 89.7767 49.2045 89.47L50.5745 88.19C50.7278 88.0433 50.8345 87.92 50.8945 87.82C50.9545 87.7133 50.9845 87.5633 50.9845 87.37C50.9845 87.0033 50.9211 86.7733 50.7945 86.68C50.6678 86.58 50.3978 86.53 49.9845 86.53C49.7045 86.53 49.4111 86.5633 49.1045 86.63C48.8045 86.69 48.6511 86.72 48.6445 86.72C48.5845 86.72 48.5445 86.7 48.5245 86.66C48.5045 86.6133 48.4945 86.5233 48.4945 86.39C48.4945 86.2567 48.5111 86.1633 48.5445 86.11C48.5845 86.0567 48.6478 86.0167 48.7345 85.99C49.1545 85.8633 49.6445 85.8 50.2045 85.8C50.4578 85.8 50.6645 85.8133 50.8245 85.84C50.9845 85.8667 51.1478 85.9267 51.3145 86.02C51.4878 86.1133 51.6145 86.2667 51.6945 86.48C51.7811 86.6933 51.8245 86.9667 51.8245 87.3C51.8245 87.4867 51.8078 87.65 51.7745 87.79C51.7411 87.9233 51.6711 88.0633 51.5645 88.21C51.4578 88.35 51.3611 88.4633 51.2745 88.55C51.1945 88.63 51.0445 88.77 50.8245 88.97L49.6745 90.03C49.5678 90.13 49.4911 90.21 49.4445 90.27C49.3978 90.3233 49.3545 90.4067 49.3145 90.52C49.2745 90.6267 49.2545 90.7567 49.2545 90.91V91.25ZM54.7534 91.37C55.2267 91.37 55.5367 91.2567 55.6834 91.03C55.8367 90.8033 55.9134 90.3167 55.9134 89.57V88.34C55.9134 87.56 55.8434 87.0633 55.7034 86.85C55.57 86.63 55.2534 86.52 54.7534 86.52C54.28 86.52 53.97 86.6333 53.8234 86.86C53.6767 87.08 53.6034 87.5733 53.6034 88.34V89.57C53.6034 90.33 53.67 90.82 53.8034 91.04C53.9434 91.26 54.26 91.37 54.7534 91.37ZM54.7534 92.09C54.2467 92.09 53.8567 92.0267 53.5834 91.9C53.3167 91.7733 53.1134 91.5367 52.9734 91.19C52.84 90.8433 52.7734 90.3433 52.7734 89.69V88.27C52.7734 87.7433 52.81 87.3167 52.8834 86.99C52.9634 86.6633 53.09 86.4133 53.2634 86.24C53.4434 86.0667 53.6434 85.95 53.8634 85.89C54.09 85.83 54.3867 85.8 54.7534 85.8C55.28 85.8 55.6767 85.8633 55.9434 85.99C56.2167 86.1167 56.4167 86.3567 56.5434 86.71C56.67 87.0633 56.7334 87.5833 56.7334 88.27V89.69C56.7334 90.1967 56.6934 90.61 56.6134 90.93C56.5334 91.25 56.4034 91.4933 56.2234 91.66C56.0434 91.8267 55.84 91.94 55.6134 92C55.3934 92.06 55.1067 92.09 54.7534 92.09ZM60.7623 92H58.0423C57.9423 92 57.8756 91.9767 57.8423 91.93C57.8089 91.8767 57.7923 91.7767 57.7923 91.63C57.7923 91.4767 57.8089 91.3767 57.8423 91.33C57.8756 91.2767 57.9423 91.25 58.0423 91.25H58.9823V86.71L58.1223 86.98C58.0356 87.0067 57.9623 87.02 57.9023 87.02C57.8023 87.02 57.7523 86.8967 57.7523 86.65C57.7523 86.51 57.7623 86.4133 57.7823 86.36C57.8089 86.3067 57.8589 86.27 57.9323 86.25L58.9923 85.91C59.0989 85.87 59.2356 85.85 59.4023 85.85C59.5689 85.85 59.6789 85.8667 59.7323 85.9C59.7856 85.9333 59.8123 86.0033 59.8123 86.11V91.25H60.7623C60.8623 91.25 60.9289 91.2767 60.9623 91.33C60.9956 91.3767 61.0123 91.4767 61.0123 91.63C61.0123 91.7767 60.9956 91.8767 60.9623 91.93C60.9289 91.9767 60.8623 92 60.7623 92ZM63.9912 92.09C63.6578 92.09 63.3912 92.0633 63.1912 92.01C62.9912 91.9633 62.8045 91.86 62.6312 91.7C62.4578 91.5333 62.3312 91.2867 62.2512 90.96C62.1778 90.6267 62.1412 90.1933 62.1412 89.66V88.38C62.1412 87.9267 62.1812 87.5367 62.2612 87.21C62.3412 86.8833 62.4412 86.63 62.5612 86.45C62.6812 86.27 62.8378 86.13 63.0312 86.03C63.2245 85.93 63.4045 85.8667 63.5712 85.84C63.7445 85.8133 63.9512 85.8 64.1912 85.8C64.5912 85.8 64.9645 85.8433 65.3112 85.93C65.4045 85.95 65.4645 85.9833 65.4912 86.03C65.5245 86.07 65.5412 86.1633 65.5412 86.31C65.5412 86.5367 65.4878 86.65 65.3812 86.65C65.3678 86.65 65.2245 86.63 64.9512 86.59C64.6778 86.5433 64.4478 86.52 64.2612 86.52C64.0678 86.52 63.9178 86.5267 63.8112 86.54C63.7045 86.5533 63.5878 86.5933 63.4612 86.66C63.3345 86.7267 63.2378 86.8267 63.1712 86.96C63.1045 87.0867 63.0478 87.2733 63.0012 87.52C62.9612 87.76 62.9412 88.0567 62.9412 88.41V88.82C63.1545 88.4267 63.6212 88.23 64.3412 88.23C64.9012 88.23 65.2978 88.3567 65.5312 88.61C65.7645 88.8633 65.8812 89.37 65.8812 90.13C65.8812 90.8633 65.7312 91.3733 65.4312 91.66C65.1378 91.9467 64.6578 92.09 63.9912 92.09ZM64.0012 91.37C64.4012 91.37 64.6812 91.2933 64.8412 91.14C65.0078 90.9867 65.0912 90.6667 65.0912 90.18C65.0912 89.6667 65.0278 89.33 64.9012 89.17C64.7745 89.0033 64.4978 88.92 64.0712 88.92C63.6712 88.92 63.3812 88.9933 63.2012 89.14C63.0278 89.28 62.9412 89.54 62.9412 89.92C62.9412 90.54 63.0145 90.9367 63.1612 91.11C63.3078 91.2833 63.5878 91.37 64.0012 91.37ZM66.7301 91.13C66.7834 91.09 66.9001 91.07 67.0801 91.07C67.2601 91.07 67.3734 91.09 67.4201 91.13C67.4734 91.17 67.5001 91.2533 67.5001 91.38V91.66C67.5001 91.8733 67.4567 92.1333 67.3701 92.44L67.2101 93.03C67.1634 93.1433 67.1134 93.2167 67.0601 93.25C67.0067 93.2833 66.9134 93.3 66.7801 93.3C66.6734 93.3 66.6034 93.29 66.5701 93.27C66.5367 93.25 66.5201 93.21 66.5201 93.15C66.5201 93.11 66.5401 92.94 66.5801 92.64C66.6267 92.34 66.6501 92.0933 66.6501 91.9V91.38C66.6501 91.2533 66.6767 91.17 66.7301 91.13ZM72.1938 92C72.0272 92 71.9172 91.9833 71.8638 91.95C71.8105 91.91 71.7838 91.8367 71.7838 91.73V89.64L70.2038 86.36C70.1305 86.2067 70.0938 86.1 70.0938 86.04C70.0938 85.9133 70.2205 85.85 70.4738 85.85C70.6672 85.85 70.7972 85.8633 70.8638 85.89C70.9305 85.9167 70.9805 85.9767 71.0138 86.07L72.1738 88.75H72.2238L73.3838 86.07C73.4172 85.9767 73.4638 85.9167 73.5238 85.89C73.5905 85.8633 73.7205 85.85 73.9138 85.85C74.1738 85.85 74.3038 85.9133 74.3038 86.04C74.3038 86.1 74.2672 86.2067 74.1938 86.36L72.6138 89.64V91.73C72.6138 91.8367 72.5872 91.91 72.5338 91.95C72.4805 91.9833 72.3672 92 72.1938 92ZM75.8135 92.1C75.3668 92.1 75.0402 91.99 74.8335 91.77C74.6268 91.55 74.5235 91.19 74.5235 90.69C74.5235 90.1767 74.6568 89.8133 74.9235 89.6C75.1968 89.38 75.6668 89.27 76.3335 89.27H77.4135V88.5C77.4135 88.16 77.3468 87.9433 77.2135 87.85C77.0802 87.75 76.8335 87.7 76.4735 87.7C76.1668 87.7 75.8435 87.7333 75.5035 87.8C75.1635 87.86 74.9868 87.89 74.9735 87.89C74.8668 87.89 74.8135 87.78 74.8135 87.56C74.8135 87.3533 74.8835 87.23 75.0235 87.19C75.4502 87.0567 75.9635 86.99 76.5635 86.99C77.1635 86.99 77.5902 87.08 77.8435 87.26C78.0968 87.4333 78.2235 87.7933 78.2235 88.34V90.2C78.2235 90.48 78.2435 90.74 78.2835 90.98C78.3235 91.22 78.3602 91.41 78.3935 91.55C78.4335 91.69 78.4535 91.7733 78.4535 91.8C78.4535 91.8667 78.4268 91.9167 78.3735 91.95C78.3268 91.9833 78.2235 92 78.0635 92C77.9168 92 77.8202 91.9867 77.7735 91.96C77.7335 91.9333 77.6968 91.87 77.6635 91.77L77.4935 91.12C77.3468 91.4467 77.1235 91.6933 76.8235 91.86C76.5302 92.02 76.1935 92.1 75.8135 92.1ZM76.0535 91.41C76.4335 91.41 76.7535 91.3 77.0135 91.08C77.2802 90.86 77.4135 90.56 77.4135 90.18V89.82L76.2935 89.85C75.9068 89.8567 75.6468 89.9133 75.5135 90.02C75.3868 90.12 75.3235 90.3167 75.3235 90.61C75.3235 90.9433 75.3768 91.16 75.4835 91.26C75.5902 91.36 75.7802 91.41 76.0535 91.41ZM80.3168 91.95C80.2635 91.9833 80.1535 92 79.9868 92C79.8201 92 79.7101 91.9833 79.6568 91.95C79.6035 91.9167 79.5768 91.8433 79.5768 91.73V85.74C79.5768 85.6267 79.6035 85.5533 79.6568 85.52C79.7101 85.4867 79.8201 85.47 79.9868 85.47C80.1535 85.47 80.2635 85.4867 80.3168 85.52C80.3701 85.5533 80.3968 85.6267 80.3968 85.74V89.16H80.4868L82.0568 87.29C82.1301 87.21 82.1968 87.1567 82.2568 87.13C82.3235 87.1033 82.4401 87.09 82.6068 87.09C82.8735 87.09 83.0068 87.1367 83.0068 87.23C83.0068 87.31 82.9601 87.4033 82.8668 87.51L81.2168 89.43L82.9868 91.58C83.0735 91.68 83.1168 91.7667 83.1168 91.84C83.1168 91.9467 82.9735 92 82.6868 92C82.5335 92 82.4268 91.9867 82.3668 91.96C82.3135 91.9333 82.2501 91.8767 82.1768 91.79L80.4768 89.72H80.3968V91.73C80.3968 91.8433 80.3701 91.9167 80.3168 91.95ZM85.1941 92.1C84.6808 92.1 84.3275 92 84.1341 91.8C83.9475 91.6 83.8541 91.27 83.8541 90.81V87.35C83.8541 87.2367 83.8808 87.1667 83.9341 87.14C83.9875 87.1067 84.0975 87.09 84.2641 87.09C84.4308 87.09 84.5408 87.1067 84.5941 87.14C84.6475 87.1667 84.6741 87.2367 84.6741 87.35V90.62C84.6741 90.92 84.7275 91.1233 84.8341 91.23C84.9408 91.33 85.1575 91.38 85.4841 91.38C85.9575 91.38 86.2875 91.25 86.4741 90.99C86.6675 90.73 86.7641 90.2967 86.7641 89.69V87.35C86.7641 87.2367 86.7908 87.1667 86.8441 87.14C86.8975 87.1067 87.0075 87.09 87.1741 87.09C87.3408 87.09 87.4508 87.1067 87.5041 87.14C87.5575 87.1667 87.5841 87.2367 87.5841 87.35V90.2C87.5841 90.48 87.6041 90.74 87.6441 90.98C87.6841 91.22 87.7208 91.41 87.7541 91.55C87.7941 91.69 87.8141 91.7733 87.8141 91.8C87.8141 91.8667 87.7875 91.9167 87.7341 91.95C87.6875 91.9833 87.5875 92 87.4341 92C87.2808 92 87.1808 91.9867 87.1341 91.96C87.0875 91.9333 87.0508 91.87 87.0241 91.77L86.8841 91.21C86.6241 91.8033 86.0608 92.1 85.1941 92.1ZM90.2641 92.1C89.8908 92.1 89.6241 92.0067 89.4641 91.82C89.3108 91.6267 89.2341 91.31 89.2341 90.87V87.77H88.7141C88.6275 87.77 88.5675 87.7467 88.5341 87.7C88.5075 87.6533 88.4941 87.5667 88.4941 87.44C88.4941 87.3067 88.5075 87.2167 88.5341 87.17C88.5675 87.1233 88.6275 87.1 88.7141 87.1H89.2341V86.34C89.2341 86.2267 89.2608 86.1533 89.3141 86.12C89.3675 86.0867 89.4775 86.07 89.6441 86.07C89.8108 86.07 89.9208 86.0867 89.9741 86.12C90.0341 86.1533 90.0641 86.2267 90.0641 86.34V87.1H90.9541C91.0408 87.1 91.0975 87.1233 91.1241 87.17C91.1575 87.2167 91.1741 87.3067 91.1741 87.44C91.1741 87.5667 91.1575 87.6533 91.1241 87.7C91.0975 87.7467 91.0408 87.77 90.9541 87.77H90.0641V90.7C90.0641 90.9933 90.0875 91.18 90.1341 91.26C90.1875 91.3333 90.3041 91.37 90.4841 91.37C90.5908 91.37 90.7041 91.36 90.8241 91.34C90.9508 91.32 91.0241 91.31 91.0441 91.31C91.1108 91.31 91.1541 91.3333 91.1741 91.38C91.2008 91.42 91.2141 91.5033 91.2141 91.63C91.2141 91.7433 91.1941 91.8233 91.1541 91.87C91.1208 91.9167 91.0608 91.9567 90.9741 91.99C90.7541 92.0633 90.5175 92.1 90.2641 92.1ZM93.408 92.1C92.9213 92.1 92.488 92.04 92.108 91.92C92.0146 91.8867 91.9513 91.8467 91.918 91.8C91.8846 91.7533 91.868 91.6667 91.868 91.54C91.868 91.3133 91.9113 91.2 91.998 91.2C92.0113 91.2 92.1713 91.23 92.478 91.29C92.7846 91.35 93.0713 91.38 93.338 91.38C93.7313 91.38 94.0113 91.3167 94.178 91.19C94.3446 91.0633 94.428 90.8633 94.428 90.59C94.428 90.4433 94.398 90.33 94.338 90.25C94.278 90.17 94.1813 90.1 94.048 90.04L92.698 89.47C92.2313 89.27 91.998 88.8767 91.998 88.29C91.998 87.4233 92.518 86.99 93.558 86.99C94.018 86.99 94.4646 87.0467 94.898 87.16C94.998 87.1867 95.0613 87.2267 95.088 87.28C95.1213 87.3267 95.138 87.42 95.138 87.56C95.138 87.7733 95.0846 87.88 94.978 87.88L94.508 87.78C94.1946 87.72 93.9146 87.69 93.668 87.69C93.3546 87.69 93.138 87.7367 93.018 87.83C92.898 87.9233 92.838 88.0767 92.838 88.29C92.838 88.45 92.8613 88.5733 92.908 88.66C92.9613 88.7467 93.0646 88.82 93.218 88.88L94.528 89.42C94.7946 89.5267 94.9813 89.67 95.088 89.85C95.2013 90.0233 95.258 90.2567 95.258 90.55C95.258 91.5833 94.6413 92.1 93.408 92.1ZM97.0551 91.95C97.0017 91.9833 96.8917 92 96.7251 92C96.5584 92 96.4484 91.9833 96.3951 91.95C96.3417 91.9167 96.3151 91.8433 96.3151 91.73V85.74C96.3151 85.6267 96.3417 85.5533 96.3951 85.52C96.4484 85.4867 96.5584 85.47 96.7251 85.47C96.8917 85.47 97.0017 85.4867 97.0551 85.52C97.1084 85.5533 97.1351 85.6267 97.1351 85.74V89.16H97.2251L98.7951 87.29C98.8684 87.21 98.9351 87.1567 98.9951 87.13C99.0617 87.1033 99.1784 87.09 99.3451 87.09C99.6117 87.09 99.7451 87.1367 99.7451 87.23C99.7451 87.31 99.6984 87.4033 99.6051 87.51L97.9551 89.43L99.7251 91.58C99.8117 91.68 99.8551 91.7667 99.8551 91.84C99.8551 91.9467 99.7117 92 99.4251 92C99.2717 92 99.1651 91.9867 99.1051 91.96C99.0517 91.9333 98.9884 91.8767 98.9151 91.79L97.2151 89.72H97.1351V91.73C97.1351 91.8433 97.1084 91.9167 97.0551 91.95Z" fill="white"/>
<rect x="18" y="105" width="63" height="17" rx="3" fill="white"/>
<path d="M28.07 116C27.87 116 27.7367 115.983 27.67 115.95C27.61 115.91 27.58 115.827 27.58 115.7V110.17C27.58 110.037 27.62 109.947 27.7 109.9C27.7867 109.847 27.9667 109.82 28.24 109.82C28.5133 109.82 28.7 109.843 28.8 109.89C28.9067 109.93 28.99 110.033 29.05 110.2L30.17 113.19H30.22L31.35 110.2C31.41 110.033 31.49 109.93 31.59 109.89C31.6967 109.843 31.8867 109.82 32.16 109.82C32.4267 109.82 32.6 109.847 32.68 109.9C32.7667 109.947 32.81 110.037 32.81 110.17V115.7C32.81 115.82 32.7767 115.9 32.71 115.94C32.65 115.98 32.5233 116 32.33 116C32.13 116 31.9967 115.983 31.93 115.95C31.87 115.91 31.84 115.827 31.84 115.7C31.84 114.647 31.8467 113.153 31.86 111.22H31.79L30.73 114.06C30.6767 114.207 30.6167 114.3 30.55 114.34C30.4833 114.38 30.3667 114.4 30.2 114.4C30.0267 114.4 29.9067 114.38 29.84 114.34C29.7733 114.3 29.7133 114.207 29.66 114.06L28.6 111.22H28.53C28.5433 113.153 28.55 114.647 28.55 115.7C28.55 115.82 28.5167 115.9 28.45 115.94C28.39 115.98 28.2633 116 28.07 116ZM35.8067 116.1C35.2867 116.1 34.8934 116.037 34.6267 115.91C34.3667 115.777 34.1734 115.533 34.0467 115.18C33.9267 114.82 33.8667 114.287 33.8667 113.58C33.8667 112.56 34.0201 111.873 34.3267 111.52C34.6334 111.16 35.1801 110.98 35.9667 110.98C36.4867 110.98 36.8767 111.043 37.1367 111.17C37.3967 111.297 37.5867 111.537 37.7067 111.89C37.8334 112.243 37.8967 112.773 37.8967 113.48C37.8967 114.507 37.7434 115.2 37.4367 115.56C37.1301 115.92 36.5867 116.1 35.8067 116.1ZM35.8267 115.28C36.2801 115.28 36.5734 115.173 36.7067 114.96C36.8467 114.74 36.9167 114.277 36.9167 113.57C36.9167 112.803 36.8567 112.317 36.7367 112.11C36.6234 111.903 36.3534 111.8 35.9267 111.8C35.4801 111.8 35.1901 111.907 35.0567 112.12C34.9234 112.333 34.8567 112.79 34.8567 113.49C34.8567 114.263 34.9134 114.757 35.0267 114.97C35.1401 115.177 35.4067 115.28 35.8267 115.28ZM39.9367 115.95C39.8767 115.983 39.7501 116 39.5567 116C39.3634 116 39.2334 115.983 39.1667 115.95C39.1001 115.91 39.0667 115.827 39.0667 115.7V112.99C39.0667 112.683 39.0467 112.407 39.0067 112.16C38.9734 111.907 38.9367 111.71 38.8967 111.57C38.8634 111.43 38.8467 111.343 38.8467 111.31C38.8467 111.23 38.8767 111.173 38.9367 111.14C38.9967 111.1 39.1167 111.08 39.2967 111.08C39.4701 111.08 39.5834 111.097 39.6367 111.13C39.6967 111.157 39.7401 111.227 39.7667 111.34L39.8967 111.85C40.1434 111.283 40.5534 111 41.1267 111C41.2867 111 41.4367 111.02 41.5767 111.06C41.6501 111.087 41.7001 111.13 41.7267 111.19C41.7534 111.25 41.7667 111.357 41.7667 111.51C41.7667 111.777 41.7034 111.91 41.5767 111.91C41.5634 111.91 41.4967 111.903 41.3767 111.89C41.2567 111.87 41.1467 111.86 41.0467 111.86C40.3734 111.86 40.0367 112.477 40.0367 113.71V115.7C40.0367 115.827 40.0034 115.91 39.9367 115.95ZM44.2668 116.1C43.9535 116.1 43.6968 116.083 43.4968 116.05C43.2968 116.017 43.1068 115.953 42.9268 115.86C42.7468 115.76 42.6068 115.617 42.5068 115.43C42.4135 115.243 42.3368 115 42.2768 114.7C42.2235 114.4 42.1968 114.03 42.1968 113.59C42.1968 113.123 42.2268 112.73 42.2868 112.41C42.3535 112.09 42.4368 111.837 42.5368 111.65C42.6368 111.463 42.7768 111.32 42.9568 111.22C43.1435 111.12 43.3268 111.057 43.5068 111.03C43.6868 110.997 43.9201 110.98 44.2068 110.98C44.5268 110.98 44.7935 111.013 45.0068 111.08C45.2268 111.14 45.4001 111.227 45.5268 111.34C45.6601 111.453 45.7601 111.613 45.8268 111.82C45.9001 112.02 45.9468 112.233 45.9668 112.46C45.9935 112.68 46.0068 112.963 46.0068 113.31C46.0068 113.483 45.9801 113.607 45.9268 113.68C45.8735 113.753 45.7668 113.79 45.6068 113.79H43.1768C43.1835 114.423 43.2568 114.827 43.3968 115C43.5368 115.173 43.8535 115.26 44.3468 115.26C44.5735 115.26 44.7935 115.243 45.0068 115.21C45.2268 115.177 45.4035 115.147 45.5368 115.12C45.6701 115.087 45.7501 115.07 45.7768 115.07C45.8835 115.07 45.9368 115.2 45.9368 115.46C45.9368 115.6 45.9168 115.7 45.8768 115.76C45.8435 115.813 45.7768 115.857 45.6768 115.89C45.2901 116.03 44.8201 116.1 44.2668 116.1ZM44.1868 111.79C43.8068 111.79 43.5468 111.873 43.4068 112.04C43.2735 112.207 43.1968 112.577 43.1768 113.15H45.0768C45.0768 112.617 45.0268 112.257 44.9268 112.07C44.8335 111.883 44.5868 111.79 44.1868 111.79Z" fill="#FFC734"/>
</svg>
