<svg width="241" height="57" viewBox="0 0 241 57" fill="none" xmlns="http://www.w3.org/2000/svg">
<path d="M5.26 11.48C5.96667 11.48 6.47333 11.3933 6.78 11.22C7.1 11.0333 7.32667 10.66 7.46 10.1C7.60667 9.52667 7.68 8.61333 7.68 7.36V6.34C7.68 5.36667 7.65333 4.63333 7.6 4.14C7.56 3.63333 7.44 3.22667 7.24 2.92C7.05333 2.6 6.82 2.40667 6.54 2.34C6.26 2.26 5.83333 2.22 5.26 2.22C4.55333 2.22 4.04 2.31333 3.72 2.5C3.41333 2.67333 3.18667 3.04667 3.04 3.62C2.90667 4.18 2.84 5.08667 2.84 6.34V7.36C2.84 8.33333 2.86 9.07333 2.9 9.58C2.95333 10.0733 3.07333 10.48 3.26 10.8C3.46 11.1067 3.7 11.3 3.98 11.38C4.26 11.4467 4.68667 11.48 5.26 11.48ZM5.26 13.16C4.38 13.16 3.69333 13.1067 3.2 13C2.72 12.88 2.28667 12.6267 1.9 12.24C1.51333 11.84 1.24667 11.2733 1.1 10.54C0.966667 9.79333 0.9 8.78667 0.9 7.52V6.26C0.9 4.96667 0.973333 3.93333 1.12 3.16C1.28 2.38667 1.56 1.81333 1.96 1.44C2.36 1.05333 2.79333 0.806666 3.26 0.7C3.74 0.593333 4.40667 0.539999 5.26 0.539999C6.15333 0.539999 6.84667 0.6 7.34 0.72C7.83333 0.826666 8.26667 1.08 8.64 1.48C9.02667 1.88 9.28667 2.45333 9.42 3.2C9.55333 3.94667 9.62 4.96667 9.62 6.26V7.52C9.62 8.78667 9.54 9.80667 9.38 10.58C9.22 11.34 8.93333 11.9067 8.52 12.28C8.12 12.6533 7.68667 12.8933 7.22 13C6.75333 13.1067 6.1 13.16 5.26 13.16ZM15.3473 12.88C15.2273 12.96 14.974 13 14.5873 13C14.2007 13 13.9407 12.96 13.8073 12.88C13.674 12.8 13.6073 12.64 13.6073 12.4V4.9H11.4073C11.194 4.9 11.0473 4.84667 10.9673 4.74C10.8873 4.62 10.8473 4.38667 10.8473 4.04C10.8473 3.69333 10.8873 3.46 10.9673 3.34C11.0473 3.22 11.194 3.16 11.4073 3.16H17.7673C17.9807 3.16 18.1273 3.22 18.2073 3.34C18.2873 3.46 18.3273 3.69333 18.3273 4.04C18.3273 4.38667 18.2873 4.62 18.2073 4.74C18.1273 4.84667 17.9807 4.9 17.7673 4.9H15.5473V12.4C15.5473 12.64 15.4807 12.8 15.3473 12.88ZM21.5523 12.9C21.4323 12.9667 21.179 13 20.7923 13C20.4057 13 20.1457 12.9667 20.0123 12.9C19.879 12.82 19.8123 12.6533 19.8123 12.4V3.76C19.8123 3.50667 19.879 3.34667 20.0123 3.28C20.1457 3.2 20.4057 3.16 20.7923 3.16C21.179 3.16 21.4323 3.2 21.5523 3.28C21.6857 3.34667 21.7523 3.50667 21.7523 3.76V7.24H21.9523L24.7923 3.64C24.9523 3.44 25.1057 3.31333 25.2523 3.26C25.399 3.19333 25.6657 3.16 26.0523 3.16C26.679 3.16 26.9923 3.27333 26.9923 3.5C26.9923 3.67333 26.899 3.87333 26.7123 4.1L23.6723 7.86L26.9723 12.08C27.1457 12.3067 27.2323 12.4867 27.2323 12.62C27.2323 12.8733 26.899 13 26.2323 13C25.859 13 25.6057 12.9733 25.4723 12.92C25.339 12.8533 25.1923 12.72 25.0323 12.52L21.9323 8.5H21.7523V12.4C21.7523 12.6533 21.6857 12.82 21.5523 12.9ZM30.6 16.64C30.48 16.72 30.2267 16.76 29.84 16.76C29.4533 16.76 29.1933 16.72 29.06 16.64C28.9267 16.5733 28.86 16.4133 28.86 16.16V6.98C28.86 6.36667 28.82 5.81333 28.74 5.32C28.6733 4.81333 28.6 4.42 28.52 4.14C28.4533 3.86 28.42 3.68667 28.42 3.62C28.42 3.46 28.48 3.34667 28.6 3.28C28.72 3.2 28.96 3.16 29.32 3.16C29.6667 3.16 29.8933 3.19333 30 3.26C30.12 3.31333 30.2067 3.45333 30.26 3.68L30.5 4.66C31.0467 3.52667 32.1133 2.96 33.7 2.96C35.0467 2.96 35.94 3.3 36.38 3.98C36.82 4.66 37.04 6 37.04 8C37.04 9.44 36.9 10.5467 36.62 11.32C36.34 12.08 35.9467 12.5867 35.44 12.84C34.9467 13.08 34.2467 13.2 33.34 13.2C32.06 13.2 31.2133 12.84 30.8 12.12V16.16C30.8 16.4133 30.7333 16.5733 30.6 16.64ZM32.94 11.56C33.54 11.56 33.98 11.4733 34.26 11.3C34.54 11.1267 34.74 10.7933 34.86 10.3C34.9933 9.79333 35.06 9.01333 35.06 7.96C35.06 6.54667 34.94 5.63333 34.7 5.22C34.4733 4.80667 33.96 4.6 33.16 4.6C32.3067 4.6 31.6933 4.80667 31.32 5.22C30.9467 5.62 30.76 6.42 30.76 7.62V8.72C30.76 9.82667 30.9 10.58 31.18 10.98C31.4733 11.3667 32.06 11.56 32.94 11.56ZM50.2678 12.9C50.1478 12.9667 49.8945 13 49.5078 13C49.1211 13 48.8611 12.9667 48.7278 12.9C48.5945 12.82 48.5278 12.6533 48.5278 12.4V3.76C48.5278 3.50667 48.5945 3.34667 48.7278 3.28C48.8611 3.2 49.1211 3.16 49.5078 3.16C49.8945 3.16 50.1478 3.2 50.2678 3.28C50.4011 3.34667 50.4678 3.50667 50.4678 3.76V12.4C50.4678 12.6533 50.4011 12.82 50.2678 12.9ZM42.8078 13.16C41.7945 13.16 40.8078 13.1 39.8478 12.98C39.5678 12.94 39.3811 12.88 39.2878 12.8C39.2078 12.72 39.1678 12.56 39.1678 12.32V3.76C39.1678 3.50667 39.2345 3.34667 39.3678 3.28C39.5011 3.2 39.7611 3.16 40.1478 3.16C40.5345 3.16 40.7878 3.2 40.9078 3.28C41.0411 3.34667 41.1078 3.50667 41.1078 3.76V6.88H43.0478C44.4878 6.88 45.4678 7.07333 45.9878 7.46C46.5211 7.84667 46.7878 8.64 46.7878 9.84C46.7878 11.2 46.4878 12.0933 45.8878 12.52C45.3011 12.9467 44.2745 13.16 42.8078 13.16ZM43.1878 8.48H41.1078V11.44C41.6678 11.4933 42.2678 11.52 42.9078 11.52C43.7211 11.52 44.2478 11.42 44.4878 11.22C44.7278 11.02 44.8478 10.58 44.8478 9.9C44.8478 9.34 44.7411 8.96667 44.5278 8.78C44.3145 8.58 43.8678 8.48 43.1878 8.48ZM56.4411 12.88C56.3211 12.96 56.0678 13 55.6811 13C55.2944 13 55.0344 12.96 54.9011 12.88C54.7678 12.8 54.7011 12.64 54.7011 12.4V4.9H52.5011C52.2878 4.9 52.1411 4.84667 52.0611 4.74C51.9811 4.62 51.9411 4.38667 51.9411 4.04C51.9411 3.69333 51.9811 3.46 52.0611 3.34C52.1411 3.22 52.2878 3.16 52.5011 3.16H58.8611C59.0744 3.16 59.2211 3.22 59.3011 3.34C59.3811 3.46 59.4211 3.69333 59.4211 4.04C59.4211 4.38667 59.3811 4.62 59.3011 4.74C59.2211 4.84667 59.0744 4.9 58.8611 4.9H56.6411V12.4C56.6411 12.64 56.5744 12.8 56.4411 12.88ZM66.8261 3.24C66.9861 3.18667 67.2728 3.16 67.6861 3.16C68.0994 3.16 68.3794 3.19333 68.5261 3.26C68.6994 3.35333 68.7861 3.54 68.7861 3.82V12.4C68.7861 12.64 68.7194 12.8 68.5861 12.88C68.4661 12.96 68.2128 13 67.8261 13C67.4394 13 67.1794 12.96 67.0461 12.88C66.9261 12.8 66.8661 12.64 66.8661 12.4V5.86H66.7061L63.3461 12.38C63.2128 12.6467 63.0594 12.82 62.8861 12.9C62.7128 12.9667 62.4261 13 62.0261 13C61.6128 13 61.3328 12.9667 61.1861 12.9C60.9994 12.8067 60.9061 12.62 60.9061 12.34V3.76C60.9061 3.50667 60.9661 3.34667 61.0861 3.28C61.2194 3.2 61.4861 3.16 61.8861 3.16C62.2728 3.16 62.5261 3.2 62.6461 3.28C62.7794 3.36 62.8461 3.52 62.8461 3.76V10.2H62.9861L66.4261 3.68C66.5461 3.44 66.6794 3.29333 66.8261 3.24ZM75.0609 13.2C74.4343 13.2 73.9209 13.1667 73.5209 13.1C73.1209 13.0333 72.7409 12.9067 72.3809 12.72C72.0209 12.52 71.7409 12.2333 71.5409 11.86C71.3543 11.4867 71.2009 11 71.0809 10.4C70.9743 9.8 70.9209 9.06 70.9209 8.18C70.9209 7.24667 70.9809 6.46 71.1009 5.82C71.2343 5.18 71.4009 4.67333 71.6009 4.3C71.8009 3.92667 72.0809 3.64 72.4409 3.44C72.8143 3.24 73.1809 3.11333 73.5409 3.06C73.9009 2.99333 74.3676 2.96 74.9409 2.96C75.5809 2.96 76.1143 3.02667 76.5409 3.16C76.9809 3.28 77.3276 3.45333 77.5809 3.68C77.8476 3.90667 78.0476 4.22667 78.1809 4.64C78.3276 5.04 78.4209 5.46667 78.4609 5.92C78.5143 6.36 78.5409 6.92667 78.5409 7.62C78.5409 7.96667 78.4876 8.21333 78.3809 8.36C78.2743 8.50667 78.0609 8.58 77.7409 8.58H72.8809C72.8943 9.84667 73.0409 10.6533 73.3209 11C73.6009 11.3467 74.2343 11.52 75.2209 11.52C75.6743 11.52 76.1143 11.4867 76.5409 11.42C76.9809 11.3533 77.3343 11.2933 77.6009 11.24C77.8676 11.1733 78.0276 11.14 78.0809 11.14C78.2943 11.14 78.4009 11.4 78.4009 11.92C78.4009 12.2 78.3609 12.4 78.2809 12.52C78.2143 12.6267 78.0809 12.7133 77.8809 12.78C77.1076 13.06 76.1676 13.2 75.0609 13.2ZM74.9009 4.58C74.1409 4.58 73.6209 4.74667 73.3409 5.08C73.0743 5.41333 72.9209 6.15333 72.8809 7.3H76.6809C76.6809 6.23333 76.5809 5.51333 76.3809 5.14C76.1943 4.76667 75.7009 4.58 74.9009 4.58ZM2.14 33C1.74 33 1.47333 32.9667 1.34 32.9C1.22 32.82 1.16 32.6533 1.16 32.4V21.34C1.16 21.0733 1.24 20.8933 1.4 20.8C1.57333 20.6933 1.93333 20.64 2.48 20.64C3.02667 20.64 3.4 20.6867 3.6 20.78C3.81333 20.86 3.98 21.0667 4.1 21.4L6.34 27.38H6.44L8.7 21.4C8.82 21.0667 8.98 20.86 9.18 20.78C9.39333 20.6867 9.77333 20.64 10.32 20.64C10.8533 20.64 11.2 20.6933 11.36 20.8C11.5333 20.8933 11.62 21.0733 11.62 21.34V32.4C11.62 32.64 11.5533 32.8 11.42 32.88C11.3 32.96 11.0467 33 10.66 33C10.26 33 9.99333 32.9667 9.86 32.9C9.74 32.82 9.68 32.6533 9.68 32.4C9.68 30.2933 9.69333 27.3067 9.72 23.44H9.58L7.46 29.12C7.35333 29.4133 7.23333 29.6 7.1 29.68C6.96667 29.76 6.73333 29.8 6.4 29.8C6.05333 29.8 5.81333 29.76 5.68 29.68C5.54667 29.6 5.42667 29.4133 5.32 29.12L3.2 23.44H3.06C3.08667 27.3067 3.1 30.2933 3.1 32.4C3.1 32.64 3.03333 32.8 2.9 32.88C2.78 32.96 2.52667 33 2.14 33ZM17.8734 33.2C17.2468 33.2 16.7334 33.1667 16.3334 33.1C15.9334 33.0333 15.5534 32.9067 15.1934 32.72C14.8334 32.52 14.5534 32.2333 14.3534 31.86C14.1668 31.4867 14.0134 31 13.8934 30.4C13.7868 29.8 13.7334 29.06 13.7334 28.18C13.7334 27.2467 13.7934 26.46 13.9134 25.82C14.0468 25.18 14.2134 24.6733 14.4134 24.3C14.6134 23.9267 14.8934 23.64 15.2534 23.44C15.6268 23.24 15.9934 23.1133 16.3534 23.06C16.7134 22.9933 17.1801 22.96 17.7534 22.96C18.3934 22.96 18.9268 23.0267 19.3534 23.16C19.7934 23.28 20.1401 23.4533 20.3934 23.68C20.6601 23.9067 20.8601 24.2267 20.9934 24.64C21.1401 25.04 21.2334 25.4667 21.2734 25.92C21.3268 26.36 21.3534 26.9267 21.3534 27.62C21.3534 27.9667 21.3001 28.2133 21.1934 28.36C21.0868 28.5067 20.8734 28.58 20.5534 28.58H15.6934C15.7068 29.8467 15.8534 30.6533 16.1334 31C16.4134 31.3467 17.0468 31.52 18.0334 31.52C18.4868 31.52 18.9268 31.4867 19.3534 31.42C19.7934 31.3533 20.1468 31.2933 20.4134 31.24C20.6801 31.1733 20.8401 31.14 20.8934 31.14C21.1068 31.14 21.2134 31.4 21.2134 31.92C21.2134 32.2 21.1734 32.4 21.0934 32.52C21.0268 32.6267 20.8934 32.7133 20.6934 32.78C19.9201 33.06 18.9801 33.2 17.8734 33.2ZM17.7134 24.58C16.9534 24.58 16.4334 24.7467 16.1534 25.08C15.8868 25.4133 15.7334 26.1533 15.6934 27.3H19.4934C19.4934 26.2333 19.3934 25.5133 19.1934 25.14C19.0068 24.7667 18.5134 24.58 17.7134 24.58ZM23.3894 33C22.7094 33 22.3694 32.8733 22.3694 32.62C22.3694 32.46 22.4494 32.28 22.6094 32.08L25.8494 27.86L22.8694 24.1C22.696 23.8467 22.6094 23.6467 22.6094 23.5C22.6094 23.2733 22.9294 23.16 23.5694 23.16C23.956 23.16 24.2227 23.1933 24.3694 23.26C24.516 23.3133 24.6694 23.44 24.8294 23.64L27.5294 27.24H27.7094V23.76C27.7094 23.5067 27.776 23.3467 27.9094 23.28C28.0427 23.2 28.3027 23.16 28.6894 23.16C29.076 23.16 29.3294 23.2 29.4494 23.28C29.5827 23.3467 29.6494 23.5067 29.6494 23.76V27.24H29.8494L32.5294 23.64C32.676 23.44 32.8227 23.3133 32.9694 23.26C33.1294 23.1933 33.4094 23.16 33.8094 23.16C34.4494 23.16 34.7694 23.2733 34.7694 23.5C34.7694 23.6733 34.676 23.8733 34.4894 24.1L31.5094 27.86L34.7494 32.08C34.9227 32.3067 35.0094 32.4867 35.0094 32.62C35.0094 32.8733 34.6627 33 33.9694 33C33.6094 33 33.356 32.9733 33.2094 32.92C33.076 32.8533 32.936 32.72 32.7894 32.52L29.8294 28.5H29.6494V32.4C29.6494 32.6533 29.5827 32.82 29.4494 32.9C29.3294 32.9667 29.076 33 28.6894 33C28.3027 33 28.0427 32.9667 27.9094 32.9C27.776 32.82 27.7094 32.6533 27.7094 32.4V28.5H27.5294L24.5894 32.52C24.4294 32.72 24.2827 32.8533 24.1494 32.92C24.016 32.9733 23.7627 33 23.3894 33ZM36.2734 35.16C35.9801 35.16 35.7868 35.1267 35.6934 35.06C35.6001 35.0067 35.5534 34.88 35.5534 34.68V32.12C35.5534 31.7733 35.5868 31.5467 35.6534 31.44C35.7334 31.32 35.8868 31.26 36.1134 31.26H36.5934L37.5134 23.76C37.5401 23.5067 37.6134 23.3467 37.7334 23.28C37.8534 23.2 38.1001 23.16 38.4734 23.16H42.8934C43.2934 23.16 43.5534 23.2 43.6734 23.28C43.8068 23.3467 43.8734 23.5067 43.8734 23.76V31.26H44.2734C44.5534 31.26 44.7401 31.3 44.8334 31.38C44.9401 31.46 44.9934 31.6333 44.9934 31.9V34.68C44.9934 34.88 44.9468 35.0067 44.8534 35.06C44.7601 35.1267 44.5668 35.16 44.2734 35.16C43.9534 35.16 43.7334 35.1267 43.6134 35.06C43.5068 35.0067 43.4401 34.88 43.4134 34.68L43.1334 33H37.4134L37.1334 34.68C37.1068 34.88 37.0334 35.0067 36.9134 35.06C36.8068 35.1267 36.5934 35.16 36.2734 35.16ZM39.1934 24.84L38.4334 31.26H41.9334V24.84H39.1934ZM45.8306 23.66C45.8306 23.4867 45.8906 23.36 46.0106 23.28C46.144 23.2 46.4173 23.16 46.8306 23.16C47.2173 23.16 47.4773 23.1933 47.6106 23.26C47.744 23.3133 47.8373 23.4467 47.8906 23.66L49.8906 31.34H50.0706L52.1106 23.66C52.164 23.4467 52.2506 23.3133 52.3706 23.26C52.504 23.1933 52.764 23.16 53.1506 23.16C53.564 23.16 53.8373 23.2 53.9706 23.28C54.1173 23.3467 54.1906 23.4667 54.1906 23.64C54.1906 23.8533 54.0973 24.26 53.9106 24.86L51.1906 33.82C50.8306 35.0333 50.4573 35.8467 50.0706 36.26C49.6973 36.6733 49.0573 36.88 48.1506 36.88C47.484 36.88 46.8973 36.8 46.3906 36.64C46.204 36.5867 46.0706 36.5067 45.9906 36.4C45.924 36.2933 45.8906 36.1067 45.8906 35.84C45.8906 35.3067 46.0106 35.04 46.2506 35.04C46.2773 35.04 46.4706 35.0667 46.8306 35.12C47.204 35.1733 47.5706 35.2 47.9306 35.2C48.3973 35.2 48.724 35.12 48.9106 34.96C49.0973 34.8133 49.2506 34.5067 49.3706 34.04L49.6306 33C49.1906 32.9867 48.8773 32.9133 48.6906 32.78C48.5173 32.6333 48.3706 32.3733 48.2506 32L46.1506 25.12C45.9373 24.4267 45.8306 23.94 45.8306 23.66ZM57.7094 27.08H61.4094V23.76C61.4094 23.52 61.4694 23.36 61.5894 23.28C61.7227 23.2 61.9827 23.16 62.3694 23.16C62.756 23.16 63.0094 23.2 63.1294 23.28C63.2627 23.36 63.3294 23.52 63.3294 23.76V32.4C63.3294 32.64 63.2627 32.8 63.1294 32.88C63.0094 32.96 62.756 33 62.3694 33C61.9827 33 61.7227 32.96 61.5894 32.88C61.4694 32.8 61.4094 32.64 61.4094 32.4V28.74H57.7094V32.4C57.7094 32.64 57.6427 32.8 57.5094 32.88C57.3894 32.96 57.136 33 56.7494 33C56.3494 33 56.0827 32.9667 55.9494 32.9C55.8294 32.82 55.7694 32.6533 55.7694 32.4V23.76C55.7694 23.5067 55.8294 23.3467 55.9494 23.28C56.0827 23.2 56.3494 23.16 56.7494 23.16C57.136 23.16 57.3894 23.2 57.5094 23.28C57.6427 23.36 57.7094 23.52 57.7094 23.76V27.08ZM67.8517 33.2C66.9584 33.2 66.3051 32.98 65.8917 32.54C65.4784 32.0867 65.2717 31.3533 65.2717 30.34C65.2717 29.3 65.5451 28.56 66.0917 28.12C66.6384 27.6667 67.5984 27.44 68.9717 27.44H70.9517V26.14C70.9517 25.4867 70.8251 25.0733 70.5717 24.9C70.3317 24.7133 69.8717 24.62 69.1917 24.62C68.5917 24.62 67.9517 24.68 67.2717 24.8C66.6051 24.92 66.2584 24.98 66.2317 24.98C65.9917 24.98 65.8717 24.72 65.8717 24.2C65.8717 23.92 65.9051 23.7267 65.9717 23.62C66.0384 23.5 66.1517 23.4133 66.3117 23.36C67.1917 23.0933 68.2184 22.96 69.3917 22.96C70.6584 22.96 71.5517 23.14 72.0717 23.5C72.6051 23.86 72.8717 24.5933 72.8717 25.7V29.18C72.8717 29.7933 72.9051 30.3533 72.9717 30.86C73.0384 31.3533 73.1051 31.74 73.1717 32.02C73.2517 32.3 73.2917 32.4733 73.2917 32.54C73.2917 32.7 73.2317 32.82 73.1117 32.9C72.9917 32.9667 72.7517 33 72.3917 33C72.0584 33 71.8317 32.9733 71.7117 32.92C71.6051 32.8533 71.5251 32.7067 71.4717 32.48L71.1517 31.28C70.5917 32.56 69.4917 33.2 67.8517 33.2ZM68.4917 31.6C69.1851 31.6 69.7651 31.4067 70.2317 31.02C70.7117 30.62 70.9517 30.0533 70.9517 29.32V28.66L68.9317 28.72C68.2117 28.7467 67.7317 28.86 67.4917 29.06C67.2517 29.2467 67.1317 29.6067 67.1317 30.14C67.1317 30.74 67.2317 31.1333 67.4317 31.32C67.6317 31.5067 67.9851 31.6 68.4917 31.6ZM77.3383 36.64C77.2183 36.72 76.9649 36.76 76.5783 36.76C76.1916 36.76 75.9316 36.72 75.7983 36.64C75.6649 36.5733 75.5983 36.4133 75.5983 36.16V26.98C75.5983 26.3667 75.5583 25.8133 75.4783 25.32C75.4116 24.8133 75.3383 24.42 75.2583 24.14C75.1916 23.86 75.1583 23.6867 75.1583 23.62C75.1583 23.46 75.2183 23.3467 75.3383 23.28C75.4583 23.2 75.6983 23.16 76.0583 23.16C76.4049 23.16 76.6316 23.1933 76.7383 23.26C76.8583 23.3133 76.9449 23.4533 76.9983 23.68L77.2383 24.66C77.7849 23.5267 78.8516 22.96 80.4383 22.96C81.7849 22.96 82.6783 23.3 83.1183 23.98C83.5583 24.66 83.7783 26 83.7783 28C83.7783 29.44 83.6383 30.5467 83.3583 31.32C83.0783 32.08 82.6849 32.5867 82.1783 32.84C81.6849 33.08 80.9849 33.2 80.0783 33.2C78.7983 33.2 77.9516 32.84 77.5383 32.12V36.16C77.5383 36.4133 77.4716 36.5733 77.3383 36.64ZM79.6783 31.56C80.2783 31.56 80.7183 31.4733 80.9983 31.3C81.2783 31.1267 81.4783 30.7933 81.5983 30.3C81.7316 29.7933 81.7983 29.0133 81.7983 27.96C81.7983 26.5467 81.6783 25.6333 81.4383 25.22C81.2116 24.8067 80.6983 24.6 79.8983 24.6C79.0449 24.6 78.4316 24.8067 78.0583 25.22C77.6849 25.62 77.4983 26.42 77.4983 27.62V28.72C77.4983 29.8267 77.6383 30.58 77.9183 30.98C78.2116 31.3667 78.7983 31.56 79.6783 31.56ZM89.5861 33.2C88.5461 33.2 87.7594 33.0733 87.2261 32.82C86.7061 32.5533 86.3194 32.0667 86.0661 31.36C85.8261 30.64 85.7061 29.5733 85.7061 28.16C85.7061 26.12 86.0128 24.7467 86.6261 24.04C87.2394 23.32 88.3328 22.96 89.9061 22.96C90.9461 22.96 91.7261 23.0867 92.2461 23.34C92.7661 23.5933 93.1461 24.0733 93.3861 24.78C93.6394 25.4867 93.7661 26.5467 93.7661 27.96C93.7661 30.0133 93.4594 31.4 92.8461 32.12C92.2328 32.84 91.1461 33.2 89.5861 33.2ZM89.6261 31.56C90.5328 31.56 91.1194 31.3467 91.3861 30.92C91.6661 30.48 91.8061 29.5533 91.8061 28.14C91.8061 26.6067 91.6861 25.6333 91.4461 25.22C91.2194 24.8067 90.6794 24.6 89.8261 24.6C88.9328 24.6 88.3528 24.8133 88.0861 25.24C87.8194 25.6667 87.6861 26.58 87.6861 27.98C87.6861 29.5267 87.7994 30.5133 88.0261 30.94C88.2528 31.3533 88.7861 31.56 89.6261 31.56ZM95.7461 35.16C95.4528 35.16 95.2594 35.1267 95.1661 35.06C95.0728 35.0067 95.0261 34.88 95.0261 34.68V32.12C95.0261 31.7733 95.0594 31.5467 95.1261 31.44C95.2061 31.32 95.3594 31.26 95.5861 31.26H96.0661L96.9861 23.76C97.0128 23.5067 97.0861 23.3467 97.2061 23.28C97.3261 23.2 97.5728 23.16 97.9461 23.16H102.366C102.766 23.16 103.026 23.2 103.146 23.28C103.279 23.3467 103.346 23.5067 103.346 23.76V31.26H103.746C104.026 31.26 104.213 31.3 104.306 31.38C104.413 31.46 104.466 31.6333 104.466 31.9V34.68C104.466 34.88 104.419 35.0067 104.326 35.06C104.233 35.1267 104.039 35.16 103.746 35.16C103.426 35.16 103.206 35.1267 103.086 35.06C102.979 35.0067 102.913 34.88 102.886 34.68L102.606 33H96.8861L96.6061 34.68C96.5794 34.88 96.5061 35.0067 96.3861 35.06C96.2794 35.1267 96.0661 35.16 95.7461 35.16ZM98.6661 24.84L97.9061 31.26H101.406V24.84H98.6661ZM107.963 27.08H111.663V23.76C111.663 23.52 111.723 23.36 111.843 23.28C111.977 23.2 112.237 23.16 112.623 23.16C113.01 23.16 113.263 23.2 113.383 23.28C113.517 23.36 113.583 23.52 113.583 23.76V32.4C113.583 32.64 113.517 32.8 113.383 32.88C113.263 32.96 113.01 33 112.623 33C112.237 33 111.977 32.96 111.843 32.88C111.723 32.8 111.663 32.64 111.663 32.4V28.74H107.963V32.4C107.963 32.64 107.897 32.8 107.763 32.88C107.643 32.96 107.39 33 107.003 33C106.603 33 106.337 32.9667 106.203 32.9C106.083 32.82 106.023 32.6533 106.023 32.4V23.76C106.023 23.5067 106.083 23.3467 106.203 23.28C106.337 23.2 106.603 23.16 107.003 23.16C107.39 23.16 107.643 23.2 107.763 23.28C107.897 23.36 107.963 23.52 107.963 23.76V27.08ZM127.026 32.9C126.906 32.9667 126.652 33 126.266 33C125.879 33 125.619 32.9667 125.486 32.9C125.352 32.82 125.286 32.6533 125.286 32.4V23.76C125.286 23.5067 125.352 23.3467 125.486 23.28C125.619 23.2 125.879 23.16 126.266 23.16C126.652 23.16 126.906 23.2 127.026 23.28C127.159 23.3467 127.226 23.5067 127.226 23.76V32.4C127.226 32.6533 127.159 32.82 127.026 32.9ZM119.566 33.16C118.552 33.16 117.566 33.1 116.606 32.98C116.326 32.94 116.139 32.88 116.046 32.8C115.966 32.72 115.926 32.56 115.926 32.32V23.76C115.926 23.5067 115.992 23.3467 116.126 23.28C116.259 23.2 116.519 23.16 116.906 23.16C117.292 23.16 117.546 23.2 117.666 23.28C117.799 23.3467 117.866 23.5067 117.866 23.76V26.88H119.806C121.246 26.88 122.226 27.0733 122.746 27.46C123.279 27.8467 123.546 28.64 123.546 29.84C123.546 31.2 123.246 32.0933 122.646 32.52C122.059 32.9467 121.032 33.16 119.566 33.16ZM119.946 28.48H117.866V31.44C118.426 31.4933 119.026 31.52 119.666 31.52C120.479 31.52 121.006 31.42 121.246 31.22C121.486 31.02 121.606 30.58 121.606 29.9C121.606 29.34 121.499 28.9667 121.286 28.78C121.072 28.58 120.626 28.48 119.946 28.48ZM129.779 33C129.139 33 128.819 32.86 128.819 32.58C128.819 32.4733 128.892 32.3 129.039 32.06L131.699 27.92L129.319 24.24C129.132 23.9467 129.039 23.74 129.039 23.62C129.039 23.4467 129.112 23.3267 129.259 23.26C129.419 23.1933 129.692 23.16 130.079 23.16C130.492 23.16 130.766 23.1867 130.899 23.24C131.032 23.2933 131.146 23.42 131.239 23.62L132.819 26.32H132.899L134.439 23.62C134.532 23.4067 134.646 23.28 134.779 23.24C134.912 23.1867 135.186 23.16 135.599 23.16C135.986 23.16 136.252 23.1933 136.399 23.26C136.559 23.3267 136.639 23.4467 136.639 23.62C136.639 23.7533 136.552 23.9467 136.379 24.2L133.959 27.82L136.619 32.04C136.779 32.28 136.859 32.4533 136.859 32.56C136.859 32.8533 136.539 33 135.899 33C135.472 33 135.179 32.9667 135.019 32.9C134.859 32.82 134.726 32.6533 134.619 32.4L132.859 29.34H132.779L131.059 32.4C130.952 32.6533 130.819 32.82 130.659 32.9C130.499 32.9667 130.206 33 129.779 33ZM146.306 33.2C145.573 33.2 144.986 33.14 144.546 33.02C144.106 32.9133 143.706 32.6933 143.346 32.36C143 32.0133 142.746 31.5067 142.586 30.84C142.44 30.16 142.366 29.2733 142.366 28.18C142.366 27.2467 142.426 26.46 142.546 25.82C142.68 25.1667 142.846 24.66 143.046 24.3C143.246 23.9267 143.526 23.64 143.886 23.44C144.246 23.24 144.6 23.1133 144.946 23.06C145.306 22.9933 145.76 22.96 146.306 22.96C147.173 22.96 148 23.08 148.786 23.32C148.986 23.3867 149.12 23.4733 149.186 23.58C149.266 23.6867 149.306 23.8867 149.306 24.18C149.306 24.7 149.186 24.96 148.946 24.96C148.933 24.96 148.62 24.9067 148.006 24.8C147.406 24.68 146.906 24.62 146.506 24.62C145.906 24.62 145.466 24.6867 145.186 24.82C144.906 24.9533 144.693 25.26 144.546 25.74C144.4 26.22 144.326 26.9667 144.326 27.98C144.326 29.54 144.446 30.52 144.686 30.92C144.94 31.32 145.56 31.52 146.546 31.52C147.08 31.52 147.62 31.4533 148.166 31.32L148.986 31.14C149.2 31.14 149.306 31.4 149.306 31.92C149.306 32.2 149.273 32.4 149.206 32.52C149.14 32.6267 149.006 32.7133 148.806 32.78C148.006 33.06 147.173 33.2 146.306 33.2ZM152.12 33C151.72 33 151.454 32.9667 151.32 32.9C151.2 32.82 151.14 32.6533 151.14 32.4V23.72C151.14 23.4933 151.18 23.3467 151.26 23.28C151.354 23.2 151.534 23.16 151.8 23.16H158.06C158.327 23.16 158.5 23.2 158.58 23.28C158.66 23.3467 158.7 23.4933 158.7 23.72V32.4C158.7 32.64 158.634 32.8 158.5 32.88C158.38 32.96 158.127 33 157.74 33C157.354 33 157.094 32.96 156.96 32.88C156.84 32.8 156.78 32.64 156.78 32.4V24.82H153.08V32.4C153.08 32.64 153.014 32.8 152.88 32.88C152.76 32.96 152.507 33 152.12 33ZM164.723 33.2C163.683 33.2 162.896 33.0733 162.363 32.82C161.843 32.5533 161.456 32.0667 161.203 31.36C160.963 30.64 160.843 29.5733 160.843 28.16C160.843 26.12 161.149 24.7467 161.763 24.04C162.376 23.32 163.469 22.96 165.043 22.96C166.083 22.96 166.863 23.0867 167.383 23.34C167.903 23.5933 168.283 24.0733 168.523 24.78C168.776 25.4867 168.903 26.5467 168.903 27.96C168.903 30.0133 168.596 31.4 167.983 32.12C167.369 32.84 166.283 33.2 164.723 33.2ZM164.763 31.56C165.669 31.56 166.256 31.3467 166.523 30.92C166.803 30.48 166.943 29.5533 166.943 28.14C166.943 26.6067 166.823 25.6333 166.583 25.22C166.356 24.8067 165.816 24.6 164.963 24.6C164.069 24.6 163.489 24.8133 163.223 25.24C162.956 25.6667 162.823 26.58 162.823 27.98C162.823 29.5267 162.936 30.5133 163.163 30.94C163.389 31.3533 163.923 31.56 164.763 31.56ZM172.983 36.64C172.863 36.72 172.609 36.76 172.223 36.76C171.836 36.76 171.576 36.72 171.443 36.64C171.309 36.5733 171.243 36.4133 171.243 36.16V26.98C171.243 26.3667 171.203 25.8133 171.123 25.32C171.056 24.8133 170.983 24.42 170.903 24.14C170.836 23.86 170.803 23.6867 170.803 23.62C170.803 23.46 170.863 23.3467 170.983 23.28C171.103 23.2 171.343 23.16 171.703 23.16C172.049 23.16 172.276 23.1933 172.383 23.26C172.503 23.3133 172.589 23.4533 172.643 23.68L172.883 24.66C173.429 23.5267 174.496 22.96 176.083 22.96C177.429 22.96 178.323 23.3 178.763 23.98C179.203 24.66 179.423 26 179.423 28C179.423 29.44 179.283 30.5467 179.003 31.32C178.723 32.08 178.329 32.5867 177.823 32.84C177.329 33.08 176.629 33.2 175.723 33.2C174.443 33.2 173.596 32.84 173.183 32.12V36.16C173.183 36.4133 173.116 36.5733 172.983 36.64ZM175.323 31.56C175.923 31.56 176.363 31.4733 176.643 31.3C176.923 31.1267 177.123 30.7933 177.243 30.3C177.376 29.7933 177.443 29.0133 177.443 27.96C177.443 26.5467 177.323 25.6333 177.083 25.22C176.856 24.8067 176.343 24.6 175.543 24.6C174.689 24.6 174.076 24.8067 173.703 25.22C173.329 25.62 173.143 26.42 173.143 27.62V28.72C173.143 29.8267 173.283 30.58 173.563 30.98C173.856 31.3667 174.443 31.56 175.323 31.56ZM185.211 32.88C185.091 32.96 184.837 33 184.451 33C184.064 33 183.804 32.96 183.671 32.88C183.537 32.8 183.471 32.64 183.471 32.4V24.9H181.271C181.057 24.9 180.911 24.8467 180.831 24.74C180.751 24.62 180.711 24.3867 180.711 24.04C180.711 23.6933 180.751 23.46 180.831 23.34C180.911 23.22 181.057 23.16 181.271 23.16H187.631C187.844 23.16 187.991 23.22 188.071 23.34C188.151 23.46 188.191 23.6933 188.191 24.04C188.191 24.3867 188.151 24.62 188.071 24.74C187.991 24.8467 187.844 24.9 187.631 24.9H185.411V32.4C185.411 32.64 185.344 32.8 185.211 32.88ZM195.596 23.24C195.756 23.1867 196.042 23.16 196.456 23.16C196.869 23.16 197.149 23.1933 197.296 23.26C197.469 23.3533 197.556 23.54 197.556 23.82V32.4C197.556 32.64 197.489 32.8 197.356 32.88C197.236 32.96 196.982 33 196.596 33C196.209 33 195.949 32.96 195.816 32.88C195.696 32.8 195.636 32.64 195.636 32.4V25.86H195.476L192.116 32.38C191.982 32.6467 191.829 32.82 191.656 32.9C191.482 32.9667 191.196 33 190.796 33C190.382 33 190.102 32.9667 189.956 32.9C189.769 32.8067 189.676 32.62 189.676 32.34V23.76C189.676 23.5067 189.736 23.3467 189.856 23.28C189.989 23.2 190.256 23.16 190.656 23.16C191.042 23.16 191.296 23.2 191.416 23.28C191.549 23.36 191.616 23.52 191.616 23.76V30.2H191.756L195.196 23.68C195.316 23.44 195.449 23.2933 195.596 23.24ZM203.73 31.46C204.57 31.46 205.11 31.3733 205.35 31.2C205.604 31.0133 205.73 30.62 205.73 30.02C205.73 29.4867 205.57 29.12 205.25 28.92C204.93 28.7067 204.324 28.6 203.43 28.6H201.83V31.36C202.364 31.4267 202.997 31.46 203.73 31.46ZM203.65 33.16C202.557 33.16 201.53 33.1 200.57 32.98C200.29 32.94 200.104 32.88 200.01 32.8C199.93 32.72 199.89 32.56 199.89 32.32V23.88C199.89 23.6267 199.937 23.4533 200.03 23.36C200.124 23.2533 200.29 23.1867 200.53 23.16C201.464 23.0533 202.544 23 203.77 23C205.157 23 206.117 23.1533 206.65 23.46C207.184 23.7667 207.45 24.4133 207.45 25.4C207.45 26.2667 207.29 26.88 206.97 27.24C206.65 27.6 206.124 27.8267 205.39 27.92C206.23 28.0267 206.824 28.2467 207.17 28.58C207.517 28.9 207.69 29.5 207.69 30.38C207.69 31.5 207.39 32.2467 206.79 32.62C206.19 32.98 205.144 33.16 203.65 33.16ZM203.61 24.7C202.93 24.7 202.337 24.7333 201.83 24.8V27.28H203.43C204.204 27.28 204.737 27.18 205.03 26.98C205.324 26.78 205.47 26.4133 205.47 25.88C205.47 25.3733 205.35 25.0533 205.11 24.92C204.87 24.7733 204.37 24.7 203.61 24.7ZM211.616 27.08H215.316V23.76C215.316 23.52 215.376 23.36 215.496 23.28C215.629 23.2 215.889 23.16 216.276 23.16C216.662 23.16 216.916 23.2 217.036 23.28C217.169 23.36 217.236 23.52 217.236 23.76V32.4C217.236 32.64 217.169 32.8 217.036 32.88C216.916 32.96 216.662 33 216.276 33C215.889 33 215.629 32.96 215.496 32.88C215.376 32.8 215.316 32.64 215.316 32.4V28.74H211.616V32.4C211.616 32.64 211.549 32.8 211.416 32.88C211.296 32.96 211.042 33 210.656 33C210.256 33 209.989 32.9667 209.856 32.9C209.736 32.82 209.676 32.6533 209.676 32.4V23.76C209.676 23.5067 209.736 23.3467 209.856 23.28C209.989 23.2 210.256 23.16 210.656 23.16C211.042 23.16 211.296 23.2 211.416 23.28C211.549 23.36 211.616 23.52 211.616 23.76V27.08ZM230.678 32.9C230.558 32.9667 230.305 33 229.918 33C229.531 33 229.271 32.9667 229.138 32.9C229.005 32.82 228.938 32.6533 228.938 32.4V23.76C228.938 23.5067 229.005 23.3467 229.138 23.28C229.271 23.2 229.531 23.16 229.918 23.16C230.305 23.16 230.558 23.2 230.678 23.28C230.811 23.3467 230.878 23.5067 230.878 23.76V32.4C230.878 32.6533 230.811 32.82 230.678 32.9ZM223.218 33.16C222.205 33.16 221.218 33.1 220.258 32.98C219.978 32.94 219.791 32.88 219.698 32.8C219.618 32.72 219.578 32.56 219.578 32.32V23.76C219.578 23.5067 219.645 23.3467 219.778 23.28C219.911 23.2 220.171 23.16 220.558 23.16C220.945 23.16 221.198 23.2 221.318 23.28C221.451 23.3467 221.518 23.5067 221.518 23.76V26.88H223.458C224.898 26.88 225.878 27.0733 226.398 27.46C226.931 27.8467 227.198 28.64 227.198 29.84C227.198 31.2 226.898 32.0933 226.298 32.52C225.711 32.9467 224.685 33.16 223.218 33.16ZM223.598 28.48H221.518V31.44C222.078 31.4933 222.678 31.52 223.318 31.52C224.131 31.52 224.658 31.42 224.898 31.22C225.138 31.02 225.258 30.58 225.258 29.9C225.258 29.34 225.151 28.9667 224.938 28.78C224.725 28.58 224.278 28.48 223.598 28.48ZM233.431 33C232.791 33 232.471 32.86 232.471 32.58C232.471 32.4733 232.545 32.3 232.691 32.06L235.351 27.92L232.971 24.24C232.785 23.9467 232.691 23.74 232.691 23.62C232.691 23.4467 232.765 23.3267 232.911 23.26C233.071 23.1933 233.345 23.16 233.731 23.16C234.145 23.16 234.418 23.1867 234.551 23.24C234.685 23.2933 234.798 23.42 234.891 23.62L236.471 26.32H236.551L238.091 23.62C238.185 23.4067 238.298 23.28 238.431 23.24C238.565 23.1867 238.838 23.16 239.251 23.16C239.638 23.16 239.905 23.1933 240.051 23.26C240.211 23.3267 240.291 23.4467 240.291 23.62C240.291 23.7533 240.205 23.9467 240.031 24.2L237.611 27.82L240.271 32.04C240.431 32.28 240.511 32.4533 240.511 32.56C240.511 32.8533 240.191 33 239.551 33C239.125 33 238.831 32.9667 238.671 32.9C238.511 32.82 238.378 32.6533 238.271 32.4L236.511 29.34H236.431L234.711 32.4C234.605 32.6533 234.471 32.82 234.311 32.9C234.151 32.9667 233.858 33 233.431 33ZM7.08 43.24C7.24 43.1867 7.52667 43.16 7.94 43.16C8.35333 43.16 8.63333 43.1933 8.78 43.26C8.95333 43.3533 9.04 43.54 9.04 43.82V52.4C9.04 52.64 8.97333 52.8 8.84 52.88C8.72 52.96 8.46667 53 8.08 53C7.69333 53 7.43333 52.96 7.3 52.88C7.18 52.8 7.12 52.64 7.12 52.4V45.86H6.96L3.6 52.38C3.46667 52.6467 3.31333 52.82 3.14 52.9C2.96667 52.9667 2.68 53 2.28 53C1.86667 53 1.58667 52.9667 1.44 52.9C1.25333 52.8067 1.16 52.62 1.16 52.34V43.76C1.16 43.5067 1.22 43.3467 1.34 43.28C1.47333 43.2 1.74 43.16 2.14 43.16C2.52667 43.16 2.78 43.2 2.9 43.28C3.03333 43.36 3.1 43.52 3.1 43.76V50.2H3.24L6.68 43.68C6.8 43.44 6.93333 43.2933 7.08 43.24ZM12.3548 53C11.9548 53 11.6882 52.9667 11.5548 52.9C11.4348 52.82 11.3748 52.6533 11.3748 52.4V43.72C11.3748 43.4933 11.4148 43.3467 11.4948 43.28C11.5882 43.2 11.7682 43.16 12.0348 43.16H16.3748C16.5882 43.16 16.7348 43.22 16.8148 43.34C16.8948 43.46 16.9348 43.6933 16.9348 44.04C16.9348 44.3867 16.8948 44.62 16.8148 44.74C16.7348 44.8467 16.5882 44.9 16.3748 44.9H13.3148V52.4C13.3148 52.64 13.2482 52.8 13.1148 52.88C12.9948 52.96 12.7415 53 12.3548 53ZM20.2289 56.64C20.1089 56.72 19.8556 56.76 19.4689 56.76C19.0822 56.76 18.8222 56.72 18.6889 56.64C18.5556 56.5733 18.4889 56.4133 18.4889 56.16V46.98C18.4889 46.3667 18.4489 45.8133 18.3689 45.32C18.3022 44.8133 18.2289 44.42 18.1489 44.14C18.0822 43.86 18.0489 43.6867 18.0489 43.62C18.0489 43.46 18.1089 43.3467 18.2289 43.28C18.3489 43.2 18.5889 43.16 18.9489 43.16C19.2956 43.16 19.5222 43.1933 19.6289 43.26C19.7489 43.3133 19.8356 43.4533 19.8889 43.68L20.1289 44.66C20.6756 43.5267 21.7422 42.96 23.3289 42.96C24.6756 42.96 25.5689 43.3 26.0089 43.98C26.4489 44.66 26.6689 46 26.6689 48C26.6689 49.44 26.5289 50.5467 26.2489 51.32C25.9689 52.08 25.5756 52.5867 25.0689 52.84C24.5756 53.08 23.8756 53.2 22.9689 53.2C21.6889 53.2 20.8422 52.84 20.4289 52.12V56.16C20.4289 56.4133 20.3622 56.5733 20.2289 56.64ZM22.5689 51.56C23.1689 51.56 23.6089 51.4733 23.8889 51.3C24.1689 51.1267 24.3689 50.7933 24.4889 50.3C24.6222 49.7933 24.6889 49.0133 24.6889 47.96C24.6889 46.5467 24.5689 45.6333 24.3289 45.22C24.1022 44.8067 23.5889 44.6 22.7889 44.6C21.9356 44.6 21.3222 44.8067 20.9489 45.22C20.5756 45.62 20.3889 46.42 20.3889 47.62V48.72C20.3889 49.8267 20.5289 50.58 20.8089 50.98C21.1022 51.3667 21.6889 51.56 22.5689 51.56Z" fill="black"/>
<path d="M88.7566 11.34L91.3766 1.18C91.4432 0.953333 91.5432 0.806666 91.6766 0.739999C91.8232 0.673333 92.1032 0.639999 92.5166 0.639999C92.9032 0.639999 93.1499 0.673333 93.2566 0.739999C93.3766 0.793333 93.4366 0.906666 93.4366 1.08C93.4366 1.25333 93.3899 1.48667 93.2966 1.78L90.3766 12.22C90.2832 12.5533 90.1299 12.7667 89.9166 12.86C89.7166 12.9533 89.2832 13 88.6166 13C87.9499 13 87.5166 12.9533 87.3166 12.86C87.1166 12.7667 86.9699 12.5533 86.8766 12.22L83.9366 1.78C83.8432 1.48667 83.7966 1.25333 83.7966 1.08C83.7966 0.906666 83.8499 0.793333 83.9566 0.739999C84.0766 0.673333 84.3299 0.639999 84.7166 0.639999C85.1432 0.639999 85.4299 0.679999 85.5766 0.759999C85.7232 0.826666 85.8166 0.966666 85.8566 1.18L88.4966 11.34H88.7566ZM95.89 13C95.49 13 95.2233 12.9667 95.09 12.9C94.97 12.82 94.91 12.6533 94.91 12.4V1.24C94.91 0.986666 94.97 0.826666 95.09 0.759999C95.2233 0.679999 95.49 0.639999 95.89 0.639999C96.2767 0.639999 96.53 0.679999 96.65 0.759999C96.7833 0.84 96.85 1 96.85 1.24V12.4C96.85 12.64 96.7833 12.8 96.65 12.88C96.53 12.96 96.2767 13 95.89 13ZM100.148 13C99.7478 13 99.4811 12.9667 99.3478 12.9C99.2278 12.82 99.1678 12.6533 99.1678 12.4V1.24C99.1678 0.986666 99.2278 0.826666 99.3478 0.759999C99.4811 0.679999 99.7478 0.639999 100.148 0.639999C100.534 0.639999 100.788 0.679999 100.908 0.759999C101.041 0.84 101.108 1 101.108 1.24V12.4C101.108 12.64 101.041 12.8 100.908 12.88C100.788 12.96 100.534 13 100.148 13ZM104.406 13C104.006 13 103.739 12.9667 103.606 12.9C103.486 12.82 103.426 12.6533 103.426 12.4V1.24C103.426 0.986666 103.486 0.826666 103.606 0.759999C103.739 0.679999 104.006 0.639999 104.406 0.639999C104.792 0.639999 105.046 0.679999 105.166 0.759999C105.299 0.84 105.366 1 105.366 1.24V12.4C105.366 12.64 105.299 12.8 105.166 12.88C105.046 12.96 104.792 13 104.406 13Z" fill="#FDC535"/>
<path d="M33.5383 44.62C33.1249 44.62 32.8516 44.5733 32.7183 44.48C32.5983 44.3867 32.5383 44.1933 32.5383 43.9V43.36C32.5383 42.9067 32.6383 42.3467 32.8383 41.68L33.1583 40.6C33.2649 40.32 33.3783 40.14 33.4983 40.06C33.6316 39.9667 33.8649 39.92 34.1983 39.92C34.4383 39.92 34.5983 39.9467 34.6783 40C34.7583 40.0533 34.7983 40.1467 34.7983 40.28C34.7983 40.36 34.7516 40.7067 34.6583 41.32C34.5783 41.92 34.5383 42.4067 34.5383 42.78V43.9C34.5383 44.1933 34.4783 44.3867 34.3583 44.48C34.2383 44.5733 33.9649 44.62 33.5383 44.62ZM36.7183 44.62C36.3049 44.62 36.0383 44.5733 35.9183 44.48C35.7983 44.3867 35.7383 44.1933 35.7383 43.9V43.36C35.7383 42.9067 35.8383 42.3467 36.0383 41.68L36.3583 40.6C36.4649 40.32 36.5783 40.14 36.6983 40.06C36.8183 39.9667 37.0449 39.92 37.3783 39.92C37.6183 39.92 37.7783 39.9467 37.8583 40C37.9383 40.0533 37.9783 40.1467 37.9783 40.28C37.9783 40.36 37.9316 40.7067 37.8383 41.32C37.7583 41.92 37.7183 42.4067 37.7183 42.78V43.9C37.7183 44.1933 37.6583 44.3867 37.5383 44.48C37.4183 44.5733 37.1449 44.62 36.7183 44.62ZM39.8877 55.16C39.5943 55.16 39.401 55.1267 39.3077 55.06C39.2143 55.0067 39.1677 54.88 39.1677 54.68V51.9C39.1677 51.6333 39.2143 51.46 39.3077 51.38C39.4143 51.3 39.6077 51.26 39.8877 51.26H40.2477L41.3077 41.18C41.3343 40.9667 41.381 40.8267 41.4477 40.76C41.5277 40.68 41.701 40.64 41.9677 40.64H47.6077C47.8743 40.64 48.0477 40.68 48.1277 40.76C48.221 40.8267 48.2677 40.9733 48.2677 41.2V51.26H48.6477C48.9277 51.26 49.1143 51.3 49.2077 51.38C49.301 51.46 49.3477 51.6333 49.3477 51.9V54.68C49.3477 54.88 49.301 55.0067 49.2077 55.06C49.1143 55.1267 48.921 55.16 48.6277 55.16C48.3077 55.16 48.0943 55.1333 47.9877 55.08C47.8943 55.0267 47.8277 54.8933 47.7877 54.68L47.4877 53H41.0277L40.7477 54.68C40.721 54.88 40.6477 55.0067 40.5277 55.06C40.421 55.1267 40.2077 55.16 39.8877 55.16ZM43.0277 42.38L42.1077 51.26H46.3277V42.38H43.0277ZM54.7875 53.2C54.1608 53.2 53.6475 53.1667 53.2475 53.1C52.8475 53.0333 52.4675 52.9067 52.1075 52.72C51.7475 52.52 51.4675 52.2333 51.2675 51.86C51.0808 51.4867 50.9275 51 50.8075 50.4C50.7008 49.8 50.6475 49.06 50.6475 48.18C50.6475 47.2467 50.7075 46.46 50.8275 45.82C50.9608 45.18 51.1275 44.6733 51.3275 44.3C51.5275 43.9267 51.8075 43.64 52.1675 43.44C52.5408 43.24 52.9075 43.1133 53.2675 43.06C53.6275 42.9933 54.0942 42.96 54.6675 42.96C55.3075 42.96 55.8408 43.0267 56.2675 43.16C56.7075 43.28 57.0542 43.4533 57.3075 43.68C57.5742 43.9067 57.7742 44.2267 57.9075 44.64C58.0542 45.04 58.1475 45.4667 58.1875 45.92C58.2408 46.36 58.2675 46.9267 58.2675 47.62C58.2675 47.9667 58.2142 48.2133 58.1075 48.36C58.0008 48.5067 57.7875 48.58 57.4675 48.58H52.6075C52.6208 49.8467 52.7675 50.6533 53.0475 51C53.3275 51.3467 53.9608 51.52 54.9475 51.52C55.4008 51.52 55.8408 51.4867 56.2675 51.42C56.7075 51.3533 57.0608 51.2933 57.3275 51.24C57.5942 51.1733 57.7542 51.14 57.8075 51.14C58.0208 51.14 58.1275 51.4 58.1275 51.92C58.1275 52.2 58.0875 52.4 58.0075 52.52C57.9408 52.6267 57.8075 52.7133 57.6075 52.78C56.8342 53.06 55.8942 53.2 54.7875 53.2ZM54.6275 44.58C53.8675 44.58 53.3475 44.7467 53.0675 45.08C52.8008 45.4133 52.6475 46.1533 52.6075 47.3H56.4075C56.4075 46.2333 56.3075 45.5133 56.1075 45.14C55.9208 44.7667 55.4275 44.58 54.6275 44.58ZM63.9216 52.88C63.8016 52.96 63.5482 53 63.1616 53C62.7749 53 62.5149 52.96 62.3816 52.88C62.2482 52.8 62.1816 52.64 62.1816 52.4V44.9H59.9816C59.7682 44.9 59.6216 44.8467 59.5416 44.74C59.4616 44.62 59.4216 44.3867 59.4216 44.04C59.4216 43.6933 59.4616 43.46 59.5416 43.34C59.6216 43.22 59.7682 43.16 59.9816 43.16H66.3416C66.5549 43.16 66.7016 43.22 66.7816 43.34C66.8616 43.46 66.9016 43.6933 66.9016 44.04C66.9016 44.3867 66.8616 44.62 66.7816 44.74C66.7016 44.8467 66.5549 44.9 66.3416 44.9H64.1216V52.4C64.1216 52.64 64.0549 52.8 63.9216 52.88ZM74.3066 43.24C74.4666 43.1867 74.7532 43.16 75.1666 43.16C75.5799 43.16 75.8599 43.1933 76.0066 43.26C76.1799 43.3533 76.2666 43.54 76.2666 43.82V52.4C76.2666 52.64 76.1999 52.8 76.0666 52.88C75.9466 52.96 75.6932 53 75.3066 53C74.9199 53 74.6599 52.96 74.5266 52.88C74.4066 52.8 74.3466 52.64 74.3466 52.4V45.86H74.1866L70.8266 52.38C70.6932 52.6467 70.5399 52.82 70.3666 52.9C70.1932 52.9667 69.9066 53 69.5066 53C69.0932 53 68.8132 52.9667 68.6666 52.9C68.4799 52.8067 68.3866 52.62 68.3866 52.34V43.76C68.3866 43.5067 68.4466 43.3467 68.5666 43.28C68.6999 43.2 68.9666 43.16 69.3666 43.16C69.7532 43.16 70.0066 43.2 70.1266 43.28C70.2599 43.36 70.3266 43.52 70.3266 43.76V50.2H70.4666L73.9066 43.68C74.0266 43.44 74.1599 43.2933 74.3066 43.24ZM82.783 53C82.4096 53 82.163 52.9667 82.043 52.9C81.923 52.8333 81.863 52.7133 81.863 52.54C81.863 52.4333 81.903 52.24 81.983 51.96L84.963 41.52C85.0696 41.1333 85.2296 40.8933 85.443 40.8C85.6563 40.6933 86.103 40.64 86.783 40.64C87.4496 40.64 87.8896 40.6933 88.103 40.8C88.3163 40.8933 88.4763 41.1333 88.583 41.52L91.563 51.96C91.643 52.24 91.683 52.4333 91.683 52.54C91.683 52.7133 91.623 52.8333 91.503 52.9C91.383 52.9667 91.1363 53 90.763 53C90.363 53 90.0963 52.9667 89.963 52.9C89.8296 52.82 89.7296 52.6733 89.663 52.46L88.803 49.46H84.683L83.883 52.46C83.8163 52.6867 83.7163 52.8333 83.583 52.9C83.463 52.9667 83.1963 53 82.783 53ZM86.643 42.3L85.103 47.94H88.443L86.903 42.3H86.643ZM94.2517 48.52C94.1851 48.4133 94.1517 48.22 94.1517 47.94C94.1517 47.66 94.1851 47.4667 94.2517 47.36C94.3317 47.2533 94.4851 47.2 94.7117 47.2H95.4517C96.2517 47.2 96.7984 47.1067 97.0917 46.92C97.3984 46.7333 97.5517 46.3733 97.5517 45.84C97.5517 45.3333 97.4517 45.02 97.2517 44.9C97.0517 44.7667 96.5917 44.7 95.8717 44.7C95.3117 44.7 94.7451 44.74 94.1717 44.82C93.5984 44.8867 93.2984 44.92 93.2717 44.92C93.0184 44.92 92.8917 44.66 92.8917 44.14C92.8917 43.82 92.9251 43.6067 92.9917 43.5C93.0717 43.3933 93.1984 43.32 93.3717 43.28C94.2251 43.0933 95.2251 43 96.3717 43C97.4651 43 98.2651 43.16 98.7717 43.48C99.2917 43.7867 99.5517 44.4067 99.5517 45.34C99.5517 46.26 99.3917 46.9 99.0717 47.26C98.7517 47.6067 98.2184 47.8267 97.4717 47.92C98.3251 48.0267 98.9251 48.24 99.2717 48.56C99.6184 48.8667 99.7917 49.4533 99.7917 50.32C99.7917 51.4533 99.5117 52.2133 98.9517 52.6C98.3917 52.9733 97.4717 53.16 96.1917 53.16C95.0184 53.16 93.9784 53.06 93.0717 52.86C92.8584 52.8067 92.7117 52.7267 92.6317 52.62C92.5651 52.5133 92.5317 52.2933 92.5317 51.96C92.5317 51.6533 92.5584 51.4467 92.6117 51.34C92.6651 51.2333 92.7584 51.18 92.8917 51.18C92.9317 51.18 93.2717 51.2267 93.9117 51.32C94.5517 51.4133 95.1651 51.46 95.7517 51.46C96.6184 51.46 97.1784 51.3733 97.4317 51.2C97.6851 51.0267 97.8117 50.6467 97.8117 50.06C97.8117 49.5267 97.6517 49.16 97.3317 48.96C97.0251 48.76 96.4117 48.66 95.4917 48.66H94.7117C94.4851 48.66 94.3317 48.6133 94.2517 48.52ZM107.822 43.24C107.982 43.1867 108.269 43.16 108.682 43.16C109.096 43.16 109.376 43.1933 109.522 43.26C109.696 43.3533 109.782 43.54 109.782 43.82V52.4C109.782 52.64 109.716 52.8 109.582 52.88C109.462 52.96 109.209 53 108.822 53C108.436 53 108.176 52.96 108.042 52.88C107.922 52.8 107.862 52.64 107.862 52.4V45.86H107.702L104.342 52.38C104.209 52.6467 104.056 52.82 103.882 52.9C103.709 52.9667 103.422 53 103.022 53C102.609 53 102.329 52.9667 102.182 52.9C101.996 52.8067 101.902 52.62 101.902 52.34V43.76C101.902 43.5067 101.962 43.3467 102.082 43.28C102.216 43.2 102.482 43.16 102.882 43.16C103.269 43.16 103.522 43.2 103.642 43.28C103.776 43.36 103.842 43.52 103.842 43.76V50.2H103.982L107.422 43.68C107.542 43.44 107.676 43.2933 107.822 43.24ZM118.037 43.24C118.197 43.1867 118.484 43.16 118.897 43.16C119.31 43.16 119.59 43.1933 119.737 43.26C119.91 43.3533 119.997 43.54 119.997 43.82V52.4C119.997 52.64 119.93 52.8 119.797 52.88C119.677 52.96 119.424 53 119.037 53C118.65 53 118.39 52.96 118.257 52.88C118.137 52.8 118.077 52.64 118.077 52.4V45.86H117.917L114.557 52.38C114.424 52.6467 114.27 52.82 114.097 52.9C113.924 52.9667 113.637 53 113.237 53C112.824 53 112.544 52.9667 112.397 52.9C112.21 52.8067 112.117 52.62 112.117 52.34V43.76C112.117 43.5067 112.177 43.3467 112.297 43.28C112.43 43.2 112.697 43.16 113.097 43.16C113.484 43.16 113.737 43.2 113.857 43.28C113.99 43.36 114.057 43.52 114.057 43.76V50.2H114.197L117.637 43.68C117.757 43.44 117.89 43.2933 118.037 43.24ZM126.472 39.92C126.885 39.92 127.152 39.9667 127.272 40.06C127.392 40.1533 127.452 40.3467 127.452 40.64V41.18C127.452 41.66 127.352 42.22 127.152 42.86L126.832 43.96C126.725 44.24 126.612 44.42 126.492 44.5C126.372 44.58 126.145 44.62 125.812 44.62C125.572 44.62 125.412 44.5933 125.332 44.54C125.252 44.4867 125.212 44.3933 125.212 44.26C125.212 44.18 125.252 43.84 125.332 43.24C125.425 42.64 125.472 42.1467 125.472 41.76V40.64C125.472 40.3467 125.532 40.1533 125.652 40.06C125.772 39.9667 126.045 39.92 126.472 39.92ZM123.272 39.92C123.699 39.92 123.972 39.9667 124.092 40.06C124.212 40.1533 124.272 40.3467 124.272 40.64V41.18C124.272 41.66 124.172 42.22 123.972 42.86L123.652 43.96C123.545 44.24 123.425 44.42 123.292 44.5C123.172 44.58 122.952 44.62 122.632 44.62C122.379 44.62 122.212 44.5933 122.132 44.54C122.052 44.4867 122.012 44.3933 122.012 44.26C122.012 44.18 122.059 43.84 122.152 43.24C122.245 42.64 122.292 42.1467 122.292 41.76V40.64C122.292 40.3467 122.352 40.1533 122.472 40.06C122.592 39.9667 122.859 39.92 123.272 39.92Z" fill="#FF631F"/>
</svg>
