<svg width="18" height="15" viewBox="0 0 18 15" fill="none" xmlns="http://www.w3.org/2000/svg">
<g id="eye icon">
<ellipse id="Ellipse 1" cx="9.00039" cy="7.05871" rx="3.6" ry="3.52941" fill="#9EA9BC"/>
<path id="Ellipse 2" d="M18 7.5C18 6.51509 17.7672 5.53982 17.3149 4.62987C16.8626 3.71993 16.1997 2.89314 15.364 2.1967C14.5282 1.50026 13.5361 0.947814 12.4442 0.570903C11.3522 0.193993 10.1819 -4.3052e-08 9 0C7.8181 4.3052e-08 6.64778 0.193993 5.55585 0.570904C4.46392 0.947814 3.47177 1.50026 2.63604 2.1967C1.80031 2.89314 1.13738 3.71993 0.685084 4.62987C0.232792 5.53982 -1.03325e-07 6.51509 0 7.5H1.88257C1.88257 6.72111 2.06667 5.94984 2.42435 5.23023C2.78204 4.51063 3.3063 3.85678 3.96722 3.30602C4.62813 2.75525 5.41275 2.31837 6.27628 2.0203C7.1398 1.72223 8.06533 1.56881 9 1.56881C9.93467 1.56881 10.8602 1.72223 11.7237 2.0203C12.5872 2.31837 13.3719 2.75525 14.0328 3.30602C14.6937 3.85678 15.218 4.51063 15.5756 5.23023C15.9333 5.94984 16.1174 6.72111 16.1174 7.5H18Z" fill="#9EA9BC"/>
</g>
</svg>
