<svg width="84" height="20" viewBox="0 0 84 20" fill="none" xmlns="http://www.w3.org/2000/svg">
<rect width="84" height="20" rx="3" fill="#FF631F"/>
<path d="M11.177 13C10.957 13 10.8103 12.9817 10.737 12.945C10.671 12.901 10.638 12.8093 10.638 12.67V6.532C10.638 6.39267 10.671 6.30467 10.737 6.268C10.8103 6.224 10.957 6.202 11.177 6.202C11.3897 6.202 11.529 6.224 11.595 6.268C11.6683 6.312 11.705 6.4 11.705 6.532V9.194H11.87L13.674 6.455C13.74 6.35233 13.8133 6.28633 13.894 6.257C13.982 6.22033 14.1397 6.202 14.367 6.202C14.697 6.202 14.862 6.27533 14.862 6.422C14.862 6.52467 14.818 6.63833 14.73 6.763L12.783 9.546L14.785 12.34C14.9243 12.538 14.994 12.6773 14.994 12.758C14.994 12.9193 14.8143 13 14.455 13C14.2643 13 14.1213 12.9853 14.026 12.956C13.938 12.9193 13.8573 12.8497 13.784 12.747L11.859 9.909H11.705V12.67C11.705 12.802 11.6683 12.89 11.595 12.934C11.529 12.978 11.3897 13 11.177 13ZM15.2693 7.863C15.2693 7.76767 15.3023 7.698 15.3683 7.654C15.4417 7.61 15.592 7.588 15.8193 7.588C16.032 7.588 16.175 7.60633 16.2483 7.643C16.3217 7.67233 16.373 7.74567 16.4023 7.863L17.5023 12.087H17.6013L18.7233 7.863C18.7527 7.74567 18.8003 7.67233 18.8663 7.643C18.9397 7.60633 19.0827 7.588 19.2953 7.588C19.5227 7.588 19.673 7.61 19.7463 7.654C19.827 7.69067 19.8673 7.75667 19.8673 7.852C19.8673 7.96933 19.816 8.193 19.7133 8.523L18.2173 13.451C18.0193 14.1183 17.814 14.5657 17.6013 14.793C17.396 15.0203 17.044 15.134 16.5453 15.134C16.1787 15.134 15.856 15.09 15.5773 15.002C15.4747 14.9727 15.4013 14.9287 15.3573 14.87C15.3207 14.8113 15.3023 14.7087 15.3023 14.562C15.3023 14.2687 15.3683 14.122 15.5003 14.122C15.515 14.122 15.6213 14.1367 15.8193 14.166C16.0247 14.1953 16.2263 14.21 16.4243 14.21C16.681 14.21 16.8607 14.166 16.9633 14.078C17.066 13.9973 17.1503 13.8287 17.2163 13.572L17.3593 13C17.1173 12.9927 16.945 12.9523 16.8423 12.879C16.747 12.7983 16.6663 12.6553 16.6003 12.45L15.4453 8.666C15.328 8.28467 15.2693 8.017 15.2693 7.863ZM21.2747 13C21.0547 13 20.908 12.9817 20.8347 12.945C20.7687 12.901 20.7357 12.8093 20.7357 12.67V7.896C20.7357 7.77133 20.7577 7.69067 20.8017 7.654C20.853 7.61 20.952 7.588 21.0987 7.588H24.5417C24.6883 7.588 24.7837 7.61 24.8277 7.654C24.8717 7.69067 24.8937 7.77133 24.8937 7.896V12.67C24.8937 12.802 24.857 12.89 24.7837 12.934C24.7177 12.978 24.5783 13 24.3657 13C24.153 13 24.01 12.978 23.9367 12.934C23.8707 12.89 23.8377 12.802 23.8377 12.67V8.501H21.8027V12.67C21.8027 12.802 21.766 12.89 21.6927 12.934C21.6267 12.978 21.4873 13 21.2747 13ZM29.4379 7.632C29.5259 7.60267 29.6836 7.588 29.9109 7.588C30.1383 7.588 30.2923 7.60633 30.3729 7.643C30.4683 7.69433 30.5159 7.797 30.5159 7.951V12.67C30.5159 12.802 30.4793 12.89 30.4059 12.934C30.3399 12.978 30.2006 13 29.9879 13C29.7753 13 29.6323 12.978 29.5589 12.934C29.4929 12.89 29.4599 12.802 29.4599 12.67V9.073H29.3719L27.5239 12.659C27.4506 12.8057 27.3663 12.901 27.2709 12.945C27.1756 12.9817 27.0179 13 26.7979 13C26.5706 13 26.4166 12.9817 26.3359 12.945C26.2333 12.8937 26.1819 12.791 26.1819 12.637V7.918C26.1819 7.77867 26.2149 7.69067 26.2809 7.654C26.3543 7.61 26.5009 7.588 26.7209 7.588C26.9336 7.588 27.0729 7.61 27.1389 7.654C27.2123 7.698 27.2489 7.786 27.2489 7.918V11.46H27.3259L29.2179 7.874C29.2839 7.742 29.3573 7.66133 29.4379 7.632ZM33.8131 12.934C33.7471 12.978 33.6078 13 33.3951 13C33.1824 13 33.0394 12.978 32.9661 12.934C32.8928 12.89 32.8561 12.802 32.8561 12.67V8.545H31.6461C31.5288 8.545 31.4481 8.51567 31.4041 8.457C31.3601 8.391 31.3381 8.26267 31.3381 8.072C31.3381 7.88133 31.3601 7.753 31.4041 7.687C31.4481 7.621 31.5288 7.588 31.6461 7.588H35.1441C35.2614 7.588 35.3421 7.621 35.3861 7.687C35.4301 7.753 35.4521 7.88133 35.4521 8.072C35.4521 8.26267 35.4301 8.391 35.3861 8.457C35.3421 8.51567 35.2614 8.545 35.1441 8.545H33.9231V12.67C33.9231 12.802 33.8864 12.89 33.8131 12.934ZM38.2709 13.088C37.7135 13.088 37.1709 13.055 36.6429 12.989C36.4889 12.967 36.3862 12.934 36.3349 12.89C36.2909 12.846 36.2689 12.758 36.2689 12.626V7.918C36.2689 7.77867 36.3055 7.69067 36.3789 7.654C36.4522 7.61 36.5952 7.588 36.8079 7.588C37.0205 7.588 37.1599 7.61 37.2259 7.654C37.2992 7.69067 37.3359 7.77867 37.3359 7.918V9.634H38.4029C39.1949 9.634 39.7339 9.74033 40.0199 9.953C40.3132 10.1657 40.4599 10.602 40.4599 11.262C40.4599 12.01 40.2949 12.5013 39.9649 12.736C39.6422 12.9707 39.0775 13.088 38.2709 13.088ZM38.4799 10.514H37.3359V12.142C37.6439 12.1713 37.9739 12.186 38.3259 12.186C38.7732 12.186 39.0629 12.131 39.1949 12.021C39.3269 11.911 39.3929 11.669 39.3929 11.295C39.3929 10.987 39.3342 10.7817 39.2169 10.679C39.0995 10.569 38.8539 10.514 38.4799 10.514ZM45.9575 13.11C45.0701 13.11 44.4651 12.923 44.1425 12.549C43.8198 12.175 43.6585 11.4673 43.6585 10.426V8.116C43.6585 7.16267 43.8345 6.51733 44.1865 6.18C44.5385 5.83533 45.1251 5.663 45.9465 5.663C46.4818 5.663 47.0575 5.71433 47.6735 5.817C47.8348 5.839 47.9155 5.98933 47.9155 6.268C47.9155 6.53933 47.8495 6.675 47.7175 6.675C47.6881 6.675 47.4901 6.65667 47.1235 6.62C46.7568 6.58333 46.4305 6.565 46.1445 6.565C45.5945 6.565 45.2241 6.642 45.0335 6.796C44.8428 6.95 44.7475 7.313 44.7475 7.885V8.226C44.9821 7.72733 45.4991 7.478 46.2985 7.478C46.7898 7.478 47.1565 7.54767 47.3985 7.687C47.6478 7.82633 47.8311 8.10133 47.9485 8.512C48.0658 8.91533 48.1245 9.524 48.1245 10.338C48.1245 11.108 48.0475 11.6947 47.8935 12.098C47.7468 12.5013 47.5268 12.7727 47.2335 12.912C46.9401 13.044 46.5148 13.11 45.9575 13.11ZM45.9575 12.208C46.2875 12.208 46.5221 12.1603 46.6615 12.065C46.8081 11.9623 46.9071 11.7827 46.9585 11.526C47.0098 11.262 47.0355 10.8293 47.0355 10.228C47.0355 9.656 46.9988 9.24533 46.9255 8.996C46.8595 8.73933 46.7495 8.57433 46.5955 8.501C46.4488 8.42033 46.2031 8.38 45.8585 8.38C45.4331 8.38 45.1398 8.49733 44.9785 8.732C44.8171 8.96667 44.7365 9.447 44.7365 10.173V10.382C44.7365 11.13 44.8171 11.6213 44.9785 11.856C45.1398 12.0907 45.4661 12.208 45.9575 12.208ZM52.5444 7.632C52.6324 7.60267 52.7901 7.588 53.0174 7.588C53.2447 7.588 53.3987 7.60633 53.4794 7.643C53.5747 7.69433 53.6224 7.797 53.6224 7.951V12.67C53.6224 12.802 53.5857 12.89 53.5124 12.934C53.4464 12.978 53.3071 13 53.0944 13C52.8817 13 52.7387 12.978 52.6654 12.934C52.5994 12.89 52.5664 12.802 52.5664 12.67V9.073H52.4784L50.6304 12.659C50.5571 12.8057 50.4727 12.901 50.3774 12.945C50.2821 12.9817 50.1244 13 49.9044 13C49.6771 13 49.5231 12.9817 49.4424 12.945C49.3397 12.8937 49.2884 12.791 49.2884 12.637V7.918C49.2884 7.77867 49.3214 7.69067 49.3874 7.654C49.4607 7.61 49.6074 7.588 49.8274 7.588C50.0401 7.588 50.1794 7.61 50.2454 7.654C50.3187 7.698 50.3554 7.786 50.3554 7.918V11.46H50.4324L52.3244 7.874C52.3904 7.742 52.4637 7.66133 52.5444 7.632ZM58.6906 13C58.4779 13 58.3349 12.978 58.2616 12.934C58.1956 12.89 58.1626 12.802 58.1626 12.67V8.512H56.6556L56.2486 12.131C56.2119 12.461 56.1202 12.703 55.9736 12.857C55.8342 13.011 55.5959 13.088 55.2586 13.088C55.0386 13.088 54.8259 13.066 54.6206 13.022C54.5032 13 54.4226 12.956 54.3786 12.89C54.3419 12.824 54.3236 12.703 54.3236 12.527C54.3236 12.3657 54.3382 12.263 54.3676 12.219C54.3969 12.1677 54.4482 12.142 54.5216 12.142C54.5582 12.142 54.6206 12.1493 54.7086 12.164C54.7966 12.1713 54.8699 12.175 54.9286 12.175C55.0532 12.175 55.1376 12.1457 55.1816 12.087C55.2256 12.021 55.2622 11.8817 55.2916 11.669L55.7316 7.918C55.7462 7.77867 55.7792 7.69067 55.8306 7.654C55.8819 7.61 55.9846 7.588 56.1386 7.588H58.8666C59.0132 7.588 59.1086 7.61 59.1526 7.654C59.2039 7.69067 59.2296 7.77133 59.2296 7.896V12.67C59.2296 12.8093 59.1929 12.901 59.1196 12.945C59.0536 12.9817 58.9106 13 58.6906 13ZM62.6702 13.11C62.3256 13.11 62.0432 13.0917 61.8232 13.055C61.6032 13.0183 61.3942 12.9487 61.1962 12.846C60.9982 12.736 60.8442 12.5783 60.7342 12.373C60.6316 12.1677 60.5472 11.9 60.4812 11.57C60.4226 11.24 60.3932 10.833 60.3932 10.349C60.3932 9.83567 60.4262 9.403 60.4922 9.051C60.5656 8.699 60.6572 8.42033 60.7672 8.215C60.8772 8.00967 61.0312 7.852 61.2292 7.742C61.4346 7.632 61.6362 7.56233 61.8342 7.533C62.0322 7.49633 62.2889 7.478 62.6042 7.478C62.9562 7.478 63.2496 7.51467 63.4842 7.588C63.7262 7.654 63.9169 7.74933 64.0562 7.874C64.2029 7.99867 64.3129 8.17467 64.3862 8.402C64.4669 8.622 64.5182 8.85667 64.5402 9.106C64.5696 9.348 64.5842 9.65967 64.5842 10.041C64.5842 10.2317 64.5549 10.3673 64.4962 10.448C64.4376 10.5287 64.3202 10.569 64.1442 10.569H61.4712C61.4786 11.2657 61.5592 11.7093 61.7132 11.9C61.8672 12.0907 62.2156 12.186 62.7582 12.186C63.0076 12.186 63.2496 12.1677 63.4842 12.131C63.7262 12.0943 63.9206 12.0613 64.0672 12.032C64.2139 11.9953 64.3019 11.977 64.3312 11.977C64.4486 11.977 64.5072 12.12 64.5072 12.406C64.5072 12.56 64.4852 12.67 64.4412 12.736C64.4046 12.7947 64.3312 12.8423 64.2212 12.879C63.7959 13.033 63.2789 13.11 62.6702 13.11ZM62.5822 8.369C62.1642 8.369 61.8782 8.46067 61.7242 8.644C61.5776 8.82733 61.4932 9.23433 61.4712 9.865H63.5612C63.5612 9.27833 63.5062 8.88233 63.3962 8.677C63.2936 8.47167 63.0222 8.369 62.5822 8.369ZM67.694 12.934C67.628 12.978 67.4886 13 67.276 13C67.0633 13 66.9203 12.978 66.847 12.934C66.7736 12.89 66.737 12.802 66.737 12.67V8.545H65.527C65.4096 8.545 65.329 8.51567 65.285 8.457C65.241 8.391 65.219 8.26267 65.219 8.072C65.219 7.88133 65.241 7.753 65.285 7.687C65.329 7.621 65.4096 7.588 65.527 7.588H69.025C69.1423 7.588 69.223 7.621 69.267 7.687C69.311 7.753 69.333 7.88133 69.333 8.072C69.333 8.26267 69.311 8.391 69.267 8.457C69.223 8.51567 69.1423 8.545 69.025 8.545H67.804V12.67C67.804 12.802 67.7673 12.89 67.694 12.934Z" fill="white"/>
</svg>
