<svg width="317" height="261" viewBox="0 0 317 261" fill="none" xmlns="http://www.w3.org/2000/svg">
<rect x="1" y="1" width="315" height="259" rx="8" stroke="#FF631F" stroke-width="2"/>
<path d="M20.26 30.48C20.9667 30.48 21.4733 30.3933 21.78 30.22C22.1 30.0333 22.3267 29.66 22.46 29.1C22.6067 28.5267 22.68 27.6133 22.68 26.36V25.34C22.68 24.3667 22.6533 23.6333 22.6 23.14C22.56 22.6333 22.44 22.2267 22.24 21.92C22.0533 21.6 21.82 21.4067 21.54 21.34C21.26 21.26 20.8333 21.22 20.26 21.22C19.5533 21.22 19.04 21.3133 18.72 21.5C18.4133 21.6733 18.1867 22.0467 18.04 22.62C17.9067 23.18 17.84 24.0867 17.84 25.34V26.36C17.84 27.3333 17.86 28.0733 17.9 28.58C17.9533 29.0733 18.0733 29.48 18.26 29.8C18.46 30.1067 18.7 30.3 18.98 30.38C19.26 30.4467 19.6867 30.48 20.26 30.48ZM20.26 32.16C19.38 32.16 18.6933 32.1067 18.2 32C17.72 31.88 17.2867 31.6267 16.9 31.24C16.5133 30.84 16.2467 30.2733 16.1 29.54C15.9667 28.7933 15.9 27.7867 15.9 26.52V25.26C15.9 23.9667 15.9733 22.9333 16.12 22.16C16.28 21.3867 16.56 20.8133 16.96 20.44C17.36 20.0533 17.7933 19.8067 18.26 19.7C18.74 19.5933 19.4067 19.54 20.26 19.54C21.1533 19.54 21.8467 19.6 22.34 19.72C22.8333 19.8267 23.2667 20.08 23.64 20.48C24.0267 20.88 24.2867 21.4533 24.42 22.2C24.5533 22.9467 24.62 23.9667 24.62 25.26V26.52C24.62 27.7867 24.54 28.8067 24.38 29.58C24.22 30.34 23.9333 30.9067 23.52 31.28C23.12 31.6533 22.6867 31.8933 22.22 32C21.7533 32.1067 21.1 32.16 20.26 32.16ZM28.4273 31.9C28.3073 31.9667 28.054 32 27.6673 32C27.2807 32 27.0207 31.9667 26.8873 31.9C26.754 31.82 26.6873 31.6533 26.6873 31.4V22.76C26.6873 22.5067 26.754 22.3467 26.8873 22.28C27.0207 22.2 27.2807 22.16 27.6673 22.16C28.054 22.16 28.3073 22.2 28.4273 22.28C28.5607 22.3467 28.6273 22.5067 28.6273 22.76V26.24H28.8273L31.6673 22.64C31.8273 22.44 31.9807 22.3133 32.1273 22.26C32.274 22.1933 32.5407 22.16 32.9273 22.16C33.554 22.16 33.8673 22.2733 33.8673 22.5C33.8673 22.6733 33.774 22.8733 33.5873 23.1L30.5473 26.86L33.8473 31.08C34.0207 31.3067 34.1073 31.4867 34.1073 31.62C34.1073 31.8733 33.774 32 33.1073 32C32.734 32 32.4807 31.9733 32.3473 31.92C32.214 31.8533 32.0673 31.72 31.9073 31.52L28.8073 27.5H28.6273V31.4C28.6273 31.6533 28.5607 31.82 28.4273 31.9ZM39.195 31.88C39.075 31.96 38.8217 32 38.435 32C38.0483 32 37.7883 31.96 37.655 31.88C37.5217 31.8 37.455 31.64 37.455 31.4V23.9H35.255C35.0417 23.9 34.895 23.8467 34.815 23.74C34.735 23.62 34.695 23.3867 34.695 23.04C34.695 22.6933 34.735 22.46 34.815 22.34C34.895 22.22 35.0417 22.16 35.255 22.16H41.615C41.8283 22.16 41.975 22.22 42.055 22.34C42.135 22.46 42.175 22.6933 42.175 23.04C42.175 23.3867 42.135 23.62 42.055 23.74C41.975 23.8467 41.8283 23.9 41.615 23.9H39.395V31.4C39.395 31.64 39.3283 31.8 39.195 31.88ZM44.1 32C43.5133 32 43.22 31.88 43.22 31.64C43.22 31.5333 43.3067 31.3267 43.48 31.02L45.22 27.96C44.58 27.8 44.1267 27.5067 43.86 27.08C43.6067 26.6533 43.48 26.0133 43.48 25.16C43.48 23.88 43.78 23.0333 44.38 22.62C44.98 22.2067 46.02 22 47.5 22C48.3267 22 49.3067 22.06 50.44 22.18C50.7333 22.2067 50.92 22.2667 51 22.36C51.0933 22.44 51.14 22.6 51.14 22.84V31.4C51.14 31.6533 51.0733 31.82 50.94 31.9C50.8067 31.9667 50.5467 32 50.16 32C49.7733 32 49.5133 31.9667 49.38 31.9C49.26 31.82 49.2 31.6533 49.2 31.4V28.14H46.98L45.32 31.48C45.2133 31.7067 45.0867 31.8533 44.94 31.92C44.8067 31.9733 44.5267 32 44.1 32ZM45.46 25.3C45.46 25.8333 45.5667 26.1867 45.78 26.36C45.9933 26.52 46.44 26.6 47.12 26.6H49.2V23.8C48.7067 23.7333 48.1 23.7 47.38 23.7C46.58 23.7 46.06 23.8 45.82 24C45.58 24.2 45.46 24.6333 45.46 25.3ZM57.5647 32.2C55.9514 32.2 54.8514 31.86 54.2647 31.18C53.678 30.5 53.3847 29.2133 53.3847 27.32V23.12C53.3847 21.3867 53.7047 20.2133 54.3447 19.6C54.9847 18.9733 56.0514 18.66 57.5447 18.66C58.518 18.66 59.5647 18.7533 60.6847 18.94C60.978 18.98 61.1247 19.2533 61.1247 19.76C61.1247 20.2533 61.0047 20.5 60.7647 20.5C60.7114 20.5 60.3514 20.4667 59.6847 20.4C59.018 20.3333 58.4247 20.3 57.9047 20.3C56.9047 20.3 56.2314 20.44 55.8847 20.72C55.538 21 55.3647 21.66 55.3647 22.7V23.32C55.7914 22.4133 56.7314 21.96 58.1847 21.96C59.078 21.96 59.7447 22.0867 60.1847 22.34C60.638 22.5933 60.9714 23.0933 61.1847 23.84C61.398 24.5733 61.5047 25.68 61.5047 27.16C61.5047 28.56 61.3647 29.6267 61.0847 30.36C60.818 31.0933 60.418 31.5867 59.8847 31.84C59.3514 32.08 58.578 32.2 57.5647 32.2ZM57.5647 30.56C58.1647 30.56 58.5914 30.4733 58.8447 30.3C59.1114 30.1133 59.2914 29.7867 59.3847 29.32C59.478 28.84 59.5247 28.0533 59.5247 26.96C59.5247 25.92 59.458 25.1733 59.3247 24.72C59.2047 24.2533 59.0047 23.9533 58.7247 23.82C58.458 23.6733 58.0114 23.6 57.3847 23.6C56.6114 23.6 56.078 23.8133 55.7847 24.24C55.4914 24.6667 55.3447 25.54 55.3447 26.86V27.24C55.3447 28.6 55.4914 29.4933 55.7847 29.92C56.078 30.3467 56.6714 30.56 57.5647 30.56ZM65.5609 35.64C65.4409 35.72 65.1876 35.76 64.8009 35.76C64.4143 35.76 64.1543 35.72 64.0209 35.64C63.8876 35.5733 63.8209 35.4133 63.8209 35.16V25.98C63.8209 25.3667 63.7809 24.8133 63.7009 24.32C63.6343 23.8133 63.5609 23.42 63.4809 23.14C63.4143 22.86 63.3809 22.6867 63.3809 22.62C63.3809 22.46 63.4409 22.3467 63.5609 22.28C63.6809 22.2 63.9209 22.16 64.2809 22.16C64.6276 22.16 64.8543 22.1933 64.9609 22.26C65.0809 22.3133 65.1676 22.4533 65.2209 22.68L65.4609 23.66C66.0076 22.5267 67.0743 21.96 68.6609 21.96C70.0076 21.96 70.9009 22.3 71.3409 22.98C71.7809 23.66 72.0009 25 72.0009 27C72.0009 28.44 71.8609 29.5467 71.5809 30.32C71.3009 31.08 70.9076 31.5867 70.4009 31.84C69.9076 32.08 69.2076 32.2 68.3009 32.2C67.0209 32.2 66.1743 31.84 65.7609 31.12V35.16C65.7609 35.4133 65.6943 35.5733 65.5609 35.64ZM67.9009 30.56C68.5009 30.56 68.9409 30.4733 69.2209 30.3C69.5009 30.1267 69.7009 29.7933 69.8209 29.3C69.9543 28.7933 70.0209 28.0133 70.0209 26.96C70.0209 25.5467 69.9009 24.6333 69.6609 24.22C69.4343 23.8067 68.9209 23.6 68.1209 23.6C67.2676 23.6 66.6543 23.8067 66.2809 24.22C65.9076 24.62 65.7209 25.42 65.7209 26.62V27.72C65.7209 28.8267 65.8609 29.58 66.1409 29.98C66.4343 30.3667 67.0209 30.56 67.9009 30.56ZM77.7688 32.16C76.7554 32.16 75.7688 32.1 74.8088 31.98C74.5288 31.94 74.3421 31.88 74.2488 31.8C74.1688 31.72 74.1288 31.56 74.1288 31.32V22.76C74.1288 22.5067 74.1954 22.3467 74.3288 22.28C74.4621 22.2 74.7221 22.16 75.1088 22.16C75.4954 22.16 75.7488 22.2 75.8688 22.28C76.0021 22.3467 76.0688 22.5067 76.0688 22.76V25.88H78.0088C79.4488 25.88 80.4288 26.0733 80.9488 26.46C81.4821 26.8467 81.7488 27.64 81.7488 28.84C81.7488 30.2 81.4488 31.0933 80.8488 31.52C80.2621 31.9467 79.2354 32.16 77.7688 32.16ZM78.1488 27.48H76.0688V30.44C76.6288 30.4933 77.2288 30.52 77.8688 30.52C78.6821 30.52 79.2088 30.42 79.4488 30.22C79.6888 30.02 79.8088 29.58 79.8088 28.9C79.8088 28.34 79.7021 27.9667 79.4888 27.78C79.2754 27.58 78.8288 27.48 78.1488 27.48Z" fill="black"/>
<rect x="2" y="48" width="313" height="2" fill="#E4E5E5"/>
<rect x="2" y="99" width="313" height="0.5" fill="#E4E5E5"/>
<rect x="2" y="149" width="313" height="0.5" fill="#E4E5E5"/>
<rect x="2" y="199" width="313" height="0.5" fill="#E4E5E5"/>
<path d="M218.598 32.126C217.749 32.126 216.993 32.0887 216.33 32.014C216.143 31.9953 216.017 31.9533 215.952 31.888C215.896 31.8227 215.868 31.7153 215.868 31.566V23.894C215.868 23.6233 216.003 23.4693 216.274 23.432C216.862 23.3573 217.534 23.32 218.29 23.32C218.738 23.32 219.093 23.3293 219.354 23.348C219.625 23.3667 219.891 23.418 220.152 23.502C220.423 23.5767 220.619 23.6887 220.74 23.838C220.871 23.9873 220.978 24.1927 221.062 24.454C221.146 24.706 221.188 25.028 221.188 25.42C221.188 25.9987 221.113 26.4467 220.964 26.764C220.815 27.0813 220.553 27.3053 220.18 27.436C220.656 27.548 220.992 27.7767 221.188 28.122C221.393 28.4673 221.496 28.9853 221.496 29.676C221.496 30.6093 221.3 31.2533 220.908 31.608C220.516 31.9533 219.746 32.126 218.598 32.126ZM217.016 24.384V27.03H218.374C219.055 27.03 219.494 26.9413 219.69 26.764C219.886 26.5867 219.984 26.176 219.984 25.532C219.984 24.9907 219.895 24.6547 219.718 24.524C219.55 24.384 219.111 24.314 218.402 24.314C217.87 24.314 217.408 24.3373 217.016 24.384ZM217.016 27.94V31.076C217.343 31.1227 217.884 31.146 218.64 31.146C219.377 31.146 219.835 31.0573 220.012 30.88C220.199 30.6933 220.292 30.25 220.292 29.55C220.292 28.8873 220.189 28.4533 219.984 28.248C219.779 28.0427 219.34 27.94 218.668 27.94H217.016ZM230.592 31.93C230.517 31.9767 230.363 32 230.13 32C229.897 32 229.743 31.9767 229.668 31.93C229.593 31.8833 229.556 31.7807 229.556 31.622V25.49C229.556 25.3313 229.593 25.2333 229.668 25.196C229.743 25.1493 229.897 25.126 230.13 25.126C230.363 25.126 230.517 25.1493 230.592 25.196C230.667 25.2333 230.704 25.3313 230.704 25.49V31.622C230.704 31.7807 230.667 31.8833 230.592 31.93ZM225.538 32.126C224.875 32.126 224.194 32.084 223.494 32C223.307 31.9813 223.181 31.944 223.116 31.888C223.06 31.8227 223.032 31.7153 223.032 31.566V25.49C223.032 25.3313 223.069 25.2333 223.144 25.196C223.219 25.1493 223.373 25.126 223.606 25.126C223.839 25.126 223.993 25.1493 224.068 25.196C224.143 25.2333 224.18 25.3313 224.18 25.49V27.842H225.692C226.672 27.842 227.344 27.9727 227.708 28.234C228.081 28.486 228.268 29.0227 228.268 29.844C228.268 30.768 228.063 31.3793 227.652 31.678C227.251 31.9767 226.546 32.126 225.538 32.126ZM225.818 28.822H224.18V31.048C224.572 31.0947 225.043 31.118 225.594 31.118C226.229 31.118 226.635 31.0433 226.812 30.894C226.999 30.7447 227.092 30.4087 227.092 29.886C227.092 29.4567 227.008 29.172 226.84 29.032C226.681 28.892 226.341 28.822 225.818 28.822ZM235.252 32.14C234.132 32.14 233.376 31.902 232.984 31.426C232.592 30.9407 232.396 30.0307 232.396 28.696V25.672C232.396 24.5147 232.611 23.7307 233.04 23.32C233.479 22.9 234.202 22.69 235.21 22.69C235.985 22.69 236.708 22.7553 237.38 22.886C237.567 22.914 237.66 23.082 237.66 23.39C237.66 23.6887 237.59 23.838 237.45 23.838C237.413 23.838 237.156 23.8147 236.68 23.768C236.204 23.712 235.77 23.684 235.378 23.684C234.697 23.684 234.226 23.7867 233.964 23.992C233.703 24.1973 233.572 24.664 233.572 25.392V25.938C233.871 25.3033 234.534 24.986 235.56 24.986C236.046 24.986 236.424 25.028 236.694 25.112C236.974 25.196 237.212 25.3733 237.408 25.644C237.614 25.9053 237.749 26.2693 237.814 26.736C237.889 27.2027 237.926 27.8327 237.926 28.626C237.926 29.606 237.833 30.3527 237.646 30.866C237.469 31.37 237.198 31.7107 236.834 31.888C236.48 32.056 235.952 32.14 235.252 32.14ZM235.252 31.146C235.915 31.146 236.33 30.992 236.498 30.684C236.666 30.376 236.75 29.6433 236.75 28.486C236.75 27.7113 236.704 27.1513 236.61 26.806C236.517 26.4607 236.363 26.2367 236.148 26.134C235.943 26.022 235.598 25.966 235.112 25.966C234.524 25.966 234.118 26.1247 233.894 26.442C233.68 26.7593 233.572 27.408 233.572 28.388V28.654C233.572 29.6807 233.68 30.3527 233.894 30.67C234.118 30.9873 234.571 31.146 235.252 31.146ZM240.724 34.576C240.65 34.6227 240.496 34.646 240.262 34.646C240.029 34.646 239.87 34.6227 239.786 34.576C239.712 34.5293 239.674 34.4267 239.674 34.268V27.646C239.674 27.254 239.646 26.89 239.59 26.554C239.544 26.2087 239.492 25.938 239.436 25.742C239.39 25.546 239.366 25.4293 239.366 25.392C239.366 25.2987 239.399 25.2333 239.464 25.196C239.539 25.1493 239.684 25.126 239.898 25.126C240.113 25.126 240.253 25.1447 240.318 25.182C240.384 25.21 240.435 25.294 240.472 25.434L240.654 26.19C241.018 25.3873 241.774 24.986 242.922 24.986C243.884 24.986 244.514 25.224 244.812 25.7C245.12 26.176 245.274 27.1233 245.274 28.542C245.274 29.5407 245.176 30.306 244.98 30.838C244.784 31.3607 244.509 31.7107 244.154 31.888C243.809 32.056 243.314 32.14 242.67 32.14C241.756 32.14 241.144 31.888 240.836 31.384V34.268C240.836 34.4267 240.799 34.5293 240.724 34.576ZM242.46 31.146C243.132 31.146 243.571 30.9873 243.776 30.67C243.991 30.3433 244.098 29.6153 244.098 28.486C244.098 27.4313 244.01 26.75 243.832 26.442C243.655 26.1247 243.263 25.966 242.656 25.966C242.003 25.966 241.532 26.12 241.242 26.428C240.962 26.7267 240.822 27.3193 240.822 28.206V29.074C240.822 29.8673 240.93 30.4133 241.144 30.712C241.359 31.0013 241.798 31.146 242.46 31.146ZM248.402 32.14C247.776 32.14 247.319 31.986 247.03 31.678C246.74 31.37 246.596 30.866 246.596 30.166C246.596 29.4473 246.782 28.9387 247.156 28.64C247.538 28.332 248.196 28.178 249.13 28.178H250.642V27.1C250.642 26.624 250.548 26.3207 250.362 26.19C250.175 26.05 249.83 25.98 249.326 25.98C248.896 25.98 248.444 26.0267 247.968 26.12C247.492 26.204 247.244 26.246 247.226 26.246C247.076 26.246 247.002 26.092 247.002 25.784C247.002 25.4947 247.1 25.322 247.296 25.266C247.893 25.0793 248.612 24.986 249.452 24.986C250.292 24.986 250.889 25.112 251.244 25.364C251.598 25.6067 251.776 26.1107 251.776 26.876V29.48C251.776 29.872 251.804 30.236 251.86 30.572C251.916 30.908 251.967 31.174 252.014 31.37C252.07 31.566 252.098 31.6827 252.098 31.72C252.098 31.8133 252.06 31.8833 251.986 31.93C251.92 31.9767 251.776 32 251.552 32C251.346 32 251.211 31.9813 251.146 31.944C251.09 31.9067 251.038 31.818 250.992 31.678L250.754 30.768C250.548 31.2253 250.236 31.5707 249.816 31.804C249.405 32.028 248.934 32.14 248.402 32.14ZM248.738 31.174C249.27 31.174 249.718 31.02 250.082 30.712C250.455 30.404 250.642 29.984 250.642 29.452V28.948L249.074 28.99C248.532 28.9993 248.168 29.0787 247.982 29.228C247.804 29.368 247.716 29.6433 247.716 30.054C247.716 30.5207 247.79 30.824 247.94 30.964C248.089 31.104 248.355 31.174 248.738 31.174ZM255.644 32C255.402 32 255.243 31.9767 255.168 31.93C255.094 31.874 255.056 31.7713 255.056 31.622V26.176H253.418C253.278 26.176 253.18 26.1433 253.124 26.078C253.078 26.0033 253.054 25.8587 253.054 25.644C253.054 25.4387 253.078 25.3033 253.124 25.238C253.18 25.1633 253.278 25.126 253.418 25.126H257.87C258.01 25.126 258.104 25.1587 258.15 25.224C258.197 25.2893 258.22 25.4293 258.22 25.644C258.22 25.8587 258.197 26.0033 258.15 26.078C258.104 26.1433 258.01 26.176 257.87 26.176H256.218V31.622C256.218 31.7713 256.181 31.874 256.106 31.93C256.032 31.9767 255.878 32 255.644 32ZM261.837 32.126C261.174 32.126 260.493 32.084 259.793 32C259.606 31.9813 259.48 31.944 259.415 31.888C259.359 31.8227 259.331 31.7153 259.331 31.566V25.49C259.331 25.3313 259.368 25.2333 259.443 25.196C259.518 25.1493 259.672 25.126 259.905 25.126C260.138 25.126 260.292 25.1493 260.367 25.196C260.442 25.2333 260.479 25.3313 260.479 25.49V27.842H261.991C262.971 27.842 263.643 27.9727 264.007 28.234C264.38 28.486 264.567 29.0227 264.567 29.844C264.567 30.768 264.362 31.3793 263.951 31.678C263.55 31.9767 262.845 32.126 261.837 32.126ZM262.117 28.822H260.479V31.048C260.871 31.0947 261.342 31.118 261.893 31.118C262.528 31.118 262.934 31.0433 263.111 30.894C263.298 30.7447 263.391 30.4087 263.391 29.886C263.391 29.4567 263.307 29.172 263.139 29.032C262.98 28.892 262.64 28.822 262.117 28.822ZM269.773 31.93C269.698 31.9767 269.544 32 269.311 32C269.078 32 268.924 31.9767 268.849 31.93C268.774 31.874 268.737 31.7713 268.737 31.622V25.546C268.737 25.378 268.788 25.266 268.891 25.21C268.994 25.154 269.232 25.126 269.605 25.126C269.941 25.126 270.165 25.154 270.277 25.21C270.398 25.266 270.501 25.4013 270.585 25.616L272.223 29.956H272.293L273.931 25.616C274.015 25.4013 274.113 25.266 274.225 25.21C274.346 25.154 274.575 25.126 274.911 25.126C275.284 25.126 275.522 25.154 275.625 25.21C275.728 25.266 275.779 25.378 275.779 25.546V31.622C275.779 31.7713 275.742 31.874 275.667 31.93C275.592 31.9767 275.438 32 275.205 32C274.962 32 274.804 31.9767 274.729 31.93C274.654 31.874 274.617 31.7713 274.617 31.622C274.617 31.4727 274.626 29.8113 274.645 26.638H274.533L272.937 30.838C272.872 31.0153 272.792 31.132 272.699 31.188C272.615 31.2347 272.466 31.258 272.251 31.258C272.046 31.258 271.896 31.2347 271.803 31.188C271.719 31.132 271.644 31.0153 271.579 30.838L269.983 26.638H269.871C269.88 28.2247 269.885 29.886 269.885 31.622C269.885 31.7713 269.848 31.874 269.773 31.93ZM280.188 32.14C279.638 32.14 279.204 32.1027 278.886 32.028C278.569 31.9533 278.284 31.7947 278.032 31.552C277.79 31.3 277.617 30.9453 277.514 30.488C277.421 30.0213 277.374 29.4007 277.374 28.626C277.374 27.9727 277.416 27.422 277.5 26.974C277.594 26.5167 277.71 26.162 277.85 25.91C277.99 25.6487 278.186 25.448 278.438 25.308C278.69 25.168 278.938 25.0793 279.18 25.042C279.423 25.0047 279.736 24.986 280.118 24.986C280.66 24.986 281.094 25.0467 281.42 25.168C281.756 25.2893 282.004 25.504 282.162 25.812C282.33 26.1107 282.438 26.4373 282.484 26.792C282.54 27.1467 282.568 27.632 282.568 28.248C282.568 28.4533 282.531 28.6027 282.456 28.696C282.391 28.7893 282.26 28.836 282.064 28.836H278.55C278.56 29.8253 278.662 30.4553 278.858 30.726C279.064 30.9967 279.544 31.132 280.3 31.132C280.618 31.132 280.926 31.1087 281.224 31.062C281.523 31.0153 281.761 30.9687 281.938 30.922C282.125 30.866 282.237 30.838 282.274 30.838C282.405 30.838 282.47 30.992 282.47 31.3C282.47 31.4773 282.447 31.6033 282.4 31.678C282.363 31.7433 282.274 31.7993 282.134 31.846C281.593 32.042 280.944 32.14 280.188 32.14ZM280.09 25.966C279.512 25.966 279.115 26.092 278.9 26.344C278.695 26.5867 278.578 27.1513 278.55 28.038H281.448C281.448 27.6927 281.444 27.436 281.434 27.268C281.425 27.0907 281.397 26.904 281.35 26.708C281.304 26.5027 281.234 26.358 281.14 26.274C281.047 26.19 280.912 26.12 280.734 26.064C280.566 25.9987 280.352 25.966 280.09 25.966ZM286.597 32.14C286.196 32.14 285.865 32.1167 285.603 32.07C285.342 32.0233 285.095 31.9347 284.861 31.804C284.628 31.664 284.446 31.4633 284.315 31.202C284.194 30.9407 284.096 30.6 284.021 30.18C283.956 29.76 283.923 29.242 283.923 28.626C283.923 27.9727 283.965 27.422 284.049 26.974C284.143 26.5167 284.259 26.162 284.399 25.91C284.539 25.6487 284.731 25.448 284.973 25.308C285.225 25.168 285.468 25.0793 285.701 25.042C285.944 25.0047 286.252 24.986 286.625 24.986C287.223 24.986 287.792 25.0653 288.333 25.224C288.473 25.2707 288.567 25.3313 288.613 25.406C288.66 25.4713 288.683 25.5927 288.683 25.77C288.683 26.078 288.613 26.232 288.473 26.232C288.455 26.232 288.231 26.19 287.801 26.106C287.372 26.022 287.013 25.98 286.723 25.98C286.275 25.98 285.949 26.0313 285.743 26.134C285.538 26.2367 285.379 26.47 285.267 26.834C285.155 27.198 285.099 27.758 285.099 28.514C285.099 29.662 285.188 30.3853 285.365 30.684C285.552 30.9827 286.014 31.132 286.751 31.132C287.134 31.132 287.517 31.0853 287.899 30.992L288.487 30.838C288.618 30.838 288.683 30.992 288.683 31.3C288.683 31.4773 288.66 31.6033 288.613 31.678C288.576 31.7433 288.487 31.7993 288.347 31.846C287.806 32.042 287.223 32.14 286.597 32.14ZM290.276 32C289.93 32 289.758 31.9253 289.758 31.776C289.758 31.6827 289.804 31.5567 289.898 31.398L291.2 29.102C290.742 28.9993 290.416 28.808 290.22 28.528C290.033 28.2387 289.94 27.7953 289.94 27.198C289.94 26.3113 290.14 25.7233 290.542 25.434C290.943 25.1447 291.652 25 292.67 25C293.332 25 294.014 25.042 294.714 25.126C294.9 25.1447 295.022 25.1867 295.078 25.252C295.143 25.308 295.176 25.4107 295.176 25.56V31.622C295.176 31.7807 295.138 31.8833 295.064 31.93C294.989 31.9767 294.835 32 294.602 32C294.368 32 294.214 31.9767 294.14 31.93C294.065 31.8833 294.028 31.7807 294.028 31.622V29.214H292.264L291.018 31.706C290.952 31.8367 290.878 31.9207 290.794 31.958C290.71 31.986 290.537 32 290.276 32ZM291.116 27.254C291.116 27.6647 291.195 27.94 291.354 28.08C291.522 28.2107 291.867 28.276 292.39 28.276H294.028V26.092C293.636 26.0453 293.164 26.022 292.614 26.022C291.988 26.022 291.582 26.0967 291.396 26.246C291.209 26.3953 291.116 26.7313 291.116 27.254ZM302.137 33.526C301.95 33.526 301.824 33.5073 301.759 33.47C301.694 33.442 301.652 33.3673 301.633 33.246L301.437 32H297.335C297.167 32 297.055 31.9767 296.999 31.93C296.943 31.8833 296.915 31.79 296.915 31.65V25.49C296.915 25.3407 296.952 25.2427 297.027 25.196C297.102 25.1493 297.256 25.126 297.489 25.126C297.722 25.126 297.876 25.1493 297.951 25.196C298.026 25.2427 298.063 25.3407 298.063 25.49V30.95H300.639V25.49C300.639 25.3407 300.676 25.2427 300.751 25.196C300.826 25.1493 300.98 25.126 301.213 25.126C301.446 25.126 301.6 25.1493 301.675 25.196C301.75 25.2427 301.787 25.3407 301.787 25.49V30.95H302.137C302.305 30.95 302.417 30.978 302.473 31.034C302.538 31.0807 302.571 31.1927 302.571 31.37V33.246C302.571 33.3673 302.543 33.442 302.487 33.47C302.431 33.5073 302.314 33.526 302.137 33.526Z" fill="black"/>
<path d="M209 26.6637C209 26.7491 208.981 26.8334 208.945 26.9106C208.908 26.9877 208.855 27.0557 208.789 27.1095L205.36 29.87C205.258 29.954 205.13 30 204.997 30C204.865 30 204.737 29.954 204.635 29.87L201.206 27.0123C201.09 26.9153 201.016 26.7759 201.002 26.6248C200.988 26.4737 201.035 26.3232 201.132 26.2065C201.229 26.0898 201.368 26.0164 201.52 26.0024C201.671 25.9885 201.821 26.0352 201.938 26.1322L205 28.6869L208.063 26.2179C208.147 26.148 208.249 26.1036 208.357 26.09C208.466 26.0763 208.575 26.094 208.674 26.1409C208.773 26.1878 208.856 26.2619 208.913 26.3546C208.971 26.4472 209.001 26.5545 209 26.6637Z" fill="#FF631F"/>
<circle cx="32.5" cy="74.5" r="11" fill="#FF631F" stroke="#FF631F"/>
<path d="M34.208 79H30.33C30.1807 79 30.078 78.9627 30.022 78.888C29.966 78.804 29.938 78.6407 29.938 78.398C29.938 78.1553 29.966 77.992 30.022 77.908C30.078 77.824 30.1807 77.782 30.33 77.782H31.576V71.79L30.456 72.112C30.3347 72.1493 30.2273 72.168 30.134 72.168C29.9753 72.168 29.896 71.972 29.896 71.58C29.896 71.3373 29.9147 71.174 29.952 71.09C29.9987 71.006 30.0827 70.9453 30.204 70.908L31.646 70.46C31.8233 70.3853 32.0287 70.348 32.262 70.348C32.5327 70.348 32.71 70.376 32.794 70.432C32.8873 70.488 32.934 70.6 32.934 70.768V77.782H34.208C34.348 77.782 34.446 77.824 34.502 77.908C34.558 77.992 34.586 78.1553 34.586 78.398C34.586 78.6407 34.558 78.804 34.502 78.888C34.446 78.9627 34.348 79 34.208 79Z" fill="white"/>
<circle cx="68.5" cy="74.5" r="11" stroke="#FF631F"/>
<path d="M67.016 77.95H70.376C70.516 77.95 70.6093 77.9873 70.656 78.062C70.7027 78.1273 70.726 78.2673 70.726 78.482C70.726 78.6873 70.7027 78.8273 70.656 78.902C70.6093 78.9673 70.516 79 70.376 79H66.106C65.966 79 65.868 78.972 65.812 78.916C65.7653 78.86 65.742 78.748 65.742 78.58V77.67C65.742 77.1847 65.826 76.802 65.994 76.522C66.1713 76.242 66.4887 75.8873 66.946 75.458L68.864 73.666C69.0787 73.4607 69.228 73.288 69.312 73.148C69.396 72.9987 69.438 72.7887 69.438 72.518C69.438 72.0047 69.3493 71.6827 69.172 71.552C68.9947 71.412 68.6167 71.342 68.038 71.342C67.646 71.342 67.2353 71.3887 66.806 71.482C66.386 71.566 66.1713 71.608 66.162 71.608C66.078 71.608 66.022 71.58 65.994 71.524C65.966 71.4587 65.952 71.3327 65.952 71.146C65.952 70.9593 65.9753 70.8287 66.022 70.754C66.078 70.6793 66.1667 70.6233 66.288 70.586C66.876 70.4087 67.562 70.32 68.346 70.32C68.7007 70.32 68.99 70.3387 69.214 70.376C69.438 70.4133 69.6667 70.4973 69.9 70.628C70.1427 70.7587 70.32 70.9733 70.432 71.272C70.5533 71.5707 70.614 71.9533 70.614 72.42C70.614 72.6813 70.5907 72.91 70.544 73.106C70.4973 73.2927 70.3993 73.4887 70.25 73.694C70.1007 73.89 69.9653 74.0487 69.844 74.17C69.732 74.282 69.522 74.478 69.214 74.758L67.604 76.242C67.4547 76.382 67.3473 76.494 67.282 76.578C67.2167 76.6527 67.156 76.7693 67.1 76.928C67.044 77.0773 67.016 77.2593 67.016 77.474V77.95Z" fill="black"/>
<circle cx="104.5" cy="74.5" r="11" stroke="#FF631F"/>
<path d="M104.29 79.126C103.403 79.126 102.647 79.0373 102.022 78.86C101.891 78.8227 101.798 78.7713 101.742 78.706C101.686 78.6313 101.658 78.5007 101.658 78.314C101.658 78.118 101.672 77.992 101.7 77.936C101.737 77.8707 101.803 77.838 101.896 77.838C101.915 77.838 102.181 77.88 102.694 77.964C103.207 78.048 103.665 78.09 104.066 78.09C104.682 78.09 105.093 77.9733 105.298 77.74C105.503 77.4973 105.606 77.1147 105.606 76.592C105.606 76.0693 105.457 75.6867 105.158 75.444C104.869 75.2013 104.262 75.08 103.338 75.08C103.198 75.08 103.105 75.0473 103.058 74.982C103.011 74.9073 102.988 74.7767 102.988 74.59C102.988 74.4033 103.011 74.2773 103.058 74.212C103.105 74.1373 103.198 74.1 103.338 74.1C104.122 74.1 104.663 73.9787 104.962 73.736C105.27 73.484 105.424 73.1107 105.424 72.616C105.424 72.0933 105.34 71.7527 105.172 71.594C105.004 71.426 104.645 71.342 104.094 71.342C103.73 71.342 103.319 71.384 102.862 71.468C102.414 71.552 102.176 71.594 102.148 71.594C102.064 71.594 102.003 71.5613 101.966 71.496C101.929 71.4307 101.91 71.3047 101.91 71.118C101.91 70.8193 102.022 70.642 102.246 70.586C102.853 70.4087 103.585 70.32 104.444 70.32C105.181 70.32 105.727 70.474 106.082 70.782C106.437 71.09 106.614 71.6733 106.614 72.532C106.614 73.6987 106.087 74.3753 105.032 74.562C105.685 74.6087 106.138 74.8 106.39 75.136C106.651 75.472 106.782 75.9713 106.782 76.634C106.782 77.502 106.577 78.1367 106.166 78.538C105.765 78.93 105.139 79.126 104.29 79.126Z" fill="black"/>
<circle cx="140.5" cy="74.5" r="11" stroke="#FF631F"/>
<path d="M141.606 79C141.363 79 141.205 78.9767 141.13 78.93C141.055 78.874 141.018 78.7713 141.018 78.622V76.774H137.798C137.63 76.774 137.518 76.7413 137.462 76.676C137.415 76.6013 137.392 76.438 137.392 76.186C137.392 75.9247 137.439 75.7147 137.532 75.556L140.262 70.796C140.365 70.6187 140.481 70.5067 140.612 70.46C140.743 70.4133 140.985 70.39 141.34 70.39C141.676 70.39 141.9 70.4133 142.012 70.46C142.124 70.5067 142.18 70.6047 142.18 70.754V75.78H142.74C142.88 75.78 142.973 75.8127 143.02 75.878C143.067 75.934 143.09 76.0647 143.09 76.27C143.09 76.4847 143.067 76.6247 143.02 76.69C142.973 76.746 142.88 76.774 142.74 76.774H142.18V78.622C142.18 78.7713 142.143 78.874 142.068 78.93C141.993 78.9767 141.839 79 141.606 79ZM140.99 71.426L138.568 75.78H141.06L141.074 71.426H140.99Z" fill="black"/>
<circle cx="176.5" cy="74.5" r="11" stroke="#FF631F"/>
<path d="M176.01 79.126C175.375 79.126 174.755 79.0327 174.148 78.846C174.017 78.818 173.924 78.7713 173.868 78.706C173.821 78.6407 173.798 78.5147 173.798 78.328C173.798 78.1227 173.812 77.992 173.84 77.936C173.877 77.88 173.938 77.852 174.022 77.852L174.624 77.992C175.025 78.076 175.422 78.118 175.814 78.118C176.514 78.118 176.971 78.02 177.186 77.824C177.41 77.6187 177.522 77.1847 177.522 76.522V76.06C177.522 75.4813 177.433 75.108 177.256 74.94C177.079 74.772 176.738 74.688 176.234 74.688C175.87 74.688 175.478 74.73 175.058 74.814C174.647 74.898 174.405 74.94 174.33 74.94C174.19 74.94 174.083 74.9213 174.008 74.884C173.943 74.8467 173.91 74.7533 173.91 74.604V70.74C173.91 70.6 173.938 70.5067 173.994 70.46C174.05 70.4133 174.162 70.39 174.33 70.39H178.04C178.18 70.39 178.273 70.4227 178.32 70.488C178.367 70.5533 178.39 70.6933 178.39 70.908C178.39 71.1227 178.367 71.2673 178.32 71.342C178.273 71.4073 178.18 71.44 178.04 71.44H174.988V73.89C175.455 73.7687 175.94 73.708 176.444 73.708C176.724 73.708 176.943 73.7173 177.102 73.736C177.27 73.7453 177.466 73.792 177.69 73.876C177.914 73.96 178.087 74.0813 178.208 74.24C178.339 74.3893 178.446 74.618 178.53 74.926C178.623 75.2247 178.67 75.5887 178.67 76.018V76.606C178.67 77.1473 178.605 77.5953 178.474 77.95C178.343 78.2953 178.143 78.552 177.872 78.72C177.611 78.8787 177.34 78.986 177.06 79.042C176.78 79.098 176.43 79.126 176.01 79.126Z" fill="black"/>
<circle cx="212.5" cy="74.5" r="11" stroke="#FF631F"/>
<path d="M212.206 79.126C211.739 79.126 211.366 79.0887 211.086 79.014C210.806 78.9487 210.545 78.804 210.302 78.58C210.059 78.3467 209.882 78.0013 209.77 77.544C209.667 77.0773 209.616 76.4707 209.616 75.724V73.932C209.616 73.2973 209.672 72.7513 209.784 72.294C209.896 71.8367 210.036 71.482 210.204 71.23C210.372 70.978 210.591 70.782 210.862 70.642C211.133 70.502 211.385 70.4133 211.618 70.376C211.861 70.3387 212.15 70.32 212.486 70.32C213.046 70.32 213.569 70.3807 214.054 70.502C214.185 70.53 214.269 70.5767 214.306 70.642C214.353 70.698 214.376 70.8287 214.376 71.034C214.376 71.3513 214.301 71.51 214.152 71.51C214.133 71.51 213.933 71.482 213.55 71.426C213.167 71.3607 212.845 71.328 212.584 71.328C212.313 71.328 212.103 71.3373 211.954 71.356C211.805 71.3747 211.641 71.4307 211.464 71.524C211.287 71.6173 211.151 71.7573 211.058 71.944C210.965 72.1213 210.885 72.3827 210.82 72.728C210.764 73.064 210.736 73.4793 210.736 73.974V74.548C211.035 73.9973 211.688 73.722 212.696 73.722C213.48 73.722 214.035 73.8993 214.362 74.254C214.689 74.6087 214.852 75.318 214.852 76.382C214.852 77.4087 214.642 78.1227 214.222 78.524C213.811 78.9253 213.139 79.126 212.206 79.126ZM212.22 78.118C212.78 78.118 213.172 78.0107 213.396 77.796C213.629 77.5813 213.746 77.1333 213.746 76.452C213.746 75.7333 213.657 75.262 213.48 75.038C213.303 74.8047 212.915 74.688 212.318 74.688C211.758 74.688 211.352 74.7907 211.1 74.996C210.857 75.192 210.736 75.556 210.736 76.088C210.736 76.956 210.839 77.5113 211.044 77.754C211.249 77.9967 211.641 78.118 212.22 78.118Z" fill="black"/>
<circle cx="248.5" cy="74.5" r="11" stroke="#FF631F"/>
<path d="M247.338 79C247.002 79 246.834 78.916 246.834 78.748C246.834 78.636 246.871 78.4867 246.946 78.3L249.494 71.44H246.008C245.868 71.44 245.775 71.4073 245.728 71.342C245.681 71.2673 245.658 71.1227 245.658 70.908C245.658 70.6933 245.681 70.5533 245.728 70.488C245.775 70.4227 245.868 70.39 246.008 70.39H250.334C250.502 70.39 250.614 70.4273 250.67 70.502C250.726 70.5673 250.754 70.726 250.754 70.978C250.754 71.118 250.707 71.328 250.614 71.608L247.996 78.692C247.921 78.8973 247.702 79 247.338 79Z" fill="black"/>
<circle cx="284.5" cy="74.5" r="11" stroke="#FF631F"/>
<path d="M286.348 78.58C285.975 78.944 285.27 79.126 284.234 79.126C283.198 79.126 282.493 78.944 282.12 78.58C281.756 78.216 281.574 77.544 281.574 76.564C281.574 75.4347 281.943 74.7347 282.68 74.464C282.073 74.1933 281.77 73.5353 281.77 72.49C281.77 72.0047 281.826 71.6127 281.938 71.314C282.059 71.006 282.246 70.7867 282.498 70.656C282.75 70.516 283.002 70.4273 283.254 70.39C283.506 70.3433 283.833 70.32 284.234 70.32C284.635 70.32 284.962 70.3433 285.214 70.39C285.466 70.4273 285.718 70.516 285.97 70.656C286.222 70.7867 286.404 71.006 286.516 71.314C286.637 71.6127 286.698 72.0047 286.698 72.49C286.698 73.526 286.395 74.184 285.788 74.464C286.535 74.744 286.908 75.444 286.908 76.564C286.908 77.544 286.721 78.216 286.348 78.58ZM283.016 77.838C283.212 78.034 283.618 78.132 284.234 78.132C284.85 78.132 285.256 78.034 285.452 77.838C285.648 77.6327 285.746 77.1847 285.746 76.494C285.746 75.8407 285.639 75.4207 285.424 75.234C285.209 75.0473 284.813 74.954 284.234 74.954C283.655 74.954 283.259 75.0473 283.044 75.234C282.829 75.4207 282.722 75.8407 282.722 76.494C282.722 77.1847 282.82 77.6327 283.016 77.838ZM283.17 73.75C283.347 73.9087 283.702 73.988 284.234 73.988C284.766 73.988 285.121 73.9087 285.298 73.75C285.475 73.5913 285.564 73.2087 285.564 72.602C285.564 72.0327 285.471 71.6733 285.284 71.524C285.107 71.3653 284.757 71.286 284.234 71.286C283.711 71.286 283.361 71.3653 283.184 71.524C283.007 71.6733 282.918 72.0327 282.918 72.602C282.918 73.2087 283.002 73.5913 283.17 73.75Z" fill="black"/>
<circle cx="32.5" cy="124.5" r="11" stroke="#FF631F"/>
<path d="M31.842 129.126C31.5153 129.126 31.016 129.065 30.344 128.944C30.204 128.916 30.1107 128.869 30.064 128.804C30.0173 128.739 29.994 128.603 29.994 128.398C29.994 128.081 30.0733 127.922 30.232 127.922C30.2507 127.922 30.428 127.955 30.764 128.02C31.1 128.085 31.408 128.118 31.688 128.118C32.0147 128.118 32.262 128.109 32.43 128.09C32.6073 128.062 32.7893 128.001 32.976 127.908C33.1627 127.815 33.298 127.675 33.382 127.488C33.466 127.301 33.536 127.045 33.592 126.718C33.648 126.382 33.676 125.962 33.676 125.458V124.954C33.3867 125.467 32.7567 125.724 31.786 125.724C31.002 125.724 30.4513 125.547 30.134 125.192C29.826 124.837 29.672 124.123 29.672 123.05C29.672 122.014 29.8633 121.3 30.246 120.908C30.6287 120.516 31.282 120.32 32.206 120.32C32.6727 120.32 33.046 120.357 33.326 120.432C33.606 120.497 33.8673 120.647 34.11 120.88C34.3527 121.104 34.5253 121.449 34.628 121.916C34.74 122.373 34.796 122.975 34.796 123.722V125.5C34.796 126.163 34.74 126.727 34.628 127.194C34.516 127.651 34.3807 128.006 34.222 128.258C34.0633 128.501 33.8393 128.692 33.55 128.832C33.27 128.963 33.0087 129.042 32.766 129.07C32.5233 129.107 32.2153 129.126 31.842 129.126ZM32.15 124.744C32.7007 124.744 33.0927 124.646 33.326 124.45C33.5593 124.245 33.676 123.876 33.676 123.344C33.676 122.448 33.5827 121.883 33.396 121.65C33.2093 121.417 32.8127 121.3 32.206 121.3C31.646 121.3 31.2633 121.407 31.058 121.622C30.862 121.827 30.764 122.28 30.764 122.98C30.764 123.708 30.848 124.184 31.016 124.408C31.184 124.632 31.562 124.744 32.15 124.744Z" fill="black"/>
<circle cx="68.5" cy="124.5" r="11" stroke="#FF631F"/>
<path d="M67.166 129H63.358C63.218 129 63.1247 128.967 63.078 128.902C63.0313 128.827 63.008 128.687 63.008 128.482C63.008 128.267 63.0313 128.127 63.078 128.062C63.1247 127.987 63.218 127.95 63.358 127.95H64.674V121.594L63.47 121.972C63.3487 122.009 63.246 122.028 63.162 122.028C63.022 122.028 62.952 121.855 62.952 121.51C62.952 121.314 62.966 121.179 62.994 121.104C63.0313 121.029 63.1013 120.978 63.204 120.95L64.688 120.474C64.8373 120.418 65.0287 120.39 65.262 120.39C65.4953 120.39 65.6493 120.413 65.724 120.46C65.7987 120.507 65.836 120.605 65.836 120.754V127.95H67.166C67.306 127.95 67.3993 127.987 67.446 128.062C67.4927 128.127 67.516 128.267 67.516 128.482C67.516 128.687 67.4927 128.827 67.446 128.902C67.3993 128.967 67.306 129 67.166 129ZM71.7145 128.118C72.3771 128.118 72.8111 127.959 73.0165 127.642C73.2311 127.325 73.3385 126.643 73.3385 125.598V123.876C73.3385 122.784 73.2405 122.089 73.0445 121.79C72.8578 121.482 72.4145 121.328 71.7145 121.328C71.0518 121.328 70.6178 121.487 70.4125 121.804C70.2071 122.112 70.1045 122.803 70.1045 123.876V125.598C70.1045 126.662 70.1978 127.348 70.3845 127.656C70.5805 127.964 71.0238 128.118 71.7145 128.118ZM71.7145 129.126C71.0051 129.126 70.4591 129.037 70.0765 128.86C69.7031 128.683 69.4185 128.351 69.2225 127.866C69.0358 127.381 68.9425 126.681 68.9425 125.766V123.778C68.9425 123.041 68.9938 122.443 69.0965 121.986C69.2085 121.529 69.3858 121.179 69.6285 120.936C69.8805 120.693 70.1605 120.53 70.4685 120.446C70.7858 120.362 71.2011 120.32 71.7145 120.32C72.4518 120.32 73.0071 120.409 73.3805 120.586C73.7631 120.763 74.0431 121.099 74.2205 121.594C74.3978 122.089 74.4865 122.817 74.4865 123.778V125.766C74.4865 126.475 74.4305 127.054 74.3185 127.502C74.2065 127.95 74.0245 128.291 73.7725 128.524C73.5205 128.757 73.2358 128.916 72.9185 129C72.6105 129.084 72.2091 129.126 71.7145 129.126Z" fill="black"/>
<circle cx="104.5" cy="124.5" r="11" stroke="#FF631F"/>
<path d="M103.166 129H99.358C99.218 129 99.1247 128.967 99.078 128.902C99.0313 128.827 99.008 128.687 99.008 128.482C99.008 128.267 99.0313 128.127 99.078 128.062C99.1247 127.987 99.218 127.95 99.358 127.95H100.674V121.594L99.47 121.972C99.3487 122.009 99.246 122.028 99.162 122.028C99.022 122.028 98.952 121.855 98.952 121.51C98.952 121.314 98.966 121.179 98.994 121.104C99.0313 121.029 99.1013 120.978 99.204 120.95L100.688 120.474C100.837 120.418 101.029 120.39 101.262 120.39C101.495 120.39 101.649 120.413 101.724 120.46C101.799 120.507 101.836 120.605 101.836 120.754V127.95H103.166C103.306 127.95 103.399 127.987 103.446 128.062C103.493 128.127 103.516 128.267 103.516 128.482C103.516 128.687 103.493 128.827 103.446 128.902C103.399 128.967 103.306 129 103.166 129ZM109.646 129H105.838C105.698 129 105.605 128.967 105.558 128.902C105.512 128.827 105.488 128.687 105.488 128.482C105.488 128.267 105.512 128.127 105.558 128.062C105.605 127.987 105.698 127.95 105.838 127.95H107.154V121.594L105.95 121.972C105.829 122.009 105.726 122.028 105.642 122.028C105.502 122.028 105.432 121.855 105.432 121.51C105.432 121.314 105.446 121.179 105.474 121.104C105.512 121.029 105.582 120.978 105.684 120.95L107.168 120.474C107.318 120.418 107.509 120.39 107.742 120.39C107.976 120.39 108.13 120.413 108.204 120.46C108.279 120.507 108.316 120.605 108.316 120.754V127.95H109.646C109.786 127.95 109.88 127.987 109.926 128.062C109.973 128.127 109.996 128.267 109.996 128.482C109.996 128.687 109.973 128.827 109.926 128.902C109.88 128.967 109.786 129 109.646 129Z" fill="black"/>
<circle cx="140.5" cy="124.5" r="11" stroke="#FF631F"/>
<path d="M139.166 129H135.358C135.218 129 135.125 128.967 135.078 128.902C135.031 128.827 135.008 128.687 135.008 128.482C135.008 128.267 135.031 128.127 135.078 128.062C135.125 127.987 135.218 127.95 135.358 127.95H136.674V121.594L135.47 121.972C135.349 122.009 135.246 122.028 135.162 122.028C135.022 122.028 134.952 121.855 134.952 121.51C134.952 121.314 134.966 121.179 134.994 121.104C135.031 121.029 135.101 120.978 135.204 120.95L136.688 120.474C136.837 120.418 137.029 120.39 137.262 120.39C137.495 120.39 137.649 120.413 137.724 120.46C137.799 120.507 137.836 120.605 137.836 120.754V127.95H139.166C139.306 127.95 139.399 127.987 139.446 128.062C139.493 128.127 139.516 128.267 139.516 128.482C139.516 128.687 139.493 128.827 139.446 128.902C139.399 128.967 139.306 129 139.166 129ZM142.496 127.95H145.856C145.996 127.95 146.09 127.987 146.136 128.062C146.183 128.127 146.206 128.267 146.206 128.482C146.206 128.687 146.183 128.827 146.136 128.902C146.09 128.967 145.996 129 145.856 129H141.586C141.446 129 141.348 128.972 141.292 128.916C141.246 128.86 141.222 128.748 141.222 128.58V127.67C141.222 127.185 141.306 126.802 141.474 126.522C141.652 126.242 141.969 125.887 142.426 125.458L144.344 123.666C144.559 123.461 144.708 123.288 144.792 123.148C144.876 122.999 144.918 122.789 144.918 122.518C144.918 122.005 144.83 121.683 144.652 121.552C144.475 121.412 144.097 121.342 143.518 121.342C143.126 121.342 142.716 121.389 142.286 121.482C141.866 121.566 141.652 121.608 141.642 121.608C141.558 121.608 141.502 121.58 141.474 121.524C141.446 121.459 141.432 121.333 141.432 121.146C141.432 120.959 141.456 120.829 141.502 120.754C141.558 120.679 141.647 120.623 141.768 120.586C142.356 120.409 143.042 120.32 143.826 120.32C144.181 120.32 144.47 120.339 144.694 120.376C144.918 120.413 145.147 120.497 145.38 120.628C145.623 120.759 145.8 120.973 145.912 121.272C146.034 121.571 146.094 121.953 146.094 122.42C146.094 122.681 146.071 122.91 146.024 123.106C145.978 123.293 145.88 123.489 145.73 123.694C145.581 123.89 145.446 124.049 145.324 124.17C145.212 124.282 145.002 124.478 144.694 124.758L143.084 126.242C142.935 126.382 142.828 126.494 142.762 126.578C142.697 126.653 142.636 126.769 142.58 126.928C142.524 127.077 142.496 127.259 142.496 127.474V127.95Z" fill="black"/>
<circle cx="176.5" cy="124.5" r="11" stroke="#FF631F"/>
<path d="M175.166 129H171.358C171.218 129 171.125 128.967 171.078 128.902C171.031 128.827 171.008 128.687 171.008 128.482C171.008 128.267 171.031 128.127 171.078 128.062C171.125 127.987 171.218 127.95 171.358 127.95H172.674V121.594L171.47 121.972C171.349 122.009 171.246 122.028 171.162 122.028C171.022 122.028 170.952 121.855 170.952 121.51C170.952 121.314 170.966 121.179 170.994 121.104C171.031 121.029 171.101 120.978 171.204 120.95L172.688 120.474C172.837 120.418 173.029 120.39 173.262 120.39C173.495 120.39 173.649 120.413 173.724 120.46C173.799 120.507 173.836 120.605 173.836 120.754V127.95H175.166C175.306 127.95 175.399 127.987 175.446 128.062C175.493 128.127 175.516 128.267 175.516 128.482C175.516 128.687 175.493 128.827 175.446 128.902C175.399 128.967 175.306 129 175.166 129ZM179.77 129.126C178.884 129.126 178.128 129.037 177.502 128.86C177.372 128.823 177.278 128.771 177.222 128.706C177.166 128.631 177.138 128.501 177.138 128.314C177.138 128.118 177.152 127.992 177.18 127.936C177.218 127.871 177.283 127.838 177.376 127.838C177.395 127.838 177.661 127.88 178.174 127.964C178.688 128.048 179.145 128.09 179.546 128.09C180.162 128.09 180.573 127.973 180.778 127.74C180.984 127.497 181.086 127.115 181.086 126.592C181.086 126.069 180.937 125.687 180.638 125.444C180.349 125.201 179.742 125.08 178.818 125.08C178.678 125.08 178.585 125.047 178.538 124.982C178.492 124.907 178.468 124.777 178.468 124.59C178.468 124.403 178.492 124.277 178.538 124.212C178.585 124.137 178.678 124.1 178.818 124.1C179.602 124.1 180.144 123.979 180.442 123.736C180.75 123.484 180.904 123.111 180.904 122.616C180.904 122.093 180.82 121.753 180.652 121.594C180.484 121.426 180.125 121.342 179.574 121.342C179.21 121.342 178.8 121.384 178.342 121.468C177.894 121.552 177.656 121.594 177.628 121.594C177.544 121.594 177.484 121.561 177.446 121.496C177.409 121.431 177.39 121.305 177.39 121.118C177.39 120.819 177.502 120.642 177.726 120.586C178.333 120.409 179.066 120.32 179.924 120.32C180.662 120.32 181.208 120.474 181.562 120.782C181.917 121.09 182.094 121.673 182.094 122.532C182.094 123.699 181.567 124.375 180.512 124.562C181.166 124.609 181.618 124.8 181.87 125.136C182.132 125.472 182.262 125.971 182.262 126.634C182.262 127.502 182.057 128.137 181.646 128.538C181.245 128.93 180.62 129.126 179.77 129.126Z" fill="black"/>
<circle cx="212.5" cy="124.5" r="11" stroke="#FF631F"/>
<path d="M211.166 129H207.358C207.218 129 207.125 128.967 207.078 128.902C207.031 128.827 207.008 128.687 207.008 128.482C207.008 128.267 207.031 128.127 207.078 128.062C207.125 127.987 207.218 127.95 207.358 127.95H208.674V121.594L207.47 121.972C207.349 122.009 207.246 122.028 207.162 122.028C207.022 122.028 206.952 121.855 206.952 121.51C206.952 121.314 206.966 121.179 206.994 121.104C207.031 121.029 207.101 120.978 207.204 120.95L208.688 120.474C208.837 120.418 209.029 120.39 209.262 120.39C209.495 120.39 209.649 120.413 209.724 120.46C209.799 120.507 209.836 120.605 209.836 120.754V127.95H211.166C211.306 127.95 211.399 127.987 211.446 128.062C211.493 128.127 211.516 128.267 211.516 128.482C211.516 128.687 211.493 128.827 211.446 128.902C211.399 128.967 211.306 129 211.166 129ZM217.086 129C216.844 129 216.685 128.977 216.61 128.93C216.536 128.874 216.498 128.771 216.498 128.622V126.774H213.278C213.11 126.774 212.998 126.741 212.942 126.676C212.896 126.601 212.872 126.438 212.872 126.186C212.872 125.925 212.919 125.715 213.012 125.556L215.742 120.796C215.845 120.619 215.962 120.507 216.092 120.46C216.223 120.413 216.466 120.39 216.82 120.39C217.156 120.39 217.38 120.413 217.492 120.46C217.604 120.507 217.66 120.605 217.66 120.754V125.78H218.22C218.36 125.78 218.454 125.813 218.5 125.878C218.547 125.934 218.57 126.065 218.57 126.27C218.57 126.485 218.547 126.625 218.5 126.69C218.454 126.746 218.36 126.774 218.22 126.774H217.66V128.622C217.66 128.771 217.623 128.874 217.548 128.93C217.474 128.977 217.32 129 217.086 129ZM216.47 121.426L214.048 125.78H216.54L216.554 121.426H216.47Z" fill="black"/>
<circle cx="248.5" cy="124.5" r="11" stroke="#FF631F"/>
<path d="M247.166 129H243.358C243.218 129 243.125 128.967 243.078 128.902C243.031 128.827 243.008 128.687 243.008 128.482C243.008 128.267 243.031 128.127 243.078 128.062C243.125 127.987 243.218 127.95 243.358 127.95H244.674V121.594L243.47 121.972C243.349 122.009 243.246 122.028 243.162 122.028C243.022 122.028 242.952 121.855 242.952 121.51C242.952 121.314 242.966 121.179 242.994 121.104C243.031 121.029 243.101 120.978 243.204 120.95L244.688 120.474C244.837 120.418 245.029 120.39 245.262 120.39C245.495 120.39 245.649 120.413 245.724 120.46C245.799 120.507 245.836 120.605 245.836 120.754V127.95H247.166C247.306 127.95 247.399 127.987 247.446 128.062C247.493 128.127 247.516 128.267 247.516 128.482C247.516 128.687 247.493 128.827 247.446 128.902C247.399 128.967 247.306 129 247.166 129ZM251.49 129.126C250.856 129.126 250.235 129.033 249.628 128.846C249.498 128.818 249.404 128.771 249.348 128.706C249.302 128.641 249.278 128.515 249.278 128.328C249.278 128.123 249.292 127.992 249.32 127.936C249.358 127.88 249.418 127.852 249.502 127.852L250.104 127.992C250.506 128.076 250.902 128.118 251.294 128.118C251.994 128.118 252.452 128.02 252.666 127.824C252.89 127.619 253.002 127.185 253.002 126.522V126.06C253.002 125.481 252.914 125.108 252.736 124.94C252.559 124.772 252.218 124.688 251.714 124.688C251.35 124.688 250.958 124.73 250.538 124.814C250.128 124.898 249.885 124.94 249.81 124.94C249.67 124.94 249.563 124.921 249.488 124.884C249.423 124.847 249.39 124.753 249.39 124.604V120.74C249.39 120.6 249.418 120.507 249.474 120.46C249.53 120.413 249.642 120.39 249.81 120.39H253.52C253.66 120.39 253.754 120.423 253.8 120.488C253.847 120.553 253.87 120.693 253.87 120.908C253.87 121.123 253.847 121.267 253.8 121.342C253.754 121.407 253.66 121.44 253.52 121.44H250.468V123.89C250.935 123.769 251.42 123.708 251.924 123.708C252.204 123.708 252.424 123.717 252.582 123.736C252.75 123.745 252.946 123.792 253.17 123.876C253.394 123.96 253.567 124.081 253.688 124.24C253.819 124.389 253.926 124.618 254.01 124.926C254.104 125.225 254.15 125.589 254.15 126.018V126.606C254.15 127.147 254.085 127.595 253.954 127.95C253.824 128.295 253.623 128.552 253.352 128.72C253.091 128.879 252.82 128.986 252.54 129.042C252.26 129.098 251.91 129.126 251.49 129.126Z" fill="black"/>
<circle cx="284.5" cy="124.5" r="11" stroke="#FF631F"/>
<path d="M283.166 129H279.358C279.218 129 279.125 128.967 279.078 128.902C279.031 128.827 279.008 128.687 279.008 128.482C279.008 128.267 279.031 128.127 279.078 128.062C279.125 127.987 279.218 127.95 279.358 127.95H280.674V121.594L279.47 121.972C279.349 122.009 279.246 122.028 279.162 122.028C279.022 122.028 278.952 121.855 278.952 121.51C278.952 121.314 278.966 121.179 278.994 121.104C279.031 121.029 279.101 120.978 279.204 120.95L280.688 120.474C280.837 120.418 281.029 120.39 281.262 120.39C281.495 120.39 281.649 120.413 281.724 120.46C281.799 120.507 281.836 120.605 281.836 120.754V127.95H283.166C283.306 127.95 283.399 127.987 283.446 128.062C283.493 128.127 283.516 128.267 283.516 128.482C283.516 128.687 283.493 128.827 283.446 128.902C283.399 128.967 283.306 129 283.166 129ZM287.686 129.126C287.22 129.126 286.846 129.089 286.566 129.014C286.286 128.949 286.025 128.804 285.782 128.58C285.54 128.347 285.362 128.001 285.25 127.544C285.148 127.077 285.096 126.471 285.096 125.724V123.932C285.096 123.297 285.152 122.751 285.264 122.294C285.376 121.837 285.516 121.482 285.684 121.23C285.852 120.978 286.072 120.782 286.342 120.642C286.613 120.502 286.865 120.413 287.098 120.376C287.341 120.339 287.63 120.32 287.966 120.32C288.526 120.32 289.049 120.381 289.534 120.502C289.665 120.53 289.749 120.577 289.786 120.642C289.833 120.698 289.856 120.829 289.856 121.034C289.856 121.351 289.782 121.51 289.632 121.51C289.614 121.51 289.413 121.482 289.03 121.426C288.648 121.361 288.326 121.328 288.064 121.328C287.794 121.328 287.584 121.337 287.434 121.356C287.285 121.375 287.122 121.431 286.944 121.524C286.767 121.617 286.632 121.757 286.538 121.944C286.445 122.121 286.366 122.383 286.3 122.728C286.244 123.064 286.216 123.479 286.216 123.974V124.548C286.515 123.997 287.168 123.722 288.176 123.722C288.96 123.722 289.516 123.899 289.842 124.254C290.169 124.609 290.332 125.318 290.332 126.382C290.332 127.409 290.122 128.123 289.702 128.524C289.292 128.925 288.62 129.126 287.686 129.126ZM287.7 128.118C288.26 128.118 288.652 128.011 288.876 127.796C289.11 127.581 289.226 127.133 289.226 126.452C289.226 125.733 289.138 125.262 288.96 125.038C288.783 124.805 288.396 124.688 287.798 124.688C287.238 124.688 286.832 124.791 286.58 124.996C286.338 125.192 286.216 125.556 286.216 126.088C286.216 126.956 286.319 127.511 286.524 127.754C286.73 127.997 287.122 128.118 287.7 128.118Z" fill="black"/>
<circle cx="32.5" cy="174.5" r="11" stroke="#FF631F"/>
<path d="M31.166 179H27.358C27.218 179 27.1247 178.967 27.078 178.902C27.0313 178.827 27.008 178.687 27.008 178.482C27.008 178.267 27.0313 178.127 27.078 178.062C27.1247 177.987 27.218 177.95 27.358 177.95H28.674V171.594L27.47 171.972C27.3487 172.009 27.246 172.028 27.162 172.028C27.022 172.028 26.952 171.855 26.952 171.51C26.952 171.314 26.966 171.179 26.994 171.104C27.0313 171.029 27.1013 170.978 27.204 170.95L28.688 170.474C28.8373 170.418 29.0287 170.39 29.262 170.39C29.4953 170.39 29.6493 170.413 29.724 170.46C29.7987 170.507 29.836 170.605 29.836 170.754V177.95H31.166C31.306 177.95 31.3993 177.987 31.446 178.062C31.4927 178.127 31.516 178.267 31.516 178.482C31.516 178.687 31.4927 178.827 31.446 178.902C31.3993 178.967 31.306 179 31.166 179ZM34.8185 179C34.4825 179 34.3145 178.916 34.3145 178.748C34.3145 178.636 34.3518 178.487 34.4265 178.3L36.9745 171.44H33.4885C33.3485 171.44 33.2551 171.407 33.2085 171.342C33.1618 171.267 33.1385 171.123 33.1385 170.908C33.1385 170.693 33.1618 170.553 33.2085 170.488C33.2551 170.423 33.3485 170.39 33.4885 170.39H37.8145C37.9825 170.39 38.0945 170.427 38.1505 170.502C38.2065 170.567 38.2345 170.726 38.2345 170.978C38.2345 171.118 38.1878 171.328 38.0945 171.608L35.4765 178.692C35.4018 178.897 35.1825 179 34.8185 179Z" fill="black"/>
<circle cx="68.5" cy="174.5" r="11" stroke="#FF631F"/>
<path d="M67.166 179H63.358C63.218 179 63.1247 178.967 63.078 178.902C63.0313 178.827 63.008 178.687 63.008 178.482C63.008 178.267 63.0313 178.127 63.078 178.062C63.1247 177.987 63.218 177.95 63.358 177.95H64.674V171.594L63.47 171.972C63.3487 172.009 63.246 172.028 63.162 172.028C63.022 172.028 62.952 171.855 62.952 171.51C62.952 171.314 62.966 171.179 62.994 171.104C63.0313 171.029 63.1013 170.978 63.204 170.95L64.688 170.474C64.8373 170.418 65.0287 170.39 65.262 170.39C65.4953 170.39 65.6493 170.413 65.724 170.46C65.7987 170.507 65.836 170.605 65.836 170.754V177.95H67.166C67.306 177.95 67.3993 177.987 67.446 178.062C67.4927 178.127 67.516 178.267 67.516 178.482C67.516 178.687 67.4927 178.827 67.446 178.902C67.3993 178.967 67.306 179 67.166 179ZM73.8285 178.58C73.4551 178.944 72.7505 179.126 71.7145 179.126C70.6785 179.126 69.9738 178.944 69.6005 178.58C69.2365 178.216 69.0545 177.544 69.0545 176.564C69.0545 175.435 69.4231 174.735 70.1605 174.464C69.5538 174.193 69.2505 173.535 69.2505 172.49C69.2505 172.005 69.3065 171.613 69.4185 171.314C69.5398 171.006 69.7265 170.787 69.9785 170.656C70.2305 170.516 70.4825 170.427 70.7345 170.39C70.9865 170.343 71.3131 170.32 71.7145 170.32C72.1158 170.32 72.4425 170.343 72.6945 170.39C72.9465 170.427 73.1985 170.516 73.4505 170.656C73.7025 170.787 73.8845 171.006 73.9965 171.314C74.1178 171.613 74.1785 172.005 74.1785 172.49C74.1785 173.526 73.8751 174.184 73.2685 174.464C74.0151 174.744 74.3885 175.444 74.3885 176.564C74.3885 177.544 74.2018 178.216 73.8285 178.58ZM70.4965 177.838C70.6925 178.034 71.0985 178.132 71.7145 178.132C72.3305 178.132 72.7365 178.034 72.9325 177.838C73.1285 177.633 73.2265 177.185 73.2265 176.494C73.2265 175.841 73.1191 175.421 72.9045 175.234C72.6898 175.047 72.2931 174.954 71.7145 174.954C71.1358 174.954 70.7391 175.047 70.5245 175.234C70.3098 175.421 70.2025 175.841 70.2025 176.494C70.2025 177.185 70.3005 177.633 70.4965 177.838ZM70.6505 173.75C70.8278 173.909 71.1825 173.988 71.7145 173.988C72.2465 173.988 72.6011 173.909 72.7785 173.75C72.9558 173.591 73.0445 173.209 73.0445 172.602C73.0445 172.033 72.9511 171.673 72.7645 171.524C72.5871 171.365 72.2371 171.286 71.7145 171.286C71.1918 171.286 70.8418 171.365 70.6645 171.524C70.4871 171.673 70.3985 172.033 70.3985 172.602C70.3985 173.209 70.4825 173.591 70.6505 173.75Z" fill="black"/>
<circle cx="104.5" cy="174.5" r="11" stroke="#FF631F"/>
<path d="M103.166 179H99.358C99.218 179 99.1247 178.967 99.078 178.902C99.0313 178.827 99.008 178.687 99.008 178.482C99.008 178.267 99.0313 178.127 99.078 178.062C99.1247 177.987 99.218 177.95 99.358 177.95H100.674V171.594L99.47 171.972C99.3487 172.009 99.246 172.028 99.162 172.028C99.022 172.028 98.952 171.855 98.952 171.51C98.952 171.314 98.966 171.179 98.994 171.104C99.0313 171.029 99.1013 170.978 99.204 170.95L100.688 170.474C100.837 170.418 101.029 170.39 101.262 170.39C101.495 170.39 101.649 170.413 101.724 170.46C101.799 170.507 101.836 170.605 101.836 170.754V177.95H103.166C103.306 177.95 103.399 177.987 103.446 178.062C103.493 178.127 103.516 178.267 103.516 178.482C103.516 178.687 103.493 178.827 103.446 178.902C103.399 178.967 103.306 179 103.166 179ZM107.322 179.126C106.996 179.126 106.496 179.065 105.824 178.944C105.684 178.916 105.591 178.869 105.544 178.804C105.498 178.739 105.474 178.603 105.474 178.398C105.474 178.081 105.554 177.922 105.712 177.922C105.731 177.922 105.908 177.955 106.244 178.02C106.58 178.085 106.888 178.118 107.168 178.118C107.495 178.118 107.742 178.109 107.91 178.09C108.088 178.062 108.27 178.001 108.456 177.908C108.643 177.815 108.778 177.675 108.862 177.488C108.946 177.301 109.016 177.045 109.072 176.718C109.128 176.382 109.156 175.962 109.156 175.458V174.954C108.867 175.467 108.237 175.724 107.266 175.724C106.482 175.724 105.932 175.547 105.614 175.192C105.306 174.837 105.152 174.123 105.152 173.05C105.152 172.014 105.344 171.3 105.726 170.908C106.109 170.516 106.762 170.32 107.686 170.32C108.153 170.32 108.526 170.357 108.806 170.432C109.086 170.497 109.348 170.647 109.59 170.88C109.833 171.104 110.006 171.449 110.108 171.916C110.22 172.373 110.276 172.975 110.276 173.722V175.5C110.276 176.163 110.22 176.727 110.108 177.194C109.996 177.651 109.861 178.006 109.702 178.258C109.544 178.501 109.32 178.692 109.03 178.832C108.75 178.963 108.489 179.042 108.246 179.07C108.004 179.107 107.696 179.126 107.322 179.126ZM107.63 174.744C108.181 174.744 108.573 174.646 108.806 174.45C109.04 174.245 109.156 173.876 109.156 173.344C109.156 172.448 109.063 171.883 108.876 171.65C108.69 171.417 108.293 171.3 107.686 171.3C107.126 171.3 106.744 171.407 106.538 171.622C106.342 171.827 106.244 172.28 106.244 172.98C106.244 173.708 106.328 174.184 106.496 174.408C106.664 174.632 107.042 174.744 107.63 174.744Z" fill="black"/>
<circle cx="140.5" cy="174.5" r="11" stroke="#FF631F"/>
<path d="M136.016 177.95H139.376C139.516 177.95 139.609 177.987 139.656 178.062C139.703 178.127 139.726 178.267 139.726 178.482C139.726 178.687 139.703 178.827 139.656 178.902C139.609 178.967 139.516 179 139.376 179H135.106C134.966 179 134.868 178.972 134.812 178.916C134.765 178.86 134.742 178.748 134.742 178.58V177.67C134.742 177.185 134.826 176.802 134.994 176.522C135.171 176.242 135.489 175.887 135.946 175.458L137.864 173.666C138.079 173.461 138.228 173.288 138.312 173.148C138.396 172.999 138.438 172.789 138.438 172.518C138.438 172.005 138.349 171.683 138.172 171.552C137.995 171.412 137.617 171.342 137.038 171.342C136.646 171.342 136.235 171.389 135.806 171.482C135.386 171.566 135.171 171.608 135.162 171.608C135.078 171.608 135.022 171.58 134.994 171.524C134.966 171.459 134.952 171.333 134.952 171.146C134.952 170.959 134.975 170.829 135.022 170.754C135.078 170.679 135.167 170.623 135.288 170.586C135.876 170.409 136.562 170.32 137.346 170.32C137.701 170.32 137.99 170.339 138.214 170.376C138.438 170.413 138.667 170.497 138.9 170.628C139.143 170.759 139.32 170.973 139.432 171.272C139.553 171.571 139.614 171.953 139.614 172.42C139.614 172.681 139.591 172.91 139.544 173.106C139.497 173.293 139.399 173.489 139.25 173.694C139.101 173.89 138.965 174.049 138.844 174.17C138.732 174.282 138.522 174.478 138.214 174.758L136.604 176.242C136.455 176.382 136.347 176.494 136.282 176.578C136.217 176.653 136.156 176.769 136.1 176.928C136.044 177.077 136.016 177.259 136.016 177.474V177.95ZM143.714 178.118C144.377 178.118 144.811 177.959 145.016 177.642C145.231 177.325 145.338 176.643 145.338 175.598V173.876C145.338 172.784 145.24 172.089 145.044 171.79C144.858 171.482 144.414 171.328 143.714 171.328C143.052 171.328 142.618 171.487 142.412 171.804C142.207 172.112 142.104 172.803 142.104 173.876V175.598C142.104 176.662 142.198 177.348 142.384 177.656C142.58 177.964 143.024 178.118 143.714 178.118ZM143.714 179.126C143.005 179.126 142.459 179.037 142.076 178.86C141.703 178.683 141.418 178.351 141.222 177.866C141.036 177.381 140.942 176.681 140.942 175.766V173.778C140.942 173.041 140.994 172.443 141.096 171.986C141.208 171.529 141.386 171.179 141.628 170.936C141.88 170.693 142.16 170.53 142.468 170.446C142.786 170.362 143.201 170.32 143.714 170.32C144.452 170.32 145.007 170.409 145.38 170.586C145.763 170.763 146.043 171.099 146.22 171.594C146.398 172.089 146.486 172.817 146.486 173.778V175.766C146.486 176.475 146.43 177.054 146.318 177.502C146.206 177.95 146.024 178.291 145.772 178.524C145.52 178.757 145.236 178.916 144.918 179C144.61 179.084 144.209 179.126 143.714 179.126Z" fill="black"/>
<circle cx="176.5" cy="174.5" r="11" stroke="#FF631F"/>
<path d="M172.016 177.95H175.376C175.516 177.95 175.609 177.987 175.656 178.062C175.703 178.127 175.726 178.267 175.726 178.482C175.726 178.687 175.703 178.827 175.656 178.902C175.609 178.967 175.516 179 175.376 179H171.106C170.966 179 170.868 178.972 170.812 178.916C170.765 178.86 170.742 178.748 170.742 178.58V177.67C170.742 177.185 170.826 176.802 170.994 176.522C171.171 176.242 171.489 175.887 171.946 175.458L173.864 173.666C174.079 173.461 174.228 173.288 174.312 173.148C174.396 172.999 174.438 172.789 174.438 172.518C174.438 172.005 174.349 171.683 174.172 171.552C173.995 171.412 173.617 171.342 173.038 171.342C172.646 171.342 172.235 171.389 171.806 171.482C171.386 171.566 171.171 171.608 171.162 171.608C171.078 171.608 171.022 171.58 170.994 171.524C170.966 171.459 170.952 171.333 170.952 171.146C170.952 170.959 170.975 170.829 171.022 170.754C171.078 170.679 171.167 170.623 171.288 170.586C171.876 170.409 172.562 170.32 173.346 170.32C173.701 170.32 173.99 170.339 174.214 170.376C174.438 170.413 174.667 170.497 174.9 170.628C175.143 170.759 175.32 170.973 175.432 171.272C175.553 171.571 175.614 171.953 175.614 172.42C175.614 172.681 175.591 172.91 175.544 173.106C175.497 173.293 175.399 173.489 175.25 173.694C175.101 173.89 174.965 174.049 174.844 174.17C174.732 174.282 174.522 174.478 174.214 174.758L172.604 176.242C172.455 176.382 172.347 176.494 172.282 176.578C172.217 176.653 172.156 176.769 172.1 176.928C172.044 177.077 172.016 177.259 172.016 177.474V177.95ZM181.646 179H177.838C177.698 179 177.605 178.967 177.558 178.902C177.512 178.827 177.488 178.687 177.488 178.482C177.488 178.267 177.512 178.127 177.558 178.062C177.605 177.987 177.698 177.95 177.838 177.95H179.154V171.594L177.95 171.972C177.829 172.009 177.726 172.028 177.642 172.028C177.502 172.028 177.432 171.855 177.432 171.51C177.432 171.314 177.446 171.179 177.474 171.104C177.512 171.029 177.582 170.978 177.684 170.95L179.168 170.474C179.318 170.418 179.509 170.39 179.742 170.39C179.976 170.39 180.13 170.413 180.204 170.46C180.279 170.507 180.316 170.605 180.316 170.754V177.95H181.646C181.786 177.95 181.88 177.987 181.926 178.062C181.973 178.127 181.996 178.267 181.996 178.482C181.996 178.687 181.973 178.827 181.926 178.902C181.88 178.967 181.786 179 181.646 179Z" fill="black"/>
<circle cx="212.5" cy="174.5" r="11" stroke="#FF631F"/>
<path d="M208.016 177.95H211.376C211.516 177.95 211.609 177.987 211.656 178.062C211.703 178.127 211.726 178.267 211.726 178.482C211.726 178.687 211.703 178.827 211.656 178.902C211.609 178.967 211.516 179 211.376 179H207.106C206.966 179 206.868 178.972 206.812 178.916C206.765 178.86 206.742 178.748 206.742 178.58V177.67C206.742 177.185 206.826 176.802 206.994 176.522C207.171 176.242 207.489 175.887 207.946 175.458L209.864 173.666C210.079 173.461 210.228 173.288 210.312 173.148C210.396 172.999 210.438 172.789 210.438 172.518C210.438 172.005 210.349 171.683 210.172 171.552C209.995 171.412 209.617 171.342 209.038 171.342C208.646 171.342 208.235 171.389 207.806 171.482C207.386 171.566 207.171 171.608 207.162 171.608C207.078 171.608 207.022 171.58 206.994 171.524C206.966 171.459 206.952 171.333 206.952 171.146C206.952 170.959 206.975 170.829 207.022 170.754C207.078 170.679 207.167 170.623 207.288 170.586C207.876 170.409 208.562 170.32 209.346 170.32C209.701 170.32 209.99 170.339 210.214 170.376C210.438 170.413 210.667 170.497 210.9 170.628C211.143 170.759 211.32 170.973 211.432 171.272C211.553 171.571 211.614 171.953 211.614 172.42C211.614 172.681 211.591 172.91 211.544 173.106C211.497 173.293 211.399 173.489 211.25 173.694C211.101 173.89 210.965 174.049 210.844 174.17C210.732 174.282 210.522 174.478 210.214 174.758L208.604 176.242C208.455 176.382 208.347 176.494 208.282 176.578C208.217 176.653 208.156 176.769 208.1 176.928C208.044 177.077 208.016 177.259 208.016 177.474V177.95ZM214.496 177.95H217.856C217.996 177.95 218.09 177.987 218.136 178.062C218.183 178.127 218.206 178.267 218.206 178.482C218.206 178.687 218.183 178.827 218.136 178.902C218.09 178.967 217.996 179 217.856 179H213.586C213.446 179 213.348 178.972 213.292 178.916C213.246 178.86 213.222 178.748 213.222 178.58V177.67C213.222 177.185 213.306 176.802 213.474 176.522C213.652 176.242 213.969 175.887 214.426 175.458L216.344 173.666C216.559 173.461 216.708 173.288 216.792 173.148C216.876 172.999 216.918 172.789 216.918 172.518C216.918 172.005 216.83 171.683 216.652 171.552C216.475 171.412 216.097 171.342 215.518 171.342C215.126 171.342 214.716 171.389 214.286 171.482C213.866 171.566 213.652 171.608 213.642 171.608C213.558 171.608 213.502 171.58 213.474 171.524C213.446 171.459 213.432 171.333 213.432 171.146C213.432 170.959 213.456 170.829 213.502 170.754C213.558 170.679 213.647 170.623 213.768 170.586C214.356 170.409 215.042 170.32 215.826 170.32C216.181 170.32 216.47 170.339 216.694 170.376C216.918 170.413 217.147 170.497 217.38 170.628C217.623 170.759 217.8 170.973 217.912 171.272C218.034 171.571 218.094 171.953 218.094 172.42C218.094 172.681 218.071 172.91 218.024 173.106C217.978 173.293 217.88 173.489 217.73 173.694C217.581 173.89 217.446 174.049 217.324 174.17C217.212 174.282 217.002 174.478 216.694 174.758L215.084 176.242C214.935 176.382 214.828 176.494 214.762 176.578C214.697 176.653 214.636 176.769 214.58 176.928C214.524 177.077 214.496 177.259 214.496 177.474V177.95Z" fill="black"/>
<circle cx="248.5" cy="174.5" r="11" stroke="#FF631F"/>
<path d="M244.016 177.95H247.376C247.516 177.95 247.609 177.987 247.656 178.062C247.703 178.127 247.726 178.267 247.726 178.482C247.726 178.687 247.703 178.827 247.656 178.902C247.609 178.967 247.516 179 247.376 179H243.106C242.966 179 242.868 178.972 242.812 178.916C242.765 178.86 242.742 178.748 242.742 178.58V177.67C242.742 177.185 242.826 176.802 242.994 176.522C243.171 176.242 243.489 175.887 243.946 175.458L245.864 173.666C246.079 173.461 246.228 173.288 246.312 173.148C246.396 172.999 246.438 172.789 246.438 172.518C246.438 172.005 246.349 171.683 246.172 171.552C245.995 171.412 245.617 171.342 245.038 171.342C244.646 171.342 244.235 171.389 243.806 171.482C243.386 171.566 243.171 171.608 243.162 171.608C243.078 171.608 243.022 171.58 242.994 171.524C242.966 171.459 242.952 171.333 242.952 171.146C242.952 170.959 242.975 170.829 243.022 170.754C243.078 170.679 243.167 170.623 243.288 170.586C243.876 170.409 244.562 170.32 245.346 170.32C245.701 170.32 245.99 170.339 246.214 170.376C246.438 170.413 246.667 170.497 246.9 170.628C247.143 170.759 247.32 170.973 247.432 171.272C247.553 171.571 247.614 171.953 247.614 172.42C247.614 172.681 247.591 172.91 247.544 173.106C247.497 173.293 247.399 173.489 247.25 173.694C247.101 173.89 246.965 174.049 246.844 174.17C246.732 174.282 246.522 174.478 246.214 174.758L244.604 176.242C244.455 176.382 244.347 176.494 244.282 176.578C244.217 176.653 244.156 176.769 244.1 176.928C244.044 177.077 244.016 177.259 244.016 177.474V177.95ZM251.77 179.126C250.884 179.126 250.128 179.037 249.502 178.86C249.372 178.823 249.278 178.771 249.222 178.706C249.166 178.631 249.138 178.501 249.138 178.314C249.138 178.118 249.152 177.992 249.18 177.936C249.218 177.871 249.283 177.838 249.376 177.838C249.395 177.838 249.661 177.88 250.174 177.964C250.688 178.048 251.145 178.09 251.546 178.09C252.162 178.09 252.573 177.973 252.778 177.74C252.984 177.497 253.086 177.115 253.086 176.592C253.086 176.069 252.937 175.687 252.638 175.444C252.349 175.201 251.742 175.08 250.818 175.08C250.678 175.08 250.585 175.047 250.538 174.982C250.492 174.907 250.468 174.777 250.468 174.59C250.468 174.403 250.492 174.277 250.538 174.212C250.585 174.137 250.678 174.1 250.818 174.1C251.602 174.1 252.144 173.979 252.442 173.736C252.75 173.484 252.904 173.111 252.904 172.616C252.904 172.093 252.82 171.753 252.652 171.594C252.484 171.426 252.125 171.342 251.574 171.342C251.21 171.342 250.8 171.384 250.342 171.468C249.894 171.552 249.656 171.594 249.628 171.594C249.544 171.594 249.484 171.561 249.446 171.496C249.409 171.431 249.39 171.305 249.39 171.118C249.39 170.819 249.502 170.642 249.726 170.586C250.333 170.409 251.066 170.32 251.924 170.32C252.662 170.32 253.208 170.474 253.562 170.782C253.917 171.09 254.094 171.673 254.094 172.532C254.094 173.699 253.567 174.375 252.512 174.562C253.166 174.609 253.618 174.8 253.87 175.136C254.132 175.472 254.262 175.971 254.262 176.634C254.262 177.502 254.057 178.137 253.646 178.538C253.245 178.93 252.62 179.126 251.77 179.126Z" fill="black"/>
<circle cx="284.5" cy="174.5" r="11" stroke="#FF631F"/>
<path d="M280.016 177.95H283.376C283.516 177.95 283.609 177.987 283.656 178.062C283.703 178.127 283.726 178.267 283.726 178.482C283.726 178.687 283.703 178.827 283.656 178.902C283.609 178.967 283.516 179 283.376 179H279.106C278.966 179 278.868 178.972 278.812 178.916C278.765 178.86 278.742 178.748 278.742 178.58V177.67C278.742 177.185 278.826 176.802 278.994 176.522C279.171 176.242 279.489 175.887 279.946 175.458L281.864 173.666C282.079 173.461 282.228 173.288 282.312 173.148C282.396 172.999 282.438 172.789 282.438 172.518C282.438 172.005 282.349 171.683 282.172 171.552C281.995 171.412 281.617 171.342 281.038 171.342C280.646 171.342 280.235 171.389 279.806 171.482C279.386 171.566 279.171 171.608 279.162 171.608C279.078 171.608 279.022 171.58 278.994 171.524C278.966 171.459 278.952 171.333 278.952 171.146C278.952 170.959 278.975 170.829 279.022 170.754C279.078 170.679 279.167 170.623 279.288 170.586C279.876 170.409 280.562 170.32 281.346 170.32C281.701 170.32 281.99 170.339 282.214 170.376C282.438 170.413 282.667 170.497 282.9 170.628C283.143 170.759 283.32 170.973 283.432 171.272C283.553 171.571 283.614 171.953 283.614 172.42C283.614 172.681 283.591 172.91 283.544 173.106C283.497 173.293 283.399 173.489 283.25 173.694C283.101 173.89 282.965 174.049 282.844 174.17C282.732 174.282 282.522 174.478 282.214 174.758L280.604 176.242C280.455 176.382 280.347 176.494 280.282 176.578C280.217 176.653 280.156 176.769 280.1 176.928C280.044 177.077 280.016 177.259 280.016 177.474V177.95ZM289.086 179C288.844 179 288.685 178.977 288.61 178.93C288.536 178.874 288.498 178.771 288.498 178.622V176.774H285.278C285.11 176.774 284.998 176.741 284.942 176.676C284.896 176.601 284.872 176.438 284.872 176.186C284.872 175.925 284.919 175.715 285.012 175.556L287.742 170.796C287.845 170.619 287.962 170.507 288.092 170.46C288.223 170.413 288.466 170.39 288.82 170.39C289.156 170.39 289.38 170.413 289.492 170.46C289.604 170.507 289.66 170.605 289.66 170.754V175.78H290.22C290.36 175.78 290.454 175.813 290.5 175.878C290.547 175.934 290.57 176.065 290.57 176.27C290.57 176.485 290.547 176.625 290.5 176.69C290.454 176.746 290.36 176.774 290.22 176.774H289.66V178.622C289.66 178.771 289.623 178.874 289.548 178.93C289.474 178.977 289.32 179 289.086 179ZM288.47 171.426L286.048 175.78H288.54L288.554 171.426H288.47Z" fill="black"/>
<circle cx="32.5" cy="224.5" r="11" stroke="#FF631F"/>
<path d="M28.016 227.95H31.376C31.516 227.95 31.6093 227.987 31.656 228.062C31.7027 228.127 31.726 228.267 31.726 228.482C31.726 228.687 31.7027 228.827 31.656 228.902C31.6093 228.967 31.516 229 31.376 229H27.106C26.966 229 26.868 228.972 26.812 228.916C26.7653 228.86 26.742 228.748 26.742 228.58V227.67C26.742 227.185 26.826 226.802 26.994 226.522C27.1713 226.242 27.4887 225.887 27.946 225.458L29.864 223.666C30.0787 223.461 30.228 223.288 30.312 223.148C30.396 222.999 30.438 222.789 30.438 222.518C30.438 222.005 30.3493 221.683 30.172 221.552C29.9947 221.412 29.6167 221.342 29.038 221.342C28.646 221.342 28.2353 221.389 27.806 221.482C27.386 221.566 27.1713 221.608 27.162 221.608C27.078 221.608 27.022 221.58 26.994 221.524C26.966 221.459 26.952 221.333 26.952 221.146C26.952 220.959 26.9753 220.829 27.022 220.754C27.078 220.679 27.1667 220.623 27.288 220.586C27.876 220.409 28.562 220.32 29.346 220.32C29.7007 220.32 29.99 220.339 30.214 220.376C30.438 220.413 30.6667 220.497 30.9 220.628C31.1427 220.759 31.32 220.973 31.432 221.272C31.5533 221.571 31.614 221.953 31.614 222.42C31.614 222.681 31.5907 222.91 31.544 223.106C31.4973 223.293 31.3993 223.489 31.25 223.694C31.1007 223.89 30.9653 224.049 30.844 224.17C30.732 224.282 30.522 224.478 30.214 224.758L28.604 226.242C28.4547 226.382 28.3473 226.494 28.282 226.578C28.2167 226.653 28.156 226.769 28.1 226.928C28.044 227.077 28.016 227.259 28.016 227.474V227.95ZM35.4905 229.126C34.8558 229.126 34.2351 229.033 33.6285 228.846C33.4978 228.818 33.4045 228.771 33.3485 228.706C33.3018 228.641 33.2785 228.515 33.2785 228.328C33.2785 228.123 33.2925 227.992 33.3205 227.936C33.3578 227.88 33.4185 227.852 33.5025 227.852L34.1045 227.992C34.5058 228.076 34.9025 228.118 35.2945 228.118C35.9945 228.118 36.4518 228.02 36.6665 227.824C36.8905 227.619 37.0025 227.185 37.0025 226.522V226.06C37.0025 225.481 36.9138 225.108 36.7365 224.94C36.5591 224.772 36.2185 224.688 35.7145 224.688C35.3505 224.688 34.9585 224.73 34.5385 224.814C34.1278 224.898 33.8851 224.94 33.8105 224.94C33.6705 224.94 33.5631 224.921 33.4885 224.884C33.4231 224.847 33.3905 224.753 33.3905 224.604V220.74C33.3905 220.6 33.4185 220.507 33.4745 220.46C33.5305 220.413 33.6425 220.39 33.8105 220.39H37.5205C37.6605 220.39 37.7538 220.423 37.8005 220.488C37.8471 220.553 37.8705 220.693 37.8705 220.908C37.8705 221.123 37.8471 221.267 37.8005 221.342C37.7538 221.407 37.6605 221.44 37.5205 221.44H34.4685V223.89C34.9351 223.769 35.4205 223.708 35.9245 223.708C36.2045 223.708 36.4238 223.717 36.5825 223.736C36.7505 223.745 36.9465 223.792 37.1705 223.876C37.3945 223.96 37.5671 224.081 37.6885 224.24C37.8191 224.389 37.9265 224.618 38.0105 224.926C38.1038 225.225 38.1505 225.589 38.1505 226.018V226.606C38.1505 227.147 38.0851 227.595 37.9545 227.95C37.8238 228.295 37.6231 228.552 37.3525 228.72C37.0911 228.879 36.8205 228.986 36.5405 229.042C36.2605 229.098 35.9105 229.126 35.4905 229.126Z" fill="black"/>
<circle cx="68.5" cy="224.5" r="11" stroke="#FF631F"/>
<path d="M64.016 227.95H67.376C67.516 227.95 67.6093 227.987 67.656 228.062C67.7027 228.127 67.726 228.267 67.726 228.482C67.726 228.687 67.7027 228.827 67.656 228.902C67.6093 228.967 67.516 229 67.376 229H63.106C62.966 229 62.868 228.972 62.812 228.916C62.7653 228.86 62.742 228.748 62.742 228.58V227.67C62.742 227.185 62.826 226.802 62.994 226.522C63.1713 226.242 63.4887 225.887 63.946 225.458L65.864 223.666C66.0787 223.461 66.228 223.288 66.312 223.148C66.396 222.999 66.438 222.789 66.438 222.518C66.438 222.005 66.3493 221.683 66.172 221.552C65.9947 221.412 65.6167 221.342 65.038 221.342C64.646 221.342 64.2353 221.389 63.806 221.482C63.386 221.566 63.1713 221.608 63.162 221.608C63.078 221.608 63.022 221.58 62.994 221.524C62.966 221.459 62.952 221.333 62.952 221.146C62.952 220.959 62.9753 220.829 63.022 220.754C63.078 220.679 63.1667 220.623 63.288 220.586C63.876 220.409 64.562 220.32 65.346 220.32C65.7007 220.32 65.99 220.339 66.214 220.376C66.438 220.413 66.6667 220.497 66.9 220.628C67.1427 220.759 67.32 220.973 67.432 221.272C67.5533 221.571 67.614 221.953 67.614 222.42C67.614 222.681 67.5907 222.91 67.544 223.106C67.4973 223.293 67.3993 223.489 67.25 223.694C67.1007 223.89 66.9653 224.049 66.844 224.17C66.732 224.282 66.522 224.478 66.214 224.758L64.604 226.242C64.4547 226.382 64.3473 226.494 64.282 226.578C64.2167 226.653 64.156 226.769 64.1 226.928C64.044 227.077 64.016 227.259 64.016 227.474V227.95ZM71.6865 229.126C71.2198 229.126 70.8465 229.089 70.5665 229.014C70.2865 228.949 70.0251 228.804 69.7825 228.58C69.5398 228.347 69.3625 228.001 69.2505 227.544C69.1478 227.077 69.0965 226.471 69.0965 225.724V223.932C69.0965 223.297 69.1525 222.751 69.2645 222.294C69.3765 221.837 69.5165 221.482 69.6845 221.23C69.8525 220.978 70.0718 220.782 70.3425 220.642C70.6131 220.502 70.8651 220.413 71.0985 220.376C71.3411 220.339 71.6305 220.32 71.9665 220.32C72.5265 220.32 73.0491 220.381 73.5345 220.502C73.6651 220.53 73.7491 220.577 73.7865 220.642C73.8331 220.698 73.8565 220.829 73.8565 221.034C73.8565 221.351 73.7818 221.51 73.6325 221.51C73.6138 221.51 73.4131 221.482 73.0305 221.426C72.6478 221.361 72.3258 221.328 72.0645 221.328C71.7938 221.328 71.5838 221.337 71.4345 221.356C71.2851 221.375 71.1218 221.431 70.9445 221.524C70.7671 221.617 70.6318 221.757 70.5385 221.944C70.4451 222.121 70.3658 222.383 70.3005 222.728C70.2445 223.064 70.2165 223.479 70.2165 223.974V224.548C70.5151 223.997 71.1685 223.722 72.1765 223.722C72.9605 223.722 73.5158 223.899 73.8425 224.254C74.1691 224.609 74.3325 225.318 74.3325 226.382C74.3325 227.409 74.1225 228.123 73.7025 228.524C73.2918 228.925 72.6198 229.126 71.6865 229.126ZM71.7005 228.118C72.2605 228.118 72.6525 228.011 72.8765 227.796C73.1098 227.581 73.2265 227.133 73.2265 226.452C73.2265 225.733 73.1378 225.262 72.9605 225.038C72.7831 224.805 72.3958 224.688 71.7985 224.688C71.2385 224.688 70.8325 224.791 70.5805 224.996C70.3378 225.192 70.2165 225.556 70.2165 226.088C70.2165 226.956 70.3191 227.511 70.5245 227.754C70.7298 227.997 71.1218 228.118 71.7005 228.118Z" fill="black"/>
<circle cx="104.5" cy="224.5" r="11" stroke="#FF631F"/>
<path d="M100.016 227.95H103.376C103.516 227.95 103.609 227.987 103.656 228.062C103.703 228.127 103.726 228.267 103.726 228.482C103.726 228.687 103.703 228.827 103.656 228.902C103.609 228.967 103.516 229 103.376 229H99.106C98.966 229 98.868 228.972 98.812 228.916C98.7653 228.86 98.742 228.748 98.742 228.58V227.67C98.742 227.185 98.826 226.802 98.994 226.522C99.1713 226.242 99.4887 225.887 99.946 225.458L101.864 223.666C102.079 223.461 102.228 223.288 102.312 223.148C102.396 222.999 102.438 222.789 102.438 222.518C102.438 222.005 102.349 221.683 102.172 221.552C101.995 221.412 101.617 221.342 101.038 221.342C100.646 221.342 100.235 221.389 99.806 221.482C99.386 221.566 99.1713 221.608 99.162 221.608C99.078 221.608 99.022 221.58 98.994 221.524C98.966 221.459 98.952 221.333 98.952 221.146C98.952 220.959 98.9753 220.829 99.022 220.754C99.078 220.679 99.1667 220.623 99.288 220.586C99.876 220.409 100.562 220.32 101.346 220.32C101.701 220.32 101.99 220.339 102.214 220.376C102.438 220.413 102.667 220.497 102.9 220.628C103.143 220.759 103.32 220.973 103.432 221.272C103.553 221.571 103.614 221.953 103.614 222.42C103.614 222.681 103.591 222.91 103.544 223.106C103.497 223.293 103.399 223.489 103.25 223.694C103.101 223.89 102.965 224.049 102.844 224.17C102.732 224.282 102.522 224.478 102.214 224.758L100.604 226.242C100.455 226.382 100.347 226.494 100.282 226.578C100.217 226.653 100.156 226.769 100.1 226.928C100.044 227.077 100.016 227.259 100.016 227.474V227.95ZM106.818 229C106.482 229 106.314 228.916 106.314 228.748C106.314 228.636 106.352 228.487 106.426 228.3L108.974 221.44H105.488C105.348 221.44 105.255 221.407 105.208 221.342C105.162 221.267 105.138 221.123 105.138 220.908C105.138 220.693 105.162 220.553 105.208 220.488C105.255 220.423 105.348 220.39 105.488 220.39H109.814C109.982 220.39 110.094 220.427 110.15 220.502C110.206 220.567 110.234 220.726 110.234 220.978C110.234 221.118 110.188 221.328 110.094 221.608L107.476 228.692C107.402 228.897 107.182 229 106.818 229Z" fill="black"/>
<circle cx="140.5" cy="224.5" r="11" stroke="#FF631F"/>
<path d="M136.016 227.95H139.376C139.516 227.95 139.609 227.987 139.656 228.062C139.703 228.127 139.726 228.267 139.726 228.482C139.726 228.687 139.703 228.827 139.656 228.902C139.609 228.967 139.516 229 139.376 229H135.106C134.966 229 134.868 228.972 134.812 228.916C134.765 228.86 134.742 228.748 134.742 228.58V227.67C134.742 227.185 134.826 226.802 134.994 226.522C135.171 226.242 135.489 225.887 135.946 225.458L137.864 223.666C138.079 223.461 138.228 223.288 138.312 223.148C138.396 222.999 138.438 222.789 138.438 222.518C138.438 222.005 138.349 221.683 138.172 221.552C137.995 221.412 137.617 221.342 137.038 221.342C136.646 221.342 136.235 221.389 135.806 221.482C135.386 221.566 135.171 221.608 135.162 221.608C135.078 221.608 135.022 221.58 134.994 221.524C134.966 221.459 134.952 221.333 134.952 221.146C134.952 220.959 134.975 220.829 135.022 220.754C135.078 220.679 135.167 220.623 135.288 220.586C135.876 220.409 136.562 220.32 137.346 220.32C137.701 220.32 137.99 220.339 138.214 220.376C138.438 220.413 138.667 220.497 138.9 220.628C139.143 220.759 139.32 220.973 139.432 221.272C139.553 221.571 139.614 221.953 139.614 222.42C139.614 222.681 139.591 222.91 139.544 223.106C139.497 223.293 139.399 223.489 139.25 223.694C139.101 223.89 138.965 224.049 138.844 224.17C138.732 224.282 138.522 224.478 138.214 224.758L136.604 226.242C136.455 226.382 136.347 226.494 136.282 226.578C136.217 226.653 136.156 226.769 136.1 226.928C136.044 227.077 136.016 227.259 136.016 227.474V227.95ZM145.828 228.58C145.455 228.944 144.75 229.126 143.714 229.126C142.678 229.126 141.974 228.944 141.6 228.58C141.236 228.216 141.054 227.544 141.054 226.564C141.054 225.435 141.423 224.735 142.16 224.464C141.554 224.193 141.25 223.535 141.25 222.49C141.25 222.005 141.306 221.613 141.418 221.314C141.54 221.006 141.726 220.787 141.978 220.656C142.23 220.516 142.482 220.427 142.734 220.39C142.986 220.343 143.313 220.32 143.714 220.32C144.116 220.32 144.442 220.343 144.694 220.39C144.946 220.427 145.198 220.516 145.45 220.656C145.702 220.787 145.884 221.006 145.996 221.314C146.118 221.613 146.178 222.005 146.178 222.49C146.178 223.526 145.875 224.184 145.268 224.464C146.015 224.744 146.388 225.444 146.388 226.564C146.388 227.544 146.202 228.216 145.828 228.58ZM142.496 227.838C142.692 228.034 143.098 228.132 143.714 228.132C144.33 228.132 144.736 228.034 144.932 227.838C145.128 227.633 145.226 227.185 145.226 226.494C145.226 225.841 145.119 225.421 144.904 225.234C144.69 225.047 144.293 224.954 143.714 224.954C143.136 224.954 142.739 225.047 142.524 225.234C142.31 225.421 142.202 225.841 142.202 226.494C142.202 227.185 142.3 227.633 142.496 227.838ZM142.65 223.75C142.828 223.909 143.182 223.988 143.714 223.988C144.246 223.988 144.601 223.909 144.778 223.75C144.956 223.591 145.044 223.209 145.044 222.602C145.044 222.033 144.951 221.673 144.764 221.524C144.587 221.365 144.237 221.286 143.714 221.286C143.192 221.286 142.842 221.365 142.664 221.524C142.487 221.673 142.398 222.033 142.398 222.602C142.398 223.209 142.482 223.591 142.65 223.75Z" fill="black"/>
<circle cx="176.5" cy="224.5" r="11" stroke="#FF631F"/>
<path d="M172.016 227.95H175.376C175.516 227.95 175.609 227.987 175.656 228.062C175.703 228.127 175.726 228.267 175.726 228.482C175.726 228.687 175.703 228.827 175.656 228.902C175.609 228.967 175.516 229 175.376 229H171.106C170.966 229 170.868 228.972 170.812 228.916C170.765 228.86 170.742 228.748 170.742 228.58V227.67C170.742 227.185 170.826 226.802 170.994 226.522C171.171 226.242 171.489 225.887 171.946 225.458L173.864 223.666C174.079 223.461 174.228 223.288 174.312 223.148C174.396 222.999 174.438 222.789 174.438 222.518C174.438 222.005 174.349 221.683 174.172 221.552C173.995 221.412 173.617 221.342 173.038 221.342C172.646 221.342 172.235 221.389 171.806 221.482C171.386 221.566 171.171 221.608 171.162 221.608C171.078 221.608 171.022 221.58 170.994 221.524C170.966 221.459 170.952 221.333 170.952 221.146C170.952 220.959 170.975 220.829 171.022 220.754C171.078 220.679 171.167 220.623 171.288 220.586C171.876 220.409 172.562 220.32 173.346 220.32C173.701 220.32 173.99 220.339 174.214 220.376C174.438 220.413 174.667 220.497 174.9 220.628C175.143 220.759 175.32 220.973 175.432 221.272C175.553 221.571 175.614 221.953 175.614 222.42C175.614 222.681 175.591 222.91 175.544 223.106C175.497 223.293 175.399 223.489 175.25 223.694C175.101 223.89 174.965 224.049 174.844 224.17C174.732 224.282 174.522 224.478 174.214 224.758L172.604 226.242C172.455 226.382 172.347 226.494 172.282 226.578C172.217 226.653 172.156 226.769 172.1 226.928C172.044 227.077 172.016 227.259 172.016 227.474V227.95ZM179.322 229.126C178.996 229.126 178.496 229.065 177.824 228.944C177.684 228.916 177.591 228.869 177.544 228.804C177.498 228.739 177.474 228.603 177.474 228.398C177.474 228.081 177.554 227.922 177.712 227.922C177.731 227.922 177.908 227.955 178.244 228.02C178.58 228.085 178.888 228.118 179.168 228.118C179.495 228.118 179.742 228.109 179.91 228.09C180.088 228.062 180.27 228.001 180.456 227.908C180.643 227.815 180.778 227.675 180.862 227.488C180.946 227.301 181.016 227.045 181.072 226.718C181.128 226.382 181.156 225.962 181.156 225.458V224.954C180.867 225.467 180.237 225.724 179.266 225.724C178.482 225.724 177.932 225.547 177.614 225.192C177.306 224.837 177.152 224.123 177.152 223.05C177.152 222.014 177.344 221.3 177.726 220.908C178.109 220.516 178.762 220.32 179.686 220.32C180.153 220.32 180.526 220.357 180.806 220.432C181.086 220.497 181.348 220.647 181.59 220.88C181.833 221.104 182.006 221.449 182.108 221.916C182.22 222.373 182.276 222.975 182.276 223.722V225.5C182.276 226.163 182.22 226.727 182.108 227.194C181.996 227.651 181.861 228.006 181.702 228.258C181.544 228.501 181.32 228.692 181.03 228.832C180.75 228.963 180.489 229.042 180.246 229.07C180.004 229.107 179.696 229.126 179.322 229.126ZM179.63 224.744C180.181 224.744 180.573 224.646 180.806 224.45C181.04 224.245 181.156 223.876 181.156 223.344C181.156 222.448 181.063 221.883 180.876 221.65C180.69 221.417 180.293 221.3 179.686 221.3C179.126 221.3 178.744 221.407 178.538 221.622C178.342 221.827 178.244 222.28 178.244 222.98C178.244 223.708 178.328 224.184 178.496 224.408C178.664 224.632 179.042 224.744 179.63 224.744Z" fill="black"/>
<circle cx="212.5" cy="224.5" r="11" stroke="#FF631F"/>
<path d="M209.29 229.126C208.403 229.126 207.647 229.037 207.022 228.86C206.891 228.823 206.798 228.771 206.742 228.706C206.686 228.631 206.658 228.501 206.658 228.314C206.658 228.118 206.672 227.992 206.7 227.936C206.737 227.871 206.803 227.838 206.896 227.838C206.915 227.838 207.181 227.88 207.694 227.964C208.207 228.048 208.665 228.09 209.066 228.09C209.682 228.09 210.093 227.973 210.298 227.74C210.503 227.497 210.606 227.115 210.606 226.592C210.606 226.069 210.457 225.687 210.158 225.444C209.869 225.201 209.262 225.08 208.338 225.08C208.198 225.08 208.105 225.047 208.058 224.982C208.011 224.907 207.988 224.777 207.988 224.59C207.988 224.403 208.011 224.277 208.058 224.212C208.105 224.137 208.198 224.1 208.338 224.1C209.122 224.1 209.663 223.979 209.962 223.736C210.27 223.484 210.424 223.111 210.424 222.616C210.424 222.093 210.34 221.753 210.172 221.594C210.004 221.426 209.645 221.342 209.094 221.342C208.73 221.342 208.319 221.384 207.862 221.468C207.414 221.552 207.176 221.594 207.148 221.594C207.064 221.594 207.003 221.561 206.966 221.496C206.929 221.431 206.91 221.305 206.91 221.118C206.91 220.819 207.022 220.642 207.246 220.586C207.853 220.409 208.585 220.32 209.444 220.32C210.181 220.32 210.727 220.474 211.082 220.782C211.437 221.09 211.614 221.673 211.614 222.532C211.614 223.699 211.087 224.375 210.032 224.562C210.685 224.609 211.138 224.8 211.39 225.136C211.651 225.472 211.782 225.971 211.782 226.634C211.782 227.502 211.577 228.137 211.166 228.538C210.765 228.93 210.139 229.126 209.29 229.126ZM215.714 228.118C216.377 228.118 216.811 227.959 217.016 227.642C217.231 227.325 217.338 226.643 217.338 225.598V223.876C217.338 222.784 217.24 222.089 217.044 221.79C216.858 221.482 216.414 221.328 215.714 221.328C215.052 221.328 214.618 221.487 214.412 221.804C214.207 222.112 214.104 222.803 214.104 223.876V225.598C214.104 226.662 214.198 227.348 214.384 227.656C214.58 227.964 215.024 228.118 215.714 228.118ZM215.714 229.126C215.005 229.126 214.459 229.037 214.076 228.86C213.703 228.683 213.418 228.351 213.222 227.866C213.036 227.381 212.942 226.681 212.942 225.766V223.778C212.942 223.041 212.994 222.443 213.096 221.986C213.208 221.529 213.386 221.179 213.628 220.936C213.88 220.693 214.16 220.53 214.468 220.446C214.786 220.362 215.201 220.32 215.714 220.32C216.452 220.32 217.007 220.409 217.38 220.586C217.763 220.763 218.043 221.099 218.22 221.594C218.398 222.089 218.486 222.817 218.486 223.778V225.766C218.486 226.475 218.43 227.054 218.318 227.502C218.206 227.95 218.024 228.291 217.772 228.524C217.52 228.757 217.236 228.916 216.918 229C216.61 229.084 216.209 229.126 215.714 229.126Z" fill="black"/>
<circle cx="248.5" cy="224.5" r="11" stroke="#FF631F"/>
<path d="M245.29 229.126C244.403 229.126 243.647 229.037 243.022 228.86C242.891 228.823 242.798 228.771 242.742 228.706C242.686 228.631 242.658 228.501 242.658 228.314C242.658 228.118 242.672 227.992 242.7 227.936C242.737 227.871 242.803 227.838 242.896 227.838C242.915 227.838 243.181 227.88 243.694 227.964C244.207 228.048 244.665 228.09 245.066 228.09C245.682 228.09 246.093 227.973 246.298 227.74C246.503 227.497 246.606 227.115 246.606 226.592C246.606 226.069 246.457 225.687 246.158 225.444C245.869 225.201 245.262 225.08 244.338 225.08C244.198 225.08 244.105 225.047 244.058 224.982C244.011 224.907 243.988 224.777 243.988 224.59C243.988 224.403 244.011 224.277 244.058 224.212C244.105 224.137 244.198 224.1 244.338 224.1C245.122 224.1 245.663 223.979 245.962 223.736C246.27 223.484 246.424 223.111 246.424 222.616C246.424 222.093 246.34 221.753 246.172 221.594C246.004 221.426 245.645 221.342 245.094 221.342C244.73 221.342 244.319 221.384 243.862 221.468C243.414 221.552 243.176 221.594 243.148 221.594C243.064 221.594 243.003 221.561 242.966 221.496C242.929 221.431 242.91 221.305 242.91 221.118C242.91 220.819 243.022 220.642 243.246 220.586C243.853 220.409 244.585 220.32 245.444 220.32C246.181 220.32 246.727 220.474 247.082 220.782C247.437 221.09 247.614 221.673 247.614 222.532C247.614 223.699 247.087 224.375 246.032 224.562C246.685 224.609 247.138 224.8 247.39 225.136C247.651 225.472 247.782 225.971 247.782 226.634C247.782 227.502 247.577 228.137 247.166 228.538C246.765 228.93 246.139 229.126 245.29 229.126ZM253.646 229H249.838C249.698 229 249.605 228.967 249.558 228.902C249.512 228.827 249.488 228.687 249.488 228.482C249.488 228.267 249.512 228.127 249.558 228.062C249.605 227.987 249.698 227.95 249.838 227.95H251.154V221.594L249.95 221.972C249.829 222.009 249.726 222.028 249.642 222.028C249.502 222.028 249.432 221.855 249.432 221.51C249.432 221.314 249.446 221.179 249.474 221.104C249.512 221.029 249.582 220.978 249.684 220.95L251.168 220.474C251.318 220.418 251.509 220.39 251.742 220.39C251.976 220.39 252.13 220.413 252.204 220.46C252.279 220.507 252.316 220.605 252.316 220.754V227.95H253.646C253.786 227.95 253.88 227.987 253.926 228.062C253.973 228.127 253.996 228.267 253.996 228.482C253.996 228.687 253.973 228.827 253.926 228.902C253.88 228.967 253.786 229 253.646 229Z" fill="black"/>
</svg>
