<svg width="317" height="124" viewBox="0 0 317 124" fill="none" xmlns="http://www.w3.org/2000/svg">
<rect x="0.5" y="0.5" width="316" height="35" rx="9.5" fill="#F7F8FA" stroke="#FF631F"/>
<rect x="0.5" y="44.5" width="316" height="35" rx="9.5" fill="#F7F8FA" stroke="#FF631F"/>
<rect x="0.5" y="88.5" width="316" height="35" rx="9.5" fill="#F7F8FA" stroke="#FF631F"/>
<path d="M12.816 20.088C12.1193 20.088 11.518 20.0587 11.012 20C10.858 19.9853 10.7553 19.9523 10.704 19.901C10.66 19.8497 10.638 19.758 10.638 19.626V13.631C10.638 13.4917 10.6637 13.3963 10.715 13.345C10.7663 13.2863 10.858 13.2497 10.99 13.235C11.5033 13.1763 12.0313 13.147 12.574 13.147C12.9333 13.147 13.2193 13.158 13.432 13.18C13.652 13.1947 13.8683 13.235 14.081 13.301C14.2937 13.3597 14.4513 13.4513 14.554 13.576C14.664 13.6933 14.752 13.8547 14.818 14.06C14.884 14.2653 14.917 14.522 14.917 14.83C14.917 15.2847 14.8583 15.6403 14.741 15.897C14.6237 16.1463 14.411 16.3187 14.103 16.414C14.4843 16.4947 14.7557 16.6707 14.917 16.942C15.0783 17.206 15.159 17.613 15.159 18.163C15.159 18.8963 14.9977 19.4023 14.675 19.681C14.3597 19.9523 13.74 20.088 12.816 20.088ZM11.705 14.104V16.051H12.662C13.1533 16.051 13.4687 15.985 13.608 15.853C13.7473 15.721 13.817 15.4203 13.817 14.951C13.817 14.555 13.7547 14.3093 13.63 14.214C13.5053 14.1113 13.1937 14.06 12.695 14.06C12.2623 14.06 11.9323 14.0747 11.705 14.104ZM11.705 16.854V19.164C12.0203 19.2007 12.4053 19.219 12.86 19.219C13.3953 19.219 13.729 19.153 13.861 19.021C13.993 18.8817 14.059 18.548 14.059 18.02C14.059 17.5433 13.9857 17.2317 13.839 17.085C13.6923 16.931 13.3807 16.854 12.904 16.854H11.705ZM18.4004 19.153C18.8624 19.153 19.1594 19.1053 19.2914 19.01C19.4307 18.9073 19.5004 18.691 19.5004 18.361C19.5004 18.0677 19.4124 17.866 19.2364 17.756C19.0604 17.6387 18.7267 17.58 18.2354 17.58H17.3554V19.098C17.6487 19.1347 17.9971 19.153 18.4004 19.153ZM18.3564 20.088C17.7551 20.088 17.1904 20.055 16.6624 19.989C16.5084 19.967 16.4057 19.934 16.3544 19.89C16.3104 19.846 16.2884 19.758 16.2884 19.626V14.984C16.2884 14.8447 16.3141 14.7493 16.3654 14.698C16.4167 14.6393 16.5084 14.6027 16.6404 14.588C17.1537 14.5293 17.7477 14.5 18.4224 14.5C19.1851 14.5 19.7131 14.5843 20.0064 14.753C20.2997 14.9217 20.4464 15.2773 20.4464 15.82C20.4464 16.2967 20.3584 16.634 20.1824 16.832C20.0064 17.03 19.7167 17.1547 19.3134 17.206C19.7754 17.2647 20.1017 17.3857 20.2924 17.569C20.4831 17.745 20.5784 18.075 20.5784 18.559C20.5784 19.175 20.4134 19.5857 20.0834 19.791C19.7534 19.989 19.1777 20.088 18.3564 20.088ZM18.3344 15.435C17.9604 15.435 17.6341 15.4533 17.3554 15.49V16.854H18.2354C18.6607 16.854 18.9541 16.799 19.1154 16.689C19.2767 16.579 19.3574 16.3773 19.3574 16.084C19.3574 15.8053 19.2914 15.6293 19.1594 15.556C19.0274 15.4753 18.7524 15.435 18.3344 15.435ZM23.8372 20.11C23.4926 20.11 23.2102 20.0917 22.9902 20.055C22.7702 20.0183 22.5612 19.9487 22.3632 19.846C22.1652 19.736 22.0112 19.5783 21.9012 19.373C21.7986 19.1677 21.7142 18.9 21.6482 18.57C21.5896 18.24 21.5602 17.833 21.5602 17.349C21.5602 16.8357 21.5932 16.403 21.6592 16.051C21.7326 15.699 21.8242 15.4203 21.9342 15.215C22.0442 15.0097 22.1982 14.852 22.3962 14.742C22.6016 14.632 22.8032 14.5623 23.0012 14.533C23.1992 14.4963 23.4559 14.478 23.7712 14.478C24.1232 14.478 24.4166 14.5147 24.6512 14.588C24.8932 14.654 25.0839 14.7493 25.2232 14.874C25.3699 14.9987 25.4799 15.1747 25.5532 15.402C25.6339 15.622 25.6852 15.8567 25.7072 16.106C25.7366 16.348 25.7512 16.6597 25.7512 17.041C25.7512 17.2317 25.7219 17.3673 25.6632 17.448C25.6046 17.5287 25.4872 17.569 25.3112 17.569H22.6382C22.6456 18.2657 22.7262 18.7093 22.8802 18.9C23.0342 19.0907 23.3826 19.186 23.9252 19.186C24.1746 19.186 24.4166 19.1677 24.6512 19.131C24.8932 19.0943 25.0876 19.0613 25.2342 19.032C25.3809 18.9953 25.4689 18.977 25.4982 18.977C25.6156 18.977 25.6742 19.12 25.6742 19.406C25.6742 19.56 25.6522 19.67 25.6082 19.736C25.5716 19.7947 25.4982 19.8423 25.3882 19.879C24.9629 20.033 24.4459 20.11 23.8372 20.11ZM23.7492 15.369C23.3312 15.369 23.0452 15.4607 22.8912 15.644C22.7446 15.8273 22.6602 16.2343 22.6382 16.865H24.7282C24.7282 16.2783 24.6732 15.8823 24.5632 15.677C24.4606 15.4717 24.1892 15.369 23.7492 15.369ZM26.76 21.188C26.5986 21.188 26.4923 21.1697 26.441 21.133C26.3896 21.1037 26.364 21.034 26.364 20.924V19.516C26.364 19.3253 26.3823 19.2007 26.419 19.142C26.463 19.076 26.5473 19.043 26.672 19.043H26.936L27.442 14.918C27.4566 14.7787 27.497 14.6907 27.563 14.654C27.629 14.61 27.7646 14.588 27.97 14.588H30.401C30.621 14.588 30.764 14.61 30.83 14.654C30.9033 14.6907 30.94 14.7787 30.94 14.918V19.043H31.16C31.314 19.043 31.4166 19.065 31.468 19.109C31.5266 19.153 31.556 19.2483 31.556 19.395V20.924C31.556 21.034 31.5303 21.1037 31.479 21.133C31.4276 21.1697 31.3213 21.188 31.16 21.188C30.984 21.188 30.863 21.1697 30.797 21.133C30.7383 21.1037 30.7016 21.034 30.687 20.924L30.533 20H27.387L27.233 20.924C27.2183 21.034 27.178 21.1037 27.112 21.133C27.0533 21.1697 26.936 21.188 26.76 21.188ZM28.366 15.512L27.948 19.043H29.873V15.512H28.366ZM35.6684 14.632C35.7564 14.6027 35.9141 14.588 36.1414 14.588C36.3687 14.588 36.5227 14.6063 36.6034 14.643C36.6987 14.6943 36.7464 14.797 36.7464 14.951V19.67C36.7464 19.802 36.7097 19.89 36.6364 19.934C36.5704 19.978 36.4311 20 36.2184 20C36.0057 20 35.8627 19.978 35.7894 19.934C35.7234 19.89 35.6904 19.802 35.6904 19.67V16.073H35.6024L33.7544 19.659C33.6811 19.8057 33.5967 19.901 33.5014 19.945C33.4061 19.9817 33.2484 20 33.0284 20C32.8011 20 32.6471 19.9817 32.5664 19.945C32.4637 19.8937 32.4124 19.791 32.4124 19.637V14.918C32.4124 14.7787 32.4454 14.6907 32.5114 14.654C32.5847 14.61 32.7314 14.588 32.9514 14.588C33.1641 14.588 33.3034 14.61 33.3694 14.654C33.4427 14.698 33.4794 14.786 33.4794 14.918V18.46H33.5564L35.4484 14.874C35.5144 14.742 35.5877 14.6613 35.6684 14.632ZM40.0436 19.934C39.9776 19.978 39.8382 20 39.6256 20C39.4129 20 39.2699 19.978 39.1966 19.934C39.1232 19.89 39.0866 19.802 39.0866 19.67V15.545H37.8766C37.7592 15.545 37.6786 15.5157 37.6346 15.457C37.5906 15.391 37.5686 15.2627 37.5686 15.072C37.5686 14.8813 37.5906 14.753 37.6346 14.687C37.6786 14.621 37.7592 14.588 37.8766 14.588H41.3746C41.4919 14.588 41.5726 14.621 41.6166 14.687C41.6606 14.753 41.6826 14.8813 41.6826 15.072C41.6826 15.2627 41.6606 15.391 41.6166 15.457C41.5726 15.5157 41.4919 15.545 41.3746 15.545H40.1536V19.67C40.1536 19.802 40.1169 19.89 40.0436 19.934ZM44.6663 20.11C44.3217 20.11 44.0393 20.0917 43.8193 20.055C43.5993 20.0183 43.3903 19.9487 43.1923 19.846C42.9943 19.736 42.8403 19.5783 42.7303 19.373C42.6277 19.1677 42.5433 18.9 42.4773 18.57C42.4187 18.24 42.3893 17.833 42.3893 17.349C42.3893 16.8357 42.4223 16.403 42.4883 16.051C42.5617 15.699 42.6533 15.4203 42.7633 15.215C42.8733 15.0097 43.0273 14.852 43.2253 14.742C43.4307 14.632 43.6323 14.5623 43.8303 14.533C44.0283 14.4963 44.285 14.478 44.6003 14.478C44.9523 14.478 45.2457 14.5147 45.4803 14.588C45.7223 14.654 45.913 14.7493 46.0523 14.874C46.199 14.9987 46.309 15.1747 46.3823 15.402C46.463 15.622 46.5143 15.8567 46.5363 16.106C46.5657 16.348 46.5803 16.6597 46.5803 17.041C46.5803 17.2317 46.551 17.3673 46.4923 17.448C46.4337 17.5287 46.3163 17.569 46.1403 17.569H43.4673C43.4747 18.2657 43.5553 18.7093 43.7093 18.9C43.8633 19.0907 44.2117 19.186 44.7543 19.186C45.0037 19.186 45.2457 19.1677 45.4803 19.131C45.7223 19.0943 45.9167 19.0613 46.0633 19.032C46.21 18.9953 46.298 18.977 46.3273 18.977C46.4447 18.977 46.5033 19.12 46.5033 19.406C46.5033 19.56 46.4813 19.67 46.4373 19.736C46.4007 19.7947 46.3273 19.8423 46.2173 19.879C45.792 20.033 45.275 20.11 44.6663 20.11ZM44.5783 15.369C44.1603 15.369 43.8743 15.4607 43.7203 15.644C43.5737 15.8273 43.4893 16.2343 43.4673 16.865H45.5573C45.5573 16.2783 45.5023 15.8823 45.3923 15.677C45.2897 15.4717 45.0183 15.369 44.5783 15.369ZM52.0999 20.11C51.7553 20.11 51.4729 20.0917 51.2529 20.055C51.0329 20.0183 50.8239 19.9487 50.6259 19.846C50.4279 19.736 50.2739 19.5783 50.1639 19.373C50.0613 19.1677 49.9769 18.9 49.9109 18.57C49.8523 18.24 49.8229 17.833 49.8229 17.349C49.8229 16.8357 49.8559 16.403 49.9219 16.051C49.9953 15.699 50.0869 15.4203 50.1969 15.215C50.3069 15.0097 50.4609 14.852 50.6589 14.742C50.8643 14.632 51.0659 14.5623 51.2639 14.533C51.4619 14.4963 51.7186 14.478 52.0339 14.478C52.3859 14.478 52.6793 14.5147 52.9139 14.588C53.1559 14.654 53.3466 14.7493 53.4859 14.874C53.6326 14.9987 53.7426 15.1747 53.8159 15.402C53.8966 15.622 53.9479 15.8567 53.9699 16.106C53.9993 16.348 54.0139 16.6597 54.0139 17.041C54.0139 17.2317 53.9846 17.3673 53.9259 17.448C53.8673 17.5287 53.7499 17.569 53.5739 17.569H50.9009C50.9083 18.2657 50.9889 18.7093 51.1429 18.9C51.2969 19.0907 51.6453 19.186 52.1879 19.186C52.4373 19.186 52.6793 19.1677 52.9139 19.131C53.1559 19.0943 53.3503 19.0613 53.4969 19.032C53.6436 18.9953 53.7316 18.977 53.7609 18.977C53.8783 18.977 53.9369 19.12 53.9369 19.406C53.9369 19.56 53.9149 19.67 53.8709 19.736C53.8343 19.7947 53.7609 19.8423 53.6509 19.879C53.2256 20.033 52.7086 20.11 52.0999 20.11ZM52.0119 15.369C51.5939 15.369 51.3079 15.4607 51.1539 15.644C51.0073 15.8273 50.9229 16.2343 50.9009 16.865H52.9909C52.9909 16.2783 52.9359 15.8823 52.8259 15.677C52.7233 15.4717 52.4519 15.369 52.0119 15.369ZM56.1777 19.945C56.1117 19.9817 55.9723 20 55.7597 20C55.547 20 55.404 19.9817 55.3307 19.945C55.2573 19.901 55.2207 19.8093 55.2207 19.67V16.689C55.2207 16.3517 55.1987 16.0473 55.1547 15.776C55.118 15.4973 55.0777 15.281 55.0337 15.127C54.997 14.973 54.9787 14.8777 54.9787 14.841C54.9787 14.753 55.0117 14.6907 55.0777 14.654C55.1437 14.61 55.2757 14.588 55.4737 14.588C55.6643 14.588 55.789 14.6063 55.8477 14.643C55.9137 14.6723 55.9613 14.7493 55.9907 14.874L56.1227 15.446C56.3793 14.8007 56.955 14.478 57.8497 14.478C58.2823 14.478 58.6087 14.5477 58.8287 14.687C59.056 14.819 59.2063 15.0243 59.2797 15.303C59.5363 14.753 60.0827 14.478 60.9187 14.478C61.4907 14.478 61.883 14.5953 62.0957 14.83C62.3083 15.0573 62.4147 15.4313 62.4147 15.952V19.67C62.4147 19.8093 62.378 19.901 62.3047 19.945C62.2313 19.9817 62.0883 20 61.8757 20C61.663 20 61.52 19.9817 61.4467 19.945C61.3807 19.901 61.3477 19.8093 61.3477 19.67V16.205C61.3477 15.897 61.2927 15.688 61.1827 15.578C61.0727 15.4607 60.8563 15.402 60.5337 15.402C60.0717 15.402 59.7563 15.5377 59.5877 15.809C59.4263 16.0803 59.3457 16.5533 59.3457 17.228V19.67C59.3457 19.8093 59.309 19.901 59.2357 19.945C59.1697 19.9817 59.0303 20 58.8177 20C58.605 20 58.462 19.9817 58.3887 19.945C58.3227 19.901 58.2897 19.8093 58.2897 19.67V16.205C58.2897 15.897 58.2347 15.688 58.1247 15.578C58.0147 15.4607 57.7983 15.402 57.4757 15.402C57.0137 15.402 56.6983 15.5377 56.5297 15.809C56.3683 16.0803 56.2877 16.5533 56.2877 17.228V19.67C56.2877 19.8093 56.251 19.901 56.1777 19.945ZM64.8927 20.11C64.4013 20.11 64.042 19.989 63.8147 19.747C63.5873 19.4977 63.4737 19.0943 63.4737 18.537C63.4737 17.965 63.624 17.558 63.9247 17.316C64.2253 17.0667 64.7533 16.942 65.5087 16.942H66.5977V16.227C66.5977 15.8677 66.528 15.6403 66.3887 15.545C66.2567 15.4423 66.0037 15.391 65.6297 15.391C65.2997 15.391 64.9477 15.424 64.5737 15.49C64.207 15.556 64.0163 15.589 64.0017 15.589C63.8697 15.589 63.8037 15.446 63.8037 15.16C63.8037 15.006 63.822 14.8997 63.8587 14.841C63.8953 14.775 63.9577 14.7273 64.0457 14.698C64.5297 14.5513 65.0943 14.478 65.7397 14.478C66.4363 14.478 66.9277 14.577 67.2137 14.775C67.507 14.973 67.6537 15.3763 67.6537 15.985V17.899C67.6537 18.2363 67.672 18.5443 67.7087 18.823C67.7453 19.0943 67.782 19.307 67.8187 19.461C67.8627 19.615 67.8847 19.7103 67.8847 19.747C67.8847 19.835 67.8517 19.901 67.7857 19.945C67.7197 19.9817 67.5877 20 67.3897 20C67.2063 20 67.0817 19.9853 67.0157 19.956C66.957 19.9193 66.913 19.8387 66.8837 19.714L66.7077 19.054C66.3997 19.758 65.7947 20.11 64.8927 20.11ZM65.2447 19.23C65.626 19.23 65.945 19.1237 66.2017 18.911C66.4657 18.691 66.5977 18.3793 66.5977 17.976V17.613L65.4867 17.646C65.0907 17.6607 64.8267 17.723 64.6947 17.833C64.5627 17.9357 64.4967 18.1337 64.4967 18.427C64.4967 18.757 64.5517 18.9733 64.6617 19.076C64.7717 19.1787 64.966 19.23 65.2447 19.23ZM69.9783 19.945C69.9123 19.9817 69.7729 20 69.5603 20C69.3476 20 69.2046 19.9817 69.1313 19.945C69.0579 19.901 69.0213 19.8093 69.0213 19.67V14.918C69.0213 14.7787 69.0579 14.6907 69.1313 14.654C69.2046 14.61 69.3476 14.588 69.5603 14.588C69.7729 14.588 69.9123 14.61 69.9783 14.654C70.0516 14.6907 70.0883 14.7787 70.0883 14.918V19.67C70.0883 19.8093 70.0516 19.901 69.9783 19.945ZM69.5603 13.818C69.3036 13.818 69.1386 13.7923 69.0653 13.741C68.9993 13.6897 68.9663 13.5797 68.9663 13.411V13.202C68.9663 13.0407 68.9993 12.9343 69.0653 12.883C69.1386 12.8317 69.3036 12.806 69.5603 12.806C69.8096 12.806 69.9673 12.8317 70.0333 12.883C70.1066 12.9343 70.1433 13.0407 70.1433 13.202V13.411C70.1433 13.5797 70.1066 13.6897 70.0333 13.741C69.9673 13.7923 69.8096 13.818 69.5603 13.818ZM72.3308 19.945C72.2648 19.9817 72.1255 20 71.9128 20C71.7001 20 71.5571 19.9817 71.4838 19.945C71.4105 19.901 71.3738 19.8093 71.3738 19.67V13.136C71.3738 12.9967 71.4105 12.9087 71.4838 12.872C71.5571 12.828 71.7001 12.806 71.9128 12.806C72.1255 12.806 72.2648 12.828 72.3308 12.872C72.4041 12.9087 72.4408 12.9967 72.4408 13.136V19.67C72.4408 19.8093 72.4041 19.901 72.3308 19.945ZM74.5301 19.923C74.4641 19.9743 74.3138 20 74.0791 20C73.8445 20 73.6905 19.9743 73.6171 19.923C73.5438 19.8717 73.5071 19.7653 73.5071 19.604V19.241C73.5071 19.0723 73.5401 18.966 73.6061 18.922C73.6795 18.8707 73.8371 18.845 74.0791 18.845C74.3138 18.845 74.4641 18.8707 74.5301 18.922C74.6035 18.966 74.6401 19.0723 74.6401 19.241V19.604C74.6401 19.7653 74.6035 19.8717 74.5301 19.923ZM74.5301 15.6C74.4641 15.6513 74.3138 15.677 74.0791 15.677C73.8445 15.677 73.6905 15.6513 73.6171 15.6C73.5438 15.5487 73.5071 15.4423 73.5071 15.281V14.918C73.5071 14.7493 73.5401 14.643 73.6061 14.599C73.6795 14.5477 73.8371 14.522 74.0791 14.522C74.3138 14.522 74.4641 14.5477 74.5301 14.599C74.6035 14.643 74.6401 14.7493 74.6401 14.918V15.281C74.6401 15.4423 74.6035 15.5487 74.5301 15.6Z" fill="black"/>
<path d="M11.705 60.04H14.059V57.532C14.059 57.3927 14.092 57.3047 14.158 57.268C14.2313 57.224 14.378 57.202 14.598 57.202C14.8107 57.202 14.95 57.224 15.016 57.268C15.0893 57.312 15.126 57.4 15.126 57.532V63.67C15.126 63.802 15.0893 63.89 15.016 63.934C14.95 63.978 14.8107 64 14.598 64C14.378 64 14.2313 63.9817 14.158 63.945C14.092 63.901 14.059 63.8093 14.059 63.67V60.964H11.705V63.67C11.705 63.802 11.6683 63.89 11.595 63.934C11.529 63.978 11.3897 64 11.177 64C10.957 64 10.8103 63.9817 10.737 63.945C10.671 63.901 10.638 63.8093 10.638 63.67V57.532C10.638 57.3927 10.671 57.3047 10.737 57.268C10.8103 57.224 10.957 57.202 11.177 57.202C11.3897 57.202 11.529 57.224 11.595 57.268C11.6683 57.312 11.705 57.4 11.705 57.532V60.04ZM18.4306 64.11C17.8586 64.11 17.4259 64.0403 17.1326 63.901C16.8466 63.7543 16.6339 63.4867 16.4946 63.098C16.3626 62.702 16.2966 62.1153 16.2966 61.338C16.2966 60.216 16.4652 59.4607 16.8026 59.072C17.1399 58.676 17.7412 58.478 18.6066 58.478C19.1786 58.478 19.6076 58.5477 19.8936 58.687C20.1796 58.8263 20.3886 59.0903 20.5206 59.479C20.6599 59.8677 20.7296 60.4507 20.7296 61.228C20.7296 62.3573 20.5609 63.12 20.2236 63.516C19.8862 63.912 19.2886 64.11 18.4306 64.11ZM18.4526 63.208C18.9512 63.208 19.2739 63.0907 19.4206 62.856C19.5746 62.614 19.6516 62.1043 19.6516 61.327C19.6516 60.4837 19.5856 59.9483 19.4536 59.721C19.3289 59.4937 19.0319 59.38 18.5626 59.38C18.0712 59.38 17.7522 59.4973 17.6056 59.732C17.4589 59.9667 17.3856 60.469 17.3856 61.239C17.3856 62.0897 17.4479 62.6323 17.5726 62.867C17.6972 63.0943 17.9906 63.208 18.4526 63.208ZM22.4456 64C22.2256 64 22.0789 63.9817 22.0056 63.945C21.9396 63.901 21.9066 63.8093 21.9066 63.67V58.973C21.9066 58.8263 21.9506 58.7273 22.0386 58.676C22.1339 58.6173 22.3319 58.588 22.6326 58.588C22.9259 58.588 23.1202 58.6137 23.2156 58.665C23.3182 58.709 23.4062 58.8227 23.4796 59.006L24.7116 62.196H24.7666L26.0096 59.006C26.0829 58.8227 26.1672 58.709 26.2626 58.665C26.3652 58.6137 26.5632 58.588 26.8566 58.588C27.1499 58.588 27.3406 58.6173 27.4286 58.676C27.5239 58.7273 27.5716 58.8263 27.5716 58.973V63.67C27.5716 63.802 27.5349 63.89 27.4616 63.934C27.3956 63.978 27.2562 64 27.0436 64C26.8309 64 26.6879 63.978 26.6146 63.934C26.5412 63.89 26.5046 63.802 26.5046 63.67C26.5046 63.45 26.5119 62.2473 26.5266 60.062H26.4496L25.3386 62.999C25.2799 63.153 25.2102 63.2557 25.1296 63.307C25.0562 63.351 24.9279 63.373 24.7446 63.373C24.5539 63.373 24.4219 63.351 24.3486 63.307C24.2752 63.263 24.2092 63.1603 24.1506 62.999L23.0286 60.062H22.9516C22.9662 62.2473 22.9736 63.45 22.9736 63.67C22.9736 63.802 22.9369 63.89 22.8636 63.934C22.7976 63.978 22.6582 64 22.4456 64ZM31.0238 64.11C30.6791 64.11 30.3968 64.0917 30.1768 64.055C29.9568 64.0183 29.7478 63.9487 29.5498 63.846C29.3518 63.736 29.1978 63.5783 29.0878 63.373C28.9851 63.1677 28.9008 62.9 28.8348 62.57C28.7761 62.24 28.7468 61.833 28.7468 61.349C28.7468 60.8357 28.7798 60.403 28.8458 60.051C28.9191 59.699 29.0108 59.4203 29.1208 59.215C29.2308 59.0097 29.3848 58.852 29.5828 58.742C29.7881 58.632 29.9898 58.5623 30.1878 58.533C30.3858 58.4963 30.6424 58.478 30.9578 58.478C31.3098 58.478 31.6031 58.5147 31.8378 58.588C32.0798 58.654 32.2704 58.7493 32.4098 58.874C32.5564 58.9987 32.6664 59.1747 32.7398 59.402C32.8204 59.622 32.8718 59.8567 32.8938 60.106C32.9231 60.348 32.9378 60.6597 32.9378 61.041C32.9378 61.2317 32.9084 61.3673 32.8498 61.448C32.7911 61.5287 32.6738 61.569 32.4978 61.569H29.8248C29.8321 62.2657 29.9128 62.7093 30.0668 62.9C30.2208 63.0907 30.5691 63.186 31.1118 63.186C31.3611 63.186 31.6031 63.1677 31.8378 63.131C32.0798 63.0943 32.2741 63.0613 32.4208 63.032C32.5674 62.9953 32.6554 62.977 32.6848 62.977C32.8021 62.977 32.8608 63.12 32.8608 63.406C32.8608 63.56 32.8388 63.67 32.7948 63.736C32.7581 63.7947 32.6848 63.8423 32.5748 63.879C32.1494 64.033 31.6324 64.11 31.0238 64.11ZM30.9358 59.369C30.5178 59.369 30.2318 59.4607 30.0778 59.644C29.9311 59.8273 29.8468 60.2343 29.8248 60.865H31.9148C31.9148 60.2783 31.8598 59.8823 31.7498 59.677C31.6471 59.4717 31.3758 59.369 30.9358 59.369ZM35.1015 66.002C35.0355 66.046 34.8962 66.068 34.6835 66.068C34.4708 66.068 34.3278 66.046 34.2545 66.002C34.1812 65.9653 34.1445 65.8773 34.1445 65.738V60.689C34.1445 60.3517 34.1225 60.0473 34.0785 59.776C34.0418 59.4973 34.0015 59.281 33.9575 59.127C33.9208 58.973 33.9025 58.8777 33.9025 58.841C33.9025 58.753 33.9355 58.6907 34.0015 58.654C34.0675 58.61 34.1995 58.588 34.3975 58.588C34.5882 58.588 34.7128 58.6063 34.7715 58.643C34.8375 58.6723 34.8852 58.7493 34.9145 58.874L35.0465 59.413C35.3472 58.7897 35.9338 58.478 36.8065 58.478C37.5472 58.478 38.0385 58.665 38.2805 59.039C38.5225 59.413 38.6435 60.15 38.6435 61.25C38.6435 62.042 38.5665 62.6507 38.4125 63.076C38.2585 63.494 38.0422 63.7727 37.7635 63.912C37.4922 64.044 37.1072 64.11 36.6085 64.11C35.9045 64.11 35.4388 63.912 35.2115 63.516V65.738C35.2115 65.8773 35.1748 65.9653 35.1015 66.002ZM36.3885 63.208C36.7185 63.208 36.9605 63.1603 37.1145 63.065C37.2685 62.9697 37.3785 62.7863 37.4445 62.515C37.5178 62.2363 37.5545 61.8073 37.5545 61.228C37.5545 60.4507 37.4885 59.9483 37.3565 59.721C37.2318 59.4937 36.9495 59.38 36.5095 59.38C36.0402 59.38 35.7028 59.4937 35.4975 59.721C35.2922 59.941 35.1895 60.381 35.1895 61.041V61.646C35.1895 62.2547 35.2665 62.669 35.4205 62.889C35.5818 63.1017 35.9045 63.208 36.3885 63.208ZM43.0266 63.945C42.9606 63.9817 42.8213 64 42.6086 64C42.396 64 42.253 63.9817 42.1796 63.945C42.1063 63.901 42.0696 63.8093 42.0696 63.67V58.918C42.0696 58.7787 42.1063 58.6907 42.1796 58.654C42.253 58.61 42.396 58.588 42.6086 58.588C42.8213 58.588 42.9606 58.61 43.0266 58.654C43.1 58.6907 43.1366 58.7787 43.1366 58.918V60.832H43.2466L44.8086 58.852C44.8966 58.742 44.981 58.6723 45.0616 58.643C45.1423 58.6063 45.289 58.588 45.5016 58.588C45.8463 58.588 46.0186 58.6503 46.0186 58.775C46.0186 58.8703 45.9673 58.9803 45.8646 59.105L44.1926 61.173L46.0076 63.494C46.103 63.6187 46.1506 63.7177 46.1506 63.791C46.1506 63.9303 45.9673 64 45.6006 64C45.3953 64 45.256 63.9853 45.1826 63.956C45.1093 63.9193 45.0286 63.846 44.9406 63.736L43.2356 61.525H43.1366V63.67C43.1366 63.8093 43.1 63.901 43.0266 63.945ZM48.1349 64.11C47.6435 64.11 47.2842 63.989 47.0569 63.747C46.8295 63.4977 46.7159 63.0943 46.7159 62.537C46.7159 61.965 46.8662 61.558 47.1669 61.316C47.4675 61.0667 47.9955 60.942 48.7509 60.942H49.8399V60.227C49.8399 59.8677 49.7702 59.6403 49.6309 59.545C49.4989 59.4423 49.2459 59.391 48.8719 59.391C48.5419 59.391 48.1899 59.424 47.8159 59.49C47.4492 59.556 47.2585 59.589 47.2439 59.589C47.1119 59.589 47.0459 59.446 47.0459 59.16C47.0459 59.006 47.0642 58.8997 47.1009 58.841C47.1375 58.775 47.1999 58.7273 47.2879 58.698C47.7719 58.5513 48.3365 58.478 48.9819 58.478C49.6785 58.478 50.1699 58.577 50.4559 58.775C50.7492 58.973 50.8959 59.3763 50.8959 59.985V61.899C50.8959 62.2363 50.9142 62.5443 50.9509 62.823C50.9875 63.0943 51.0242 63.307 51.0609 63.461C51.1049 63.615 51.1269 63.7103 51.1269 63.747C51.1269 63.835 51.0939 63.901 51.0279 63.945C50.9619 63.9817 50.8299 64 50.6319 64C50.4485 64 50.3239 63.9853 50.2579 63.956C50.1992 63.9193 50.1552 63.8387 50.1259 63.714L49.9499 63.054C49.6419 63.758 49.0369 64.11 48.1349 64.11ZM48.4869 63.23C48.8682 63.23 49.1872 63.1237 49.4439 62.911C49.7079 62.691 49.8399 62.3793 49.8399 61.976V61.613L48.7289 61.646C48.3329 61.6607 48.0689 61.723 47.9369 61.833C47.8049 61.9357 47.7389 62.1337 47.7389 62.427C47.7389 62.757 47.7939 62.9733 47.9039 63.076C48.0139 63.1787 48.2082 63.23 48.4869 63.23ZM53.3525 66.002C53.2865 66.046 53.1471 66.068 52.9345 66.068C52.7218 66.068 52.5788 66.046 52.5055 66.002C52.4321 65.9653 52.3955 65.8773 52.3955 65.738V60.689C52.3955 60.3517 52.3735 60.0473 52.3295 59.776C52.2928 59.4973 52.2525 59.281 52.2085 59.127C52.1718 58.973 52.1535 58.8777 52.1535 58.841C52.1535 58.753 52.1865 58.6907 52.2525 58.654C52.3185 58.61 52.4505 58.588 52.6485 58.588C52.8391 58.588 52.9638 58.6063 53.0225 58.643C53.0885 58.6723 53.1361 58.7493 53.1655 58.874L53.2975 59.413C53.5981 58.7897 54.1848 58.478 55.0575 58.478C55.7981 58.478 56.2895 58.665 56.5315 59.039C56.7735 59.413 56.8945 60.15 56.8945 61.25C56.8945 62.042 56.8175 62.6507 56.6635 63.076C56.5095 63.494 56.2931 63.7727 56.0145 63.912C55.7431 64.044 55.3581 64.11 54.8595 64.11C54.1555 64.11 53.6898 63.912 53.4625 63.516V65.738C53.4625 65.8773 53.4258 65.9653 53.3525 66.002ZM54.6395 63.208C54.9695 63.208 55.2115 63.1603 55.3655 63.065C55.5195 62.9697 55.6295 62.7863 55.6955 62.515C55.7688 62.2363 55.8055 61.8073 55.8055 61.228C55.8055 60.4507 55.7395 59.9483 55.6075 59.721C55.4828 59.4937 55.2005 59.38 54.7605 59.38C54.2911 59.38 53.9538 59.4937 53.7485 59.721C53.5431 59.941 53.4405 60.381 53.4405 61.041V61.646C53.4405 62.2547 53.5175 62.669 53.6715 62.889C53.8328 63.1017 54.1555 63.208 54.6395 63.208ZM60.0778 63.934C60.0118 63.978 59.8724 64 59.6598 64C59.4471 64 59.3041 63.978 59.2308 63.934C59.1574 63.89 59.1208 63.802 59.1208 63.67V59.545H57.9108C57.7934 59.545 57.7128 59.5157 57.6688 59.457C57.6248 59.391 57.6028 59.2627 57.6028 59.072C57.6028 58.8813 57.6248 58.753 57.6688 58.687C57.7128 58.621 57.7934 58.588 57.9108 58.588H61.4088C61.5261 58.588 61.6068 58.621 61.6508 58.687C61.6948 58.753 61.7168 58.8813 61.7168 59.072C61.7168 59.2627 61.6948 59.391 61.6508 59.457C61.6068 59.5157 61.5261 59.545 61.4088 59.545H60.1878V63.67C60.1878 63.802 60.1511 63.89 60.0778 63.934ZM68.6385 63.945C68.5725 63.9817 68.4332 64 68.2205 64C68.0078 64 67.8648 63.9817 67.7915 63.945C67.7182 63.901 67.6815 63.8093 67.6815 63.67V58.918C67.6815 58.7787 67.7182 58.6907 67.7915 58.654C67.8648 58.61 68.0078 58.588 68.2205 58.588C68.4332 58.588 68.5725 58.61 68.6385 58.654C68.7118 58.6907 68.7485 58.7787 68.7485 58.918V63.67C68.7485 63.8093 68.7118 63.901 68.6385 63.945ZM64.5355 64.088C63.9782 64.088 63.4355 64.055 62.9075 63.989C62.7535 63.967 62.6508 63.934 62.5995 63.89C62.5555 63.846 62.5335 63.758 62.5335 63.626V58.918C62.5335 58.7787 62.5702 58.6907 62.6435 58.654C62.7168 58.61 62.8598 58.588 63.0725 58.588C63.2852 58.588 63.4245 58.61 63.4905 58.654C63.5638 58.6907 63.6005 58.7787 63.6005 58.918V60.634H64.6675C65.4595 60.634 65.9985 60.7403 66.2845 60.953C66.5778 61.1657 66.7245 61.602 66.7245 62.262C66.7245 63.01 66.5595 63.5013 66.2295 63.736C65.9068 63.9707 65.3422 64.088 64.5355 64.088ZM64.7445 61.514H63.6005V63.142C63.9085 63.1713 64.2385 63.186 64.5905 63.186C65.0378 63.186 65.3275 63.131 65.4595 63.021C65.5915 62.911 65.6575 62.669 65.6575 62.295C65.6575 61.987 65.5988 61.7817 65.4815 61.679C65.3642 61.569 65.1185 61.514 64.7445 61.514ZM70.8348 63.923C70.7688 63.9743 70.6185 64 70.3838 64C70.1491 64 69.9951 63.9743 69.9218 63.923C69.8485 63.8717 69.8118 63.7653 69.8118 63.604V63.241C69.8118 63.0723 69.8448 62.966 69.9108 62.922C69.9841 62.8707 70.1418 62.845 70.3838 62.845C70.6185 62.845 70.7688 62.8707 70.8348 62.922C70.9081 62.966 70.9448 63.0723 70.9448 63.241V63.604C70.9448 63.7653 70.9081 63.8717 70.8348 63.923ZM70.8348 59.6C70.7688 59.6513 70.6185 59.677 70.3838 59.677C70.1491 59.677 69.9951 59.6513 69.9218 59.6C69.8485 59.5487 69.8118 59.4423 69.8118 59.281V58.918C69.8118 58.7493 69.8448 58.643 69.9108 58.599C69.9841 58.5477 70.1418 58.522 70.3838 58.522C70.6185 58.522 70.7688 58.5477 70.8348 58.599C70.9081 58.643 70.9448 58.7493 70.9448 58.918V59.281C70.9448 59.4423 70.9081 59.5487 70.8348 59.6Z" fill="black"/>
<path d="M12.805 108.088C12.4897 108.088 12.233 108.073 12.035 108.044C11.837 108.015 11.628 107.945 11.408 107.835C11.1953 107.725 11.0267 107.567 10.902 107.362C10.7847 107.157 10.6857 106.867 10.605 106.493C10.5317 106.119 10.495 105.661 10.495 105.118V104.227C10.495 103.67 10.5317 103.2 10.605 102.819C10.6857 102.43 10.7847 102.126 10.902 101.906C11.0267 101.686 11.1953 101.521 11.408 101.411C11.628 101.294 11.8407 101.22 12.046 101.191C12.2513 101.162 12.5153 101.147 12.838 101.147C13.3293 101.147 13.8353 101.217 14.356 101.356C14.4587 101.385 14.5283 101.429 14.565 101.488C14.6017 101.547 14.62 101.671 14.62 101.862C14.62 102.141 14.5577 102.28 14.433 102.28L13.96 102.192C13.652 102.126 13.355 102.093 13.069 102.093C12.739 102.093 12.4897 102.111 12.321 102.148C12.1597 102.185 12.013 102.284 11.881 102.445C11.749 102.599 11.661 102.823 11.617 103.116C11.5803 103.402 11.562 103.805 11.562 104.326V104.898C11.562 105.257 11.5693 105.562 11.584 105.811C11.606 106.053 11.6463 106.258 11.705 106.427C11.7637 106.596 11.8223 106.728 11.881 106.823C11.947 106.911 12.046 106.981 12.178 107.032C12.31 107.083 12.4383 107.116 12.563 107.131C12.6877 107.138 12.8563 107.142 13.069 107.142C13.3697 107.142 13.6703 107.113 13.971 107.054C14.2717 106.988 14.4257 106.955 14.433 106.955C14.5063 106.955 14.554 106.984 14.576 107.043C14.6053 107.094 14.62 107.208 14.62 107.384C14.62 107.56 14.6017 107.681 14.565 107.747C14.5283 107.806 14.4587 107.85 14.356 107.879C13.8793 108.018 13.3623 108.088 12.805 108.088ZM16.6786 110.002C16.6126 110.046 16.4733 110.068 16.2606 110.068C16.048 110.068 15.905 110.046 15.8316 110.002C15.7583 109.965 15.7216 109.877 15.7216 109.738V104.689C15.7216 104.352 15.6996 104.047 15.6556 103.776C15.619 103.497 15.5786 103.281 15.5346 103.127C15.498 102.973 15.4796 102.878 15.4796 102.841C15.4796 102.753 15.5126 102.691 15.5786 102.654C15.6446 102.61 15.7766 102.588 15.9746 102.588C16.1653 102.588 16.29 102.606 16.3486 102.643C16.4146 102.672 16.4623 102.749 16.4916 102.874L16.6236 103.413C16.9243 102.79 17.511 102.478 18.3836 102.478C19.1243 102.478 19.6156 102.665 19.8576 103.039C20.0996 103.413 20.2206 104.15 20.2206 105.25C20.2206 106.042 20.1436 106.651 19.9896 107.076C19.8356 107.494 19.6193 107.773 19.3406 107.912C19.0693 108.044 18.6843 108.11 18.1856 108.11C17.4816 108.11 17.016 107.912 16.7886 107.516V109.738C16.7886 109.877 16.752 109.965 16.6786 110.002ZM17.9656 107.208C18.2956 107.208 18.5376 107.16 18.6916 107.065C18.8456 106.97 18.9556 106.786 19.0216 106.515C19.095 106.236 19.1316 105.807 19.1316 105.228C19.1316 104.451 19.0656 103.948 18.9336 103.721C18.809 103.494 18.5266 103.38 18.0866 103.38C17.6173 103.38 17.28 103.494 17.0746 103.721C16.8693 103.941 16.7666 104.381 16.7666 105.041V105.646C16.7666 106.255 16.8436 106.669 16.9976 106.889C17.159 107.102 17.4816 107.208 17.9656 107.208ZM23.4149 108.11C22.8429 108.11 22.4103 108.04 22.1169 107.901C21.8309 107.754 21.6183 107.487 21.4789 107.098C21.3469 106.702 21.2809 106.115 21.2809 105.338C21.2809 104.216 21.4496 103.461 21.7869 103.072C22.1243 102.676 22.7256 102.478 23.5909 102.478C24.1629 102.478 24.5919 102.548 24.8779 102.687C25.1639 102.826 25.3729 103.09 25.5049 103.479C25.6443 103.868 25.7139 104.451 25.7139 105.228C25.7139 106.357 25.5453 107.12 25.2079 107.516C24.8706 107.912 24.2729 108.11 23.4149 108.11ZM23.4369 107.208C23.9356 107.208 24.2583 107.091 24.4049 106.856C24.5589 106.614 24.6359 106.104 24.6359 105.327C24.6359 104.484 24.5699 103.948 24.4379 103.721C24.3133 103.494 24.0163 103.38 23.5469 103.38C23.0556 103.38 22.7366 103.497 22.5899 103.732C22.4433 103.967 22.3699 104.469 22.3699 105.239C22.3699 106.09 22.4323 106.632 22.5569 106.867C22.6816 107.094 22.9749 107.208 23.4369 107.208ZM27.8479 107.945C27.7819 107.982 27.6426 108 27.4299 108C27.2173 108 27.0743 107.982 27.0009 107.945C26.9276 107.901 26.8909 107.809 26.8909 107.67V102.918C26.8909 102.779 26.9276 102.691 27.0009 102.654C27.0743 102.61 27.2173 102.588 27.4299 102.588C27.6426 102.588 27.7819 102.61 27.8479 102.654C27.9213 102.691 27.9579 102.779 27.9579 102.918V104.832H28.0679L29.6299 102.852C29.7179 102.742 29.8023 102.672 29.8829 102.643C29.9636 102.606 30.1103 102.588 30.3229 102.588C30.6676 102.588 30.8399 102.65 30.8399 102.775C30.8399 102.87 30.7886 102.98 30.6859 103.105L29.0139 105.173L30.8289 107.494C30.9243 107.619 30.9719 107.718 30.9719 107.791C30.9719 107.93 30.7886 108 30.4219 108C30.2166 108 30.0773 107.985 30.0039 107.956C29.9306 107.919 29.8499 107.846 29.7619 107.736L28.0569 105.525H27.9579V107.67C27.9579 107.809 27.9213 107.901 27.8479 107.945ZM32.5711 107.923C32.5051 107.974 32.3548 108 32.1201 108C31.8855 108 31.7315 107.974 31.6581 107.923C31.5848 107.872 31.5481 107.765 31.5481 107.604V107.241C31.5481 107.072 31.5811 106.966 31.6471 106.922C31.7205 106.871 31.8781 106.845 32.1201 106.845C32.3548 106.845 32.5051 106.871 32.5711 106.922C32.6445 106.966 32.6811 107.072 32.6811 107.241V107.604C32.6811 107.765 32.6445 107.872 32.5711 107.923ZM32.5711 103.6C32.5051 103.651 32.3548 103.677 32.1201 103.677C31.8855 103.677 31.7315 103.651 31.6581 103.6C31.5848 103.549 31.5481 103.442 31.5481 103.281V102.918C31.5481 102.749 31.5811 102.643 31.6471 102.599C31.7205 102.548 31.8781 102.522 32.1201 102.522C32.3548 102.522 32.5051 102.548 32.5711 102.599C32.6445 102.643 32.6811 102.749 32.6811 102.918V103.281C32.6811 103.442 32.6445 103.549 32.5711 103.6Z" fill="black"/>
<path d="M171.805 108.088C171.49 108.088 171.233 108.073 171.035 108.044C170.837 108.015 170.628 107.945 170.408 107.835C170.195 107.725 170.027 107.567 169.902 107.362C169.785 107.157 169.686 106.867 169.605 106.493C169.532 106.119 169.495 105.661 169.495 105.118V104.227C169.495 103.67 169.532 103.2 169.605 102.819C169.686 102.43 169.785 102.126 169.902 101.906C170.027 101.686 170.195 101.521 170.408 101.411C170.628 101.294 170.841 101.22 171.046 101.191C171.251 101.162 171.515 101.147 171.838 101.147C172.329 101.147 172.835 101.217 173.356 101.356C173.459 101.385 173.528 101.429 173.565 101.488C173.602 101.547 173.62 101.671 173.62 101.862C173.62 102.141 173.558 102.28 173.433 102.28L172.96 102.192C172.652 102.126 172.355 102.093 172.069 102.093C171.739 102.093 171.49 102.111 171.321 102.148C171.16 102.185 171.013 102.284 170.881 102.445C170.749 102.599 170.661 102.823 170.617 103.116C170.58 103.402 170.562 103.805 170.562 104.326V104.898C170.562 105.257 170.569 105.562 170.584 105.811C170.606 106.053 170.646 106.258 170.705 106.427C170.764 106.596 170.822 106.728 170.881 106.823C170.947 106.911 171.046 106.981 171.178 107.032C171.31 107.083 171.438 107.116 171.563 107.131C171.688 107.138 171.856 107.142 172.069 107.142C172.37 107.142 172.67 107.113 172.971 107.054C173.272 106.988 173.426 106.955 173.433 106.955C173.506 106.955 173.554 106.984 173.576 107.043C173.605 107.094 173.62 107.208 173.62 107.384C173.62 107.56 173.602 107.681 173.565 107.747C173.528 107.806 173.459 107.85 173.356 107.879C172.879 108.018 172.362 108.088 171.805 108.088ZM176.878 107.087L178.319 101.499C178.355 101.374 178.41 101.294 178.484 101.257C178.564 101.22 178.718 101.202 178.946 101.202C179.158 101.202 179.294 101.22 179.353 101.257C179.419 101.286 179.452 101.349 179.452 101.444C179.452 101.539 179.426 101.668 179.375 101.829L177.769 107.571C177.717 107.754 177.633 107.872 177.516 107.923C177.406 107.974 177.167 108 176.801 108C176.434 108 176.196 107.974 176.086 107.923C175.976 107.872 175.895 107.754 175.844 107.571L174.227 101.829C174.175 101.668 174.15 101.539 174.15 101.444C174.15 101.349 174.179 101.286 174.238 101.257C174.304 101.22 174.443 101.202 174.656 101.202C174.89 101.202 175.048 101.224 175.129 101.268C175.209 101.305 175.261 101.382 175.283 101.499L176.735 107.087H176.878ZM182.429 108.088C182.114 108.088 181.857 108.073 181.659 108.044C181.461 108.015 181.252 107.945 181.032 107.835C180.819 107.725 180.651 107.567 180.526 107.362C180.409 107.157 180.31 106.867 180.229 106.493C180.156 106.119 180.119 105.661 180.119 105.118V104.227C180.119 103.67 180.156 103.2 180.229 102.819C180.31 102.43 180.409 102.126 180.526 101.906C180.651 101.686 180.819 101.521 181.032 101.411C181.252 101.294 181.465 101.22 181.67 101.191C181.875 101.162 182.139 101.147 182.462 101.147C182.953 101.147 183.459 101.217 183.98 101.356C184.083 101.385 184.152 101.429 184.189 101.488C184.226 101.547 184.244 101.671 184.244 101.862C184.244 102.141 184.182 102.28 184.057 102.28L183.584 102.192C183.276 102.126 182.979 102.093 182.693 102.093C182.363 102.093 182.114 102.111 181.945 102.148C181.784 102.185 181.637 102.284 181.505 102.445C181.373 102.599 181.285 102.823 181.241 103.116C181.204 103.402 181.186 103.805 181.186 104.326V104.898C181.186 105.257 181.193 105.562 181.208 105.811C181.23 106.053 181.27 106.258 181.329 106.427C181.388 106.596 181.446 106.728 181.505 106.823C181.571 106.911 181.67 106.981 181.802 107.032C181.934 107.083 182.062 107.116 182.187 107.131C182.312 107.138 182.48 107.142 182.693 107.142C182.994 107.142 183.294 107.113 183.595 107.054C183.896 106.988 184.05 106.955 184.057 106.955C184.13 106.955 184.178 106.984 184.2 107.043C184.229 107.094 184.244 107.208 184.244 107.384C184.244 107.56 184.226 107.681 184.189 107.747C184.152 107.806 184.083 107.85 183.98 107.879C183.503 108.018 182.986 108.088 182.429 108.088ZM186.05 107.923C185.984 107.974 185.833 108 185.599 108C185.364 108 185.21 107.974 185.137 107.923C185.063 107.872 185.027 107.765 185.027 107.604V107.241C185.027 107.072 185.06 106.966 185.126 106.922C185.199 106.871 185.357 106.845 185.599 106.845C185.833 106.845 185.984 106.871 186.05 106.922C186.123 106.966 186.16 107.072 186.16 107.241V107.604C186.16 107.765 186.123 107.872 186.05 107.923ZM186.05 103.6C185.984 103.651 185.833 103.677 185.599 103.677C185.364 103.677 185.21 103.651 185.137 103.6C185.063 103.549 185.027 103.442 185.027 103.281V102.918C185.027 102.749 185.06 102.643 185.126 102.599C185.199 102.548 185.357 102.522 185.599 102.522C185.833 102.522 185.984 102.548 186.05 102.599C186.123 102.643 186.16 102.749 186.16 102.918V103.281C186.16 103.442 186.123 103.549 186.05 103.6Z" fill="black"/>
<rect x="158" y="89" width="1" height="34" fill="#FF631F"/>
</svg>
