<svg width="97" height="12" viewBox="0 0 97 12" fill="none" xmlns="http://www.w3.org/2000/svg">
<path d="M4.79992 7.20006C6.12353 7.20006 7.19994 6.12365 7.19994 4.80004C7.19994 3.47643 6.12353 2.40002 4.79992 2.40002C3.47631 2.40002 2.3999 3.47643 2.3999 4.80004C2.3999 6.12365 3.47631 7.20006 4.79992 7.20006ZM4.79992 3.60003C5.46173 3.60003 5.99993 4.13824 5.99993 4.80004C5.99993 5.46185 5.46173 6.00005 4.79992 6.00005C4.13812 6.00005 3.59991 5.46185 3.59991 4.80004C3.59991 4.13824 4.13812 3.60003 4.79992 3.60003Z" fill="#FDC535"/>
<path d="M4.45209 11.8885C4.55364 11.961 4.6753 12 4.80009 12C4.92488 12 5.04654 11.961 5.14809 11.8885C5.33049 11.7595 9.61753 8.66407 9.60013 4.80004C9.60013 2.15342 7.44671 0 4.80009 0C2.15347 0 5.2823e-05 2.15342 5.2823e-05 4.79704C-0.0173473 8.66407 4.26969 11.7595 4.45209 11.8885ZM4.80009 1.20001C6.78551 1.20001 8.40012 2.81462 8.40012 4.80304C8.41272 7.46586 5.7673 9.85688 4.80009 10.6411C3.83348 9.85628 1.18746 7.46466 1.20006 4.80004C1.20006 2.81462 2.81467 1.20001 4.80009 1.20001Z" fill="#FDC535"/>
<path d="M14.44 8.25H16.84C16.94 8.25 17.0067 8.27667 17.04 8.33C17.0733 8.37667 17.09 8.47667 17.09 8.63C17.09 8.77667 17.0733 8.87667 17.04 8.93C17.0067 8.97667 16.94 9 16.84 9H13.79C13.69 9 13.62 8.98 13.58 8.94C13.5467 8.9 13.53 8.82 13.53 8.7V8.05C13.53 7.70333 13.59 7.43 13.71 7.23C13.8367 7.03 14.0633 6.77667 14.39 6.47L15.76 5.19C15.9133 5.04333 16.02 4.92 16.08 4.82C16.14 4.71333 16.17 4.56333 16.17 4.37C16.17 4.00333 16.1067 3.77333 15.98 3.68C15.8533 3.58 15.5833 3.53 15.17 3.53C14.89 3.53 14.5967 3.56333 14.29 3.63C13.99 3.69 13.8367 3.72 13.83 3.72C13.77 3.72 13.73 3.7 13.71 3.66C13.69 3.61333 13.68 3.52333 13.68 3.39C13.68 3.25667 13.6967 3.16333 13.73 3.11C13.77 3.05667 13.8333 3.01667 13.92 2.99C14.34 2.86333 14.83 2.8 15.39 2.8C15.6433 2.8 15.85 2.81333 16.01 2.84C16.17 2.86667 16.3333 2.92667 16.5 3.02C16.6733 3.11333 16.8 3.26667 16.88 3.48C16.9667 3.69333 17.01 3.96667 17.01 4.3C17.01 4.48667 16.9933 4.65 16.96 4.79C16.9267 4.92333 16.8567 5.06333 16.75 5.21C16.6433 5.35 16.5467 5.46333 16.46 5.55C16.38 5.63 16.23 5.77 16.01 5.97L14.86 7.03C14.7533 7.13 14.6767 7.21 14.63 7.27C14.5833 7.32333 14.54 7.40667 14.5 7.52C14.46 7.62667 14.44 7.75667 14.44 7.91V8.25ZM19.9189 9.09C19.5856 9.09 19.3189 9.06333 19.1189 9.01C18.9189 8.96333 18.7322 8.86 18.5589 8.7C18.3856 8.53333 18.2589 8.28667 18.1789 7.96C18.1056 7.62667 18.0689 7.19333 18.0689 6.66V5.38C18.0689 4.92667 18.1089 4.53667 18.1889 4.21C18.2689 3.88333 18.3689 3.63 18.4889 3.45C18.6089 3.27 18.7656 3.13 18.9589 3.03C19.1522 2.93 19.3322 2.86667 19.4989 2.84C19.6722 2.81333 19.8789 2.8 20.1189 2.8C20.5189 2.8 20.8922 2.84333 21.2389 2.93C21.3322 2.95 21.3922 2.98333 21.4189 3.03C21.4522 3.07 21.4689 3.16333 21.4689 3.31C21.4689 3.53667 21.4156 3.65 21.3089 3.65C21.2956 3.65 21.1522 3.63 20.8789 3.59C20.6056 3.54333 20.3756 3.52 20.1889 3.52C19.9956 3.52 19.8456 3.52667 19.7389 3.54C19.6322 3.55333 19.5156 3.59333 19.3889 3.66C19.2622 3.72667 19.1656 3.82667 19.0989 3.96C19.0322 4.08667 18.9756 4.27333 18.9289 4.52C18.8889 4.76 18.8689 5.05667 18.8689 5.41V5.82C19.0822 5.42667 19.5489 5.23 20.2689 5.23C20.8289 5.23 21.2256 5.35667 21.4589 5.61C21.6922 5.86333 21.8089 6.37 21.8089 7.13C21.8089 7.86333 21.6589 8.37333 21.3589 8.66C21.0656 8.94667 20.5856 9.09 19.9189 9.09ZM19.9289 8.37C20.3289 8.37 20.6089 8.29333 20.7689 8.14C20.9356 7.98667 21.0189 7.66667 21.0189 7.18C21.0189 6.66667 20.9556 6.33 20.8289 6.17C20.7022 6.00333 20.4256 5.92 19.9989 5.92C19.5989 5.92 19.3089 5.99333 19.1289 6.14C18.9556 6.28 18.8689 6.54 18.8689 6.92C18.8689 7.54 18.9422 7.93667 19.0889 8.11C19.2356 8.28333 19.5156 8.37 19.9289 8.37ZM28.1993 4.09C28.386 4.09 28.516 4.10333 28.5893 4.13C28.676 4.17667 28.7193 4.26333 28.7193 4.39V8.73C28.7193 8.83667 28.6926 8.91 28.6393 8.95C28.586 8.98333 28.476 9 28.3093 9C28.136 9 28.0226 8.98333 27.9693 8.95C27.916 8.91 27.8893 8.83667 27.8893 8.73V5.18H27.8193L26.0393 8.71C25.9793 8.83 25.906 8.91 25.8193 8.95C25.7393 8.98333 25.6026 9 25.4093 9C25.216 9 25.0893 8.98333 25.0293 8.95C24.9426 8.91667 24.8993 8.83333 24.8993 8.7V4.35C24.8993 4.24333 24.926 4.17333 24.9793 4.14C25.0326 4.10667 25.1426 4.09 25.3093 4.09C25.476 4.09 25.586 4.10667 25.6393 4.14C25.6926 4.17333 25.7193 4.24333 25.7193 4.35V7.87H25.7893L27.6093 4.32C27.6626 4.22 27.7226 4.15667 27.7893 4.13C27.8626 4.10333 27.9993 4.09 28.1993 4.09ZM33.6579 9.1C33.1646 9.1 32.7912 9.04333 32.5379 8.93C32.2846 8.81 32.0946 8.58667 31.9679 8.26C31.8479 7.92667 31.7812 7.44 31.7679 6.8H30.7779V8.73C30.7779 8.84333 30.7512 8.91667 30.6979 8.95C30.6446 8.98333 30.5346 9 30.3679 9C30.2012 9 30.0912 8.98333 30.0379 8.95C29.9846 8.91667 29.9579 8.84333 29.9579 8.73V4.35C29.9579 4.23667 29.9846 4.16667 30.0379 4.14C30.0912 4.10667 30.2012 4.09 30.3679 4.09C30.5346 4.09 30.6446 4.10667 30.6979 4.14C30.7512 4.16667 30.7779 4.23667 30.7779 4.35V6.09H31.7779C31.8246 5.28333 32.0012 4.73333 32.3079 4.44C32.6146 4.14 33.1179 3.99 33.8179 3.99C34.2046 3.99 34.5079 4.02333 34.7279 4.09C34.9546 4.15 35.1446 4.27333 35.2979 4.46C35.4579 4.64 35.5646 4.89 35.6179 5.21C35.6779 5.53 35.7079 5.95667 35.7079 6.49C35.7079 7.49667 35.5546 8.18333 35.2479 8.55C34.9479 8.91667 34.4179 9.1 33.6579 9.1ZM33.6779 8.39C34.1712 8.39 34.4912 8.27667 34.6379 8.05C34.7912 7.81667 34.8679 7.32667 34.8679 6.58C34.8679 5.76667 34.8046 5.25 34.6779 5.03C34.5512 4.80333 34.2546 4.69 33.7879 4.69C33.3012 4.69 32.9846 4.80333 32.8379 5.03C32.6912 5.25667 32.6179 5.74333 32.6179 6.49C32.6179 7.31 32.6779 7.83333 32.7979 8.06C32.9179 8.28 33.2112 8.39 33.6779 8.39ZM37.6724 6.09H39.7024V4.35C39.7024 4.24333 39.7291 4.17333 39.7824 4.14C39.8424 4.10667 39.9558 4.09 40.1224 4.09C40.2891 4.09 40.3991 4.10667 40.4524 4.14C40.5058 4.17333 40.5324 4.24333 40.5324 4.35V8.73C40.5324 8.83667 40.5058 8.91 40.4524 8.95C40.3991 8.98333 40.2891 9 40.1224 9C39.9491 9 39.8358 8.98333 39.7824 8.95C39.7291 8.91 39.7024 8.83667 39.7024 8.73V6.82H37.6724V8.73C37.6724 8.83667 37.6458 8.91 37.5924 8.95C37.5391 8.98333 37.4291 9 37.2624 9C37.0958 9 36.9858 8.98333 36.9324 8.95C36.8791 8.91 36.8524 8.83667 36.8524 8.73V4.35C36.8524 4.24333 36.8791 4.17333 36.9324 4.14C36.9858 4.10667 37.0958 4.09 37.2624 4.09C37.4291 4.09 37.5391 4.10667 37.5924 4.14C37.6458 4.17333 37.6724 4.24333 37.6724 4.35V6.09ZM41.9343 9C41.6876 9 41.5643 8.94667 41.5643 8.84C41.5643 8.77333 41.5976 8.68333 41.6643 8.57L42.5943 6.93C42.2676 6.85667 42.0343 6.72 41.8943 6.52C41.761 6.31333 41.6943 5.99667 41.6943 5.57C41.6943 4.93667 41.8376 4.51667 42.1243 4.31C42.411 4.10333 42.9176 4 43.6443 4C44.1176 4 44.6043 4.03 45.1043 4.09C45.2376 4.10333 45.3243 4.13333 45.3643 4.18C45.411 4.22 45.4343 4.29333 45.4343 4.4V8.73C45.4343 8.84333 45.4076 8.91667 45.3543 8.95C45.301 8.98333 45.191 9 45.0243 9C44.8576 9 44.7476 8.98333 44.6943 8.95C44.641 8.91667 44.6143 8.84333 44.6143 8.73V7.01H43.3543L42.4643 8.79C42.4176 8.88333 42.3643 8.94333 42.3043 8.97C42.2443 8.99 42.121 9 41.9343 9ZM42.5343 5.61C42.5343 5.90333 42.591 6.1 42.7043 6.2C42.8243 6.29333 43.071 6.34 43.4443 6.34H44.6143V4.78C44.3343 4.74667 43.9976 4.73 43.6043 4.73C43.1576 4.73 42.8676 4.78333 42.7343 4.89C42.601 4.99667 42.5343 5.23667 42.5343 5.61ZM49.5181 8.25H51.9181C52.0181 8.25 52.0848 8.27667 52.1181 8.33C52.1515 8.37667 52.1681 8.47667 52.1681 8.63C52.1681 8.77667 52.1515 8.87667 52.1181 8.93C52.0848 8.97667 52.0181 9 51.9181 9H48.8681C48.7681 9 48.6981 8.98 48.6581 8.94C48.6248 8.9 48.6081 8.82 48.6081 8.7V8.05C48.6081 7.70333 48.6681 7.43 48.7881 7.23C48.9148 7.03 49.1415 6.77667 49.4681 6.47L50.8381 5.19C50.9915 5.04333 51.0981 4.92 51.1581 4.82C51.2181 4.71333 51.2481 4.56333 51.2481 4.37C51.2481 4.00333 51.1848 3.77333 51.0581 3.68C50.9315 3.58 50.6615 3.53 50.2481 3.53C49.9681 3.53 49.6748 3.56333 49.3681 3.63C49.0681 3.69 48.9148 3.72 48.9081 3.72C48.8481 3.72 48.8081 3.7 48.7881 3.66C48.7681 3.61333 48.7581 3.52333 48.7581 3.39C48.7581 3.25667 48.7748 3.16333 48.8081 3.11C48.8481 3.05667 48.9115 3.01667 48.9981 2.99C49.4181 2.86333 49.9081 2.8 50.4681 2.8C50.7215 2.8 50.9281 2.81333 51.0881 2.84C51.2481 2.86667 51.4115 2.92667 51.5781 3.02C51.7515 3.11333 51.8781 3.26667 51.9581 3.48C52.0448 3.69333 52.0881 3.96667 52.0881 4.3C52.0881 4.48667 52.0715 4.65 52.0381 4.79C52.0048 4.92333 51.9348 5.06333 51.8281 5.21C51.7215 5.35 51.6248 5.46333 51.5381 5.55C51.4581 5.63 51.3081 5.77 51.0881 5.97L49.9381 7.03C49.8315 7.13 49.7548 7.21 49.7081 7.27C49.6615 7.32333 49.6181 7.40667 49.5781 7.52C49.5381 7.62667 49.5181 7.75667 49.5181 7.91V8.25ZM55.017 8.37C55.4904 8.37 55.8004 8.25667 55.947 8.03C56.1004 7.80333 56.177 7.31667 56.177 6.57V5.34C56.177 4.56 56.107 4.06333 55.967 3.85C55.8337 3.63 55.517 3.52 55.017 3.52C54.5437 3.52 54.2337 3.63333 54.087 3.86C53.9404 4.08 53.867 4.57333 53.867 5.34V6.57C53.867 7.33 53.9337 7.82 54.067 8.04C54.207 8.26 54.5237 8.37 55.017 8.37ZM55.017 9.09C54.5104 9.09 54.1204 9.02667 53.847 8.9C53.5804 8.77333 53.377 8.53667 53.237 8.19C53.1037 7.84333 53.037 7.34333 53.037 6.69V5.27C53.037 4.74333 53.0737 4.31667 53.147 3.99C53.227 3.66333 53.3537 3.41333 53.527 3.24C53.707 3.06667 53.907 2.95 54.127 2.89C54.3537 2.83 54.6504 2.8 55.017 2.8C55.5437 2.8 55.9404 2.86333 56.207 2.99C56.4804 3.11667 56.6804 3.35667 56.807 3.71C56.9337 4.06333 56.997 4.58333 56.997 5.27V6.69C56.997 7.19667 56.957 7.61 56.877 7.93C56.797 8.25 56.667 8.49333 56.487 8.66C56.307 8.82667 56.1037 8.94 55.877 9C55.657 9.06 55.3704 9.09 55.017 9.09ZM58.7759 8.25H61.1759C61.2759 8.25 61.3426 8.27667 61.3759 8.33C61.4093 8.37667 61.4259 8.47667 61.4259 8.63C61.4259 8.77667 61.4093 8.87667 61.3759 8.93C61.3426 8.97667 61.2759 9 61.1759 9H58.1259C58.0259 9 57.9559 8.98 57.9159 8.94C57.8826 8.9 57.8659 8.82 57.8659 8.7V8.05C57.8659 7.70333 57.9259 7.43 58.0459 7.23C58.1726 7.03 58.3993 6.77667 58.7259 6.47L60.0959 5.19C60.2493 5.04333 60.3559 4.92 60.4159 4.82C60.4759 4.71333 60.5059 4.56333 60.5059 4.37C60.5059 4.00333 60.4426 3.77333 60.3159 3.68C60.1893 3.58 59.9193 3.53 59.5059 3.53C59.2259 3.53 58.9326 3.56333 58.6259 3.63C58.3259 3.69 58.1726 3.72 58.1659 3.72C58.1059 3.72 58.0659 3.7 58.0459 3.66C58.0259 3.61333 58.0159 3.52333 58.0159 3.39C58.0159 3.25667 58.0326 3.16333 58.0659 3.11C58.1059 3.05667 58.1693 3.01667 58.2559 2.99C58.6759 2.86333 59.1659 2.8 59.7259 2.8C59.9793 2.8 60.1859 2.81333 60.3459 2.84C60.5059 2.86667 60.6693 2.92667 60.8359 3.02C61.0093 3.11333 61.1359 3.26667 61.2159 3.48C61.3026 3.69333 61.3459 3.96667 61.3459 4.3C61.3459 4.48667 61.3293 4.65 61.2959 4.79C61.2626 4.92333 61.1926 5.06333 61.0859 5.21C60.9793 5.35 60.8826 5.46333 60.7959 5.55C60.7159 5.63 60.5659 5.77 60.3459 5.97L59.1959 7.03C59.0893 7.13 59.0126 7.21 58.9659 7.27C58.9193 7.32333 58.8759 7.40667 58.8359 7.52C58.7959 7.62667 58.7759 7.75667 58.7759 7.91V8.25ZM65.2548 9C65.0815 9 64.9682 8.98333 64.9148 8.95C64.8615 8.91 64.8348 8.83667 64.8348 8.73V7.41H62.5348C62.4148 7.41 62.3348 7.38667 62.2948 7.34C62.2615 7.28667 62.2448 7.17 62.2448 6.99C62.2448 6.80333 62.2782 6.65333 62.3448 6.54L64.2948 3.14C64.3682 3.01333 64.4515 2.93333 64.5448 2.9C64.6382 2.86667 64.8115 2.85 65.0648 2.85C65.3048 2.85 65.4648 2.86667 65.5448 2.9C65.6248 2.93333 65.6648 3.00333 65.6648 3.11V6.7H66.0648C66.1648 6.7 66.2315 6.72333 66.2648 6.77C66.2982 6.81 66.3148 6.90333 66.3148 7.05C66.3148 7.20333 66.2982 7.30333 66.2648 7.35C66.2315 7.39 66.1648 7.41 66.0648 7.41H65.6648V8.73C65.6648 8.83667 65.6382 8.91 65.5848 8.95C65.5315 8.98333 65.4215 9 65.2548 9ZM64.8148 3.59L63.0848 6.7H64.8648L64.8748 3.59H64.8148ZM66.9938 8.13C67.0471 8.09 67.1638 8.07 67.3438 8.07C67.5238 8.07 67.6371 8.09 67.6838 8.13C67.7371 8.17 67.7638 8.25333 67.7638 8.38V8.66C67.7638 8.87333 67.7204 9.13333 67.6338 9.44L67.4738 10.03C67.4271 10.1433 67.3771 10.2167 67.3238 10.25C67.2704 10.2833 67.1771 10.3 67.0438 10.3C66.9371 10.3 66.8671 10.29 66.8338 10.27C66.8004 10.25 66.7838 10.21 66.7838 10.15C66.7838 10.11 66.8038 9.94 66.8438 9.64C66.8904 9.34 66.9138 9.09333 66.9138 8.9V8.38C66.9138 8.25333 66.9404 8.17 66.9938 8.13ZM74.5075 8.95C74.4542 8.98333 74.3442 9 74.1775 9C74.0108 9 73.9008 8.98333 73.8475 8.95C73.7942 8.91 73.7675 8.83667 73.7675 8.73V6.39H72.9175C72.7242 6.39 72.5808 6.38667 72.4875 6.38L71.4875 8.79C71.4542 8.87667 71.4042 8.93333 71.3375 8.96C71.2775 8.98667 71.1542 9 70.9675 9C70.7208 9 70.5975 8.94 70.5975 8.82C70.5975 8.77333 70.6308 8.67667 70.6975 8.53L71.7575 6.25C71.3975 6.13667 71.1375 5.94 70.9775 5.66C70.8175 5.38 70.7375 4.98667 70.7375 4.48C70.7375 4.11333 70.7708 3.82 70.8375 3.6C70.9042 3.37333 71.0242 3.20333 71.1975 3.09C71.3775 2.97 71.5808 2.89333 71.8075 2.86C72.0408 2.82 72.3542 2.8 72.7475 2.8C73.3408 2.8 73.8575 2.83 74.2975 2.89C74.4908 2.91 74.5875 3.01667 74.5875 3.21V8.73C74.5875 8.83667 74.5608 8.91 74.5075 8.95ZM71.5975 4.51C71.5975 5.01 71.6842 5.34333 71.8575 5.51C72.0308 5.67 72.3742 5.75 72.8875 5.75H73.7675V3.56C73.3475 3.52667 73.0275 3.51 72.8075 3.51C72.3075 3.51 71.9808 3.57333 71.8275 3.7C71.6742 3.82667 71.5975 4.09667 71.5975 4.51ZM76.5573 8.95C76.5039 8.98333 76.3939 9 76.2273 9C76.0606 9 75.9506 8.98333 75.8973 8.95C75.8439 8.91667 75.8173 8.84333 75.8173 8.73V4.35C75.8173 4.23667 75.8439 4.16667 75.8973 4.14C75.9506 4.10667 76.0606 4.09 76.2273 4.09C76.3939 4.09 76.5039 4.10667 76.5573 4.14C76.6106 4.16667 76.6373 4.23667 76.6373 4.35V6.16H76.7273L78.2973 4.29C78.3706 4.20333 78.4373 4.15 78.4973 4.13C78.5639 4.10333 78.6806 4.09 78.8473 4.09C79.1139 4.09 79.2473 4.13667 79.2473 4.23C79.2473 4.31 79.2006 4.40333 79.1073 4.51L77.4673 6.43L79.2373 8.58C79.3173 8.67333 79.3573 8.76 79.3573 8.84C79.3573 8.94667 79.2173 9 78.9373 9C78.7773 9 78.6673 8.98667 78.6073 8.96C78.5539 8.93333 78.4906 8.87667 78.4173 8.79L76.7173 6.72H76.6373V8.73C76.6373 8.84333 76.6106 8.91667 76.5573 8.95ZM79.7441 4.31C79.7441 4.23 79.7708 4.17333 79.8241 4.14C79.8775 4.10667 79.9908 4.09 80.1641 4.09C80.3308 4.09 80.4408 4.10333 80.4941 4.13C80.5475 4.15 80.5875 4.20333 80.6141 4.29L81.7241 8.28H81.8041L82.9141 4.29C82.9408 4.20333 82.9808 4.15 83.0341 4.13C83.0875 4.10333 83.1941 4.09 83.3541 4.09C83.5275 4.09 83.6441 4.10667 83.7041 4.14C83.7641 4.17333 83.7941 4.22667 83.7941 4.3C83.7941 4.40667 83.7575 4.57333 83.6841 4.8L82.2341 9.46C82.0541 10.0333 81.8775 10.42 81.7041 10.62C81.5308 10.8267 81.2375 10.93 80.8241 10.93C80.4908 10.93 80.2208 10.8933 80.0141 10.82C79.9275 10.7933 79.8641 10.7567 79.8241 10.71C79.7908 10.6633 79.7741 10.5833 79.7741 10.47C79.7741 10.3367 79.7841 10.2467 79.8041 10.2C79.8308 10.16 79.8775 10.14 79.9441 10.14C79.9508 10.14 80.0375 10.15 80.2041 10.17C80.3775 10.1967 80.5541 10.21 80.7341 10.21C80.9541 10.21 81.1075 10.17 81.1941 10.09C81.2875 10.01 81.3708 9.84333 81.4441 9.59L81.6041 9C81.4241 8.99333 81.2941 8.95667 81.2141 8.89C81.1341 8.81667 81.0675 8.69333 81.0141 8.52L79.8941 4.95C79.7941 4.62333 79.7441 4.41 79.7441 4.31ZM86.0552 9C85.8818 9 85.7685 8.98333 85.7152 8.95C85.6618 8.91 85.6352 8.83667 85.6352 8.73V4.84H84.4652C84.3652 4.84 84.2952 4.81667 84.2552 4.77C84.2218 4.71667 84.2052 4.61333 84.2052 4.46C84.2052 4.31333 84.2218 4.21667 84.2552 4.17C84.2952 4.11667 84.3652 4.09 84.4652 4.09H87.6452C87.7452 4.09 87.8118 4.11333 87.8452 4.16C87.8785 4.20667 87.8952 4.30667 87.8952 4.46C87.8952 4.61333 87.8785 4.71667 87.8452 4.77C87.8118 4.81667 87.7452 4.84 87.6452 4.84H86.4652V8.73C86.4652 8.83667 86.4385 8.91 86.3852 8.95C86.3318 8.98333 86.2218 9 86.0552 9ZM90.4984 9.1C90.2117 9.1 89.975 9.08333 89.7884 9.05C89.6017 9.01667 89.425 8.95333 89.2584 8.86C89.0917 8.76 88.9617 8.61667 88.8684 8.43C88.7817 8.24333 88.7117 8 88.6584 7.7C88.6117 7.4 88.5884 7.03 88.5884 6.59C88.5884 6.12333 88.6184 5.73 88.6784 5.41C88.745 5.08333 88.8284 4.83 88.9284 4.65C89.0284 4.46333 89.165 4.32 89.3384 4.22C89.5184 4.12 89.6917 4.05667 89.8584 4.03C90.0317 4.00333 90.2517 3.99 90.5184 3.99C90.945 3.99 91.3517 4.04667 91.7384 4.16C91.8384 4.19333 91.905 4.23667 91.9384 4.29C91.9717 4.33667 91.9884 4.42333 91.9884 4.55C91.9884 4.77 91.9384 4.88 91.8384 4.88C91.825 4.88 91.665 4.85 91.3584 4.79C91.0517 4.73 90.795 4.7 90.5884 4.7C90.2684 4.7 90.035 4.73667 89.8884 4.81C89.7417 4.88333 89.6284 5.05 89.5484 5.31C89.4684 5.57 89.4284 5.97 89.4284 6.51C89.4284 7.33 89.4917 7.84667 89.6184 8.06C89.7517 8.27333 90.0817 8.38 90.6084 8.38C90.8817 8.38 91.155 8.34667 91.4284 8.28L91.8484 8.17C91.9417 8.17 91.9884 8.28 91.9884 8.5C91.9884 8.62667 91.9717 8.71667 91.9384 8.77C91.9117 8.81667 91.8484 8.85667 91.7484 8.89C91.3617 9.03 90.945 9.1 90.4984 9.1ZM93.7057 8.95C93.6524 8.98333 93.5424 9 93.3757 9C93.209 9 93.099 8.98333 93.0457 8.95C92.9924 8.91667 92.9657 8.84333 92.9657 8.73V4.35C92.9657 4.23667 92.9924 4.16667 93.0457 4.14C93.099 4.10667 93.209 4.09 93.3757 4.09C93.5424 4.09 93.6524 4.10667 93.7057 4.14C93.759 4.16667 93.7857 4.23667 93.7857 4.35V6.16H93.8757L95.4457 4.29C95.519 4.20333 95.5857 4.15 95.6457 4.13C95.7124 4.10333 95.829 4.09 95.9957 4.09C96.2624 4.09 96.3957 4.13667 96.3957 4.23C96.3957 4.31 96.349 4.40333 96.2557 4.51L94.6157 6.43L96.3857 8.58C96.4657 8.67333 96.5057 8.76 96.5057 8.84C96.5057 8.94667 96.3657 9 96.0857 9C95.9257 9 95.8157 8.98667 95.7557 8.96C95.7024 8.93333 95.639 8.87667 95.5657 8.79L93.8657 6.72H93.7857V8.73C93.7857 8.84333 93.759 8.91667 93.7057 8.95Z" fill="black"/>
</svg>
