<svg width="334" height="219" viewBox="0 0 334 219" fill="none" xmlns="http://www.w3.org/2000/svg">
<g clip-path="url(#clip0_83_1480)">
<g opacity="0.21">
<path d="M318.757 33.0122C298.391 7.06155 256.739 -7.13466 222.022 3.62055C168.739 20.1295 150.489 82.842 96.1292 96.6453C72.7224 102.59 45.8429 98.2002 24.5962 108.372C2.73236 118.841 -7.82086 142.725 6.67088 161.087C14.8509 171.449 27.9681 178.281 41.2592 183.759C121.539 216.822 242.791 212.803 302.301 151.213C332.923 119.52 346.915 68.8928 318.751 33.0065L318.757 33.0122Z" fill="#FF631F"/>
</g>
<path d="M7.288 90.0048C7.06358 89.5052 6.83916 89.0056 6.61475 88.506C6.67646 88.4555 6.73256 88.3993 6.79428 88.3488C7.17579 88.5453 7.56291 88.7417 7.94442 88.9326C8.59523 89.8251 9.28531 90.6896 9.89685 91.6046C11.8212 94.4786 13.6783 97.4032 15.6475 100.249C17.858 103.454 19.8441 106.8 21.8639 110.117C24.3156 114.153 26.5542 118.33 29.7521 121.861C31.396 123.674 32.8715 125.65 34.9474 127.025C35.4355 127.541 35.5084 128.271 35.8563 128.861C33.8646 127.979 32.4115 126.396 30.9359 124.909C27.5809 121.529 25.0282 117.538 22.6045 113.469C20.5398 110 18.4864 106.519 16.2647 103.151C14.7274 100.822 13.2687 98.4417 11.6473 96.1739C10.183 94.125 8.95429 91.9077 7.29361 89.9991L7.288 90.0048Z" fill="#FF631F"/>
<path d="M7.288 90.0048C8.9543 91.9133 10.183 94.125 11.6417 96.1795C13.2631 98.4473 14.7218 100.827 16.2591 103.157C18.4808 106.531 20.5342 110.005 22.5989 113.474C25.0226 117.55 27.5753 121.535 30.9303 124.914C32.4115 126.402 33.8646 127.99 35.8507 128.866C37.2757 129.972 38.3249 131.493 39.9687 132.65C38.9757 130.14 38.4147 127.699 38.0388 125.201C37.5394 121.911 38.5661 118.908 39.4862 115.837C40.7654 111.583 41.4443 107.215 41.0572 102.741C41.0459 102.601 41.1301 102.45 41.1694 102.298C42.37 104.891 42.5944 107.676 42.7347 110.471C42.9311 114.372 42.1793 118.218 41.9324 122.091C41.9043 122.501 41.7641 122.966 42.3083 123.023C42.8132 123.079 42.9198 122.59 42.9647 122.192C43.0601 121.367 43.0825 120.53 43.1891 119.705C43.9746 113.48 44.4066 107.277 42.0895 101.237C44.4795 103.578 45.3435 106.699 46.3085 109.73C48.0478 115.181 47.8963 120.727 46.9874 126.318C46.4376 129.703 45.8765 133.065 44.171 136.096C43.9017 136.573 44.1092 136.865 44.4122 137.118C47.1389 139.374 50.0731 141.339 53.3384 143.332C52.7269 141.586 52.1995 140.121 51.6945 138.65C50.3256 134.642 50.8586 130.606 51.6553 126.604C52.6651 121.518 54.6288 116.702 56.0875 111.745C56.5139 112.391 56.5588 113.154 56.6878 113.878C57.6023 118.93 56.9235 123.881 55.807 128.821C55.375 130.747 54.87 132.672 54.8195 134.665C54.8083 135.046 54.7634 135.54 55.3525 135.529C55.8855 135.524 55.7845 135.052 55.8182 134.721C56.0426 132.588 56.5588 130.511 57.0076 128.423C57.8885 124.297 58.4495 120.154 58.0792 115.927C57.8885 113.732 57.2825 111.611 56.901 109.449C58.4832 111.773 59.2462 114.417 59.8745 117.112C60.7947 121.041 61.4006 125.032 60.8788 129.046C60.2224 134.12 58.8142 139.026 56.6205 143.669C56.1548 144.651 56.1941 145.117 57.2264 145.689C60.4917 147.491 63.7457 149.304 67.0615 151.016C67.2803 151.129 67.5384 151.174 68.0377 151.342C66.6744 149.316 65.9619 147.289 65.4345 145.184C64.6546 142.058 65.614 139.077 66.1077 136.057C66.7642 132.049 68.1668 128.249 69.4515 124.42C69.8387 123.275 69.9004 122.035 70.467 120.946C70.798 121.855 70.7419 122.809 70.7251 123.752C70.641 127.85 69.777 131.824 68.8344 135.787C68.3687 137.746 67.976 139.728 67.9872 141.754C67.9872 142.091 67.9311 142.563 68.4585 142.546C68.9186 142.529 68.9354 142.136 68.969 141.754C69.07 140.654 69.1486 139.543 69.3506 138.454C70.0967 134.423 71.3086 130.483 71.6228 126.363C71.7182 125.105 71.5947 123.831 71.9145 122.59C72.8178 123.994 73.0142 125.638 73.4013 127.205C74.3046 130.853 74.8151 134.564 74.2877 138.302C73.8333 141.485 73.0983 144.634 72.4307 147.789C72.0884 149.4 72.0436 151.073 71.3591 152.611C71.0842 153.234 71.735 153.239 71.9987 153.368C75.1686 154.867 78.3553 156.321 81.542 157.786C81.9572 157.977 82.378 158.162 83.0905 158.482C82.0806 156.832 81.615 155.271 81.4074 153.615C80.779 148.569 81.5476 143.708 83.2308 138.948C83.702 137.617 84.1116 136.259 84.5436 134.917C84.8353 134.934 84.8129 135.164 84.8129 135.344C84.8129 137.09 84.8802 138.841 84.6165 140.57C84.1677 143.478 84.1004 146.419 83.9096 149.349C83.7862 151.247 83.9713 153.144 84.3585 155.008C84.437 155.389 84.3697 156.052 84.9868 155.951C85.604 155.85 85.3347 155.277 85.2786 154.867C84.97 152.588 84.7905 150.304 84.9868 148.002C85.2898 144.404 85.6601 140.811 85.8508 137.208C85.963 135.058 85.9855 132.874 85.3347 130.763C85.4637 130.657 85.4693 130.55 85.3571 130.427C85.4637 129.411 85.5703 128.395 85.6993 127.165C87.0963 129.079 87.9491 131.038 88.5102 133.132C89.8903 138.252 90.7094 143.466 90.7824 148.766C90.8329 152.504 89.6491 155.861 87.1412 158.701C86.8102 159.077 86.5409 159.498 86.1987 159.953C89.5818 161.429 92.7404 163.248 95.8879 165.134C95.9159 165.089 95.972 165.022 95.9608 164.999C94.0981 161.631 95.3885 158.218 95.9328 154.862C96.2077 153.161 96.4097 151.432 96.8978 149.765C97.2288 149.843 97.1558 150.107 97.1558 150.332C97.1895 152.987 97.1839 155.642 96.9763 158.291C96.8473 159.959 97.0268 161.609 97.3971 163.237C97.4812 163.613 97.5486 164.107 98.0872 164.034C98.6875 163.955 98.5136 163.444 98.4294 163.096C97.8852 160.874 97.9525 158.617 98.1264 156.372C98.3284 153.834 98.2274 151.303 98.1994 148.771C98.1489 144.505 97.4476 140.317 96.6733 136.135C98.0816 137.039 98.3677 138.605 98.9119 139.997C100.752 144.679 100.999 149.478 99.9947 154.396C99.0914 158.819 99.0522 163.321 100.017 167.688C100.387 169.367 99.4 169.816 98.7829 170.641C97.0268 172.987 94.5806 174.576 92.1569 176.136C89.1105 178.101 85.9518 179.869 82.4846 181.042C77.9233 182.586 73.1937 183.041 68.4361 183.293C65.0866 183.473 61.7372 183.523 58.3822 183.619C58.096 183.625 57.7426 183.765 57.5294 183.417C57.6865 183.31 57.8324 183.159 58.0119 183.102C63.9702 181.244 69.8443 179.111 75.9709 177.837C77.3959 177.54 78.8266 177.281 80.246 176.967C80.6163 176.883 81.0763 176.67 80.9193 176.17C80.7846 175.738 80.3694 175.867 80.0104 175.94C78.1645 176.327 76.3075 176.681 74.4617 177.079C68.7446 178.314 63.2801 180.397 57.6753 182.008C59.8072 179.824 62.6293 178.763 65.2549 177.411C71.5218 174.172 78.3328 172.533 85.1439 170.91C89.3461 169.911 93.5652 168.962 97.8852 167.969C97.1334 167.177 96.2638 166.655 95.3942 166.139C92.4543 164.393 89.5032 162.67 86.3782 161.261C85.935 161.064 85.604 160.913 85.1551 161.368C80.2909 166.307 74.0858 168.491 67.5047 169.911C62.6293 170.961 57.6696 171.601 52.8447 172.897C54.4044 171.623 56.2502 170.809 57.9389 169.731C60.2841 168.233 62.5563 166.616 65.0474 165.353C69.9004 162.9 75.09 161.946 80.4704 161.828C80.8463 161.822 81.2615 161.884 81.2727 161.407C81.2839 161.014 80.9361 160.812 80.5265 160.795C80.0496 160.773 79.5728 160.705 79.1015 160.728C71.2469 161.121 64.2451 163.798 57.8941 168.418C55.3638 170.253 52.5754 171.724 49.7421 173.077C49.5906 172.504 49.9946 172.218 50.3536 171.909C58.8366 164.511 68.6212 160.166 79.8869 159.291C80.1618 159.268 80.4424 159.291 80.7173 159.291C80.9866 159.291 81.2615 159.291 81.6093 159.083C80.5602 158.589 79.511 158.095 78.4619 157.607C76.2738 156.585 74.097 155.546 71.9033 154.547C71.0674 154.166 70.2763 154.171 69.3562 154.581C63.1623 157.354 57.0749 160.368 50.6173 162.507C46.3534 163.922 41.9156 164.573 37.517 165.375C35.8451 165.684 34.2124 166.217 32.5013 166.302C32.9052 165.987 33.2811 165.617 33.7243 165.37C40.3166 161.665 47.3408 159.072 54.6568 157.247C56.1885 156.866 57.737 156.54 59.2798 156.203C59.6782 156.119 60.1607 156.08 60.0429 155.535C59.9306 155.013 59.4313 155.148 59.0442 155.176C58.9713 155.176 58.8983 155.243 58.8254 155.255C52.7605 156.383 46.9145 158.224 41.2086 160.548C38.2015 161.772 35.3626 163.332 32.4732 164.786C39.015 159.335 46.3029 155.462 54.8195 154.115C58.7581 153.492 62.6573 152.611 66.708 152.111C65.7318 151.611 64.7388 151.129 63.7738 150.607C61.3445 149.288 58.9096 147.991 56.5251 146.599C55.936 146.256 55.605 146.29 55.2235 146.75C52.682 149.787 49.5177 152.016 45.9944 153.745C39.3292 157.017 32.2544 157.348 25.045 156.512C22.3015 156.192 19.5468 155.906 16.837 155.328C16.8874 154.862 17.269 154.957 17.5495 154.929C24.411 154.227 31.1884 152.947 37.9658 151.713C39.6321 151.409 41.2872 151.05 42.9479 150.702C43.2621 150.635 43.6099 150.483 43.5258 150.085C43.4416 149.664 43.0657 149.731 42.7459 149.787C42.1232 149.894 41.5004 149.989 40.8832 150.113C34.0834 151.494 27.2387 152.577 20.3715 153.554C20.0686 153.599 19.5468 154.042 19.3224 153.363C30.2347 148.973 41.2984 145.167 53.5067 144.993C52.4127 143.972 51.285 143.461 50.2695 142.804C47.9019 141.289 45.6802 139.582 43.4416 137.887C43.0825 137.617 42.8357 137.46 42.3139 137.713C39.0206 139.279 35.4972 139.913 31.8841 140.16C26.4476 140.531 21.4151 138.729 16.332 137.224C13.2519 136.315 10.3737 134.805 7.21507 134.12C5.87979 133.828 4.54451 133.531 3.20361 133.233C3.2485 132.7 3.69172 132.801 3.99468 132.694C4.10128 132.706 4.20788 132.723 4.31448 132.734H4.3257C6.43522 133.194 8.55596 133.609 10.6543 134.12C17.4653 135.782 24.3269 137.146 31.3567 137.421C31.8168 137.438 32.4676 137.612 32.5293 136.977C32.6079 136.231 31.8785 136.467 31.469 136.422C28.905 136.163 26.3298 135.984 23.7714 135.686C19.1372 135.142 14.6377 133.907 10.0932 132.919C9.53218 132.795 8.70183 133.054 8.38765 132.229C11.507 131.858 14.6321 132.144 17.7571 132.127C24.0632 132.088 30.0271 133.856 36.0022 135.568C37.5563 136.012 39.1721 136.119 40.872 136.18C36.7428 132.481 32.6864 128.911 28.1307 125.919C24.5737 123.584 21.387 120.738 18.7894 117.347C15.238 112.716 12.8255 107.468 10.845 102.006C9.49851 98.3013 8.34838 94.5291 7.29923 90.7289C7.23751 90.51 7.26556 90.2686 7.24873 90.0384L7.288 90.0048ZM94.777 171.421C94.9565 171.101 95.4054 170.95 95.1192 170.573C94.8499 170.214 94.5245 170.405 94.1711 170.562C91.5622 171.747 88.8973 172.785 86.1818 173.694C85.7779 173.829 85.2225 173.958 85.4076 174.52C85.5984 175.092 86.1257 174.868 86.5297 174.727C87.9716 174.217 89.4191 173.723 90.8385 173.156C92.185 172.617 93.4922 171.988 94.777 171.421ZM42.1232 126.913C41.9043 126.649 41.708 126.525 41.4499 126.598C41.2255 126.666 41.1582 126.885 41.1525 127.07C41.1469 127.423 41.203 127.777 41.2255 128.131C41.3153 129.31 41.405 130.488 41.4948 131.667C41.5284 132.088 41.736 132.358 42.1849 132.29C42.6281 132.223 42.5608 131.852 42.5439 131.538C42.5047 130.825 42.471 130.118 42.4037 129.411C42.3139 128.557 42.3868 127.676 42.1232 126.918V126.913ZM51.9919 146.582C51.8853 146.554 51.717 146.458 51.5992 146.498C50.2358 146.986 48.8781 147.491 47.5316 148.019C47.3128 148.103 47.195 148.367 47.296 148.625C47.4194 148.945 47.7055 148.984 47.986 148.906C49.2708 148.547 50.522 148.098 51.7282 147.525C52.0817 147.357 52.2388 147.037 51.9863 146.582H51.9919ZM69.0252 146.071C68.8063 145.863 68.6773 145.616 68.3912 145.729C68.1611 145.818 67.9816 145.993 68.0265 146.262C68.2397 147.57 68.4641 148.878 68.6829 150.186C68.739 150.506 68.9298 150.674 69.2552 150.64C69.6255 150.601 69.6816 150.298 69.6535 150.029C69.5694 149.215 69.4572 148.401 69.3337 147.587C69.2552 147.053 69.2945 146.492 69.0252 146.065V146.071ZM55.4984 137.247C55.2235 137 54.9542 137.118 54.741 137.41C54.4829 137.763 54.6905 140.57 54.971 140.884C55.2011 141.143 55.4255 141.187 55.6667 140.912C55.8687 140.677 55.7509 137.544 55.4984 137.247ZM65.4233 154.85C65.5635 154.693 65.6252 154.508 65.5523 154.306C65.4345 153.969 65.1147 153.952 64.8622 154.003C64.0207 154.16 63.1847 154.362 62.3487 154.559C62.0963 154.62 61.9448 154.8 61.9224 155.064C61.8999 155.288 62.029 155.423 62.2253 155.513C62.5619 155.659 65.1483 155.131 65.4233 154.862V154.85ZM36.8662 136.54C36.5913 136.259 34.9755 136.265 34.7342 136.562C34.5379 136.803 34.5322 137.062 34.7679 137.292C35.054 137.572 36.6081 137.471 36.8774 137.163C37.0625 136.949 37.0625 136.747 36.8606 136.545L36.8662 136.54Z" fill="#FF631F"/>
<path d="M34.942 127.031C32.8661 125.655 31.3906 123.679 29.7467 121.866C26.5488 118.335 24.3102 114.159 21.8584 110.123C19.8387 106.8 17.8582 103.454 15.6421 100.255C13.6784 97.4088 11.8214 94.4842 9.89139 91.6102C9.27986 90.6952 8.58977 89.8251 7.93896 88.9382C9.83529 89.5276 11.3277 90.8131 12.792 92.0312C15.8777 94.6077 18.9074 97.2797 21.4433 100.423C26.1897 106.312 30.0777 112.711 32.5912 119.89C33.4215 122.259 34.2687 124.617 34.9363 127.036L34.942 127.031Z" fill="#FF631F"/>
<path d="M49.77 173.049C52.6033 171.702 55.3973 170.231 57.922 168.39C64.273 163.77 71.2804 161.098 79.1294 160.7C79.6007 160.677 80.0776 160.744 80.5544 160.767C80.9584 160.784 81.3062 160.986 81.3006 161.379C81.2894 161.856 80.8742 161.789 80.4983 161.8C75.1179 161.918 69.9283 162.872 65.0753 165.325C62.5842 166.588 60.3064 168.205 57.9669 169.703C56.2837 170.781 54.4323 171.595 52.8726 172.869C52.1825 173.105 51.498 173.38 50.7967 173.565C50.3591 173.683 49.8317 173.767 49.77 173.043V173.049Z" fill="#FF631F"/>
<path d="M32.4898 164.764C35.3792 163.31 38.2181 161.749 41.2253 160.525C46.9367 158.207 52.7772 156.36 58.842 155.232C58.9206 155.215 58.9879 155.159 59.0608 155.153C59.448 155.125 59.9473 154.991 60.0595 155.513C60.1773 156.057 59.6948 156.091 59.2965 156.181C57.7536 156.518 56.2051 156.843 54.6735 157.225C47.3519 159.044 40.3276 161.637 33.741 165.347C33.2977 165.594 32.9218 165.965 32.5179 166.279C31.7773 165.796 31.7717 165.583 32.4842 164.764H32.4898Z" fill="#FF631F"/>
<path d="M19.3502 153.34C19.5746 154.02 20.0964 153.576 20.3994 153.531C27.2665 152.555 34.1113 151.466 40.9111 150.09C41.5282 149.967 42.151 149.866 42.7738 149.765C43.0935 149.709 43.4638 149.641 43.5536 150.062C43.6378 150.461 43.2899 150.612 42.9757 150.68C41.3207 151.028 39.66 151.387 37.9937 151.69C31.2163 152.925 24.4389 154.205 17.5773 154.907C17.2968 154.935 16.9153 154.845 16.8648 155.305L16.8816 155.294C16.5787 154.811 16.2308 154.935 15.8718 155.215C14.9853 155.215 14.0764 155.378 12.9375 154.615C14.9573 154.267 16.6628 153.975 18.3684 153.683C18.7723 153.823 19.1426 153.846 19.3671 153.38V153.34H19.3502Z" fill="#FF631F"/>
<path d="M8.42132 132.195C8.73551 133.02 9.56585 132.762 10.1269 132.885C14.6713 133.873 19.1709 135.108 23.8051 135.653C26.3635 135.956 28.9387 136.135 31.5026 136.388C31.9178 136.427 32.6415 136.197 32.563 136.944C32.4957 137.584 31.8505 137.41 31.3904 137.387C24.3605 137.112 17.499 135.748 10.6879 134.087C8.58964 133.576 6.4689 133.16 4.35938 132.7C5.35803 132.217 6.4184 132.189 7.4956 132.24C7.8154 132.403 8.14641 132.722 8.44377 132.206L8.42694 132.195H8.42132Z" fill="#FF631F"/>
<path d="M56.9068 109.449C57.2883 111.611 57.8942 113.727 58.0849 115.927C58.4552 120.154 57.8886 124.302 57.0134 128.423C56.5701 130.511 56.0484 132.588 55.8239 134.721C55.7903 135.052 55.8857 135.524 55.3583 135.529C54.7692 135.54 54.8141 135.041 54.8253 134.665C54.8758 132.672 55.3807 130.747 55.8127 128.821C56.9236 123.881 57.6081 118.93 56.6936 113.878C56.5645 113.149 56.5196 112.391 56.0932 111.745C55.9418 110.909 56.2167 110.106 56.3794 109.32C56.514 108.669 56.7272 109.348 56.9068 109.444V109.449Z" fill="#FF631F"/>
<path d="M57.7032 181.985C63.308 180.374 68.7726 178.292 74.4896 177.057C76.3354 176.658 78.1869 176.31 80.0383 175.917C80.403 175.839 80.8125 175.715 80.9472 176.148C81.1043 176.647 80.6442 176.86 80.2739 176.945C78.8545 177.259 77.4238 177.517 75.9988 177.815C69.8722 179.089 63.9981 181.222 58.0398 183.08C57.8659 183.136 57.72 183.288 57.5573 183.394L57.5854 183.361C57.49 183.237 57.3778 183.226 57.2487 183.299C56.6709 182.766 56.755 182.519 57.7032 181.98V181.985Z" fill="#FF631F"/>
<path d="M96.6957 136.124C97.4699 140.301 98.1712 144.494 98.2217 148.76C98.2554 151.292 98.3507 153.823 98.1488 156.36C97.9692 158.606 97.9075 160.862 98.4517 163.085C98.5359 163.433 98.7098 163.944 98.1095 164.023C97.5709 164.096 97.5036 163.596 97.4194 163.226C97.0491 161.598 96.8696 159.947 96.9986 158.28C97.2062 155.631 97.2118 152.976 97.1782 150.32C97.1782 150.096 97.2511 149.832 96.9201 149.753L96.9369 149.776C97.2006 149.686 97.0603 149.551 96.9818 149.422C97.2062 145.212 97.3352 141.002 96.2973 136.86C96.1122 136.124 96.1458 136.119 96.69 136.119L96.6957 136.124Z" fill="#FF631F"/>
<path d="M85.3517 130.752C85.9969 132.863 85.98 135.046 85.8678 137.196C85.6771 140.8 85.3068 144.393 85.0038 147.991C84.8074 150.292 84.987 152.577 85.2955 154.856C85.3517 155.266 85.6153 155.838 85.0038 155.939C84.3867 156.04 84.454 155.378 84.3754 154.996C83.9883 153.133 83.8032 151.235 83.9266 149.338C84.1174 146.408 84.1847 143.472 84.6335 140.559C84.9028 138.83 84.8299 137.078 84.8299 135.333C84.8299 135.153 84.8523 134.923 84.5606 134.906L84.583 134.929C84.8299 134.755 84.6223 134.625 84.5438 134.479C84.9365 133.261 84.7008 131.909 85.3517 130.747V130.752Z" fill="#FF631F"/>
<path d="M42.084 101.243C44.3955 107.283 43.9691 113.486 43.1837 119.711C43.0771 120.536 43.0546 121.372 42.9593 122.197C42.9144 122.59 42.8078 123.079 42.3028 123.028C41.7586 122.972 41.8989 122.501 41.9269 122.096C42.1738 118.223 42.9256 114.378 42.7292 110.477C42.589 107.681 42.3646 104.897 41.1639 102.304C40.8329 101.883 40.6758 101.333 41.0181 100.968C41.2986 100.665 41.8091 100.816 42.084 101.243Z" fill="#FF631F"/>
<path d="M71.9256 122.585C71.6058 123.825 71.7292 125.1 71.6338 126.357C71.3253 130.477 70.1078 134.418 69.3616 138.448C69.1596 139.537 69.0811 140.649 68.9801 141.749C68.9464 142.131 68.9352 142.523 68.4696 142.54C67.9366 142.557 67.9983 142.091 67.9983 141.749C67.9871 139.717 68.3798 137.741 68.8455 135.782C69.7824 131.819 70.652 127.844 70.7362 123.747C70.7586 122.804 70.8147 121.855 70.4781 120.94C70.1807 120.424 70.6632 119.975 70.5903 119.453C71.1569 120.469 71.92 121.367 71.9256 122.585Z" fill="#FF631F"/>
<path d="M19.3561 153.38C19.1317 153.846 18.7614 153.823 18.3574 153.683C18.6323 153.38 18.9746 153.318 19.3561 153.38Z" fill="#FF631F"/>
<path d="M15.8608 155.21C16.2199 154.935 16.5734 154.806 16.8707 155.288C16.5229 155.361 16.1862 155.356 15.8608 155.21Z" fill="#FF631F"/>
<path d="M8.43791 132.206C8.14056 132.723 7.80954 132.403 7.48975 132.24C7.80393 132.111 8.11811 132.06 8.43791 132.206Z" fill="#FF631F"/>
<path d="M12.7191 154.648C12.7078 154.704 12.7078 154.772 12.6854 154.822C12.6742 154.845 12.5956 154.862 12.5844 154.845C12.5507 154.805 12.5339 154.749 12.5059 154.699C12.5788 154.682 12.6461 154.665 12.7191 154.648Z" fill="#FF631F"/>
<path d="M85.3738 130.421C85.486 130.539 85.4748 130.651 85.3513 130.752C85.2335 130.634 85.2503 130.522 85.3738 130.421Z" fill="#FF631F"/>
<path d="M84.5435 134.491C84.622 134.637 84.824 134.771 84.5827 134.94C84.5715 134.788 84.5547 134.642 84.5435 134.491Z" fill="#FF631F"/>
<path d="M4.34274 132.7C4.23615 132.689 4.12955 132.672 4.02295 132.661C4.14638 132.543 4.25298 132.554 4.34274 132.7Z" fill="#FF631F"/>
<path d="M57.249 183.299C57.3781 183.22 57.4903 183.232 57.5856 183.361C57.4286 183.58 57.35 183.383 57.249 183.299Z" fill="#FF631F"/>
<path d="M96.9817 149.428C97.0603 149.557 97.2005 149.692 96.9368 149.782C96.8078 149.647 96.8471 149.529 96.9817 149.428Z" fill="#FF631F"/>
<path d="M94.7772 171.421C93.4924 171.988 92.1852 172.617 90.8387 173.156C89.4192 173.723 87.9717 174.222 86.5299 174.727C86.1315 174.868 85.5985 175.092 85.4078 174.52C85.2226 173.953 85.7781 173.829 86.182 173.694C88.8975 172.785 91.5624 171.747 94.1713 170.562C94.5247 170.405 94.8445 170.214 95.1194 170.573C95.4056 170.95 94.9567 171.107 94.7772 171.421Z" fill="#FF631F"/>
<path d="M42.1175 126.913C42.3812 127.67 42.3083 128.552 42.398 129.405C42.471 130.112 42.499 130.825 42.5383 131.532C42.5551 131.847 42.6225 132.217 42.1792 132.285C41.736 132.352 41.5228 132.088 41.4892 131.662C41.3994 130.483 41.3096 129.304 41.2199 128.125C41.1918 127.772 41.1413 127.418 41.1469 127.064C41.1469 126.879 41.2142 126.66 41.4443 126.593C41.708 126.514 41.9043 126.643 42.1175 126.907V126.913Z" fill="#FF631F"/>
<path d="M51.9862 146.582C52.2386 147.042 52.0871 147.357 51.7281 147.525C50.5218 148.098 49.2707 148.547 47.9859 148.906C47.7054 148.984 47.4193 148.945 47.2958 148.625C47.1948 148.367 47.3127 148.103 47.5315 148.019C48.878 147.491 50.2357 146.992 51.599 146.498C51.7169 146.453 51.8852 146.554 51.9918 146.582H51.9862Z" fill="#FF631F"/>
<path d="M69.0197 146.071C69.289 146.498 69.2498 147.059 69.3283 147.592C69.4517 148.401 69.5639 149.215 69.6481 150.034C69.6762 150.304 69.6201 150.612 69.2498 150.646C68.9244 150.68 68.728 150.506 68.6775 150.191C68.4531 148.883 68.2343 147.576 68.0211 146.268C67.9762 145.993 68.1557 145.824 68.3858 145.734C68.6719 145.622 68.8009 145.869 69.0197 146.077V146.071Z" fill="#FF631F"/>
<path d="M55.4927 137.247C55.7451 137.544 55.8686 140.677 55.661 140.912C55.4253 141.187 55.1953 141.137 54.9653 140.884C54.6848 140.57 54.4772 137.763 54.7352 137.41C54.9484 137.118 55.2177 137.006 55.4927 137.247Z" fill="#FF631F"/>
<path d="M65.4177 154.85C65.1484 155.125 62.5564 155.653 62.2254 155.502C62.029 155.417 61.9 155.283 61.9225 155.052C61.9449 154.789 62.0964 154.609 62.3488 154.547C63.1848 154.351 64.0207 154.149 64.8623 153.992C65.1148 153.947 65.4346 153.958 65.5524 154.295C65.6197 154.497 65.5636 154.682 65.4234 154.839L65.4177 154.85Z" fill="#FF631F"/>
<path d="M36.8605 136.534C37.0569 136.736 37.0569 136.944 36.8718 137.151C36.6025 137.466 35.0484 137.567 34.7622 137.281C34.5266 137.05 34.5266 136.792 34.7286 136.551C34.9754 136.253 36.5856 136.248 36.8605 136.528V136.534Z" fill="#FF631F"/>
<path d="M47.279 37.4243C47.3295 36.9584 47.38 36.4925 47.4361 36.021L47.6381 35.9817C47.8345 36.296 48.0365 36.6048 48.2328 36.9191C48.3282 37.8622 48.4572 38.8052 48.5077 39.7483C48.676 42.7177 48.777 45.6872 48.9846 48.6511C49.2203 51.9854 49.2259 55.3254 49.2707 58.6597C49.3212 62.7126 49.1529 66.7766 49.9777 70.7846C50.3984 72.8391 50.6285 74.9497 51.5598 76.8695C51.6945 77.4645 51.4308 78.0371 51.4308 78.6208C50.3423 77.0996 49.9608 75.2921 49.5176 73.5464C48.5133 69.5833 48.3675 65.5192 48.3563 61.4495C48.345 57.9805 48.345 54.517 48.1711 51.0536C48.0533 48.6623 48.0084 46.2654 47.8008 43.8797C47.6157 41.7242 47.6718 39.5518 47.2734 37.4131L47.279 37.4243Z" fill="#FF631F"/>
<path d="M47.2789 37.4243C47.6772 39.563 47.6155 41.7354 47.8063 43.8909C48.0139 46.2766 48.0587 48.6735 48.1766 51.0648C48.3505 54.5283 48.3505 57.9973 48.3617 61.4608C48.3729 65.5305 48.5188 69.5945 49.5231 73.5576C49.9663 75.3033 50.3478 77.1108 51.4362 78.6321C52.0085 80.0747 52.1207 81.6577 52.8276 83.2238C53.1923 80.9335 53.8431 78.8847 54.651 76.8751C55.717 74.2256 57.7872 72.4517 59.807 70.5881C62.6122 68.0003 65.0134 65.0702 66.6797 61.5955C66.7358 61.4832 66.8593 61.4102 66.9547 61.3204C66.7134 63.7622 65.6586 65.9178 64.5478 68.0452C62.9881 71.0147 60.7551 73.5295 58.8812 76.2857C58.6849 76.5776 58.3763 76.8582 58.7522 77.1389C59.1001 77.3971 59.3918 77.0828 59.5994 76.8133C60.0314 76.2408 60.4129 75.6345 60.8505 75.0732C64.1494 70.8126 67.1735 66.4174 68.0992 60.9387C68.8454 63.7117 68.116 66.4005 67.5101 69.0613C66.4217 73.8495 63.8858 77.8855 60.772 81.6184C58.8869 83.8806 57.0074 86.1203 54.421 87.6191C54.0114 87.8548 54.0394 88.1579 54.1517 88.4779C55.184 91.3407 56.4968 94.0688 58.0397 96.9766C58.3483 95.416 58.5951 94.1025 58.87 92.7946C59.605 89.2301 61.7594 86.4852 64.0989 83.8693C67.0669 80.5518 70.6183 77.8462 73.8611 74.8206C73.8948 75.483 73.5918 76.0668 73.373 76.6618C71.847 80.7932 69.182 84.1556 66.2029 87.3216C65.0415 88.5565 63.8297 89.7578 62.9208 91.2116C62.7468 91.4867 62.5 91.8347 62.9376 92.0873C63.3359 92.3118 63.465 91.9245 63.6389 91.6944C64.7329 90.2181 66.0233 88.9045 67.2632 87.5573C69.715 84.891 71.9367 82.0787 73.5076 78.7892C74.3212 77.0828 74.798 75.2528 75.4601 73.4846C75.6115 75.8927 75.0225 78.183 74.3155 80.4508C73.2832 83.7571 71.9872 86.9735 69.8496 89.7129C67.151 93.1763 63.9643 96.1851 60.3231 98.6606C59.5545 99.1826 59.375 99.5475 59.8911 100.418C61.5182 103.179 63.134 105.941 64.8339 108.652C64.9461 108.832 65.1144 108.978 65.4174 109.32C65.294 107.227 65.653 105.419 66.1804 103.628C66.9659 100.979 68.98 99.1882 70.6631 97.173C72.8961 94.4954 75.5891 92.3006 78.2148 90.0328C79.0002 89.3536 79.5837 88.4667 80.4814 87.911C80.3299 88.7305 79.8755 89.4097 79.4491 90.1002C77.5976 93.0921 75.2244 95.6518 72.8007 98.1722C71.6001 99.4184 70.4443 100.709 69.5691 102.214C69.4232 102.466 69.1764 102.786 69.5691 103.005C69.917 103.196 70.1021 102.91 70.2929 102.64C70.8483 101.871 71.3925 101.08 72.0153 100.367C74.3268 97.7119 76.9468 95.3318 78.9722 92.4185C79.5893 91.5316 80.055 90.5324 80.8349 89.7578C80.891 91.1948 80.3187 92.4915 79.9204 93.8218C78.9946 96.9148 77.7547 99.8843 75.7294 102.41C74.007 104.566 72.0882 106.57 70.2199 108.613C69.2662 109.657 68.4975 110.875 67.3249 111.712C66.8481 112.048 67.3249 112.34 67.4652 112.548C69.1539 115.04 70.8763 117.51 72.5931 119.98C72.8176 120.306 73.0476 120.626 73.4347 121.17C73.4066 119.509 73.7433 118.15 74.3155 116.837C76.0548 112.834 78.7422 109.573 82.0635 106.794C82.9949 106.014 83.8869 105.195 84.7958 104.392C85.0034 104.532 84.8856 104.689 84.807 104.824C84.044 106.115 83.3315 107.44 82.3777 108.602C80.7731 110.555 79.4435 112.7 78.024 114.782C77.1039 116.129 76.4138 117.611 75.8865 119.161C75.7799 119.481 75.4376 119.935 75.937 120.132C76.4363 120.328 76.4868 119.784 76.627 119.458C77.3957 117.639 78.2597 115.871 79.4098 114.255C81.2051 111.728 83.0454 109.231 84.7622 106.654C85.7833 105.11 86.7539 103.505 87.1971 101.664C87.3373 101.641 87.3878 101.563 87.3598 101.428C87.8816 100.726 88.4033 100.019 89.0373 99.1658C89.2337 101.192 89.0093 103.011 88.5155 104.807C87.3037 109.197 85.6318 113.407 83.3708 117.359C81.7774 120.149 79.4379 122.108 76.3465 123.112C75.937 123.242 75.5498 123.438 75.1066 123.629C76.9637 126.194 78.5065 128.922 80.0101 131.69C80.0494 131.667 80.1223 131.645 80.1223 131.622C80.2177 128.322 82.6582 126.363 84.5265 124.117C85.4691 122.983 86.3723 121.788 87.4664 120.772C87.674 120.974 87.5057 121.136 87.4103 121.299C86.277 123.275 85.1156 125.234 83.8028 127.104C82.978 128.277 82.3946 129.579 81.9569 130.943C81.856 131.257 81.6876 131.656 82.1196 131.836C82.5965 132.038 82.6919 131.589 82.7817 131.291C83.3483 129.411 84.3806 127.771 85.4971 126.189C86.7539 124.403 87.7862 122.489 88.869 120.598C90.6924 117.42 92.0052 114.019 93.2507 110.589C93.8959 111.869 93.4247 113.154 93.2227 114.423C92.5382 118.683 90.6307 122.343 87.7413 125.537C85.1437 128.411 83.1464 131.723 81.9569 135.372C81.4969 136.775 80.5712 136.674 79.7577 137.017C77.4349 137.982 74.9327 138.089 72.4641 138.184C69.3559 138.302 66.2477 138.235 63.1732 137.584C59.1281 136.73 55.4308 135.002 51.8065 133.11C49.2538 131.779 46.7515 130.354 44.2324 128.962C44.0136 128.844 43.6938 128.793 43.6938 128.439C43.8565 128.428 44.0304 128.378 44.1875 128.417C49.3996 129.646 54.6734 130.634 59.7621 132.369C60.9459 132.773 62.1185 133.205 63.3023 133.593C63.6108 133.694 64.0485 133.739 64.1494 133.301C64.2392 132.925 63.8801 132.835 63.5772 132.734C62.0399 132.217 60.5195 131.662 58.9822 131.151C54.219 129.568 49.2706 128.72 44.4232 127.457C46.9479 126.772 49.5006 127.221 52.0309 127.367C58.079 127.71 63.8296 129.472 69.5691 131.252C73.1149 132.352 76.6439 133.492 80.2682 134.642C80.055 133.727 79.6398 132.964 79.2247 132.2C77.8164 129.624 76.3858 127.059 74.6914 124.656C74.4502 124.314 74.2707 124.061 73.7433 124.201C67.9926 125.728 62.4495 124.628 56.9681 122.804C52.9061 121.451 48.962 119.756 44.8271 118.61C46.5383 118.352 48.2607 118.554 49.9775 118.493C52.3619 118.408 54.752 118.206 57.142 118.363C61.7987 118.667 66.0514 120.233 70.0797 122.495C70.3658 122.652 70.6407 122.882 70.8595 122.534C71.0391 122.248 70.8707 121.95 70.5734 121.76C70.2311 121.535 69.9057 121.277 69.5467 121.086C63.5716 117.948 57.2206 116.865 50.5105 117.505C47.8399 117.757 45.1357 117.628 42.4483 117.387C42.5886 116.893 43.0094 116.865 43.4077 116.786C52.9061 115.018 62.0343 116.084 70.7473 120.356C70.9605 120.463 71.1569 120.598 71.3645 120.721C71.5664 120.839 71.7628 120.962 72.1106 120.957C71.5496 120.137 70.9886 119.312 70.4275 118.493C69.2605 116.781 68.0992 115.063 66.9154 113.362C66.4665 112.716 65.8718 112.374 65.0191 112.273C59.2347 111.616 53.4111 111.184 47.7053 109.949C43.9351 109.129 40.3724 107.676 36.7706 106.345C35.4016 105.84 33.9597 105.52 32.6581 104.841C33.0957 104.785 33.5333 104.678 33.971 104.684C40.4622 104.824 46.7852 105.975 52.9903 107.827C54.2919 108.215 55.5767 108.647 56.8615 109.073C57.1925 109.186 57.5628 109.371 57.7143 108.916C57.8602 108.478 57.4282 108.366 57.1308 108.215C57.0747 108.186 56.9961 108.198 56.9344 108.175C51.958 106.356 46.8357 105.166 41.6011 104.392C38.8464 103.982 36.0693 103.898 33.2977 103.707C40.5127 102.534 47.5931 102.859 54.4715 105.582C57.6582 106.839 60.9234 107.895 64.1326 109.298C63.6277 108.501 63.1059 107.715 62.6178 106.907C61.4003 104.875 60.166 102.848 59.0103 100.777C58.7242 100.266 58.4661 100.148 57.978 100.322C54.7744 101.456 51.4643 101.72 48.1036 101.462C41.747 100.973 36.3722 98.1217 31.4126 94.3551C29.5219 92.9181 27.6087 91.5035 25.8583 89.8925C26.0995 89.5725 26.3408 89.8083 26.5596 89.9093C31.94 92.3904 37.5055 94.4 43.0542 96.4489C44.4176 96.9541 45.7977 97.4088 47.1779 97.8803C47.4416 97.9701 47.7614 98.0094 47.8792 97.6782C47.997 97.3302 47.6941 97.2179 47.436 97.1169C46.931 96.926 46.4261 96.724 45.9156 96.5443C40.2883 94.5909 34.7508 92.4073 29.2526 90.1282C29.0113 90.0272 28.4335 90.1282 28.5625 89.5276C38.5491 91.0488 48.3841 93.0697 57.4843 98.2732C57.1196 97.0383 56.5137 96.1682 56.0424 95.242C54.954 93.0865 54.0563 90.8524 53.1418 88.6239C52.9959 88.2646 52.8837 88.0457 52.3844 88.0008C49.265 87.7201 46.3868 86.6479 43.6041 85.2502C39.4243 83.1452 36.49 79.62 33.3875 76.2913C31.508 74.2705 30.038 71.9016 28.0015 70.0155C27.1431 69.2184 26.2847 68.4101 25.4263 67.6074C25.69 67.2313 25.9761 67.5064 26.2454 67.5513C26.3183 67.6074 26.3913 67.6635 26.4698 67.7197H26.4754C27.8331 68.9883 29.2189 70.2232 30.5486 71.5143C34.863 75.7187 39.3345 79.7211 44.412 82.9993C44.743 83.2126 45.1469 83.628 45.4723 83.1845C45.8538 82.6681 45.2199 82.5221 44.9281 82.3088C43.144 80.9953 41.3206 79.7435 39.5589 78.4019C36.3722 75.9769 33.5838 73.0973 30.6552 70.3804C30.2961 70.0492 29.5668 69.8752 29.6958 69.1286C32.1644 70.2176 34.3468 71.795 36.664 73.1422C41.3431 75.8703 44.9786 79.7828 48.6478 83.656C49.6016 84.6664 50.7517 85.4467 51.9804 86.2382C50.5442 81.7026 49.1023 77.2849 47.0376 73.0861C45.4274 69.8078 44.311 66.3107 43.8734 62.6676C43.273 57.6942 43.778 52.76 44.6981 47.8596C45.3208 44.5308 46.1119 41.2414 46.9984 37.9744C47.0489 37.7836 47.1723 37.6152 47.2621 37.4412L47.2789 37.4243ZM76.4251 135.832C76.6944 135.675 77.0927 135.759 77.0478 135.355C77.0029 134.973 76.6831 134.968 76.3521 134.934C73.906 134.67 71.4823 134.272 69.0754 133.761C68.7163 133.682 68.2507 133.536 68.1441 134.036C68.0319 134.541 68.5256 134.609 68.8846 134.676C70.175 134.929 71.4598 135.198 72.7558 135.394C73.9845 135.585 75.2244 135.692 76.4251 135.832ZM56.9232 79.9287C56.8783 79.6369 56.7886 79.4572 56.5585 79.4011C56.3622 79.3506 56.2163 79.4853 56.1378 79.62C55.9807 79.8782 55.8628 80.1645 55.7282 80.4339C55.2794 81.3433 54.8305 82.2527 54.3817 83.1677C54.2246 83.4932 54.2639 83.7851 54.6173 83.9255C54.9764 84.0714 55.0886 83.7627 55.212 83.5269C55.4926 82.9824 55.7787 82.4435 56.0368 81.8878C56.3453 81.2142 56.7829 80.5967 56.9176 79.9231L56.9232 79.9287ZM55.6328 98.7784C55.5655 98.7111 55.4813 98.5651 55.3803 98.5427C54.1573 98.3125 52.9398 98.088 51.7111 97.8915C51.5148 97.8579 51.3128 98.0038 51.2735 98.2396C51.2286 98.5315 51.4194 98.6886 51.6606 98.7504C52.7659 99.0479 53.888 99.2612 55.0325 99.3679C55.3691 99.3959 55.6216 99.2331 55.6328 98.7841V98.7784ZM68.447 105.846C68.3797 105.599 68.3853 105.357 68.1272 105.318C67.914 105.284 67.7121 105.329 67.6223 105.554C67.2071 106.615 66.8032 107.681 66.3936 108.742C66.2926 109 66.3656 109.214 66.618 109.332C66.9042 109.466 67.0837 109.264 67.1791 109.051C67.4708 108.411 67.7457 107.76 68.0094 107.109C68.1833 106.682 68.4583 106.284 68.4414 105.851L68.447 105.846ZM62.298 93.4121C62.2026 93.1146 61.9558 93.0809 61.6696 93.1988C61.3218 93.3447 60.2558 95.5115 60.3231 95.8707C60.3792 96.157 60.5307 96.2973 60.8225 96.1963C61.0749 96.1121 62.3541 93.7433 62.298 93.4121ZM61.9558 110.763C62.1297 110.707 62.2531 110.595 62.2924 110.415C62.3541 110.112 62.1185 109.966 61.9165 109.887C61.2264 109.635 60.5195 109.416 59.8182 109.197C59.605 109.129 59.4142 109.197 59.2852 109.382C59.173 109.539 59.2067 109.696 59.3133 109.848C59.4984 110.101 61.6416 110.842 61.9614 110.763H61.9558ZM48.8386 84.7506C48.7544 84.4251 47.565 83.7234 47.2508 83.8357C46.9984 83.9255 46.8862 84.1163 46.9591 84.3914C47.0489 84.7282 48.2439 85.3288 48.5805 85.2165C48.8105 85.138 48.9003 84.9864 48.8386 84.7506Z" fill="#FF631F"/>
<path d="M51.5653 76.8807C50.6283 74.9553 50.4039 72.8503 49.9831 70.7958C49.1584 66.7879 49.3267 62.7238 49.2762 58.6709C49.2313 55.331 49.2257 51.9966 48.9901 48.6623C48.7825 45.6984 48.6815 42.729 48.5132 39.7595C48.4571 38.8165 48.3337 37.8734 48.2383 36.9304C49.3828 38.1934 49.927 39.7988 50.4768 41.3425C51.6326 44.5982 52.7042 47.8933 53.2091 51.323C54.1517 57.7503 54.2302 64.1777 52.9566 70.5825C52.5359 72.6931 52.1319 74.8094 51.5709 76.8863L51.5653 76.8807Z" fill="#FF631F"/>
<path d="M42.4428 117.376C45.1246 117.617 47.8288 117.752 50.505 117.493C57.2151 116.853 63.5605 117.937 69.5412 121.075C69.9003 121.266 70.2257 121.524 70.5679 121.748C70.8596 121.939 71.028 122.242 70.854 122.523C70.6352 122.871 70.3603 122.641 70.0742 122.484C66.0459 120.222 61.7932 118.661 57.1365 118.352C54.7409 118.195 52.3565 118.397 49.972 118.481C48.2552 118.543 46.5328 118.341 44.8216 118.599C44.2045 118.47 43.5817 118.375 42.9814 118.206C42.6055 118.1 42.1791 117.937 42.4484 117.376H42.4428Z" fill="#FF631F"/>
<path d="M33.2866 103.696C36.0581 103.887 38.8353 103.971 41.59 104.381C46.8245 105.161 51.9469 106.351 56.9233 108.164C56.985 108.186 57.0636 108.17 57.1197 108.203C57.417 108.355 57.8434 108.473 57.7032 108.905C57.5517 109.36 57.1814 109.174 56.8504 109.062C55.5656 108.636 54.2808 108.203 52.9792 107.816C46.7741 105.964 40.4511 104.813 33.9598 104.672C33.5222 104.661 33.0846 104.774 32.647 104.83C32.3104 104.15 32.4001 103.993 33.281 103.696H33.2866Z" fill="#FF631F"/>
<path d="M28.557 89.5108C28.4279 90.1114 29.0058 90.0104 29.2471 90.1114C34.7509 92.3848 40.2828 94.5741 45.91 96.5275C46.4206 96.7071 46.9255 96.9036 47.4305 97.1001C47.6885 97.2011 47.9971 97.3134 47.8737 97.6614C47.7615 97.9926 47.4361 97.9533 47.1724 97.8635C45.7978 97.3976 44.412 96.9373 43.0487 96.4321C37.5 94.3832 31.9345 92.3736 26.5541 89.8925C26.3296 89.7915 26.094 89.5557 25.8528 89.8757H25.8696C25.8584 89.3873 25.5442 89.3256 25.1571 89.3705C24.5006 88.9888 23.7601 88.7081 23.2495 87.6415C24.8934 88.2702 26.2791 88.7979 27.6705 89.3256C27.9118 89.6062 28.1755 89.7858 28.5401 89.5389L28.5514 89.5052L28.557 89.5108Z" fill="#FF631F"/>
<path d="M29.7072 69.1118C29.5782 69.8584 30.3075 70.0324 30.6666 70.3636C33.5952 73.0804 36.3836 75.9601 39.5703 78.3851C41.332 79.7267 43.1554 80.9841 44.9395 82.292C45.2256 82.5053 45.8652 82.6456 45.4837 83.1677C45.1583 83.6111 44.7544 83.2013 44.4234 82.9824C39.3459 79.7042 34.8688 75.7019 30.56 71.4975C29.2303 70.2008 27.8445 68.9658 26.4868 67.7084C27.435 67.787 28.2317 68.2305 29.0059 68.7357C29.1742 68.9995 29.2752 69.3756 29.724 69.123V69.1062L29.7072 69.1118Z" fill="#FF631F"/>
<path d="M75.4714 73.479C74.8093 75.2416 74.3324 77.0716 73.5189 78.7837C71.948 82.0731 69.7207 84.891 67.2745 87.5517C66.0346 88.8989 64.7442 90.2125 63.6502 91.6888C63.4819 91.9189 63.3472 92.3119 62.9489 92.0817C62.5057 91.8291 62.7581 91.4867 62.932 91.206C63.8409 89.7522 65.0528 88.5509 66.2141 87.316C69.1933 84.15 71.8582 80.7876 73.3843 76.6562C73.6031 76.0612 73.9004 75.4774 73.8724 74.815C74.1249 74.1302 74.6803 73.6586 75.146 73.1478C75.5331 72.7268 75.3928 73.3218 75.4826 73.4734L75.4714 73.479Z" fill="#FF631F"/>
<path d="M44.4067 127.446C49.2541 128.703 54.2025 129.551 58.9658 131.14C60.503 131.65 62.0291 132.2 63.5607 132.722C63.8637 132.824 64.2228 132.913 64.133 133.289C64.032 133.727 63.6 133.682 63.2858 133.581C62.0964 133.194 60.9238 132.762 59.7456 132.358C54.6626 130.623 49.3888 129.635 44.1711 128.406C44.0196 128.372 43.8457 128.417 43.6774 128.428L43.711 128.417C43.6942 128.282 43.6157 128.226 43.4866 128.226C43.2903 127.581 43.4642 127.435 44.3955 127.452L44.4067 127.446Z" fill="#FF631F"/>
<path d="M93.2453 110.578C91.9942 114.008 90.687 117.409 88.8636 120.586C87.7808 122.472 86.7484 124.387 85.4917 126.177C84.3808 127.76 83.3485 129.399 82.7763 131.28C82.6865 131.577 82.5911 132.026 82.1142 131.824C81.6822 131.645 81.8505 131.246 81.9515 130.932C82.3891 129.568 82.9726 128.271 83.7974 127.092C85.1046 125.223 86.2659 123.264 87.4049 121.288C87.5002 121.12 87.6686 120.957 87.461 120.76V120.788C87.6966 120.839 87.6517 120.676 87.6517 120.547C89.6546 117.533 91.5846 114.479 92.6282 110.959C92.8133 110.336 92.8414 110.342 93.2397 110.583L93.2453 110.578Z" fill="#FF631F"/>
<path d="M87.2027 101.652C86.7595 103.494 85.7945 105.099 84.7678 106.643C83.0566 109.225 81.2108 111.717 79.4154 114.243C78.2653 115.86 77.4013 117.628 76.6326 119.447C76.4924 119.772 76.4419 120.311 75.9426 120.12C75.4432 119.924 75.7799 119.469 75.8921 119.149C76.4194 117.6 77.1095 116.118 78.0296 114.771C79.4491 112.688 80.7787 110.544 82.3833 108.591C83.3371 107.429 84.0496 106.104 84.8126 104.813C84.8912 104.678 85.009 104.521 84.8014 104.381V104.409C85.0651 104.386 84.9697 104.201 84.9753 104.061C85.8001 103.331 86.2152 102.231 87.2027 101.652Z" fill="#FF631F"/>
<path d="M68.0995 60.9331C67.1738 66.4118 64.1498 70.807 60.8509 75.0676C60.4132 75.6345 60.0317 76.2408 59.5997 76.8077C59.3922 77.0828 59.1004 77.3915 58.7526 77.1333C58.3767 76.8526 58.6852 76.5663 58.8816 76.2801C60.7555 73.5239 62.9884 71.0147 64.5481 68.0396C65.6646 65.9122 66.7138 63.7566 66.955 61.3148C66.8933 60.8601 67.0167 60.383 67.4319 60.2651C67.7685 60.1641 68.0827 60.5009 68.0995 60.9331Z" fill="#FF631F"/>
<path d="M80.8408 89.7465C80.061 90.5212 79.5953 91.5204 78.9782 92.4073C76.9528 95.315 74.3327 97.7007 72.0212 100.356C71.3985 101.069 70.8543 101.86 70.2988 102.629C70.1081 102.893 69.9229 103.179 69.5751 102.994C69.1767 102.775 69.4236 102.455 69.5751 102.203C70.4503 100.698 71.6061 99.4071 72.8067 98.161C75.2304 95.6406 77.6036 93.0809 79.455 90.089C79.8814 89.3985 80.3359 88.7249 80.4874 87.8997C80.493 87.3889 81.0484 87.271 81.2223 86.85C81.1943 87.8492 81.3682 88.8484 80.8408 89.7465Z" fill="#FF631F"/>
<path d="M28.5459 89.5445C28.1756 89.7914 27.9119 89.6118 27.6763 89.3311C28.0073 89.2245 28.2934 89.3311 28.5459 89.5445Z" fill="#FF631F"/>
<path d="M25.1572 89.376C25.5443 89.3311 25.8585 89.3873 25.8698 89.8756C25.5836 89.7802 25.3368 89.6286 25.1572 89.376Z" fill="#FF631F"/>
<path d="M29.7128 69.1287C29.2639 69.3813 29.1629 68.9995 28.9946 68.7413C29.2808 68.7862 29.5388 68.8817 29.7128 69.1287Z" fill="#FF631F"/>
<path d="M23.0869 87.5854C23.0532 87.6247 23.0252 87.6696 22.9859 87.6976C22.9691 87.7089 22.9017 87.6864 22.9017 87.6696C22.8961 87.6247 22.9017 87.5741 22.9073 87.5292C22.9691 87.5461 23.0252 87.5685 23.0869 87.5854Z" fill="#FF631F"/>
<path d="M87.3656 101.417C87.3936 101.551 87.3431 101.63 87.2029 101.653C87.1692 101.512 87.2309 101.439 87.3656 101.417Z" fill="#FF631F"/>
<path d="M84.9754 104.061C84.9754 104.201 85.0652 104.392 84.8071 104.409C84.8632 104.291 84.9193 104.179 84.9754 104.061Z" fill="#FF631F"/>
<path d="M26.47 67.7028C26.3971 67.6467 26.3242 67.5906 26.2456 67.5344C26.3859 67.5008 26.4644 67.5569 26.47 67.7028Z" fill="#FF631F"/>
<path d="M43.4976 128.221C43.6266 128.221 43.7051 128.277 43.722 128.411C43.5088 128.507 43.5368 128.322 43.4976 128.221Z" fill="#FF631F"/>
<path d="M87.6519 120.536C87.6519 120.665 87.6968 120.828 87.4667 120.777C87.4331 120.62 87.5116 120.553 87.6519 120.536Z" fill="#FF631F"/>
<path d="M76.4253 135.832C75.2303 135.692 73.9847 135.585 72.7561 135.394C71.4601 135.198 70.1697 134.929 68.8849 134.676C68.5258 134.603 68.0377 134.541 68.1443 134.036C68.2565 133.536 68.7222 133.688 69.0756 133.761C71.4825 134.277 73.9062 134.67 76.3523 134.934C76.6834 134.968 77.0032 134.973 77.048 135.355C77.0929 135.759 76.6946 135.675 76.4253 135.832Z" fill="#FF631F"/>
<path d="M56.9235 79.9232C56.7889 80.6024 56.3513 81.2199 56.0427 81.8878C55.7902 82.4436 55.4985 82.9825 55.2179 83.5269C55.0945 83.7683 54.9823 84.0714 54.6232 83.9255C54.2642 83.7795 54.2249 83.4933 54.3876 83.1677C54.8364 82.2583 55.2853 81.3433 55.7341 80.434C55.8688 80.1589 55.981 79.8783 56.1437 79.62C56.2278 79.4853 56.3737 79.3506 56.5644 79.4011C56.7889 79.4573 56.8842 79.6369 56.9291 79.9288L56.9235 79.9232Z" fill="#FF631F"/>
<path d="M55.6329 98.7729C55.6217 99.2219 55.3692 99.3903 55.0326 99.3566C53.8937 99.2556 52.7716 99.0367 51.6607 98.7392C51.4195 98.6718 51.2231 98.5203 51.2736 98.2284C51.3129 97.9926 51.5148 97.8523 51.7112 97.8803C52.9399 98.0768 54.1574 98.3013 55.3804 98.5315C55.487 98.5539 55.5656 98.6999 55.6329 98.7672V98.7729Z" fill="#FF631F"/>
<path d="M68.4471 105.84C68.4639 106.272 68.1834 106.671 68.0151 107.097C67.7514 107.749 67.4821 108.4 67.1848 109.04C67.0894 109.253 66.9099 109.455 66.6237 109.32C66.3713 109.202 66.2983 108.989 66.3993 108.731C66.8033 107.664 67.2128 106.603 67.628 105.543C67.7122 105.318 67.9197 105.273 68.1329 105.307C68.391 105.352 68.3798 105.587 68.4527 105.834L68.4471 105.84Z" fill="#FF631F"/>
<path d="M62.2982 93.4064C62.3543 93.7376 61.0752 96.1065 60.8227 96.1907C60.5253 96.2917 60.3795 96.1514 60.3234 95.8651C60.256 95.5058 61.322 93.3447 61.6699 93.1931C61.956 93.0696 62.2029 93.1033 62.2982 93.4064Z" fill="#FF631F"/>
<path d="M61.9503 110.752C61.6305 110.836 59.4873 110.095 59.3022 109.837C59.1956 109.685 59.1563 109.534 59.2741 109.371C59.4088 109.186 59.5939 109.118 59.8071 109.186C60.5084 109.405 61.2153 109.623 61.9054 109.876C62.113 109.949 62.343 110.101 62.2813 110.404C62.2421 110.583 62.1186 110.696 61.9447 110.746L61.9503 110.752Z" fill="#FF631F"/>
<path d="M48.833 84.745C48.8891 84.9808 48.7994 85.1323 48.575 85.2109C48.2383 85.3232 47.0433 84.7226 46.9535 84.3858C46.8806 84.1107 46.9928 83.9198 47.2453 83.83C47.5539 83.7178 48.7489 84.4194 48.833 84.745Z" fill="#FF631F"/>
<path d="M85.6376 30.5086C87.1524 31.0531 88.5214 31.5808 88.5045 31.6931L90.6253 26.6354C88.5494 32.681 88.8075 39.0017 90.9451 44.587L89.2058 40.332L85.935 41.8196C83.8759 42.757 82.967 45.182 83.904 47.2365L85.2673 50.2452C86.2099 52.3222 88.6672 53.2316 90.7263 52.2604C92.1794 51.5756 93.5203 50.9806 93.5932 51.0704L91.3658 45.6198C93.279 50.0432 96.3872 53.9501 100.455 56.7904L100.191 56.6782L98.9287 60.0462C98.1376 62.1624 99.2036 64.52 101.319 65.3171L104.41 66.4791C106.542 67.2818 108.926 66.1872 109.695 64.0429C110.239 62.5273 110.767 61.1576 110.879 61.1745L110.61 61.0622C113.707 61.6516 116.82 61.6628 119.828 61.1576L121 63.7454C121.937 65.8055 124.361 66.7149 126.414 65.7774L129.421 64.4134C131.497 63.4703 132.406 61.0117 131.436 58.9516C131.054 58.1433 130.706 57.3742 130.482 56.8353C133.107 55.0222 135.419 52.7263 137.27 50.0095L139.223 50.7392C141.338 51.5307 143.694 50.4642 144.491 48.3479L145.652 45.255C146.455 43.1219 145.361 40.7362 143.217 39.9672C142.595 39.7426 142.006 39.5237 141.517 39.3329C142.05 35.9873 141.916 32.6361 141.198 29.4365L142.92 28.6506C144.979 27.7132 145.888 25.2882 144.951 23.2337L143.588 20.2249C142.645 18.148 140.188 17.2386 138.129 18.2097C137.456 18.5241 136.816 18.8216 136.311 19.0405C134.359 16.5145 131.929 14.3309 129.102 12.6244L129.926 10.424C130.717 8.30776 129.651 5.95015 127.536 5.15305L124.445 3.99108C122.313 3.18837 119.929 4.28298 119.16 6.42728C118.773 7.49944 118.403 8.48739 118.172 8.97575C115.12 8.66702 112.08 8.90839 109.173 9.63252L107.855 6.72479C106.918 4.66469 104.494 3.75532 102.441 4.69275L99.4336 6.0568C97.3578 6.99985 96.4489 9.4585 97.4195 11.5186C98.104 12.9725 98.6987 14.3141 98.6089 14.387L100.337 13.6798C96.8977 16.1047 94.014 19.3661 92.0279 23.3067L92.9985 20.994L89.6322 19.731C87.5171 18.9395 85.1607 20.006 84.364 22.1223L83.2027 25.2152C82.4004 27.3483 83.4944 29.734 85.6376 30.503V30.5086ZM121.157 20.152C129.444 23.2618 133.657 32.5407 130.543 40.8316C127.435 49.1226 118.161 53.3382 109.875 50.2228C101.588 47.113 97.3746 37.8341 100.488 29.5431C103.597 21.2522 112.871 17.0366 121.157 20.152Z" fill="#FF631F"/>
<path d="M282.036 175.311C282.053 178.645 279.102 181.368 275.427 181.385L63.4593 182.564C59.7957 182.586 56.7997 179.897 56.7829 176.563L56.0816 50.7616C56.0648 47.4273 59.0215 44.7048 62.6907 44.688L274.658 43.5092C278.333 43.4867 281.318 46.1755 281.335 49.5099L282.036 175.311Z" fill="#FF631F"/>
<path d="M271.783 54.9098L65.7148 56.0613L66.3542 170.6L272.422 169.449L271.783 54.9098Z" fill="#CCD5D8"/>
<path d="M294.531 205.275C294.57 212.124 289.526 217.703 283.293 217.737L55.9808 219C49.7476 219.034 44.6814 213.51 44.6421 206.662L294.531 205.27V205.275Z" fill="#FF631F"/>
<path d="M294.531 205.275L44.6421 206.667L54.2023 187.778C55.8068 184.601 59.0553 182.592 62.6179 182.575L276.28 181.385C279.837 181.362 283.108 183.338 284.752 186.493L294.536 205.275H294.531Z" fill="#FF631F"/>
<path d="M207.255 203.602C174.563 203.782 158.208 203.877 125.5 204.057C127.334 200.111 128.237 198.135 130.078 194.189C159.072 194.026 173.592 193.947 202.576 193.785C204.449 197.708 205.381 199.679 207.255 203.602Z" fill="#FF631F"/>
<g style="mix-blend-mode:multiply">
<path d="M256.329 77.8406H81.166V164.752H256.329V77.8406Z" fill="#CCD5D8"/>
</g>
<path d="M256.329 68.9883H81.166V77.835H256.329V68.9883Z" fill="white"/>
<path d="M89.8062 73.0018C89.8118 74.0908 88.931 74.9777 87.8426 74.9889C86.7541 74.9946 85.8677 74.1133 85.8565 73.0243C85.8509 71.9353 86.7261 71.0484 87.8201 71.0371C88.9085 71.0315 89.795 71.9128 89.8062 73.0018Z" fill="#FF631F"/>
<path d="M94.9903 72.9737C94.9959 74.0627 94.1151 74.9496 93.0266 74.9609C91.9326 74.9665 91.0518 74.0908 91.0406 72.9962C91.0349 71.9072 91.9102 71.0203 93.0042 71.0091C94.0926 71.0034 94.9791 71.8847 94.9903 72.9737Z" fill="#FF631F"/>
<path d="M100.174 72.9457C100.18 74.0347 99.2992 74.9216 98.2107 74.9328C97.1167 74.9384 96.2359 74.0571 96.2246 72.9681C96.219 71.8791 97.0943 70.9922 98.1883 70.981C99.2767 70.9754 100.163 71.8511 100.174 72.9457Z" fill="#FF631F"/>
<path d="M211.67 144.308H127.502V158.847H211.67V144.308Z" fill="white"/>
<path d="M211.67 123.842H127.502V138.381H211.67V123.842Z" fill="white"/>
<mask id="mask0_83_1480" style="mask-type:luminance" maskUnits="userSpaceOnUse" x="154" y="85" width="32" height="32">
<path d="M173.811 86.328C182.064 88.7081 186.861 97.1955 184.533 105.279C182.199 113.362 173.62 117.982 165.367 115.602C157.114 113.216 152.318 104.734 154.646 96.651C156.98 88.5677 165.558 83.9479 173.811 86.3336V86.328Z" fill="white"/>
</mask>
<g mask="url(#mask0_83_1480)">
<path opacity="0.62" d="M173.811 86.328C182.064 88.7081 186.861 97.1955 184.533 105.279C182.199 113.362 173.62 117.982 165.367 115.602C157.114 113.216 152.318 104.734 154.646 96.651C156.98 88.5677 165.558 83.9479 173.811 86.3336V86.328Z" fill="#FF631F"/>
<path d="M182.979 125.217L176.498 109.36C176.398 109.113 176.246 108.894 176.072 108.714C176.072 108.714 174.63 106.525 169.586 106.525C164.543 106.525 163.101 108.714 163.101 108.714C162.921 108.894 162.775 109.113 162.674 109.36L156.194 125.217C155.774 126.25 156.262 127.429 157.3 127.85C157.546 127.951 157.81 128.002 158.063 128.002C158.854 128.002 159.611 127.53 159.925 126.75L163.432 118.184L163.897 129.59L162.674 148.142C162.585 149.574 163.662 150.809 165.092 150.904C165.154 150.904 165.205 150.91 165.266 150.91C166.619 150.91 167.763 149.854 167.853 148.485L168.863 130.314C168.863 130.314 168.863 129.59 169.581 129.59C170.299 129.59 170.305 130.314 170.305 130.314L171.314 148.485C171.404 149.854 172.549 150.91 173.901 150.91C173.963 150.91 174.013 150.91 174.075 150.904C175.505 150.809 176.588 149.574 176.493 148.142L175.27 129.59L175.735 118.184L179.242 126.75C179.556 127.53 180.314 128.002 181.11 128.002C181.363 128.002 181.621 127.951 181.868 127.85C182.9 127.429 183.394 126.25 182.973 125.217H182.979Z" fill="white"/>
<path d="M169.586 104.358C172.375 104.358 174.63 102.096 174.63 99.3117C174.63 96.5275 172.375 94.2653 169.586 94.2653C166.798 94.2653 164.548 96.5275 164.548 99.3117C164.548 102.096 166.804 104.358 169.586 104.358Z" fill="white"/>
</g>
<path d="M136.07 154.048C138.858 154.048 138.864 149.709 136.07 149.709C133.276 149.709 133.276 154.048 136.07 154.048Z" fill="#FF631F"/>
<path d="M145.759 154.048C148.547 154.048 148.553 149.709 145.759 149.709C142.965 149.709 142.965 154.048 145.759 154.048Z" fill="#FF631F"/>
<path d="M155.448 154.048C158.236 154.048 158.242 149.709 155.448 149.709C152.654 149.709 152.654 154.048 155.448 154.048Z" fill="#FF631F"/>
<path d="M165.132 154.048C167.92 154.048 167.926 149.709 165.132 149.709C162.338 149.709 162.338 154.048 165.132 154.048Z" fill="#FF631F"/>
<path d="M174.821 154.048C177.609 154.048 177.615 149.709 174.821 149.709C172.027 149.709 172.027 154.048 174.821 154.048Z" fill="#FF631F"/>
<path d="M184.505 154.048C187.293 154.048 187.299 149.709 184.505 149.709C181.711 149.709 181.711 154.048 184.505 154.048Z" fill="#FF631F"/>
<path d="M194.194 154.048C196.982 154.048 196.988 149.709 194.194 149.709C191.4 149.709 191.4 154.048 194.194 154.048Z" fill="#FF631F"/>
<path d="M203.877 154.048C206.666 154.048 206.671 149.709 203.877 149.709C201.083 149.709 201.083 154.048 203.877 154.048Z" fill="#FF631F"/>
<path d="M136.07 133.8C138.858 133.8 138.864 129.461 136.07 129.461C133.276 129.461 133.276 133.8 136.07 133.8Z" fill="#FF631F"/>
<path d="M145.759 133.8C148.547 133.8 148.553 129.461 145.759 129.461C142.965 129.461 142.965 133.8 145.759 133.8Z" fill="#FF631F"/>
<path d="M155.448 133.8C158.236 133.8 158.242 129.461 155.448 129.461C152.654 129.461 152.654 133.8 155.448 133.8Z" fill="#FF631F"/>
<path d="M165.132 133.8C167.92 133.8 167.926 129.461 165.132 129.461C162.338 129.461 162.338 133.8 165.132 133.8Z" fill="#FF631F"/>
<path d="M174.821 133.8C177.609 133.8 177.615 129.461 174.821 129.461C172.027 129.461 172.027 133.8 174.821 133.8Z" fill="#FF631F"/>
<path d="M184.505 133.8C187.293 133.8 187.299 129.461 184.505 129.461C181.711 129.461 181.711 133.8 184.505 133.8Z" fill="#FF631F"/>
<path d="M194.194 133.8C196.982 133.8 196.988 129.461 194.194 129.461C191.4 129.461 191.4 133.8 194.194 133.8Z" fill="#FF631F"/>
<path d="M203.877 133.8C206.666 133.8 206.671 129.461 203.877 129.461C201.083 129.461 201.083 133.8 203.877 133.8Z" fill="#FF631F"/>
<mask id="mask1_83_1480" style="mask-type:luminance" maskUnits="userSpaceOnUse" x="65" y="17" width="208" height="154">
<path d="M271.57 17.7224L65.502 18.8739L66.3489 170.601L272.417 169.449L271.57 17.7224Z" fill="white"/>
</mask>
<g mask="url(#mask1_83_1480)">
<path d="M126.173 146.666C126.173 146.666 129.102 142.17 139.795 129.399C147.644 120.031 157.53 103.499 157.53 103.499L160.015 104.639C160.015 104.639 152.413 138.645 138.987 155.238C135.806 159.167 130.325 156.321 127.065 152.448C125.085 150.09 126.173 146.666 126.173 146.666Z" fill="#E39B68"/>
<path d="M155.319 107.103C151.959 112.497 145.366 122.753 139.795 129.405C129.102 142.175 126.173 146.672 126.173 146.672C126.173 146.672 125.09 150.096 127.065 152.453C130.319 156.327 135.801 159.173 138.987 155.243C149.384 142.4 156.284 119.116 158.871 109.253C157.659 108.574 156.475 107.855 155.319 107.103Z" fill="#FF631F"/>
<path d="M159.112 108.332C159.706 106.014 160.015 104.644 160.015 104.644L157.53 103.505C157.53 103.505 156.89 104.577 155.807 106.323C156.884 107.03 157.99 107.698 159.112 108.338V108.332Z" fill="#E39B68"/>
<path d="M85.5702 105.284C84.3864 108.809 90.3896 114.271 98.3171 125.004C106.239 135.737 123.183 153.127 128.647 156.967C135.267 161.62 142.185 155.479 133.573 145.1C127.273 137.505 103.883 109.753 99.3943 105.559C93.3912 99.946 85.5758 105.284 85.5758 105.284H85.5702Z" fill="#FF631F"/>
<path d="M164.481 93.1594C164.374 93.064 164.245 92.9966 164.099 92.9517C163.286 92.7103 162.534 93.412 161.995 94.0463C161.199 94.9893 160.43 96.0054 159.589 96.926C159.128 97.4312 158.298 97.3189 157.978 96.7239C157.17 95.2419 156.75 92.7159 156.778 91.5483C156.8 90.4537 157.569 87.6807 156.245 87.0015C156.233 87.0015 156.228 86.9903 156.217 86.9847C155.566 86.6647 154.764 87.1924 154.792 87.8884C154.803 88.1186 154.808 88.3936 154.808 88.7024C154.808 88.8595 154.764 89.0111 154.685 89.1514C154.158 90.1057 153.574 91.902 153.799 93.9902C153.81 94.1193 153.799 94.2596 153.754 94.3831C153.097 96.2074 153.058 97.9251 153.26 99.0254C153.434 99.9852 154.472 106.081 155.061 107.518C155.173 107.793 157.9 107.833 157.9 107.833C158.169 107.889 158.562 106.935 159.807 105.015C159.807 105.015 160.688 102.438 161.294 100.524C161.962 98.4135 164.077 96.8025 164.84 94.8322C165.059 94.2652 164.93 93.5411 164.486 93.1594H164.481Z" fill="#E39B68"/>
<path d="M82.8491 173.975C72.4586 172.572 39.8844 169.978 40.4006 169.524C43.5649 166.723 53.1363 123.331 53.7254 116.786C53.9498 114.288 54.9765 109.657 57.0972 103.988C60.0315 96.1569 75.045 99.1432 75.2582 99.1713C75.6677 99.2274 91.1076 100.558 91.6294 100.726C93.7333 101.4 98.3283 103.533 98.289 105.851C97.8738 128.922 83.4438 174.059 82.8491 173.975Z" fill="#E39B68"/>
<path d="M155.319 107.103C151.958 112.497 145.366 122.753 139.795 129.405C135.436 134.609 132.367 138.437 130.263 141.148C121.427 130.601 103.288 109.208 99.3888 105.565C99.0353 105.234 98.6762 104.942 98.3116 104.684C98.306 104.616 98.3004 104.549 98.2891 104.482C98.2891 104.482 94.4909 100.956 90.4626 100.49C90.4626 100.49 90.2999 101.742 89.924 103.398C87.3768 104.055 85.5703 105.29 85.5703 105.29C85.1215 106.626 85.7105 108.248 87.0458 110.331C87.0122 110.37 86.9729 110.415 86.9392 110.449C84.336 113.188 81.0988 114.131 78.0018 112.037C75.6511 110.449 73.9118 106.632 74.4729 103.864C74.8263 102.118 76.1728 98.6942 76.1728 98.6942C76.1728 98.6998 62.8144 96.9597 56.8786 101.125C53.1476 101.776 48.5695 105.919 46.6059 108.321C41.6462 114.406 37.5226 121.063 33.4887 127.738C30.6218 132.481 27.2611 137.23 25.146 142.439C23.5638 146.324 20.6408 156.136 26.1839 158.241C29.668 159.566 33.4999 156.837 35.0652 153.834C37.1916 149.753 43.9185 140.256 50.1909 131.184C47.9075 137.595 45.063 143.949 43.1723 150.057C41.5901 155.176 37.9546 169.479 38.179 169.552C40.2493 170.22 44.8722 170.843 47.0154 171.185C51.6609 171.921 56.34 172.443 61.0191 172.931C69.6647 173.835 78.3777 174.362 86.9897 175.524C87.4442 175.586 95.4334 148.3 97.9188 124.488C98.0479 124.662 98.1769 124.83 98.306 125.01C106.228 135.742 123.171 153.133 128.636 156.972C131.834 159.218 135.094 158.942 136.648 156.894C137.5 156.619 138.297 156.085 138.982 155.243C149.378 142.4 156.279 119.116 158.865 109.253C157.653 108.574 156.469 107.855 155.314 107.103H155.319Z" fill="#212057"/>
<g style="mix-blend-mode:multiply">
<path d="M101.291 107.513C100.494 106.654 99.8375 105.986 99.3886 105.565C99.0352 105.234 98.6761 104.942 98.3114 104.684C98.3058 104.616 98.3002 104.549 98.289 104.482C98.289 104.482 94.4907 100.956 90.4624 100.49C90.4624 100.49 90.2997 101.742 89.9238 103.398C87.3767 104.055 85.5702 105.29 85.5702 105.29C85.3457 105.958 85.3794 106.688 85.6375 107.518H101.296L101.291 107.513Z" fill="#212057"/>
</g>
<g style="mix-blend-mode:multiply">
<path d="M97.7505 126.099C97.8122 125.56 97.8739 125.021 97.9244 124.488C98.0535 124.662 98.1825 124.83 98.3115 125.01C98.5752 125.363 98.8501 125.728 99.1307 126.099H117.538C114.217 122.209 110.873 118.313 107.933 114.951H41.6518C39.1271 118.582 36.7876 122.332 34.4985 126.099H97.7561H97.7505Z" fill="#212057"/>
</g>
<g style="mix-blend-mode:multiply">
<path d="M153.715 126.099C155.145 122.046 156.34 118.217 157.294 114.951H150.287C147.874 118.599 145.114 122.596 142.432 126.099H153.715Z" fill="#212057"/>
</g>
<g style="mix-blend-mode:multiply">
<path d="M95.3829 141.709C95.8766 139.021 96.3423 136.281 96.7574 133.531H49.3381C48.3114 136.276 47.2117 139.009 46.1626 141.709H95.3829Z" fill="#212057"/>
</g>
<g style="mix-blend-mode:multiply">
<path d="M91.9156 158.061C92.5776 155.283 93.2564 152.285 93.9185 149.142H43.4751C43.3741 149.445 43.2731 149.753 43.1778 150.057C42.6055 151.898 41.7752 154.929 40.9448 158.061H91.91H91.9156Z" fill="#212057"/>
</g>
<g style="mix-blend-mode:multiply">
<path d="M39.0544 165.493C38.4765 167.868 38.1062 169.529 38.1848 169.552C40.255 170.22 44.878 170.843 47.0212 171.185C51.6667 171.921 56.3457 172.443 61.0248 172.931C69.6705 173.835 78.3835 174.362 86.9955 175.524C87.1694 175.547 88.4206 171.646 90.0476 165.493H39.0544Z" fill="#212057"/>
</g>
<g style="mix-blend-mode:multiply">
<path d="M147.274 141.709C148.575 139.037 149.787 136.281 150.903 133.531H136.367C133.764 136.702 131.766 139.211 130.263 141.148C128.451 138.987 126.246 136.36 123.85 133.531H105.229C107.574 136.236 110.104 139.026 112.629 141.709H147.279H147.274Z" fill="#212057"/>
</g>
<g style="mix-blend-mode:multiply">
<path d="M130.667 158.061H135.24C135.795 157.786 136.272 157.393 136.653 156.894C137.506 156.619 138.303 156.085 138.987 155.243C140.48 153.402 141.899 151.342 143.24 149.142H119.884C123.592 152.79 126.779 155.664 128.642 156.972C129.321 157.449 129.999 157.803 130.667 158.061Z" fill="#212057"/>
</g>
<g style="mix-blend-mode:multiply">
<path d="M74.8151 107.513C74.3999 106.267 74.2484 104.981 74.4784 103.864C74.8319 102.118 76.1784 98.6942 76.1784 98.6942C76.1784 98.6998 62.82 96.9597 56.8841 101.125C53.5459 101.709 49.5289 105.088 47.3184 107.513H74.8207H74.8151Z" fill="#212057"/>
</g>
<path d="M76.5208 104.055C80.4874 113.182 89.133 112.144 89.3518 103.898L91.8597 90.0047L79.6626 87.1026L76.3469 102.169C76.2066 102.803 76.2627 103.46 76.5208 104.066V104.055Z" fill="#E39B68"/>
<g style="mix-blend-mode:multiply" opacity="0.64">
<path fill-rule="evenodd" clip-rule="evenodd" d="M88.8859 106.138L79.1519 89.2132L79.769 86.6535L92.9591 89.1739L89.778 102.332L88.8859 106.138Z" fill="#E39B68"/>
</g>
<path d="M78.041 46.4113C82.6921 44.4017 91.478 45.3279 96.1515 46.0745C100.365 46.7481 103.922 48.9036 106.25 51.817C108.803 54.8482 109.734 58.3172 109.992 62.0838C110.105 63.7173 109.403 64.4695 109.05 66.7373C108.646 69.3194 106.093 73.8775 107.681 76.9368C108.259 78.0482 108.377 85.3905 104.197 90.9478C103.159 92.3343 102.749 94.9725 101.566 96.2243C100.578 97.2684 99.9441 97.7006 98.39 97.7624C96.2525 97.8522 94.0981 97.4087 92.0054 97.0607C91.8483 97.0345 91.6164 96.9971 91.3097 96.9484C90.1988 96.7688 90.6701 97.0326 89.649 96.5723C81.8505 94.995 76.846 85.9238 76.1279 77.5992L72.4082 57.5875C72.2791 53.1585 73.8556 48.2188 78.0466 46.4057L78.041 46.4113Z" fill="#E39B68"/>
<g style="mix-blend-mode:multiply" opacity="0.58">
<path d="M99.2318 73.3274L101.661 82.8308L98.2275 82.6175L99.2318 73.3274Z" fill="#E39B68"/>
</g>
<g style="mix-blend-mode:multiply" opacity="0.95">
<path d="M97.5147 69.1229L87.3711 65.4574L87.9602 63.4984L95.6633 65.0589C96.157 65.1599 96.6339 65.2666 97.0098 65.3564C97.4923 65.4686 97.8065 65.9065 97.7672 66.3836L97.5204 69.1173L97.5147 69.1229Z" fill="#212057"/>
</g>
<g style="mix-blend-mode:multiply" opacity="0.95">
<path d="M103.053 69.4261L102.637 67.5288C102.217 66.7317 102.828 65.7886 103.759 65.8111L109.286 65.9458L108.753 68.2922L103.053 69.4261Z" fill="#212057"/>
</g>
<path d="M95.0911 38.6985C92.3756 38.822 89.6602 38.9679 86.9616 38.9455C84.0441 38.9287 79.0901 38.6368 76.9021 40.9046C76.6103 41.2077 74.8767 43.7562 76.3579 43.9189C76.3579 43.9189 74.1081 43.6663 73.6087 43.8853C68.1273 46.299 65.0697 55.6958 64.0654 60.731C63.3978 64.0822 63.8803 67.5175 65.1482 70.7509C67.095 75.7187 70.8821 80.2094 75.1628 83.1564L78.7367 85.6151C78.7367 85.6151 74.7589 75.8253 78.2934 76.0892C76.7169 75.9713 79.9205 66.2545 80.1729 65.6146C81.6821 61.7133 83.1521 57.4865 81.7382 53.3382C80.9023 53.4448 80.6049 52.7095 84.6052 54.0848C87.8312 55.1962 104.012 62.9539 111.485 59.6588C119.137 56.2852 118.935 45.8724 112.932 41.1628C108.169 37.4243 100.819 38.4403 95.1023 38.6929L95.0911 38.6985Z" fill="#212057"/>
<path d="M78.8322 73.3218C79.8141 76.673 78.7032 79.7772 76.3524 80.2599C74.0017 80.7427 71.3031 78.4131 70.3212 75.0619C69.3394 71.7108 70.4503 68.6066 72.801 68.1238C75.1518 67.6411 77.8504 69.9706 78.8322 73.3218Z" fill="#E39B68"/>
<g style="mix-blend-mode:multiply">
<path fill-rule="evenodd" clip-rule="evenodd" d="M76.5038 71.6209C76.3019 70.8575 75.9764 70.1952 75.1068 69.791C74.2372 69.3868 72.7953 69.4991 72.1501 71.9914C71.5049 74.4838 72.7729 77.0771 74.226 77.1164C74.6861 77.1277 75.0788 76.5832 75.4098 75.831C74.6412 75.3931 74.3606 74.3378 74.7983 73.3723C75.1237 72.6482 75.7633 72.1711 76.4253 72.0812C76.4758 71.8006 76.4982 71.6266 76.4982 71.6266L76.5038 71.6209Z" fill="#E39B68"/>
</g>
<path d="M64.3628 67.4502C64.3628 67.4502 73.8388 69.2409 82.7145 67.2762C90.2213 65.6146 93.5763 66.0469 97.9917 68.7413C97.9917 68.7413 101.077 70.0885 103.653 67.4783C103.653 67.4783 107.872 67.192 108.343 70.0267C108.343 70.0267 107.485 74.0571 107.636 77.5094C107.636 77.5094 103.871 78.8004 101.521 75.4436C101.521 75.4436 98.2273 74.669 97.0548 75.9601C97.0548 75.9601 92.1176 78.5422 85.0597 74.4108L75.1124 70.2625L64.3628 69.7685V67.4446V67.4502Z" fill="#FF631F"/>
<g style="mix-blend-mode:multiply">
<g style="mix-blend-mode:multiply">
<path d="M92.6004 72.3058C92.275 73.1422 91.3549 73.5856 90.547 73.2937C89.7334 73.0018 89.3407 72.0869 89.6605 71.2505C89.9859 70.4141 90.906 69.9706 91.7139 70.2625C92.5274 70.5544 92.9202 71.4694 92.6004 72.3058Z" fill="#212057"/>
</g>
</g>
<g style="mix-blend-mode:multiply">
<g style="mix-blend-mode:multiply">
<path d="M106.256 73.4621C105.953 74.2424 105.1 74.6522 104.343 74.3827C103.585 74.1133 103.221 73.26 103.518 72.4798C103.821 71.6995 104.674 71.2898 105.431 71.5592C106.189 71.8286 106.553 72.6819 106.256 73.4621Z" fill="#212057"/>
</g>
</g>
<g style="mix-blend-mode:multiply">
<path d="M94.3898 85.1267C95.1472 86.2045 96.2918 86.9623 97.5597 87.3159C98.2049 87.4955 98.8838 87.591 99.557 87.5573C100.23 87.5236 100.96 87.4169 101.549 87.0914C101.857 86.9174 101.672 86.3729 101.319 86.4964C100.735 86.7041 100.191 86.9342 99.5682 87.0072C98.9455 87.0801 98.2947 87.0577 97.6775 86.923C96.4432 86.6592 95.3212 86.0248 94.5301 85.0313C94.474 84.9583 94.3449 85.0537 94.401 85.1267H94.3898Z" fill="#212057"/>
</g>
</g>
<path d="M305.067 58.7551H266.641C264.017 58.7551 261.889 60.8838 261.889 63.5097V82.9375C261.889 85.5634 264.017 87.692 266.641 87.692H305.067C307.691 87.692 309.819 85.5634 309.819 82.9375V63.5097C309.819 60.8838 307.691 58.7551 305.067 58.7551Z" fill="#FF631F"/>
<path d="M300.237 86.9399L283.074 99.4128L288.163 86.9399H300.237Z" fill="#FF631F"/>
<path d="M270.557 74.7701H304.326" stroke="#FF631F" stroke-width="2.65" stroke-miterlimit="10"/>
<path d="M270.557 78.3458H304.326" stroke="#FF631F" stroke-width="2.65" stroke-miterlimit="10"/>
<path d="M270.557 68.1856H304.326" stroke="#FF631F" stroke-width="2.65" stroke-miterlimit="10"/>
<path d="M270.557 71.6097H304.326" stroke="#FF631F" stroke-width="2.65" stroke-miterlimit="10"/>
<path d="M259.213 22.6555H231.935C230.249 22.6555 228.883 24.0227 228.883 25.7092V53.0014C228.883 54.6879 230.249 56.0551 231.935 56.0551H259.213C260.898 56.0551 262.265 54.6879 262.265 53.0014V25.7092C262.265 24.0227 260.898 22.6555 259.213 22.6555Z" fill="#FF631F"/>
<path d="M235.161 34.8534H256.127" stroke="#FF631F" stroke-width="2.65" stroke-miterlimit="10"/>
<path d="M235.161 38.5077H256.127" stroke="#FF631F" stroke-width="2.65" stroke-miterlimit="10"/>
<path d="M235.161 42.6559H256.127" stroke="#FF631F" stroke-width="2.65" stroke-miterlimit="10"/>
<path d="M240.423 46.0015H250.859" stroke="#FF631F" stroke-width="2.65" stroke-miterlimit="10"/>
<path d="M301.847 101.344H264.162C262.69 101.344 261.497 102.538 261.497 104.01V125.1C261.497 126.572 262.69 127.766 264.162 127.766H301.847C303.319 127.766 304.512 126.572 304.512 125.1V104.01C304.512 102.538 303.319 101.344 301.847 101.344Z" fill="#FF631F"/>
<path d="M261.497 125.1L277.61 113.856" stroke="#FF631F" stroke-width="0.84" stroke-miterlimit="10"/>
<path d="M304.321 125.1L288.208 113.856" stroke="#FF631F" stroke-width="0.84" stroke-miterlimit="10"/>
<path d="M303.468 101.899L288.219 113.665C285.139 116.04 280.847 116.034 277.772 113.648L262.59 101.86C262.445 101.967 262.31 102.09 262.187 102.219L277.441 114.069C279.074 115.338 281.038 115.972 283.001 115.972C284.965 115.972 286.906 115.343 288.539 114.086L303.855 102.27C303.737 102.135 303.608 102.012 303.462 101.899H303.468Z" fill="#FF631F"/>
<path d="M208.316 49.8945C216.8 41.4064 216.8 27.6446 208.316 19.1566C199.832 10.6685 186.078 10.6685 177.594 19.1566C169.111 27.6446 169.111 41.4064 177.594 49.8945C186.078 58.3825 199.832 58.3825 208.316 49.8945Z" fill="#FF631F"/>
<path d="M192.954 20.0397C184.97 20.0397 178.473 26.54 178.473 34.5278C178.473 42.5156 184.97 49.0159 192.954 49.0159C200.937 49.0159 207.434 42.5156 207.434 34.5278C207.434 26.54 200.937 20.0397 192.954 20.0397ZM181.795 34.5278C181.795 28.3699 186.799 23.3628 192.954 23.3628C195.316 23.3628 197.509 24.1038 199.316 25.3611L184.684 42.0216C182.889 40.0401 181.795 37.4131 181.795 34.5334V34.5278ZM192.954 45.6928C190.872 45.6928 188.925 45.1202 187.253 44.121L201.728 27.6402C203.221 29.5375 204.113 31.9288 204.113 34.5278C204.113 40.6856 199.108 45.6928 192.954 45.6928Z" fill="white"/>
<path d="M302.615 46.1868H271.864C270.226 46.1868 269.16 44.4635 269.889 42.9984L285.167 12.2315C285.975 10.6036 288.297 10.598 289.116 12.2203L304.59 42.9872C305.331 44.4579 304.259 46.1868 302.621 46.1868H302.615Z" fill="#FF631F"/>
<path d="M297.234 43.1611H276.874C275.791 43.1611 275.085 42.0216 275.567 41.0505L285.683 20.6796C286.216 19.6018 287.753 19.5962 288.297 20.674L298.542 41.0449C299.03 42.016 298.323 43.1611 297.234 43.1611Z" fill="white"/>
<path d="M288.488 36.4364H285.913L285.155 27.483H289.616L288.488 36.4364Z" fill="#FF631F"/>
<path d="M287.136 40.1019C287.793 40.1019 288.325 39.5691 288.325 38.9118C288.325 38.2546 287.793 37.7218 287.136 37.7218C286.479 37.7218 285.946 38.2546 285.946 38.9118C285.946 39.5691 286.479 40.1019 287.136 40.1019Z" fill="#FF631F"/>
</g>
<defs>
<clipPath id="clip0_83_1480">
<rect width="334" height="219" fill="white"/>
</clipPath>
</defs>
</svg>
