<svg width="280" height="237" viewBox="0 0 280 237" fill="none" xmlns="http://www.w3.org/2000/svg">
<path d="M131.057 195.116H3.76428C2.76646 195.115 1.81002 194.718 1.10446 194.012C0.398896 193.306 0.00174291 192.35 0 191.352V12.4141C0.0104056 11.422 0.41138 10.474 1.11601 9.77549C1.82063 9.07704 2.77214 8.68442 3.76428 8.68274H131.057C132.055 8.68449 133.01 9.08185 133.715 9.7876C134.419 10.4933 134.815 11.4498 134.815 12.447V191.352C134.815 192.349 134.419 193.306 133.715 194.012C133.01 194.717 132.055 195.115 131.057 195.116ZM3.76428 8.81459C2.81017 8.81633 1.89565 9.19612 1.221 9.87077C0.546343 10.5454 0.166553 11.4599 0.164811 12.4141V191.352C0.166553 192.306 0.546343 193.221 1.221 193.895C1.89565 194.57 2.81017 194.95 3.76428 194.952H131.057C132.011 194.95 132.925 194.57 133.598 193.895C134.272 193.22 134.65 192.306 134.65 191.352V12.4141C134.65 11.4606 134.272 10.546 133.598 9.87118C132.925 9.19633 132.011 8.81633 131.057 8.81459H3.76428Z" fill="#E6E6E6"/>
<path d="M273.651 195.116H146.351C145.354 195.115 144.398 194.717 143.694 194.012C142.989 193.306 142.594 192.349 142.594 191.352V12.4141C142.602 11.4226 143.002 10.4745 143.706 9.77591C144.409 9.07727 145.36 8.68444 146.351 8.68274H273.651C274.643 8.68444 275.593 9.07727 276.297 9.77591C277.001 10.4745 277.4 11.4226 277.409 12.4141V191.352C277.409 192.349 277.013 193.306 276.309 194.012C275.604 194.717 274.648 195.115 273.651 195.116ZM146.351 8.81459C145.398 8.81633 144.484 9.19633 143.81 9.87118C143.137 10.546 142.759 11.4606 142.759 12.4141V191.352C142.759 192.306 143.137 193.22 143.81 193.895C144.484 194.57 145.398 194.95 146.351 194.952H273.651C274.606 194.95 275.521 194.57 276.197 193.896C276.872 193.221 277.254 192.307 277.257 191.352V12.4141C277.254 11.4593 276.872 10.5448 276.197 9.87037C275.521 9.1959 274.606 8.81632 273.651 8.81459H146.351Z" fill="#E6E6E6"/>
<path d="M36.5219 228.527H9.35449V228.692H36.5219V228.527Z" fill="#E0E0E0"/>
<path d="M91.8983 227.208H64.6519V227.373H91.8983V227.208Z" fill="#E0E0E0"/>
<path d="M127.353 227.208H120.76V227.373H127.353V227.208Z" fill="#E0E0E0"/>
<path d="M61.4612 232.838H30.9712V233.003H61.4612V232.838Z" fill="#E0E0E0"/>
<path d="M166.92 228.441H152.681V228.606H166.92V228.441Z" fill="#E0E0E0"/>
<path d="M191.2 228.441H172.788V228.606H191.2V228.441Z" fill="#E0E0E0"/>
<path d="M280 231.23H238.837V231.395H280V231.23Z" fill="#E0E0E0"/>
<path d="M245.792 45.2707H214.405V67.2037H245.792V45.2707Z" fill="#E6E6E6"/>
<path d="M228.559 45.2707H214.405V67.2037H228.559V45.2707Z" fill="#F0F0F0"/>
<path opacity="0.4" d="M221.472 48.2439C222.397 48.2439 223.3 48.518 224.069 49.0316C224.838 49.5452 225.437 50.2752 225.791 51.1293C226.144 51.9833 226.237 52.9231 226.057 53.8298C225.876 54.7365 225.431 55.5693 224.777 56.223C224.124 56.8766 223.291 57.3218 222.384 57.5021C221.478 57.6825 220.538 57.5899 219.684 57.2362C218.83 56.8824 218.1 56.2833 217.586 55.5147C217.072 54.746 216.798 53.8424 216.798 52.9179C216.798 51.6783 217.291 50.4894 218.167 49.6129C219.044 48.7363 220.233 48.2439 221.472 48.2439Z" fill="#E0E0E0"/>
<path d="M223.747 62.0353C223.747 62.4864 223.613 62.9274 223.363 63.3025C223.112 63.6776 222.756 63.97 222.339 64.1426C221.922 64.3153 221.464 64.3604 221.021 64.2724C220.579 64.1844 220.172 63.9672 219.853 63.6482C219.534 63.3292 219.317 62.9227 219.229 62.4803C219.141 62.0378 219.186 61.5792 219.359 61.1624C219.531 60.7456 219.824 60.3893 220.199 60.1387C220.574 59.8881 221.015 59.7543 221.466 59.7543C221.766 59.7534 222.063 59.8118 222.34 59.9261C222.617 60.0405 222.869 60.2084 223.081 60.4204C223.293 60.6324 223.461 60.8842 223.575 61.1613C223.689 61.4385 223.748 61.7355 223.747 62.0353Z" fill="#E0E0E0"/>
<path d="M221.44 54.566C222.175 54.566 222.771 53.9698 222.771 53.2344C222.771 52.4989 222.175 51.9027 221.44 51.9027C220.704 51.9027 220.108 52.4989 220.108 53.2344C220.108 53.9698 220.704 54.566 221.44 54.566Z" fill="#FAFAFA"/>
<path d="M178.787 37.4125H165.213V67.2103H178.787V37.4125Z" fill="#F0F0F0"/>
<path d="M196.421 37.4125H178.411V67.2103H196.421V37.4125Z" fill="#E6E6E6"/>
<path d="M171.95 46.8727C172.324 46.8714 172.689 46.981 173 47.1877C173.311 47.3944 173.554 47.6888 173.697 48.0335C173.841 48.3783 173.879 48.758 173.806 49.1243C173.734 49.4907 173.554 49.8272 173.29 50.0913C173.026 50.3554 172.689 50.5351 172.323 50.6076C171.957 50.6802 171.577 50.6423 171.232 50.4988C170.887 50.3552 170.593 50.1126 170.386 49.8015C170.18 49.4904 170.07 49.125 170.071 48.7515C170.073 48.2538 170.272 47.7769 170.624 47.4249C170.976 47.0729 171.452 46.8744 171.95 46.8727Z" fill="white"/>
<path d="M171.95 43.939C172.136 43.939 172.319 43.9943 172.474 44.0979C172.629 44.2015 172.75 44.3487 172.821 44.521C172.892 44.6932 172.911 44.8828 172.875 45.0657C172.838 45.2485 172.748 45.4165 172.617 45.5483C172.485 45.6802 172.317 45.77 172.134 45.8063C171.951 45.8427 171.762 45.8241 171.589 45.7527C171.417 45.6813 171.27 45.5605 171.166 45.4055C171.063 45.2505 171.007 45.0682 171.007 44.8817C171.007 44.7579 171.032 44.6354 171.079 44.521C171.126 44.4066 171.196 44.3027 171.283 44.2151C171.371 44.1276 171.475 44.0582 171.589 44.0108C171.704 43.9634 171.826 43.939 171.95 43.939Z" fill="white"/>
<path d="M171.95 41.0911C172.136 41.0911 172.319 41.1464 172.474 41.25C172.629 41.3536 172.75 41.5008 172.821 41.6731C172.892 41.8453 172.911 42.0349 172.875 42.2178C172.838 42.4006 172.748 42.5686 172.617 42.7004C172.485 42.8323 172.317 42.9221 172.134 42.9584C171.951 42.9948 171.762 42.9762 171.589 42.9048C171.417 42.8334 171.27 42.7126 171.166 42.5576C171.063 42.4026 171.007 42.2203 171.007 42.0338C171.007 41.91 171.032 41.7875 171.079 41.6731C171.126 41.5587 171.196 41.4548 171.283 41.3672C171.371 41.2797 171.475 41.2103 171.589 41.1629C171.704 41.1155 171.826 41.0911 171.95 41.0911Z" fill="white"/>
<path d="M196.104 54.1243H165.516V54.5924H196.104V54.1243Z" fill="#E0E0E0"/>
<path d="M196.104 56.7679H165.516V57.2359H196.104V56.7679Z" fill="#E0E0E0"/>
<path d="M196.104 59.4115H165.516V59.8796H196.104V59.4115Z" fill="#E0E0E0"/>
<path d="M196.104 62.0551H165.516V62.5231H196.104V62.0551Z" fill="#E0E0E0"/>
<path d="M196.104 64.6985H165.516V65.1666H196.104V64.6985Z" fill="#E0E0E0"/>
<path d="M172.273 54.9286H170.981V56.2208H172.273V54.9286Z" fill="#E0E0E0"/>
<path d="M172.273 57.7106H170.981V59.0027H172.273V57.7106Z" fill="#E0E0E0"/>
<path d="M172.273 60.2158H170.981V61.5079H172.273V60.2158Z" fill="#E0E0E0"/>
<path d="M172.273 62.9186H170.981V64.2108H172.273V62.9186Z" fill="#E0E0E0"/>
<path d="M172.273 65.5424H170.981V66.8345H172.273V65.5424Z" fill="#E0E0E0"/>
<path d="M139.278 96.54H138.619V71.2976C138.621 69.9344 139.163 68.6275 140.127 67.6635C141.091 66.6996 142.398 66.1573 143.761 66.1555H165.516V66.8148H143.761C142.573 66.8165 141.434 67.2894 140.593 68.1297C139.753 68.97 139.28 70.1092 139.278 71.2976V96.54Z" fill="#E0E0E0"/>
<path d="M137.96 96.5861H137.3V71.113C137.302 69.4595 137.96 67.8743 139.129 66.7051C140.298 65.5359 141.883 64.8783 143.537 64.8766H165.516V65.5358H143.537C142.058 65.5376 140.641 66.1257 139.595 67.1713C138.549 68.2168 137.961 69.6344 137.96 71.113V96.5861Z" fill="#E0E0E0"/>
<path d="M65.7727 33.2527H45.1318V55.2253H65.7727V33.2527Z" fill="#E6E6E6"/>
<path d="M71.0596 33.2527H65.7725V55.2253H71.0596V33.2527Z" fill="#F5F5F5"/>
<path d="M55.2246 29.8643H39.7192V55.2253H55.2246V29.8643Z" fill="#E6E6E6"/>
<path d="M59.7006 29.8643H55.2178V55.2253H59.7006V29.8643Z" fill="#F5F5F5"/>
<path d="M50.6558 33.2527H37.583V55.2253H50.6558V33.2527Z" fill="#EBEBEB"/>
<path d="M39.957 36.9708H22.8101V55.2252H39.957V36.9708Z" fill="#E6E6E6"/>
<path d="M44.3471 36.9708H39.9565V55.2252H44.3471V36.9708Z" fill="#F5F5F5"/>
<path d="M31.1951 34.1559H18.3135V55.2253H31.1951V34.1559Z" fill="#E6E6E6"/>
<path d="M34.9137 34.1559H31.189V55.2253H34.9137V34.1559Z" fill="#F5F5F5"/>
<path d="M27.3982 36.9708H14.8857V55.2252H27.3982V36.9708Z" fill="#E6E6E6"/>
<path d="M29.8835 36.9708H27.4048V55.2252H29.8835V36.9708Z" fill="#F0F0F0"/>
<path d="M0.26358 61.5738L134.749 61.5738V55.2121L0.26358 55.2121V61.5738Z" fill="#E6E6E6"/>
<path d="M24.3984 61.7254H31.8347L26.4157 69.9066H24.3984V61.7254Z" fill="#E0E0E0"/>
<path d="M24.3983 61.7254H23.3237V69.9066H24.3983V61.7254Z" fill="#E0E0E0"/>
<path d="M107.924 61.7254H115.367L109.948 69.9066H107.924V61.7254Z" fill="#E0E0E0"/>
<path d="M107.931 61.7254H106.856V69.9066H107.931V61.7254Z" fill="#E0E0E0"/>
<path d="M277.297 67.2103H142.812V73.572H277.297V67.2103Z" fill="#E6E6E6"/>
<path d="M253.169 81.8982H251.145L245.726 73.717H253.169V81.8982Z" fill="#E0E0E0"/>
<path d="M254.244 73.717H253.169V81.8982H254.244V73.717Z" fill="#E0E0E0"/>
<path d="M169.636 81.8982H167.612L162.193 73.717H169.636V81.8982Z" fill="#E0E0E0"/>
<path d="M170.711 73.717H169.636V81.8982H170.711V73.717Z" fill="#E0E0E0"/>
<path d="M104.061 42.4096C104.062 41.4646 103.922 40.5248 103.646 39.621L106.092 37.4719L104.556 34.802L101.471 35.8502C100.171 34.4615 98.4898 33.4889 96.6383 33.055L95.979 29.8643H92.9004L92.2411 33.055C90.3916 33.489 88.7122 34.4617 87.4155 35.8502L84.3236 34.802L82.7876 37.4719L85.2334 39.621C84.6798 41.4389 84.6798 43.3804 85.2334 45.1982L82.7876 47.3474L84.3236 50.0173L87.4155 48.9691C88.7122 50.3576 90.3916 51.3303 92.2411 51.7643L92.9004 54.955H95.979L96.6383 51.7643C98.4898 51.3304 100.171 50.3577 101.471 48.9691L104.556 50.0173L106.092 47.3474L103.646 45.1982C103.922 44.2945 104.062 43.3546 104.061 42.4096ZM94.4628 47.5913C93.4758 47.5913 92.5109 47.2986 91.6902 46.7502C90.8695 46.2019 90.2299 45.4225 89.8522 44.5106C89.4745 43.5987 89.3757 42.5953 89.5682 41.6272C89.7608 40.6592 90.2361 39.77 90.934 39.072C91.6319 38.3741 92.5211 37.8988 93.4892 37.7062C94.4572 37.5137 95.4607 37.6125 96.3726 37.9902C97.2844 38.3679 98.0638 39.0076 98.6122 39.8283C99.1606 40.6489 99.4533 41.6138 99.4533 42.6008C99.4533 43.9244 98.9275 45.1937 97.9916 46.1296C97.0557 47.0655 95.7863 47.5913 94.4628 47.5913Z" fill="#F0F0F0"/>
<path d="M120.714 44.0248C120.394 43.4924 119.993 43.0122 119.528 42.6008L120.187 40.5506L118.407 39.5815L117.029 41.2296C115.825 40.8944 114.549 40.9265 113.364 41.3219L111.907 39.7529L110.173 40.8077L110.911 42.8184C110.022 43.6996 109.412 44.8231 109.158 46.0487L107.068 46.5233L107.121 48.5472L109.237 48.9164C109.552 50.1256 110.217 51.2149 111.149 52.0478L110.489 54.098L112.269 55.0671L113.647 53.419C114.854 53.7476 116.13 53.7155 117.319 53.3267L118.776 54.8957L120.503 53.8409L119.765 51.8236C120.654 50.9449 121.264 49.8235 121.518 48.5999L123.608 48.1253L123.556 46.0948L121.446 45.7322C121.291 45.1289 121.044 44.5531 120.714 44.0248ZM117.108 50.2348C116.552 50.5768 115.908 50.746 115.256 50.7212C114.603 50.6964 113.973 50.4786 113.445 50.0954C112.917 49.7122 112.515 49.1808 112.289 48.5686C112.063 47.9565 112.024 47.291 112.176 46.6566C112.329 46.0221 112.666 45.4472 113.146 45.0047C113.625 44.5623 114.226 44.2721 114.87 44.171C115.515 44.0699 116.175 44.1624 116.767 44.4368C117.359 44.7112 117.856 45.1552 118.196 45.7124C118.649 46.4569 118.79 47.3507 118.586 48.1982C118.382 49.0458 117.851 49.7781 117.108 50.2348Z" fill="#F0F0F0"/>
<path d="M273.309 150.018H4.58838V153.4H273.309V150.018Z" fill="#FF631F"/>
<path d="M20.5947 152.444V233.095H22.6911L25.3281 152.444H20.5947Z" fill="#FF631F"/>
<path d="M45.3428 155.081V229.799H47.4392L50.0761 155.081H45.3428Z" fill="#FF631F"/>
<path opacity="0.5" d="M45.3428 155.081V229.799H47.4392L50.0761 155.081H45.3428Z" fill="black"/>
<path d="M258.258 152.444V233.095H256.168L253.525 152.444H258.258Z" fill="#FF631F"/>
<path d="M233.51 155.081V229.799H231.414L228.777 155.081H233.51Z" fill="#FF631F"/>
<path opacity="0.5" d="M233.51 155.081V229.799H231.414L228.777 155.081H233.51Z" fill="black"/>
<path d="M263.038 157.019H15.6504L10.1787 153.4H268.509L263.038 157.019Z" fill="#FF631F"/>
<path opacity="0.5" d="M263.038 157.019H15.6504L10.1787 153.4H268.509L263.038 157.019Z" fill="black"/>
<path d="M22.2495 139.648V142.285C22.2495 142.722 22.4225 143.142 22.7308 143.452L24.8206 145.541C25.0057 145.725 25.2315 145.863 25.4798 145.944C25.9107 146.871 26.5975 147.656 27.4594 148.206C28.3213 148.756 29.3225 149.048 30.345 149.049H31.1295C31.8389 149.053 32.5421 148.917 33.1983 148.647C33.8546 148.378 34.4508 147.981 34.9524 147.479C35.454 146.977 35.8511 146.381 36.1205 145.725C36.39 145.069 36.5265 144.365 36.5221 143.656V137.505H24.9986V138.006H23.8976C23.4617 138.006 23.0434 138.179 22.7346 138.487C22.4257 138.794 22.2513 139.212 22.2495 139.648ZM23.568 139.648C23.568 139.605 23.5766 139.562 23.5932 139.523C23.6098 139.483 23.6342 139.447 23.6649 139.417C23.6956 139.387 23.732 139.363 23.772 139.347C23.8119 139.332 23.8546 139.324 23.8976 139.325H24.9986V143.656C24.9986 143.715 24.9986 143.775 24.9986 143.834L23.6801 142.516C23.6484 142.486 23.6232 142.45 23.6062 142.411C23.5892 142.371 23.5807 142.328 23.5812 142.285L23.568 139.648Z" fill="#FF631F"/>
<path opacity="0.5" d="M22.2495 139.648V142.285C22.2495 142.722 22.4225 143.142 22.7308 143.452L24.8206 145.541C25.0057 145.725 25.2315 145.863 25.4798 145.944C25.9107 146.871 26.5975 147.656 27.4594 148.206C28.3213 148.756 29.3225 149.048 30.345 149.049H31.1295C31.8389 149.053 32.5421 148.917 33.1983 148.647C33.8546 148.378 34.4508 147.981 34.9524 147.479C35.454 146.977 35.8511 146.381 36.1205 145.725C36.39 145.069 36.5265 144.365 36.5221 143.656V137.505H24.9986V138.006H23.8976C23.4617 138.006 23.0434 138.179 22.7346 138.487C22.4257 138.794 22.2513 139.212 22.2495 139.648ZM23.568 139.648C23.568 139.605 23.5766 139.562 23.5932 139.523C23.6098 139.483 23.6342 139.447 23.6649 139.417C23.6956 139.387 23.732 139.363 23.772 139.347C23.8119 139.332 23.8546 139.324 23.8976 139.325H24.9986V143.656C24.9986 143.715 24.9986 143.775 24.9986 143.834L23.6801 142.516C23.6484 142.486 23.6232 142.45 23.6062 142.411C23.5892 142.371 23.5807 142.328 23.5812 142.285L23.568 139.648Z" fill="white"/>
<path d="M39.2513 149.939H22.6779C21.9201 149.871 21.2148 149.523 20.7002 148.963H41.2026C40.6957 149.519 40.0002 149.867 39.2513 149.939Z" fill="#FF631F"/>
<path opacity="0.5" d="M39.2513 149.939H22.6779C21.9201 149.871 21.2148 149.523 20.7002 148.963H41.2026C40.6957 149.519 40.0002 149.867 39.2513 149.939Z" fill="white"/>
<path d="M262.22 141.869C262.134 139.232 260.144 138.613 257.546 138.316V137.36C257.543 137.249 257.496 137.145 257.416 137.068C257.335 136.992 257.228 136.95 257.118 136.952H248.139C248.083 136.95 248.028 136.959 247.976 136.979C247.924 136.998 247.877 137.028 247.836 137.066C247.796 137.104 247.764 137.149 247.741 137.2C247.718 137.25 247.705 137.305 247.704 137.36V149.826H257.553V148.462C260.15 148.172 262.141 144.493 262.22 141.869ZM257.546 146.853V139.931C259.458 140.208 260.776 140.472 260.493 142.384C260.269 143.913 259.069 146.642 257.546 146.853Z" fill="#FF631F"/>
<g opacity="0.5">
<path d="M262.22 141.869C262.134 139.232 260.144 138.613 257.546 138.316V137.36C257.543 137.249 257.496 137.145 257.416 137.068C257.335 136.992 257.228 136.95 257.118 136.952H248.139C248.083 136.95 248.028 136.959 247.976 136.979C247.924 136.998 247.877 137.028 247.836 137.066C247.796 137.104 247.764 137.149 247.741 137.2C247.718 137.25 247.705 137.305 247.704 137.36V149.826H257.553V148.462C260.15 148.172 262.141 144.493 262.22 141.869ZM257.546 146.853V139.931C259.458 140.208 260.776 140.472 260.493 142.384C260.269 143.913 259.069 146.642 257.546 146.853Z" fill="white"/>
</g>
<path d="M142.587 133.939H134.815V149.728H142.587V133.939Z" fill="#FF631F"/>
<path opacity="0.5" d="M142.587 133.939H134.815V149.728H142.587V133.939Z" fill="white"/>
<path d="M146.101 150.011H131.374L134.967 146.853H142.509L146.101 150.011Z" fill="#FF631F"/>
<path opacity="0.5" d="M146.101 150.011H131.374L134.967 146.853H142.509L146.101 150.011Z" fill="white"/>
<path d="M178.477 144.902H141.665L148.316 150.031H185.122L178.477 144.902Z" fill="#FF631F"/>
<path opacity="0.4" d="M178.477 144.902H141.665L148.316 150.031H185.122L178.477 144.902Z" fill="white"/>
<path d="M142.515 150.031L141.665 144.902L148.316 150.031H142.515Z" fill="#FF631F"/>
<path opacity="0.5" d="M142.515 150.031L141.665 144.902L148.316 150.031H142.515Z" fill="black"/>
<path d="M172.016 96.5663H105.017C104.315 96.5663 103.745 97.1359 103.745 97.8386V138.923C103.745 139.625 104.315 140.195 105.017 140.195H172.016C172.719 140.195 173.289 139.625 173.289 138.923V97.8386C173.289 97.1359 172.719 96.5663 172.016 96.5663Z" fill="#FF631F"/>
<path opacity="0.5" d="M170.691 99.2955H106.27V137.314H170.691V99.2955Z" fill="black"/>
<path opacity="0.4" d="M168.641 107.114H136.134V129.495H168.641V107.114Z" fill="black"/>
<path d="M168.641 107.114H136.134V109.164H168.641V107.114Z" fill="#FF631F"/>
<path d="M142.093 119.495L147.407 122.435C147.61 122.533 147.791 122.669 147.941 122.837C148.031 122.969 148.078 123.126 148.073 123.285C148.073 123.397 148.051 123.508 148.008 123.611C147.965 123.714 147.902 123.807 147.822 123.885C147.749 123.964 147.66 124.027 147.561 124.07C147.463 124.113 147.356 124.135 147.249 124.136C147.012 124.109 146.786 124.025 146.589 123.892L139.733 120.081C139.624 120.027 139.531 119.943 139.467 119.838C139.402 119.734 139.368 119.614 139.368 119.491C139.368 119.369 139.402 119.249 139.467 119.144C139.531 119.04 139.624 118.956 139.733 118.901L146.589 115.091C146.788 114.963 147.014 114.884 147.249 114.86C147.357 114.859 147.464 114.88 147.564 114.921C147.664 114.963 147.754 115.026 147.829 115.104C147.909 115.181 147.972 115.273 148.016 115.375C148.059 115.477 148.08 115.587 148.079 115.697C148.085 115.857 148.039 116.015 147.947 116.146C147.798 116.314 147.616 116.45 147.414 116.548L142.093 119.495Z" fill="white"/>
<path d="M155.766 114.003L150.492 125.336C150.407 125.542 150.284 125.73 150.129 125.889C149.986 126.001 149.809 126.059 149.628 126.054C149.52 126.056 149.413 126.036 149.314 125.995C149.214 125.954 149.124 125.894 149.048 125.817C148.97 125.748 148.908 125.664 148.865 125.57C148.822 125.476 148.799 125.373 148.797 125.27C148.816 125.039 148.884 124.814 148.995 124.61L154.269 113.285C154.352 113.083 154.47 112.897 154.618 112.738C154.763 112.625 154.942 112.564 155.126 112.566C155.233 112.565 155.339 112.585 155.437 112.626C155.536 112.666 155.625 112.727 155.7 112.803C155.774 112.872 155.834 112.956 155.875 113.049C155.916 113.142 155.937 113.242 155.937 113.344C155.927 113.573 155.869 113.798 155.766 114.003Z" fill="white"/>
<path d="M162.378 119.495L157.064 116.548C156.864 116.447 156.683 116.31 156.53 116.146C156.439 116.015 156.393 115.857 156.398 115.697C156.397 115.587 156.419 115.477 156.462 115.375C156.505 115.273 156.569 115.181 156.649 115.104C156.725 115.026 156.816 114.964 156.917 114.922C157.018 114.88 157.126 114.859 157.236 114.86C157.47 114.885 157.696 114.964 157.895 115.091L164.751 118.901C164.861 118.956 164.953 119.04 165.018 119.144C165.082 119.249 165.116 119.369 165.116 119.491C165.116 119.614 165.082 119.734 165.018 119.838C164.953 119.943 164.861 120.027 164.751 120.081L157.895 123.892C157.697 124.024 157.472 124.107 157.236 124.136C157.124 124.137 157.014 124.115 156.912 124.071C156.809 124.026 156.718 123.961 156.642 123.879C156.564 123.801 156.503 123.708 156.461 123.607C156.419 123.505 156.398 123.395 156.398 123.285C156.394 123.126 156.44 122.969 156.53 122.837C156.683 122.672 156.864 122.536 157.064 122.435L162.378 119.495Z" fill="white"/>
<path d="M111.115 102.803H108.914V105.005H111.115V102.803Z" fill="white"/>
<path d="M111.115 108.505H108.914V110.707H111.115V108.505Z" fill="white"/>
<path d="M111.115 114.201H108.914V116.403H111.115V114.201Z" fill="white"/>
<path d="M111.115 119.897H108.914V122.099H111.115V119.897Z" fill="white"/>
<path d="M111.115 125.593H108.914V127.795H111.115V125.593Z" fill="white"/>
<path d="M111.115 131.289H108.914V133.49H111.115V131.289Z" fill="white"/>
<path d="M121.98 103.304H113.205V103.963H121.98V103.304Z" fill="white"/>
<path d="M118.374 109.013H115.249V109.672H118.374V109.013Z" fill="white"/>
<path d="M131.974 115.421H128.849V116.08H131.974V115.421Z" fill="white"/>
<path d="M118.374 120.503H115.249V121.163H118.374V120.503Z" fill="white"/>
<path d="M122.876 120.503H119.751V121.163H122.876V120.503Z" fill="white"/>
<path d="M127.735 115.421H119.751V116.08H127.735V115.421Z" fill="white"/>
<path d="M129.66 120.503H124.406V121.163H129.66V120.503Z" fill="white"/>
<path d="M127.511 132.719H124.386V133.378H127.511V132.719Z" fill="white"/>
<path d="M132.02 132.719H128.895V133.378H132.02V132.719Z" fill="white"/>
<path d="M135.29 132.719H133.543V133.378H135.29V132.719Z" fill="white"/>
<path d="M129.66 109.013H119.936V109.672H129.66V109.013Z" fill="white"/>
<path d="M122.876 126.456H119.751V127.116H122.876V126.456Z" fill="white"/>
<path d="M125.731 126.456H123.924V127.116H125.731V126.456Z" fill="white"/>
<path d="M132.211 126.456H127.108V127.116H132.211V126.456Z" fill="white"/>
<path d="M133.062 78.4108C132.897 86.3877 124.61 93.079 114.543 93.3427C111.452 93.4469 108.375 92.8778 105.525 91.6748C104.51 94.1799 102.374 96.329 96.2495 97.2915C102.638 92.3538 99.1436 88.1742 97.6867 84.5022C96.9329 82.8991 96.5563 81.1446 96.5857 79.3733C96.7505 71.3899 105.037 64.7118 115.104 64.4415C125.17 64.1712 133.22 70.434 133.062 78.4108Z" fill="#FF631F"/>
<path d="M115.038 70.0582H106.263V70.7175H115.038V70.0582Z" fill="white"/>
<path d="M111.432 75.7739H108.307V76.4331H111.432V75.7739Z" fill="white"/>
<path d="M125.032 82.1817H121.907V82.8409H125.032V82.1817Z" fill="white"/>
<path d="M111.432 87.2644H108.307V87.9236H111.432V87.2644Z" fill="white"/>
<path d="M115.941 87.2644H112.816V87.9236H115.941V87.2644Z" fill="white"/>
<path d="M120.799 82.1817H112.816V82.8409H120.799V82.1817Z" fill="white"/>
<path d="M122.718 87.2644H117.464V87.9236H122.718V87.2644Z" fill="white"/>
<path d="M122.725 75.7739H113.001V76.4331H122.725V75.7739Z" fill="white"/>
<path d="M171.119 229.542L166.313 228.105L167.434 216.324L172.24 217.761L171.119 229.542Z" fill="#7F3E3B"/>
<path opacity="0.2" d="M172.636 215.098L167.83 213.668L167.204 220.267L172.062 221.17L172.636 215.098Z" fill="black"/>
<path d="M199.566 156.782C199.566 156.782 166.518 159.57 167.329 173.922C167.988 185.67 169.735 182.492 166.313 217.432L174.627 217.893C174.627 217.893 183.085 189.322 181.944 177.97C191.259 177.97 212.586 178.787 215.684 170.382C217.221 166.113 217.97 161.601 217.893 157.065L199.566 156.782Z" fill="#FF631F"/>
<path d="M175.945 219.475L165.081 217.616L165.259 212.811L176.505 215.309L175.945 219.475Z" fill="#263238"/>
<path d="M165.819 226.127L171.37 227.228C171.471 227.252 171.559 227.312 171.618 227.398C171.676 227.483 171.701 227.587 171.686 227.69L171.225 232.964C171.217 233.088 171.184 233.209 171.128 233.321C171.072 233.432 170.995 233.531 170.9 233.612C170.806 233.693 170.696 233.754 170.577 233.792C170.459 233.831 170.334 233.845 170.21 233.834C168.285 233.412 167.375 233.102 164.936 232.614C163.433 232.318 159.998 231.599 157.908 231.362C155.818 231.124 156.069 228.685 156.972 228.56C161.033 228.026 163.34 227.367 164.916 226.351C165.176 226.162 165.5 226.081 165.819 226.127Z" fill="#263238"/>
<path d="M163.327 227.07C163.764 227.129 164.206 227.143 164.646 227.11C164.668 227.11 164.69 227.104 164.708 227.09C164.726 227.077 164.739 227.058 164.744 227.037C164.754 227.018 164.759 226.996 164.759 226.974C164.759 226.953 164.754 226.931 164.744 226.912C164.606 226.773 163.36 225.593 162.721 225.725C162.646 225.737 162.577 225.769 162.52 225.818C162.463 225.867 162.421 225.931 162.398 226.002C162.346 226.106 162.322 226.221 162.329 226.337C162.336 226.453 162.373 226.565 162.437 226.661C162.67 226.907 162.989 227.053 163.327 227.07ZM164.388 226.892C163.472 226.892 162.826 226.786 162.635 226.516C162.596 226.453 162.575 226.38 162.575 226.305C162.575 226.231 162.596 226.158 162.635 226.094C162.645 226.059 162.665 226.027 162.691 226.002C162.718 225.976 162.751 225.958 162.786 225.949C163.096 225.883 163.874 226.411 164.415 226.899L164.388 226.892Z" fill="#FF631F"/>
<path d="M164.652 227.116H164.705C164.724 227.109 164.741 227.097 164.754 227.083C164.768 227.068 164.778 227.05 164.784 227.03C164.784 226.971 165.147 225.567 164.725 225.007C164.673 224.932 164.605 224.87 164.524 224.828C164.444 224.785 164.354 224.763 164.263 224.763C164.164 224.748 164.064 224.768 163.978 224.818C163.891 224.869 163.825 224.947 163.789 225.04C163.584 225.56 164.151 226.714 164.593 227.09C164.6 227.098 164.609 227.105 164.619 227.11C164.63 227.115 164.641 227.117 164.652 227.116ZM164.309 225C164.401 225.019 164.483 225.07 164.54 225.145C164.73 225.666 164.751 226.233 164.599 226.767C164.197 226.317 163.985 225.728 164.006 225.125C164.006 225.059 164.079 224.987 164.25 224.993L164.309 225Z" fill="#FF631F"/>
<path d="M149.694 231.375L145.119 229.318L148.283 218.032L152.859 220.089L149.694 231.375Z" fill="#7F3E3B"/>
<path opacity="0.2" d="M153.63 217.181L149.055 215.125L147.426 220.946L152.001 223.002L153.63 217.181Z" fill="black"/>
<path d="M189.73 156.782C189.513 156.782 152.681 160.572 152.635 173.065C152.555 193.726 146.655 217.406 146.655 217.406L153.907 221.012C153.907 221.012 166.584 195.341 166.393 179.235C176.526 176.328 202.737 181.213 205.835 172.814C208.374 165.945 207.002 156.782 207.002 156.782H189.73Z" fill="#FF631F"/>
<path d="M155.093 222.06L145.336 217.669L146.121 213.674L156.412 217.228L155.093 222.06Z" fill="#263238"/>
<path d="M145.574 225.527L151.138 226.681C151.242 226.716 151.331 226.787 151.388 226.881C151.444 226.975 151.466 227.087 151.448 227.195L151.012 232.964C150.933 233.59 150.485 234.018 150.004 233.92C148.079 233.478 147.169 233.135 144.73 232.601C143.227 232.298 139.133 231.283 137.069 230.762C135.006 230.241 135.468 227.597 136.41 227.578C140.491 227.518 143.135 226.852 144.704 225.712C144.828 225.623 144.969 225.56 145.119 225.528C145.269 225.497 145.424 225.496 145.574 225.527Z" fill="#263238"/>
<path d="M143.319 226.773C143.706 226.56 144.071 226.309 144.407 226.022C144.424 226.006 144.437 225.986 144.444 225.964C144.45 225.942 144.452 225.919 144.447 225.897C144.44 225.875 144.427 225.856 144.409 225.842C144.392 225.828 144.37 225.819 144.348 225.817C144.157 225.817 142.456 225.567 142.014 226.061C141.965 226.118 141.932 226.185 141.915 226.257C141.899 226.33 141.902 226.405 141.922 226.477C141.941 226.591 141.991 226.698 142.065 226.787C142.139 226.876 142.235 226.944 142.344 226.984C142.684 227.038 143.032 226.963 143.319 226.773ZM144.064 226.002C143.346 226.562 142.746 226.833 142.436 226.74C142.367 226.709 142.307 226.661 142.262 226.599C142.216 226.538 142.188 226.466 142.179 226.391C142.168 226.357 142.166 226.321 142.175 226.286C142.183 226.251 142.2 226.219 142.225 226.193C142.423 225.956 143.319 225.936 144.031 226.002H144.064Z" fill="#FF631F"/>
<path d="M144.374 226.022L144.42 225.989C144.431 225.972 144.437 225.953 144.437 225.933C144.437 225.913 144.431 225.893 144.42 225.877C144.387 225.831 143.84 224.479 143.174 224.275C143.088 224.248 142.997 224.241 142.908 224.254C142.819 224.268 142.734 224.302 142.66 224.354C142.571 224.401 142.502 224.477 142.462 224.57C142.422 224.662 142.416 224.765 142.442 224.862C142.581 225.409 143.721 225.995 144.308 226.035L144.374 226.022ZM142.838 224.519C142.881 224.499 142.929 224.49 142.976 224.49C143.024 224.49 143.071 224.499 143.115 224.519C143.579 224.825 143.934 225.271 144.13 225.791C143.538 225.668 143.016 225.321 142.673 224.822C142.634 224.769 142.673 224.664 142.792 224.571L142.838 224.519Z" fill="#FF631F"/>
<path d="M202.242 116.924C203.212 119.007 204.009 121.011 204.807 123.094C205.605 125.177 206.31 127.261 206.963 129.397C207.615 131.533 208.182 133.721 208.637 135.989C209.133 138.345 209.381 140.747 209.375 143.155C209.368 144.569 209.157 145.974 208.749 147.328C208.491 148.157 208.12 148.946 207.648 149.675C207.369 150.085 207.054 150.469 206.706 150.822L206.422 151.099C206.264 151.231 206.092 151.376 205.928 151.488C205.649 151.677 205.353 151.841 205.044 151.976C204.585 152.173 204.108 152.325 203.62 152.431C203.235 152.51 202.845 152.567 202.453 152.602C201.784 152.642 201.112 152.642 200.443 152.602C199.253 152.543 198.069 152.411 196.896 152.206C192.52 151.41 188.234 150.182 184.1 148.541L185.056 144.909C189.242 145.41 193.514 145.944 197.542 146.128C198.544 146.128 199.52 146.174 200.43 146.128C200.835 146.104 201.237 146.053 201.636 145.977C201.966 145.917 202.249 145.799 202.15 145.805C202.084 145.825 202.021 145.856 201.966 145.897C201.899 145.936 201.837 145.983 201.781 146.036C201.803 146 201.823 145.962 201.84 145.924C201.925 145.735 201.991 145.539 202.038 145.337C202.183 144.613 202.243 143.874 202.216 143.135C202.116 141.247 201.836 139.373 201.379 137.538C200.931 135.561 200.35 133.636 199.718 131.678C199.085 129.72 198.399 127.762 197.648 125.81C196.896 123.859 196.105 121.901 195.327 120.062L202.242 116.924Z" fill="#7F3E3B"/>
<path d="M186.875 145.897L182.504 143.439L180.309 148.172C180.309 148.172 185.418 150.301 186.493 148.97L186.875 145.897Z" fill="#7F3E3B"/>
<path d="M178.964 144.335L176.967 147.499L180.309 148.139L182.504 143.406L178.964 144.335Z" fill="#7F3E3B"/>
<path d="M192.05 120.681C191.213 122.784 190.336 124.795 189.413 126.832C188.49 128.869 187.567 130.873 186.592 132.877C184.627 136.958 182.426 140.92 179.999 144.744C179.34 145.719 178.681 146.689 177.943 147.658C177.573 148.145 177.165 148.627 176.73 149.121C176.492 149.372 176.301 149.602 176.024 149.859L175.629 150.242L175.404 150.453C174.777 150.989 174.038 151.381 173.242 151.6C172.822 151.719 172.395 151.809 171.963 151.87C171.259 151.955 170.549 151.983 169.84 151.956C168.616 151.918 167.396 151.797 166.188 151.593C161.719 150.803 157.341 149.562 153.122 147.888L154.085 144.249C158.35 144.764 162.707 145.311 166.808 145.482C167.775 145.518 168.743 145.505 169.709 145.443C170.097 145.411 170.483 145.349 170.862 145.258C170.985 145.227 171.105 145.183 171.218 145.126C171.258 145.126 171.218 145.08 171.04 145.192C170.974 145.226 170.914 145.271 170.862 145.324L170.928 145.245L171.113 145.04C171.231 144.922 171.376 144.724 171.515 144.566C171.785 144.223 172.062 143.854 172.339 143.452C172.886 142.667 173.42 141.797 173.948 140.914C175.002 139.147 175.985 137.268 176.947 135.369C177.91 133.471 178.833 131.533 179.742 129.581C181.555 125.692 183.329 121.67 185.016 117.781L192.05 120.681Z" fill="#7F3E3B"/>
<path d="M155.957 145.199L151.58 142.687L149.384 147.42C149.384 147.42 154.493 149.556 155.575 148.225L155.957 145.199Z" fill="#7F3E3B"/>
<path d="M148.046 143.643L146.042 146.801L149.384 147.44L151.58 142.707L148.046 143.643Z" fill="#7F3E3B"/>
<path d="M203.369 97.2916L200.574 100.528L196.309 104.939L196.632 105.736C196.961 106.552 197.153 107.416 197.199 108.294C197.298 110.061 197.126 111.558 194.338 112.757C194.338 112.757 191.411 116.581 198.372 115.52C205.334 114.458 206.382 110.846 206.382 110.846C203.31 108.65 203.125 101.352 203.369 97.2916Z" fill="#7F3E3B"/>
<path d="M189.176 93.6394C189.176 94.0745 188.959 94.4436 188.669 94.4568C188.379 94.47 188.148 94.1272 188.141 93.6921C188.135 93.257 188.365 92.8878 188.649 92.8746C188.932 92.8615 189.17 93.2043 189.176 93.6394Z" fill="#263238"/>
<path d="M190.633 92.0176C190.591 92.0172 190.549 92.0062 190.512 91.9854C190.475 91.9647 190.444 91.9349 190.422 91.8989C190.251 91.6193 190.019 91.3824 189.742 91.2064C189.466 91.0305 189.152 90.9201 188.827 90.8837C188.759 90.8803 188.695 90.851 188.649 90.802C188.602 90.7529 188.576 90.6877 188.576 90.62C188.576 90.586 188.583 90.5523 188.596 90.521C188.61 90.4897 188.629 90.4615 188.654 90.438C188.679 90.4146 188.708 90.3964 188.74 90.3846C188.772 90.3729 188.806 90.3677 188.84 90.3695C189.251 90.406 189.647 90.5383 189.997 90.7559C190.348 90.9734 190.642 91.2701 190.857 91.622C190.892 91.6801 190.904 91.7496 190.889 91.8159C190.874 91.8822 190.835 91.9403 190.778 91.978C190.734 92.0032 190.684 92.0168 190.633 92.0176Z" fill="#263238"/>
<path d="M189.018 93.903C188.663 95.0898 188.153 96.2246 187.501 97.2783C187.772 97.4311 188.073 97.5221 188.383 97.5449C188.693 97.5677 189.004 97.5217 189.295 97.4102L189.018 93.903Z" fill="#630F0F"/>
<path d="M203.765 91.4441C203.508 96.8235 203.627 100.014 200.957 102.862C200.098 103.808 198.998 104.501 197.774 104.867C196.55 105.233 195.25 105.257 194.013 104.938C192.777 104.618 191.651 103.966 190.758 103.053C189.864 102.14 189.238 101.001 188.945 99.7571C187.732 94.9908 188.365 86.9942 193.56 84.5945C194.678 84.0408 195.922 83.7922 197.167 83.874C198.412 83.9558 199.613 84.365 200.649 85.0602C201.685 85.7554 202.518 86.712 203.066 87.833C203.613 88.954 203.854 90.1998 203.765 91.4441Z" fill="#7F3E3B"/>
<path d="M206.204 93.2438C205.428 95.5255 204.244 97.6475 202.71 99.5066L195.709 100.825C195.709 100.825 190.178 98.5111 191.655 94.7007C190.719 93.9096 191.068 91.4638 191.727 90.119C192.258 90.5549 192.928 90.7849 193.615 90.7667C194.301 90.7486 194.958 90.4835 195.465 90.0201C195.677 90.3518 195.963 90.6301 196.3 90.8334C196.637 91.0366 197.017 91.1593 197.409 91.1918C197.801 91.2243 198.196 91.1659 198.562 91.021C198.928 90.876 199.256 90.6486 199.519 90.3563C199.819 90.6466 200.183 90.8635 200.581 90.99C200.978 91.1164 201.4 91.149 201.813 91.0851C202.225 91.0213 202.617 90.8627 202.958 90.6219C203.299 90.381 203.58 90.0645 203.778 89.697C204.208 89.9661 204.712 90.093 205.219 90.0598C205.725 90.0267 206.208 89.8352 206.6 89.5125L206.699 89.4202C206.793 90.715 206.625 92.0156 206.204 93.2438Z" fill="#263238"/>
<path opacity="0.1" d="M206.204 93.2438C205.428 95.5255 204.244 97.6475 202.71 99.5066L195.709 100.825C195.709 100.825 190.178 98.5111 191.655 94.7007C190.719 93.9096 191.068 91.4638 191.727 90.119C192.258 90.5549 192.928 90.7849 193.615 90.7667C194.301 90.7486 194.958 90.4835 195.465 90.0201C195.677 90.3518 195.963 90.6301 196.3 90.8334C196.637 91.0366 197.017 91.1593 197.409 91.1918C197.801 91.2243 198.196 91.1659 198.562 91.021C198.928 90.876 199.256 90.6486 199.519 90.3563C199.819 90.6466 200.183 90.8635 200.581 90.99C200.978 91.1164 201.4 91.149 201.813 91.0851C202.225 91.0213 202.617 90.8627 202.958 90.6219C203.299 90.381 203.58 90.0645 203.778 89.697C204.208 89.9661 204.712 90.093 205.219 90.0598C205.725 90.0267 206.208 89.8352 206.6 89.5125L206.699 89.4202C206.793 90.715 206.625 92.0156 206.204 93.2438Z" fill="white"/>
<path d="M207.213 86.7173C207.403 87.1629 207.455 87.6551 207.364 88.1308C207.272 88.6065 207.041 89.0439 206.699 89.3872L206.6 89.4795C206.208 89.8023 205.725 89.9937 205.219 90.0269C204.713 90.06 204.209 89.9331 203.778 89.6641C203.58 90.0315 203.3 90.3481 202.959 90.5889C202.618 90.8297 202.226 90.9883 201.813 91.0522C201.4 91.116 200.979 91.0835 200.581 90.957C200.183 90.8306 199.82 90.6137 199.52 90.3233C199.256 90.6156 198.928 90.8431 198.562 90.988C198.196 91.1329 197.802 91.1914 197.409 91.1588C197.017 91.1263 196.637 91.0036 196.3 90.8004C195.963 90.5972 195.677 90.3188 195.465 89.9871C194.958 90.4505 194.301 90.7156 193.615 90.7338C192.928 90.7519 192.258 90.522 191.727 90.086C191.447 89.8687 191.221 89.5887 191.068 89.2685C191.032 89.1985 191.001 89.1258 190.976 89.051C190.919 89.1153 190.858 89.1748 190.791 89.229C190.462 89.4917 190.06 89.6461 189.64 89.6709C189.22 89.6957 188.802 89.5897 188.444 89.3674C188.162 89.1709 187.935 88.9039 187.787 88.5929C187.639 88.2818 187.575 87.9375 187.601 87.5941C187.608 87.4511 187.633 87.3094 187.673 87.1721C187.621 87.2715 187.554 87.3626 187.475 87.4424C187.318 87.5941 187.132 87.713 186.929 87.7922C186.725 87.8714 186.508 87.9093 186.29 87.9038C186.071 87.8983 185.856 87.8494 185.657 87.76C185.457 87.6706 185.278 87.5425 185.128 87.3831C184.977 87.1531 184.873 86.8946 184.824 86.6233C184.774 86.352 184.781 86.0735 184.843 85.8048C184.904 85.536 185.02 85.2826 185.182 85.0598C185.345 84.8371 185.551 84.6496 185.788 84.5088C186.164 84.2897 186.592 84.1759 187.027 84.1792C187.712 84.1891 188.376 84.4204 188.919 84.8384C188.71 84.4228 188.654 83.9467 188.761 83.4938C188.868 83.0409 189.131 82.6403 189.504 82.3623C189.877 82.0844 190.337 81.9469 190.801 81.9742C191.266 82.0014 191.706 82.1916 192.044 82.5113C191.971 82.1748 192 81.8241 192.128 81.5044C192.256 81.1847 192.477 80.9108 192.763 80.7182C193.672 80.1908 195.189 80.6456 195.927 81.529C195.927 81.529 196.942 79.0766 198.696 79.3535C199.078 79.4063 200.878 80.2039 200.832 80.85C200.841 80.8912 200.841 80.9341 200.832 80.9753C200.856 80.9247 200.885 80.8762 200.917 80.8302C201.111 80.5686 201.367 80.3589 201.661 80.2198C201.956 80.0806 202.28 80.0163 202.605 80.0326C203.31 80.0845 203.998 80.2678 204.635 80.5731C206 81.1335 207.45 81.7598 208.242 83.0057C209.033 84.2517 208.63 86.3217 207.213 86.7173Z" fill="#263238"/>
<path d="M194.74 95.2215C194.546 96.5491 193.936 97.7813 192.999 98.7419C191.806 99.8823 190.791 98.7419 190.778 97.0081C190.778 95.4391 191.365 92.9537 192.756 92.4922C194.147 92.0308 195.004 93.4877 194.74 95.2215Z" fill="#7F3E3B"/>
<path d="M215.836 112.718C215.341 111.399 213.034 110.081 211.617 110.081H210.681C208.792 110.097 206.906 110.218 205.031 110.443C201.263 110.86 197.521 111.49 193.824 112.329C192.123 112.777 190.481 113.344 189.176 113.832C187.515 114.491 186.539 114.933 186.539 114.933C186.539 114.933 188.359 127.05 189.301 139.087C189.822 145.792 189.605 152.444 189.776 157.019H217.899C218.868 151.521 218.717 146.728 218.796 136.8C218.835 130.821 217.866 118.143 215.836 112.718Z" fill="#263238"/>
<path opacity="0.2" d="M188.688 132.363C188.899 134.888 189.116 137.538 189.347 140.188C192.643 135.376 194.463 122.211 194.463 122.211L188.688 132.363Z" fill="black"/>
<path d="M184.944 115.816C180.916 118.084 176.967 129.66 176.967 129.66L186.196 136.615C189.717 133.286 194.865 125.026 195.426 121.723C196.322 116.686 191.398 112.204 184.944 115.816Z" fill="#263238"/>
<path d="M176.98 233.952C176.98 234.52 176.812 235.074 176.497 235.546C176.182 236.017 175.734 236.385 175.21 236.602C174.686 236.819 174.109 236.876 173.553 236.765C172.997 236.654 172.486 236.381 172.085 235.98C171.684 235.579 171.41 235.068 171.3 234.512C171.189 233.956 171.246 233.379 171.463 232.855C171.68 232.331 172.048 231.883 172.519 231.568C172.991 231.253 173.545 231.085 174.112 231.085C174.873 231.085 175.602 231.387 176.14 231.925C176.678 232.463 176.98 233.192 176.98 233.952Z" fill="#263238"/>
<path d="M219.792 233.952C219.792 234.52 219.96 235.074 220.275 235.546C220.59 236.017 221.038 236.385 221.562 236.602C222.086 236.819 222.662 236.876 223.219 236.765C223.775 236.654 224.286 236.381 224.687 235.98C225.088 235.579 225.361 235.068 225.472 234.512C225.582 233.956 225.526 233.379 225.309 232.855C225.092 232.331 224.724 231.883 224.252 231.568C223.781 231.253 223.226 231.085 222.659 231.085C221.899 231.085 221.169 231.387 220.631 231.925C220.094 232.463 219.792 233.192 219.792 233.952Z" fill="#263238"/>
<path d="M195.577 233.003C195.577 233.57 195.745 234.125 196.06 234.596C196.376 235.068 196.823 235.436 197.347 235.653C197.871 235.87 198.448 235.926 199.004 235.816C199.561 235.705 200.072 235.432 200.473 235.031C200.874 234.63 201.147 234.119 201.257 233.563C201.368 233.006 201.311 232.43 201.094 231.906C200.877 231.382 200.51 230.934 200.038 230.619C199.566 230.304 199.012 230.135 198.445 230.135C197.684 230.135 196.955 230.438 196.417 230.975C195.879 231.513 195.577 232.243 195.577 233.003Z" fill="#263238"/>
<path d="M197.555 229.496V223.952H189.341C187.728 223.95 186.119 224.1 184.535 224.4L169.241 227.367C168.898 227.434 168.592 227.627 168.385 227.909C168.179 228.191 168.085 228.54 168.124 228.887C168.163 229.235 168.332 229.555 168.596 229.784C168.86 230.012 169.201 230.133 169.551 230.122L197.555 229.496Z" fill="#263238"/>
<path d="M197.555 229.496V223.952H205.776C207.383 223.961 208.985 224.122 210.562 224.433L227.755 227.175C228.098 227.242 228.404 227.436 228.61 227.718C228.817 228 228.91 228.349 228.871 228.696C228.832 229.044 228.664 229.364 228.4 229.592C228.135 229.821 227.795 229.942 227.445 229.931L197.555 229.496Z" fill="#263238"/>
<path d="M202.638 198.571H192.466V223.958H202.638V198.571Z" fill="#263238"/>
<path d="M201.181 186.757H193.929V198.564H201.181V186.757Z" fill="#263238"/>
<path opacity="0.5" d="M193.929 190.225L201.181 192.051V186.757H193.929V190.225Z" fill="black"/>
<path d="M174.112 160.045H170.427V175.768H174.112V160.045Z" fill="#263238"/>
<path d="M192.591 186.757V118.4C192.59 117.122 192.863 115.857 193.392 114.693C193.921 113.528 194.693 112.491 195.656 111.65L200.528 107.385C202.169 105.946 204.279 105.155 206.461 105.163H224.056L232.64 114.34V186.757H192.591Z" fill="#FF631F"/>
<path d="M166.393 173.533H206.54V186.757H159.846C159.009 186.756 158.187 186.533 157.463 186.112C156.74 185.691 156.14 185.086 155.725 184.359C155.311 183.632 155.095 182.808 155.101 181.971C155.107 181.134 155.334 180.313 155.759 179.591C156.851 177.743 158.406 176.212 160.271 175.149C162.136 174.087 164.246 173.53 166.393 173.533Z" fill="#FF631F"/>
<path opacity="0.7" d="M232.64 114.34V186.757H159.846C159.009 186.756 158.187 186.533 157.463 186.112C156.74 185.691 156.14 185.086 155.725 184.359C155.311 183.632 155.095 182.808 155.101 181.971C155.107 181.134 155.334 180.313 155.759 179.591C156.851 177.744 158.407 176.213 160.271 175.15C162.136 174.088 164.246 173.53 166.393 173.533H186.612C188.204 173.533 189.732 172.9 190.858 171.774C191.985 170.648 192.617 169.12 192.617 167.527V118.4C192.616 117.122 192.89 115.857 193.418 114.693C193.947 113.528 194.719 112.491 195.683 111.65L200.555 107.385C202.195 105.946 204.305 105.155 206.488 105.163H224.083L232.64 114.34Z" fill="white"/>
<path d="M198.445 186.757V118.4C198.446 117.122 198.72 115.858 199.249 114.694C199.777 113.53 200.549 112.492 201.511 111.65L206.383 107.385C208.023 105.946 210.133 105.155 212.316 105.163H226.035C227.26 105.162 228.473 105.412 229.598 105.899C230.723 106.385 231.736 107.097 232.574 107.991L236.081 111.716C237.644 113.382 238.514 115.582 238.514 117.866V179.908C238.515 180.808 238.338 181.7 237.994 182.532C237.649 183.363 237.144 184.119 236.507 184.755C235.871 185.392 235.114 185.896 234.282 186.24C233.45 186.583 232.558 186.759 231.658 186.757H198.445Z" fill="#FF631F"/>
<path opacity="0.5" d="M198.445 186.757V118.4C198.446 117.122 198.72 115.858 199.249 114.694C199.777 113.53 200.549 112.492 201.511 111.65L206.383 107.385C208.023 105.946 210.133 105.155 212.316 105.163H226.035C227.26 105.162 228.473 105.412 229.598 105.899C230.723 106.385 231.736 107.097 232.574 107.991L236.081 111.716C237.644 113.382 238.514 115.582 238.514 117.866V179.908C238.515 180.808 238.338 181.7 237.994 182.532C237.649 183.363 237.144 184.119 236.507 184.755C235.871 185.392 235.114 185.896 234.282 186.24C233.45 186.583 232.558 186.759 231.658 186.757H198.445Z" fill="white"/>
<path d="M184.785 164.844C176.676 162.009 167.844 162.009 159.734 164.844C158.92 165.148 158.024 165.145 157.212 164.835C156.4 164.526 155.729 163.931 155.324 163.163C154.572 161.574 155.581 159.517 157.625 158.799C167.096 155.489 177.41 155.489 186.882 158.799C188.925 159.511 189.934 161.574 189.183 163.163C188.778 163.928 188.109 164.521 187.3 164.83C186.491 165.139 185.598 165.144 184.785 164.844Z" fill="#FF631F"/>
<path opacity="0.7" d="M184.785 164.844C176.676 162.009 167.844 162.009 159.734 164.844C158.92 165.148 158.024 165.145 157.212 164.835C156.4 164.526 155.729 163.931 155.324 163.163C154.572 161.574 155.581 159.517 157.625 158.799C167.096 155.489 177.41 155.489 186.882 158.799C188.925 159.511 189.934 161.574 189.183 163.163C188.778 163.928 188.109 164.521 187.3 164.83C186.491 165.139 185.598 165.144 184.785 164.844Z" fill="white"/>
<path d="M82.3327 99.434C82.1943 99.823 82.2932 100.212 82.5503 100.298C82.8074 100.383 83.1238 100.146 83.2556 99.757C83.3875 99.3681 83.2952 98.9725 83.0447 98.8868C82.7942 98.8011 82.4711 99.0385 82.3327 99.434Z" fill="#263238"/>
<path d="M82.2601 99.8362C82.3139 101.194 82.5512 102.537 82.9655 103.831C82.6334 103.925 82.2849 103.947 81.9437 103.894C81.6026 103.842 81.2766 103.717 80.9878 103.528L82.2601 99.8362Z" fill="#A02724"/>
<path d="M81.6998 96.7839C81.7238 96.7939 81.7496 96.799 81.7756 96.799C81.8016 96.799 81.8273 96.7939 81.8514 96.7839C82.1412 96.6916 82.4484 96.6674 82.7491 96.7131C83.0498 96.7588 83.3359 96.8733 83.5852 97.0476C83.6111 97.0669 83.6406 97.0807 83.6719 97.0885C83.7032 97.0963 83.7357 97.0977 83.7676 97.0928C83.7995 97.0879 83.8301 97.0767 83.8576 97.0599C83.8851 97.0431 83.9091 97.021 83.928 96.9949C83.9644 96.9502 83.9843 96.8943 83.9843 96.8367C83.9843 96.779 83.9644 96.7232 83.928 96.6785C83.6183 96.4483 83.2582 96.2954 82.8775 96.2323C82.4969 96.1693 82.1067 96.1979 81.7393 96.3159C81.6792 96.3383 81.6299 96.3829 81.6017 96.4405C81.5735 96.4982 81.5685 96.5645 81.5877 96.6257C81.5988 96.6614 81.6184 96.6938 81.6448 96.7202C81.6712 96.7466 81.7036 96.7662 81.7393 96.7773L81.6998 96.7839Z" fill="#263238"/>
<path d="M67.8754 100.871C68.6137 104.622 69.3455 111.498 66.7217 114.003C66.7217 114.003 67.7501 117.807 74.7249 117.807C82.3919 117.807 78.3903 114.003 78.3903 114.003C74.2041 113.001 74.8765 109.896 75.6083 106.982L67.8754 100.871Z" fill="#B55B52"/>
<path d="M69.5831 94.0678C68.2119 98.9726 67.1571 101.774 68.7261 105.077C71.0796 110.054 79.3069 110.701 81.5483 105.005C83.2558 99.7307 84.9434 94.2129 80.8891 90.6727C80.0026 89.8877 78.9304 89.342 77.774 89.0874C76.6176 88.8327 75.4153 88.8775 74.2811 89.2175C73.1469 89.5575 72.1182 90.1815 71.2926 91.0303C70.467 91.8791 69.8718 92.9246 69.5633 94.0678H69.5831Z" fill="#B55B52"/>
<path d="M64.2695 95.7027C63.9135 93.8964 63.8212 91.9187 64.7244 90.3101C65.6275 88.7016 67.8096 87.7193 69.3984 88.6554C69.9147 87.568 70.6783 86.6165 71.6282 85.8771C72.578 85.1377 73.6878 84.6308 74.8686 84.3971C76.0495 84.1634 77.2686 84.2093 78.4286 84.5312C79.5885 84.8531 80.657 85.442 81.5485 86.2508C82.4401 87.0596 83.1299 88.0658 83.5629 89.189C83.9959 90.3122 84.1601 91.5211 84.0421 92.7191C83.9242 93.917 83.5275 95.0708 82.8839 96.088C82.2402 97.1052 81.3674 97.9576 80.3352 98.577C80.6978 97.2256 81.067 95.8807 81.4296 94.5293C81.1057 96.4109 80.1073 98.1101 78.6212 99.3088L79.2804 95.2676C79.1768 96.2215 78.8524 97.1382 78.3329 97.9449C77.8134 98.7517 77.113 99.4263 76.2875 99.9153L77.0588 97.0871C76.668 98.3876 76.1696 99.6534 75.5689 100.871C74.9096 101.629 74.4877 106.587 72.2199 106.745C64.4277 108.294 65.1001 99.9219 64.2695 95.7027Z" fill="#263238"/>
<path d="M74.7581 98.0496C74.6265 99.3072 74.9089 100.573 75.5624 101.656C76.4392 103.066 77.7247 102.526 78.1993 101.082C78.6213 99.7637 78.6674 97.4893 77.4478 96.5729C76.2282 95.6566 74.9427 96.54 74.7581 98.0496Z" fill="#B55B52"/>
<path d="M56.1742 145.568C55.337 145.291 51.4145 143.274 50.7882 143.636C52.6011 139.022 53.7284 138.303 54.5525 135.363C54.7819 134.633 54.8218 133.856 54.6684 133.107C54.515 132.357 54.1734 131.659 53.6757 131.078C52.5154 129.522 52.1133 128.737 50.1883 128.929C47.5513 133.359 44.1958 138.817 42.8905 143.821C42.4488 145.502 42.1324 146.781 43.1344 148.205C44.0178 149.457 45.6461 149.958 47.1756 150.097C50.8475 150.426 56.2995 149.754 56.227 147.572C56.1874 146.194 56.1742 145.568 56.1742 145.568Z" fill="#B55B52"/>
<path d="M55.5543 145.403L58.6659 144.394L58.389 150.018C58.389 150.018 55.8971 150.103 54.5654 148.436L55.5543 145.403Z" fill="#B55B52"/>
<path d="M62.5556 144.302L62.1139 148.943L58.3892 150.018L58.666 144.394L62.5556 144.302Z" fill="#B55B52"/>
<path d="M98.2341 149.398C98.2341 149.398 93.8765 145.983 88.1938 134.776C87.35 133.207 86.5457 131.618 85.7678 130.023C84.9899 128.428 84.2515 126.832 83.5396 125.138L90.277 122.237C91.6614 125.257 93.8237 128.375 95.3532 131.374C96.8826 134.374 100.489 141.481 100.944 142.14C101.168 142.483 101.412 142.766 101.642 143.082L101.992 143.544L97.6473 148.567L98.2341 149.398Z" fill="#B55B52"/>
<path d="M103.936 127.524L102.618 125.916L101.998 123.51L106.066 119.732C106.688 120.523 107.241 121.366 107.72 122.25C107.825 122.454 107.875 122.681 107.865 122.91L107.7 127.149L103.936 127.524Z" fill="#B55B52"/>
<path d="M102.024 120.912L105.063 118.15L106.026 119.765L101.965 123.523L102.024 120.912Z" fill="#B55B52"/>
<path d="M103.996 126.364C104.101 125.909 104.193 126.799 104.497 126.443C105.393 125.362 106.698 125.25 107.476 126.443C108.254 127.636 107.588 139.378 106.349 143.063C105.525 145.508 105.083 147.46 102.974 148.95C102.121 149.608 101.083 149.981 100.007 150.018C99.4711 150.024 98.9444 149.877 98.489 149.595C98.0335 149.312 97.6682 148.905 97.436 148.422C96.7768 146.886 99.1369 141.349 99.9675 139.562C102.572 133.939 102.75 131.678 103.996 126.364Z" fill="#B55B52"/>
<path d="M95.2738 125.856L100.66 125.804C101.428 125.853 102.198 125.731 102.914 125.448C103.792 124.936 104.447 124.116 104.754 123.147C105.518 121.169 105.584 119.047 105.881 116.976C106.178 114.906 106.811 112.731 108.38 111.34C105.518 111.722 100.469 110.826 98.2602 113.166C97.0999 114.412 95.0497 125.856 95.2738 125.856Z" fill="#FF631F"/>
<path opacity="0.5" d="M95.2738 125.856L100.66 125.804C101.428 125.853 102.198 125.731 102.914 125.448C103.792 124.936 104.447 124.116 104.754 123.147C105.518 121.169 105.584 119.047 105.881 116.976C106.178 114.906 106.811 112.731 108.38 111.34C105.518 111.722 100.469 110.826 98.2602 113.166C97.0999 114.412 95.0497 125.856 95.2738 125.856Z" fill="white"/>
<path d="M104.49 117.853C104.18 117.939 103.976 119.04 104.042 119.356L104.345 119.897L104.958 122.534L107.015 121.4L105.162 118.104C105.092 117.996 104.988 117.913 104.867 117.868C104.746 117.823 104.614 117.818 104.49 117.853Z" fill="#B55B52"/>
<path d="M58.0334 114.946C53.2209 116.047 46.1011 131.045 46.1011 131.045L55.759 137.637C58.5403 133.668 61.0511 129.517 63.2743 125.21C66.1289 119.238 62.9513 113.819 58.0334 114.946Z" fill="#FF631F"/>
<path d="M65.0605 115.309C64.5068 114.102 63.9068 112.724 65.1528 112.296C66.5306 111.821 74.0724 111.333 76.6698 112.223C77.01 112.316 77.3287 112.474 77.6074 112.69C77.8862 112.906 78.1196 113.175 78.2941 113.481C78.4687 113.787 78.5811 114.125 78.6248 114.475C78.6684 114.825 78.6426 115.18 78.5486 115.52V115.566L65.0605 115.309Z" fill="#263238"/>
<path opacity="0.2" d="M61.0063 123.608L54.1436 136.53L55.7587 137.637C55.7587 137.637 58.8703 133.306 61.0326 129.561L61.0063 123.608Z" fill="black"/>
<path d="M87.2839 121.545C88.3255 126.819 85.8929 139.345 85.9193 159.781H58.4816C58.3036 155.654 61.3098 145.871 57.5719 126.384C57.4532 125.725 57.4005 115.078 58.0333 114.966C60.6903 114.501 63.3709 114.184 66.0629 114.016C69.9492 113.792 73.8452 113.792 77.7315 114.016C79.3203 114.181 81.8188 115.164 83.401 115.731C85.86 116.601 86.7829 118.954 87.2839 121.545Z" fill="#FF631F"/>
<path opacity="0.2" d="M80.0317 126.786C80.7437 131.117 83.585 136.839 86.4132 140.202C86.5253 137.743 86.7758 135.172 86.7692 133.2L80.0317 126.786Z" fill="black"/>
<path d="M78.0541 120.273C77.3948 125.131 86.9539 137.532 86.9539 137.532L96.5722 130.939C96.5722 130.939 93.9023 124.103 89.4128 119.62C84.3169 114.491 78.8254 114.999 78.0541 120.273Z" fill="#FF631F"/>
<path d="M109.513 227.815H114.642L115.809 215.929H110.68L109.513 227.815Z" fill="#B55B52"/>
<path opacity="0.2" d="M115.73 216.647L115.137 222.772H110.001L110.601 216.647H115.73Z" fill="black"/>
<path d="M89.2812 227.815H94.4102L96.9878 215.929H91.8589L89.2812 227.815Z" fill="#B55B52"/>
<g opacity="0.2">
<path d="M91.7467 216.562H96.8756L95.5439 222.686H90.415L91.7467 216.562Z" fill="black"/>
</g>
<path d="M114.932 225.508H109.336C109.22 225.521 109.112 225.575 109.032 225.659C108.951 225.743 108.902 225.853 108.894 225.969L107.879 231.836C107.82 232.064 107.844 232.305 107.945 232.517C108.046 232.729 108.219 232.899 108.432 232.997C108.494 233.006 108.556 233.006 108.617 232.997C110.634 232.957 113.555 232.799 116.093 232.799C119.066 232.799 121.63 233.003 125.111 233.003C127.221 233.003 127.808 230.248 126.924 230.004C122.909 228.87 119.633 228.751 116.165 225.976C115.82 225.683 115.385 225.518 114.932 225.508Z" fill="#263238"/>
<path d="M119.007 227.413C119.666 227.413 120.325 227.32 120.516 227.024C120.571 226.945 120.6 226.852 120.6 226.757C120.6 226.661 120.571 226.568 120.516 226.49C120.429 226.351 120.292 226.25 120.134 226.206C119.277 225.976 117.497 226.997 117.411 227.044C117.389 227.055 117.371 227.073 117.36 227.096C117.349 227.119 117.346 227.144 117.352 227.169C117.355 227.193 117.366 227.215 117.383 227.233C117.399 227.25 117.421 227.263 117.444 227.268C117.959 227.365 118.482 227.414 119.007 227.413ZM119.824 226.417H120.055C120.104 226.427 120.151 226.448 120.192 226.477C120.233 226.507 120.267 226.545 120.292 226.589C120.378 226.74 120.351 226.813 120.292 226.852C120.055 227.189 118.756 227.195 117.8 227.057C118.429 226.718 119.115 226.499 119.824 226.411V226.417Z" fill="#FF631F"/>
<path d="M117.457 227.268H117.51C118.13 226.991 119.356 225.883 119.257 225.29C119.257 225.152 119.138 224.987 118.809 224.947C118.57 224.929 118.334 225.005 118.15 225.158C117.49 225.692 117.358 227.077 117.352 227.136C117.349 227.157 117.351 227.179 117.36 227.198C117.368 227.218 117.381 227.235 117.398 227.248C117.415 227.26 117.436 227.267 117.457 227.268ZM118.71 225.191H118.782C119 225.191 119.013 225.303 119.02 225.33C119.079 225.679 118.242 226.549 117.609 226.925C117.663 226.345 117.893 225.795 118.268 225.349C118.394 225.249 118.549 225.193 118.71 225.191Z" fill="#FF631F"/>
<path d="M94.7727 225.508H89.0109C88.8958 225.521 88.7892 225.575 88.7096 225.659C88.6301 225.744 88.5827 225.853 88.5758 225.969L87.5606 231.836C87.5055 232.069 87.5341 232.313 87.6414 232.527C87.7487 232.74 87.9279 232.909 88.1473 233.003C88.2021 233.01 88.2574 233.01 88.3121 233.003C90.3228 232.964 91.3051 232.805 93.8366 232.805C95.399 232.805 97.3965 233.01 99.5522 233.01C101.708 233.01 101.985 230.254 101.101 230.01C97.146 228.889 96.8757 227.373 95.6099 225.87C95.505 225.753 95.3757 225.659 95.2312 225.597C95.0866 225.534 94.9302 225.504 94.7727 225.508Z" fill="#263238"/>
<path d="M97.7855 228.065C98.003 228.095 98.2244 228.081 98.4362 228.023C98.6481 227.966 98.8461 227.865 99.0183 227.729C99.0788 227.646 99.1114 227.545 99.1114 227.442C99.1114 227.339 99.0788 227.239 99.0183 227.156C98.9792 227.083 98.9247 227.02 98.8587 226.971C98.7926 226.922 98.7165 226.888 98.6359 226.872C97.8844 226.694 96.467 227.663 96.4077 227.703C96.3888 227.717 96.3741 227.737 96.3649 227.759C96.3556 227.78 96.3522 227.804 96.3549 227.828C96.3587 227.851 96.3697 227.873 96.3862 227.889C96.4028 227.906 96.4241 227.917 96.4472 227.92C96.8866 228.018 97.3354 228.066 97.7855 228.065ZM98.4447 227.09H98.5897C98.6363 227.098 98.6804 227.117 98.7191 227.144C98.7577 227.172 98.7901 227.207 98.8139 227.248C98.926 227.452 98.86 227.531 98.8139 227.564C98.5963 227.848 97.5481 227.854 96.7768 227.729C97.2724 227.389 97.8377 227.164 98.4315 227.07L98.4447 227.09Z" fill="#FF631F"/>
<path d="M96.5131 227.927C97.0471 227.637 98.0755 226.516 97.9634 225.949C97.9465 225.858 97.8983 225.776 97.8273 225.717C97.7563 225.658 97.6668 225.626 97.5745 225.626C97.4825 225.617 97.3898 225.627 97.3015 225.654C97.2133 225.681 97.1313 225.725 97.0603 225.784C96.4669 226.272 96.3417 227.762 96.3351 227.815C96.3341 227.837 96.3391 227.859 96.3495 227.879C96.3599 227.899 96.3755 227.915 96.3944 227.927H96.5131ZM97.5481 225.85H97.6008C97.759 225.85 97.7722 225.943 97.7788 225.976C97.8447 226.312 97.1855 227.162 96.6581 227.564C96.699 226.98 96.9098 226.421 97.2646 225.956C97.3437 225.888 97.4441 225.851 97.5481 225.85Z" fill="#FF631F"/>
<path d="M77.6982 159.768C77.6982 159.768 101.991 169.802 107.015 177.508C104.028 197.114 98.6687 219.449 98.6687 219.449H89.5316C89.5461 209.785 90.3376 200.138 91.8983 190.601C93.2168 166.637 50.0891 191.431 58.4681 159.768H77.6982Z" fill="#263238"/>
<path opacity="0.3" d="M94.4959 176.308C92.7942 176.409 91.0994 176.604 89.4197 176.895L84.0996 177.712C86.8439 180.018 89.7401 182.137 92.7687 184.054C94.6079 185.221 96.612 186.342 98.7809 186.349C101.22 186.349 107.839 183.224 106.745 179.974C105.65 176.724 97.2647 176.19 94.4959 176.308Z" fill="black"/>
<path d="M85.9259 159.768C85.9259 159.768 108.38 162.669 120.76 169.716C124.571 171.885 124.057 178.853 123.938 183.441C123.672 195.754 121.309 207.931 116.95 219.449H109.316C109.316 219.449 109.705 207.009 109.448 186.935C109.369 180.916 97.2187 178.932 85.3458 178.233C80.318 177.917 75.4786 176.202 71.3736 173.282C67.2686 170.362 64.0615 166.352 62.1141 161.706L61.3032 159.768H85.9259Z" fill="#263238"/>
<path d="M118.802 217.406C118.842 217.406 118.308 221.012 118.308 221.012H107.76L107.47 217.794L118.802 217.406Z" fill="#FF631F"/>
<path d="M99.5521 217.406C99.5917 217.406 98.583 221.012 98.583 221.012H88.0352L88.2263 217.794L99.5521 217.406Z" fill="#FF631F"/>
<path d="M71.2113 177.963L63.6498 233.676L62.2852 233.484L68.1194 177.541L71.2113 177.963Z" fill="#FF631F"/>
<path opacity="0.4" d="M70.941 179.961L63.6498 233.676L62.2852 233.484L67.8689 179.947L70.941 179.961Z" fill="black"/>
<path d="M97.7922 179.954H54.9414C54.9414 179.312 55.0679 178.675 55.3138 178.082C55.5596 177.489 55.9199 176.949 56.3741 176.495C56.8283 176.041 57.3676 175.68 57.9611 175.435C58.5545 175.189 59.1906 175.062 59.833 175.062H92.9006C93.543 175.062 94.179 175.189 94.7725 175.435C95.366 175.68 95.9052 176.041 96.3595 176.495C96.8137 176.949 97.174 177.489 97.4198 178.082C97.6656 178.675 97.7922 179.312 97.7922 179.954Z" fill="#FF631F"/>
<path opacity="0.7" d="M97.7922 179.954H54.9414C54.9414 179.312 55.0679 178.675 55.3138 178.082C55.5596 177.489 55.9199 176.949 56.3741 176.495C56.8283 176.041 57.3676 175.68 57.9611 175.435C58.5545 175.189 59.1906 175.062 59.833 175.062H92.9006C93.543 175.062 94.179 175.189 94.7725 175.435C95.366 175.68 95.9052 176.041 96.3595 176.495C96.8137 176.949 97.174 177.489 97.4198 178.082C97.6656 178.675 97.7922 179.312 97.7922 179.954Z" fill="white"/>
<path d="M56.9259 179.947L50.4653 234.117H51.8497L60.0441 179.947H56.9259Z" fill="#FF631F"/>
<path d="M95.8079 179.947L102.268 234.117H100.884L92.6963 179.947H95.8079Z" fill="#FF631F"/>
<path opacity="0.4" d="M95.8079 179.947L102.268 234.117H100.884L92.6963 179.947H95.8079Z" fill="black"/>
<path d="M87.1651 179.947L87.2903 234.117H85.9125L84.0469 179.947H87.1651Z" fill="#FF631F"/>
</svg>
