<svg width="25" height="25" viewBox="0 0 25 25" fill="none" xmlns="http://www.w3.org/2000/svg">
<g clip-path="url(#clip0_3_2482)">
<path fill-rule="evenodd" clip-rule="evenodd" d="M24.4271 6.19551C24.6 5.62676 24.4271 5.20801 23.599 5.20801H20.8646C20.1688 5.20801 19.8479 5.56947 19.674 5.96842C19.674 5.96842 18.2833 9.29759 16.3135 11.4601C15.676 12.0872 15.3865 12.2861 15.0385 12.2861C14.8646 12.2861 14.6031 12.0872 14.6031 11.5174V6.19551C14.6031 5.51217 14.4115 5.20801 13.8323 5.20801H9.53229C9.09792 5.20801 8.83646 5.52467 8.83646 5.82572C8.83646 6.47259 9.82187 6.62259 9.92292 8.44342V12.3997C9.92292 13.2674 9.76354 13.4247 9.41562 13.4247C8.48854 13.4247 6.23333 10.0799 4.89479 6.2528C4.63542 5.50801 4.37292 5.20801 3.67396 5.20801H0.9375C0.15625 5.20801 0 5.56947 0 5.96842C0 6.67884 0.927083 10.208 4.31771 14.8757C6.57812 18.0632 9.76042 19.7913 12.6594 19.7913C14.3979 19.7913 14.6125 19.408 14.6125 18.7465V16.3372C14.6125 15.5695 14.7771 15.4163 15.3281 15.4163C15.7344 15.4163 16.4292 15.6163 18.0521 17.1528C19.9062 18.9747 20.2115 19.7913 21.2552 19.7913H23.9896C24.7708 19.7913 25.1625 19.408 24.9375 18.6497C24.6896 17.8955 23.8042 16.8007 22.6302 15.5018C21.9927 14.7622 21.0365 13.9653 20.7458 13.5663C20.3406 13.0549 20.4562 12.8268 20.7458 12.3715C20.7458 12.3715 24.0792 7.76113 24.426 6.19551H24.4271Z" fill="#0077FF"/>
</g>
<defs>
<clipPath id="clip0_3_2482">
<rect width="25" height="25" fill="white"/>
</clipPath>
</defs>
</svg>
