<svg width="149" height="27" viewBox="0 0 149 27" fill="none" xmlns="http://www.w3.org/2000/svg">
<path d="M1.498 10C1.218 10 1.03133 9.97667 0.938 9.93C0.854 9.874 0.812 9.75733 0.812 9.58V1.838C0.812 1.65133 0.868 1.52533 0.98 1.46C1.10133 1.38533 1.35333 1.348 1.736 1.348C2.11867 1.348 2.38 1.38067 2.52 1.446C2.66933 1.502 2.786 1.64667 2.87 1.88L4.438 6.066H4.508L6.09 1.88C6.174 1.64667 6.286 1.502 6.426 1.446C6.57533 1.38067 6.84133 1.348 7.224 1.348C7.59733 1.348 7.84 1.38533 7.952 1.46C8.07333 1.52533 8.134 1.65133 8.134 1.838V9.58C8.134 9.748 8.08733 9.86 7.994 9.916C7.91 9.972 7.73267 10 7.462 10C7.182 10 6.99533 9.97667 6.902 9.93C6.818 9.874 6.776 9.75733 6.776 9.58C6.776 8.10533 6.78533 6.01467 6.804 3.308H6.706L5.222 7.284C5.14733 7.48933 5.06333 7.62 4.97 7.676C4.87667 7.732 4.71333 7.76 4.48 7.76C4.23733 7.76 4.06933 7.732 3.976 7.676C3.88267 7.62 3.79867 7.48933 3.724 7.284L2.24 3.308H2.142C2.16067 6.01467 2.17 8.10533 2.17 9.58C2.17 9.748 2.12333 9.86 2.03 9.916C1.946 9.972 1.76867 10 1.498 10ZM12.5114 10.14C12.0727 10.14 11.7134 10.1167 11.4334 10.07C11.1534 10.0233 10.8874 9.93467 10.6354 9.804C10.3834 9.664 10.1874 9.46333 10.0474 9.202C9.91674 8.94067 9.80941 8.6 9.72541 8.18C9.65074 7.76 9.61341 7.242 9.61341 6.626C9.61341 5.97267 9.65541 5.422 9.73941 4.974C9.83274 4.526 9.94941 4.17133 10.0894 3.91C10.2294 3.64867 10.4254 3.448 10.6774 3.308C10.9387 3.168 11.1954 3.07933 11.4474 3.042C11.6994 2.99533 12.0261 2.972 12.4274 2.972C12.8754 2.972 13.2487 3.01867 13.5474 3.112C13.8554 3.196 14.0981 3.31733 14.2754 3.476C14.4621 3.63467 14.6021 3.85867 14.6954 4.148C14.7981 4.428 14.8634 4.72667 14.8914 5.044C14.9287 5.352 14.9474 5.74867 14.9474 6.234C14.9474 6.47667 14.9101 6.64933 14.8354 6.752C14.7607 6.85467 14.6114 6.906 14.3874 6.906H10.9854C10.9947 7.79267 11.0974 8.35733 11.2934 8.6C11.4894 8.84267 11.9327 8.964 12.6234 8.964C12.9407 8.964 13.2487 8.94067 13.5474 8.894C13.8554 8.84733 14.1027 8.80533 14.2894 8.768C14.4761 8.72133 14.5881 8.698 14.6254 8.698C14.7747 8.698 14.8494 8.88 14.8494 9.244C14.8494 9.44 14.8214 9.58 14.7654 9.664C14.7187 9.73867 14.6254 9.79933 14.4854 9.846C13.9441 10.042 13.2861 10.14 12.5114 10.14ZM12.3994 4.106C11.8674 4.106 11.5034 4.22267 11.3074 4.456C11.1207 4.68933 11.0134 5.20733 10.9854 6.01H13.6454C13.6454 5.26333 13.5754 4.75933 13.4354 4.498C13.3047 4.23667 12.9594 4.106 12.3994 4.106ZM18.9613 10.14C18.4479 10.14 18.0373 10.098 17.7293 10.014C17.4213 9.93933 17.1413 9.78533 16.8893 9.552C16.6466 9.30933 16.4693 8.95467 16.3573 8.488C16.2546 8.012 16.2033 7.39133 16.2033 6.626C16.2033 5.97267 16.2453 5.422 16.3293 4.974C16.4226 4.51667 16.5393 4.162 16.6793 3.91C16.8193 3.64867 17.0153 3.448 17.2673 3.308C17.5193 3.168 17.7666 3.07933 18.0093 3.042C18.2613 2.99533 18.5786 2.972 18.9613 2.972C19.5679 2.972 20.1466 3.056 20.6973 3.224C20.8373 3.27067 20.9306 3.33133 20.9773 3.406C21.0333 3.48067 21.0613 3.62067 21.0613 3.826C21.0613 4.19 20.9773 4.372 20.8093 4.372C20.7999 4.372 20.5806 4.33467 20.1513 4.26C19.7313 4.176 19.3813 4.134 19.1013 4.134C18.6813 4.134 18.3733 4.18067 18.1773 4.274C17.9813 4.36733 17.8319 4.582 17.7293 4.918C17.6266 5.254 17.5753 5.77667 17.5753 6.486C17.5753 7.578 17.6593 8.264 17.8273 8.544C18.0046 8.824 18.4386 8.964 19.1292 8.964C19.5026 8.964 19.8806 8.91733 20.2633 8.824L20.8373 8.698C20.9866 8.698 21.0613 8.88 21.0613 9.244C21.0613 9.44 21.0379 9.58 20.9913 9.664C20.9446 9.73867 20.8513 9.79933 20.7113 9.846C20.1513 10.042 19.5679 10.14 18.9613 10.14ZM24.9072 9.916C24.8232 9.972 24.6459 10 24.3752 10C24.1045 10 23.9225 9.972 23.8292 9.916C23.7359 9.86 23.6892 9.748 23.6892 9.58V4.33H22.1492C21.9999 4.33 21.8972 4.29267 21.8412 4.218C21.7852 4.134 21.7572 3.97067 21.7572 3.728C21.7572 3.48533 21.7852 3.322 21.8412 3.238C21.8972 3.154 21.9999 3.112 22.1492 3.112H26.6012C26.7505 3.112 26.8532 3.154 26.9092 3.238C26.9652 3.322 26.9932 3.48533 26.9932 3.728C26.9932 3.97067 26.9652 4.134 26.9092 4.218C26.8532 4.29267 26.7505 4.33 26.6012 4.33H25.0472V9.58C25.0472 9.748 25.0005 9.86 24.9072 9.916ZM30.6087 10.14C29.8807 10.14 29.33 10.0513 28.9567 9.874C28.5927 9.68733 28.322 9.34667 28.1447 8.852C27.9767 8.348 27.8927 7.60133 27.8927 6.612C27.8927 5.184 28.1074 4.22267 28.5367 3.728C28.966 3.224 29.7314 2.972 30.8327 2.972C31.5607 2.972 32.1067 3.06067 32.4707 3.238C32.8347 3.41533 33.1007 3.75133 33.2687 4.246C33.446 4.74067 33.5347 5.48267 33.5347 6.472C33.5347 7.90933 33.32 8.88 32.8907 9.384C32.4614 9.888 31.7007 10.14 30.6087 10.14ZM30.6367 8.992C31.2714 8.992 31.682 8.84267 31.8687 8.544C32.0647 8.236 32.1627 7.58733 32.1627 6.598C32.1627 5.52467 32.0787 4.84333 31.9107 4.554C31.752 4.26467 31.374 4.12 30.7767 4.12C30.1514 4.12 29.7454 4.26933 29.5587 4.568C29.372 4.86667 29.2787 5.506 29.2787 6.486C29.2787 7.56867 29.358 8.25933 29.5167 8.558C29.6754 8.84733 30.0487 8.992 30.6367 8.992ZM36.0687 9.902C35.9847 9.96733 35.7934 10 35.4947 10C35.196 10 35 9.96733 34.9067 9.902C34.8134 9.83667 34.7667 9.70133 34.7667 9.496V9.034C34.7667 8.81933 34.8087 8.684 34.8927 8.628C34.986 8.56267 35.1867 8.53 35.4947 8.53C35.7934 8.53 35.9847 8.56267 36.0687 8.628C36.162 8.684 36.2087 8.81933 36.2087 9.034V9.496C36.2087 9.70133 36.162 9.83667 36.0687 9.902ZM36.0687 4.4C35.9847 4.46533 35.7934 4.498 35.4947 4.498C35.196 4.498 35 4.46533 34.9067 4.4C34.8134 4.33467 34.7667 4.19933 34.7667 3.994V3.532C34.7667 3.31733 34.8087 3.182 34.8927 3.126C34.986 3.06067 35.1867 3.028 35.4947 3.028C35.7934 3.028 35.9847 3.06067 36.0687 3.126C36.162 3.182 36.2087 3.31733 36.2087 3.532V3.994C36.2087 4.19933 36.162 4.33467 36.0687 4.4Z" fill="#FF631F"/>
<path d="M43.1914 10.126C42.9021 10.126 42.6594 10.1167 42.4634 10.098C42.2768 10.0887 42.0714 10.056 41.8474 10C41.6234 9.944 41.4368 9.86467 41.2874 9.762C41.1474 9.65 41.0074 9.50067 40.8674 9.314C40.7274 9.12733 40.6154 8.90333 40.5314 8.642C40.4568 8.37133 40.3961 8.04 40.3494 7.648C40.3028 7.256 40.2794 6.808 40.2794 6.304V5.24C40.2794 4.64267 40.3074 4.12467 40.3634 3.686C40.4194 3.24733 40.5081 2.888 40.6294 2.608C40.7601 2.31867 40.8954 2.09 41.0354 1.922C41.1848 1.74467 41.3808 1.614 41.6234 1.53C41.8754 1.446 42.1134 1.39 42.3374 1.362C42.5708 1.334 42.8648 1.32 43.2194 1.32C43.8728 1.32 44.5028 1.40867 45.1094 1.586C45.2401 1.614 45.3288 1.66067 45.3754 1.726C45.4221 1.79133 45.4454 1.92667 45.4454 2.132C45.4454 2.44 45.3708 2.594 45.2214 2.594C45.1841 2.594 45.0814 2.57533 44.9134 2.538C44.7454 2.49133 44.5261 2.44933 44.2554 2.412C43.9848 2.36533 43.7141 2.342 43.4434 2.342C42.8648 2.342 42.4494 2.398 42.1974 2.51C41.9454 2.622 41.7541 2.89267 41.6234 3.322C41.5021 3.742 41.4414 4.42333 41.4414 5.366V6.066C41.4414 6.542 41.4554 6.948 41.4834 7.284C41.5114 7.61067 41.5628 7.89067 41.6374 8.124C41.7121 8.348 41.7914 8.52533 41.8754 8.656C41.9594 8.77733 42.0854 8.87067 42.2534 8.936C42.4308 9.00133 42.5988 9.04333 42.7574 9.062C42.9254 9.08067 43.1541 9.09 43.4434 9.09C43.7328 9.09 44.0081 9.07133 44.2694 9.034C44.5401 8.98733 44.7548 8.94533 44.9134 8.908C45.0814 8.86133 45.1841 8.838 45.2214 8.838C45.3054 8.838 45.3614 8.87067 45.3894 8.936C45.4268 8.992 45.4454 9.11333 45.4454 9.3C45.4454 9.496 45.4174 9.63133 45.3614 9.706C45.3148 9.77133 45.2308 9.82267 45.1094 9.86C44.4468 10.0373 43.8074 10.126 43.1914 10.126ZM48.7518 10C48.5092 10 48.3505 9.97667 48.2758 9.93C48.2012 9.874 48.1638 9.77133 48.1638 9.622V4.176H46.5258C46.3858 4.176 46.2878 4.14333 46.2318 4.078C46.1852 4.00333 46.1618 3.85867 46.1618 3.644C46.1618 3.43867 46.1852 3.30333 46.2318 3.238C46.2878 3.16333 46.3858 3.126 46.5258 3.126H50.9778C51.1178 3.126 51.2112 3.15867 51.2578 3.224C51.3045 3.28933 51.3278 3.42933 51.3278 3.644C51.3278 3.85867 51.3045 4.00333 51.2578 4.078C51.2112 4.14333 51.1178 4.176 50.9778 4.176H49.3258V9.622C49.3258 9.77133 49.2885 9.874 49.2138 9.93C49.1392 9.97667 48.9852 10 48.7518 10ZM53.9643 10.14C53.339 10.14 52.8816 9.986 52.5923 9.678C52.303 9.37 52.1583 8.866 52.1583 8.166C52.1583 7.44733 52.345 6.93867 52.7183 6.64C53.101 6.332 53.759 6.178 54.6923 6.178H56.2043V5.1C56.2043 4.624 56.111 4.32067 55.9243 4.19C55.7376 4.05 55.3923 3.98 54.8883 3.98C54.459 3.98 54.0063 4.02667 53.5303 4.12C53.0543 4.204 52.807 4.246 52.7883 4.246C52.639 4.246 52.5643 4.092 52.5643 3.784C52.5643 3.49467 52.6623 3.322 52.8583 3.266C53.4556 3.07933 54.1743 2.986 55.0143 2.986C55.8543 2.986 56.4516 3.112 56.8063 3.364C57.161 3.60667 57.3383 4.11067 57.3383 4.876V7.48C57.3383 7.872 57.3663 8.236 57.4223 8.572C57.4783 8.908 57.5296 9.174 57.5763 9.37C57.6323 9.566 57.6603 9.68267 57.6603 9.72C57.6603 9.81333 57.623 9.88333 57.5483 9.93C57.483 9.97667 57.3383 10 57.1143 10C56.909 10 56.7736 9.98133 56.7083 9.944C56.6523 9.90667 56.601 9.818 56.5543 9.678L56.3163 8.768C56.111 9.22533 55.7983 9.57067 55.3783 9.804C54.9676 10.028 54.4963 10.14 53.9643 10.14ZM54.3003 9.174C54.8323 9.174 55.2803 9.02 55.6443 8.712C56.0176 8.404 56.2043 7.984 56.2043 7.452V6.948L54.6363 6.99C54.095 6.99933 53.731 7.07867 53.5443 7.228C53.367 7.368 53.2783 7.64333 53.2783 8.054C53.2783 8.52067 53.353 8.824 53.5023 8.964C53.6516 9.104 53.9176 9.174 54.3003 9.174ZM59.0369 11.526C58.8596 11.526 58.7429 11.5073 58.6869 11.47C58.6309 11.442 58.6029 11.3673 58.6029 11.246V9.468C58.6029 9.25333 58.6262 9.11333 58.6729 9.048C58.7196 8.98267 58.8129 8.95 58.9529 8.95H59.3169L59.9469 3.49C59.9656 3.34067 60.0076 3.24267 60.0729 3.196C60.1476 3.14933 60.2969 3.126 60.5209 3.126H63.7129C63.9462 3.126 64.1002 3.14933 64.1749 3.196C64.2496 3.24267 64.2869 3.34067 64.2869 3.49V8.95H64.6369C64.8049 8.95 64.9169 8.978 64.9729 9.034C65.0289 9.08067 65.0569 9.19267 65.0569 9.37V11.246C65.0569 11.3673 65.0289 11.442 64.9729 11.47C64.9262 11.5073 64.8142 11.526 64.6369 11.526C64.4409 11.526 64.3102 11.5073 64.2449 11.47C64.1796 11.442 64.1376 11.3673 64.1189 11.246L63.9369 10H59.7369L59.5409 11.246C59.5222 11.3673 59.4802 11.442 59.4149 11.47C59.3496 11.5073 59.2236 11.526 59.0369 11.526ZM60.9689 4.148L60.4229 8.95H63.1249V4.148H60.9689ZM70.8806 3.126C71.1419 3.126 71.3239 3.14467 71.4266 3.182C71.5479 3.24733 71.6086 3.36867 71.6086 3.546V9.622C71.6086 9.77133 71.5712 9.874 71.4966 9.93C71.4219 9.97667 71.2679 10 71.0346 10C70.7919 10 70.6332 9.97667 70.5586 9.93C70.4839 9.874 70.4466 9.77133 70.4466 9.622V4.652H70.3486L67.8566 9.594C67.7726 9.762 67.6699 9.874 67.5486 9.93C67.4366 9.97667 67.2452 10 66.9746 10C66.7039 10 66.5266 9.97667 66.4426 9.93C66.3212 9.88333 66.2606 9.76667 66.2606 9.58V3.49C66.2606 3.34067 66.2979 3.24267 66.3726 3.196C66.4472 3.14933 66.6012 3.126 66.8346 3.126C67.0679 3.126 67.2219 3.14933 67.2966 3.196C67.3712 3.24267 67.4086 3.34067 67.4086 3.49V8.418H67.5066L70.0546 3.448C70.1292 3.308 70.2132 3.21933 70.3066 3.182C70.4092 3.14467 70.6006 3.126 70.8806 3.126ZM75.8486 10.14C75.3073 10.14 74.8779 10.0933 74.5606 10C74.2433 9.916 73.9773 9.74333 73.7626 9.482C73.5479 9.22067 73.3986 8.866 73.3146 8.418C73.2399 7.97 73.2026 7.37267 73.2026 6.626C73.2026 5.21667 73.4126 4.26 73.8326 3.756C74.2619 3.24267 75.0086 2.986 76.0726 2.986C76.7819 2.986 77.3139 3.07467 77.6686 3.252C78.0326 3.42933 78.2939 3.76533 78.4526 4.26C78.6206 4.75467 78.7046 5.49667 78.7046 6.486C78.7046 7.89533 78.4946 8.85667 78.0746 9.37C77.6546 9.88333 76.9126 10.14 75.8486 10.14ZM75.8766 9.146C76.5579 9.146 77.0013 8.98267 77.2066 8.656C77.4213 8.32933 77.5286 7.648 77.5286 6.612C77.5286 5.47333 77.4399 4.75 77.2626 4.442C77.0946 4.12467 76.6839 3.966 76.0306 3.966C75.3493 3.966 74.9013 4.12933 74.6866 4.456C74.4813 4.77333 74.3786 5.45 74.3786 6.486C74.3786 7.634 74.4626 8.36667 74.6306 8.684C74.8079 8.992 75.2233 9.146 75.8766 9.146ZM81.4496 5.926H84.2916V3.49C84.2916 3.34067 84.3289 3.24267 84.4036 3.196C84.4876 3.14933 84.6463 3.126 84.8796 3.126C85.1129 3.126 85.2669 3.14933 85.3416 3.196C85.4163 3.24267 85.4536 3.34067 85.4536 3.49V9.622C85.4536 9.77133 85.4163 9.874 85.3416 9.93C85.2669 9.97667 85.1129 10 84.8796 10C84.6369 10 84.4783 9.97667 84.4036 9.93C84.3289 9.874 84.2916 9.77133 84.2916 9.622V6.948H81.4496V9.622C81.4496 9.77133 81.4123 9.874 81.3376 9.93C81.2629 9.97667 81.1089 10 80.8756 10C80.6423 10 80.4883 9.97667 80.4136 9.93C80.3389 9.874 80.3016 9.77133 80.3016 9.622V3.49C80.3016 3.34067 80.3389 3.24267 80.4136 3.196C80.4883 3.14933 80.6423 3.126 80.8756 3.126C81.1089 3.126 81.2629 3.14933 81.3376 3.196C81.4123 3.24267 81.4496 3.34067 81.4496 3.49V5.926ZM90.4003 3.994C90.1576 3.994 89.9943 3.966 89.9103 3.91C89.8356 3.84467 89.7983 3.728 89.7983 3.56V3.168C89.7983 2.89733 89.8636 2.53333 89.9943 2.076L90.2183 1.25C90.2836 1.082 90.349 0.974667 90.4143 0.928C90.489 0.881333 90.6243 0.857999 90.8203 0.857999C90.9696 0.857999 91.0676 0.876666 91.1143 0.913999C91.161 0.942 91.1843 0.998 91.1843 1.082C91.1843 1.138 91.1516 1.376 91.0863 1.796C91.0303 2.216 91.0023 2.56133 91.0023 2.832V3.56C91.0023 3.73733 90.965 3.854 90.8903 3.91C90.8156 3.966 90.6523 3.994 90.4003 3.994ZM92.5003 3.994C92.2576 3.994 92.099 3.966 92.0243 3.91C91.9496 3.854 91.9123 3.73733 91.9123 3.56V3.168C91.9123 2.86933 91.973 2.50533 92.0943 2.076L92.3183 1.25C92.3836 1.09133 92.4536 0.988666 92.5283 0.942C92.603 0.885999 92.7336 0.857999 92.9203 0.857999C93.1723 0.857999 93.2983 0.932666 93.2983 1.082C93.2983 1.138 93.2656 1.376 93.2003 1.796C93.135 2.216 93.1023 2.56133 93.1023 2.832V3.56C93.1023 3.73733 93.065 3.854 92.9903 3.91C92.9156 3.966 92.7523 3.994 92.5003 3.994ZM96.9491 10C96.7158 10 96.5618 9.97667 96.4871 9.93C96.4125 9.874 96.3751 9.77133 96.3751 9.622V2.44H94.4431C94.3031 2.44 94.2098 2.40733 94.1631 2.342C94.1165 2.26733 94.0931 2.12267 94.0931 1.908C94.0931 1.69333 94.1165 1.55333 94.1631 1.488C94.2098 1.42267 94.3031 1.39 94.4431 1.39H99.4551C99.5951 1.39 99.6885 1.42733 99.7351 1.502C99.7911 1.56733 99.8191 1.70267 99.8191 1.908C99.8191 2.12267 99.7911 2.26733 99.7351 2.342C99.6885 2.40733 99.5951 2.44 99.4551 2.44H97.5371V9.622C97.5371 9.77133 97.4998 9.874 97.4251 9.93C97.3505 9.97667 97.1918 10 96.9491 10ZM100.305 3.434C100.305 3.322 100.342 3.24267 100.417 3.196C100.492 3.14933 100.65 3.126 100.893 3.126C101.126 3.126 101.28 3.14467 101.355 3.182C101.43 3.21 101.486 3.28467 101.523 3.406L103.077 8.992H103.189L104.743 3.406C104.78 3.28467 104.836 3.21 104.911 3.182C104.986 3.14467 105.135 3.126 105.359 3.126C105.602 3.126 105.765 3.14933 105.849 3.196C105.933 3.24267 105.975 3.31733 105.975 3.42C105.975 3.56933 105.924 3.80267 105.821 4.12L103.791 10.644C103.539 11.4467 103.292 11.988 103.049 12.268C102.806 12.5573 102.396 12.702 101.817 12.702C101.35 12.702 100.972 12.6507 100.683 12.548C100.562 12.5107 100.473 12.4593 100.417 12.394C100.37 12.3287 100.347 12.2167 100.347 12.058C100.347 11.8713 100.361 11.7453 100.389 11.68C100.426 11.624 100.492 11.596 100.585 11.596C100.594 11.596 100.716 11.61 100.949 11.638C101.192 11.6753 101.439 11.694 101.691 11.694C101.999 11.694 102.214 11.638 102.335 11.526C102.466 11.414 102.582 11.1807 102.685 10.826L102.909 10C102.657 9.99067 102.475 9.93933 102.363 9.846C102.251 9.74333 102.158 9.57067 102.083 9.328L100.515 4.33C100.375 3.87267 100.305 3.574 100.305 3.434ZM109.827 2.244C109.229 2.244 108.828 2.15067 108.623 1.964C108.427 1.768 108.329 1.42267 108.329 0.928C108.329 0.769333 108.352 0.671333 108.399 0.634C108.455 0.587333 108.581 0.564 108.777 0.564C108.963 0.564 109.08 0.582666 109.127 0.62C109.183 0.657333 109.215 0.746 109.225 0.886C109.234 1.09133 109.267 1.22667 109.323 1.292C109.388 1.348 109.556 1.376 109.827 1.376C110.097 1.376 110.265 1.348 110.331 1.292C110.396 1.22667 110.433 1.09133 110.443 0.886C110.452 0.746 110.48 0.657333 110.527 0.62C110.573 0.582666 110.695 0.564 110.891 0.564C111.077 0.564 111.194 0.587333 111.241 0.634C111.297 0.671333 111.325 0.769333 111.325 0.928C111.325 1.42267 111.227 1.768 111.031 1.964C110.835 2.15067 110.433 2.244 109.827 2.244ZM111.801 3.126C112.062 3.126 112.244 3.14467 112.347 3.182C112.468 3.24733 112.529 3.36867 112.529 3.546V9.622C112.529 9.77133 112.491 9.874 112.417 9.93C112.342 9.97667 112.188 10 111.955 10C111.712 10 111.553 9.97667 111.479 9.93C111.404 9.874 111.367 9.77133 111.367 9.622V4.652H111.269L108.777 9.594C108.693 9.762 108.59 9.874 108.469 9.93C108.357 9.97667 108.165 10 107.895 10C107.624 10 107.447 9.97667 107.363 9.93C107.241 9.88333 107.181 9.76667 107.181 9.58V3.49C107.181 3.34067 107.218 3.24267 107.293 3.196C107.367 3.14933 107.521 3.126 107.755 3.126C107.988 3.126 108.142 3.14933 108.217 3.196C108.291 3.24267 108.329 3.34067 108.329 3.49V8.418H108.427L110.975 3.448C111.049 3.308 111.133 3.21933 111.227 3.182C111.329 3.14467 111.521 3.126 111.801 3.126ZM115.299 9.93C115.224 9.97667 115.07 10 114.837 10C114.603 10 114.449 9.97667 114.375 9.93C114.3 9.874 114.263 9.77133 114.263 9.622V3.546C114.263 3.378 114.314 3.266 114.417 3.21C114.519 3.154 114.757 3.126 115.131 3.126C115.467 3.126 115.691 3.154 115.803 3.21C115.924 3.266 116.027 3.40133 116.111 3.616L117.749 7.956H117.819L119.457 3.616C119.541 3.40133 119.639 3.266 119.751 3.21C119.872 3.154 120.101 3.126 120.437 3.126C120.81 3.126 121.048 3.154 121.151 3.21C121.253 3.266 121.305 3.378 121.305 3.546V9.622C121.305 9.77133 121.267 9.874 121.193 9.93C121.118 9.97667 120.964 10 120.731 10C120.488 10 120.329 9.97667 120.255 9.93C120.18 9.874 120.143 9.77133 120.143 9.622C120.143 9.47267 120.152 7.81133 120.171 4.638H120.059L118.463 8.838C118.397 9.01533 118.318 9.132 118.225 9.188C118.141 9.23467 117.991 9.258 117.777 9.258C117.571 9.258 117.422 9.23467 117.329 9.188C117.245 9.132 117.17 9.01533 117.105 8.838L115.509 4.638H115.397C115.406 6.22467 115.411 7.886 115.411 9.622C115.411 9.77133 115.373 9.874 115.299 9.93ZM124.566 10.14C123.941 10.14 123.483 9.986 123.194 9.678C122.905 9.37 122.76 8.866 122.76 8.166C122.76 7.44733 122.947 6.93867 123.32 6.64C123.703 6.332 124.361 6.178 125.294 6.178H126.806V5.1C126.806 4.624 126.713 4.32067 126.526 4.19C126.339 4.05 125.994 3.98 125.49 3.98C125.061 3.98 124.608 4.02667 124.132 4.12C123.656 4.204 123.409 4.246 123.39 4.246C123.241 4.246 123.166 4.092 123.166 3.784C123.166 3.49467 123.264 3.322 123.46 3.266C124.057 3.07933 124.776 2.986 125.616 2.986C126.456 2.986 127.053 3.112 127.408 3.364C127.763 3.60667 127.94 4.11067 127.94 4.876V7.48C127.94 7.872 127.968 8.236 128.024 8.572C128.08 8.908 128.131 9.174 128.178 9.37C128.234 9.566 128.262 9.68267 128.262 9.72C128.262 9.81333 128.225 9.88333 128.15 9.93C128.085 9.97667 127.94 10 127.716 10C127.511 10 127.375 9.98133 127.31 9.944C127.254 9.90667 127.203 9.818 127.156 9.678L126.918 8.768C126.713 9.22533 126.4 9.57067 125.98 9.804C125.569 10.028 125.098 10.14 124.566 10.14ZM124.902 9.174C125.434 9.174 125.882 9.02 126.246 8.712C126.619 8.404 126.806 7.984 126.806 7.452V6.948L125.238 6.99C124.697 6.99933 124.333 7.07867 124.146 7.228C123.969 7.368 123.88 7.64333 123.88 8.054C123.88 8.52067 123.955 8.824 124.104 8.964C124.253 9.104 124.519 9.174 124.902 9.174ZM131.374 10.14C130.749 10.14 130.292 9.986 130.002 9.678C129.713 9.37 129.568 8.866 129.568 8.166C129.568 7.44733 129.755 6.93867 130.128 6.64C130.511 6.332 131.169 6.178 132.102 6.178H133.614V5.1C133.614 4.624 133.521 4.32067 133.334 4.19C133.148 4.05 132.802 3.98 132.298 3.98C131.869 3.98 131.416 4.02667 130.94 4.12C130.464 4.204 130.217 4.246 130.198 4.246C130.049 4.246 129.974 4.092 129.974 3.784C129.974 3.49467 130.072 3.322 130.268 3.266C130.866 3.07933 131.584 2.986 132.424 2.986C133.264 2.986 133.862 3.112 134.216 3.364C134.571 3.60667 134.748 4.11067 134.748 4.876V7.48C134.748 7.872 134.776 8.236 134.832 8.572C134.888 8.908 134.94 9.174 134.986 9.37C135.042 9.566 135.07 9.68267 135.07 9.72C135.07 9.81333 135.033 9.88333 134.958 9.93C134.893 9.97667 134.748 10 134.524 10C134.319 10 134.184 9.98133 134.118 9.944C134.062 9.90667 134.011 9.818 133.964 9.678L133.726 8.768C133.521 9.22533 133.208 9.57067 132.788 9.804C132.378 10.028 131.906 10.14 131.374 10.14ZM131.71 9.174C132.242 9.174 132.69 9.02 133.054 8.712C133.428 8.404 133.614 7.984 133.614 7.452V6.948L132.046 6.99C131.505 6.99933 131.141 7.07867 130.954 7.228C130.777 7.368 130.688 7.64333 130.688 8.054C130.688 8.52067 130.763 8.824 130.912 8.964C131.062 9.104 131.328 9.174 131.71 9.174ZM136.447 11.526C136.27 11.526 136.153 11.5073 136.097 11.47C136.041 11.442 136.013 11.3673 136.013 11.246V9.468C136.013 9.25333 136.036 9.11333 136.083 9.048C136.13 8.98267 136.223 8.95 136.363 8.95H136.727L137.357 3.49C137.376 3.34067 137.418 3.24267 137.483 3.196C137.558 3.14933 137.707 3.126 137.931 3.126H141.123C141.356 3.126 141.51 3.14933 141.585 3.196C141.66 3.24267 141.697 3.34067 141.697 3.49V8.95H142.047C142.215 8.95 142.327 8.978 142.383 9.034C142.439 9.08067 142.467 9.19267 142.467 9.37V11.246C142.467 11.3673 142.439 11.442 142.383 11.47C142.336 11.5073 142.224 11.526 142.047 11.526C141.851 11.526 141.72 11.5073 141.655 11.47C141.59 11.442 141.548 11.3673 141.529 11.246L141.347 10H137.147L136.951 11.246C136.932 11.3673 136.89 11.442 136.825 11.47C136.76 11.5073 136.634 11.526 136.447 11.526ZM138.379 4.148L137.833 8.95H140.535V4.148H138.379ZM145.197 10.14C144.571 10.14 144.114 9.986 143.825 9.678C143.535 9.37 143.391 8.866 143.391 8.166C143.391 7.44733 143.577 6.93867 143.951 6.64C144.333 6.332 144.991 6.178 145.925 6.178H147.437V5.1C147.437 4.624 147.343 4.32067 147.157 4.19C146.97 4.05 146.625 3.98 146.121 3.98C145.691 3.98 145.239 4.02667 144.763 4.12C144.287 4.204 144.039 4.246 144.021 4.246C143.871 4.246 143.797 4.092 143.797 3.784C143.797 3.49467 143.895 3.322 144.091 3.266C144.688 3.07933 145.407 2.986 146.247 2.986C147.087 2.986 147.684 3.112 148.039 3.364C148.393 3.60667 148.571 4.11067 148.571 4.876V7.48C148.571 7.872 148.599 8.236 148.655 8.572C148.711 8.908 148.762 9.174 148.809 9.37C148.865 9.566 148.893 9.68267 148.893 9.72C148.893 9.81333 148.855 9.88333 148.781 9.93C148.715 9.97667 148.571 10 148.347 10C148.141 10 148.006 9.98133 147.941 9.944C147.885 9.90667 147.833 9.818 147.787 9.678L147.549 8.768C147.343 9.22533 147.031 9.57067 146.611 9.804C146.2 10.028 145.729 10.14 145.197 10.14ZM145.533 9.174C146.065 9.174 146.513 9.02 146.877 8.712C147.25 8.404 147.437 7.984 147.437 7.452V6.948L145.869 6.99C145.327 6.99933 144.963 7.07867 144.777 7.228C144.599 7.368 144.511 7.64333 144.511 8.054C144.511 8.52067 144.585 8.824 144.735 8.964C144.884 9.104 145.15 9.174 145.533 9.174ZM5.488 17.126C5.74933 17.126 5.93133 17.1447 6.034 17.182C6.15533 17.2473 6.216 17.3687 6.216 17.546V23.622C6.216 23.7713 6.17867 23.874 6.104 23.93C6.02933 23.9767 5.87533 24 5.642 24C5.39933 24 5.24067 23.9767 5.166 23.93C5.09133 23.874 5.054 23.7713 5.054 23.622V18.652H4.956L2.464 23.594C2.38 23.762 2.27733 23.874 2.156 23.93C2.044 23.9767 1.85267 24 1.582 24C1.31133 24 1.134 23.9767 1.05 23.93C0.928667 23.8833 0.868 23.7667 0.868 23.58V17.49C0.868 17.3407 0.905333 17.2427 0.98 17.196C1.05467 17.1493 1.20867 17.126 1.442 17.126C1.67533 17.126 1.82933 17.1493 1.904 17.196C1.97867 17.2427 2.016 17.3407 2.016 17.49V22.418H2.114L4.662 17.448C4.73667 17.308 4.82067 17.2193 4.914 17.182C5.01667 17.1447 5.208 17.126 5.488 17.126ZM8.98603 23.93C8.91136 23.9767 8.75736 24 8.52403 24C8.2907 24 8.1367 23.9767 8.06203 23.93C7.98736 23.874 7.95003 23.7713 7.95003 23.622V17.546C7.95003 17.378 8.00136 17.266 8.10403 17.21C8.2067 17.154 8.4447 17.126 8.81803 17.126C9.15403 17.126 9.37803 17.154 9.49003 17.21C9.61136 17.266 9.71403 17.4013 9.79803 17.616L11.436 21.956H11.506L13.144 17.616C13.228 17.4013 13.326 17.266 13.438 17.21C13.5594 17.154 13.788 17.126 14.124 17.126C14.4974 17.126 14.7354 17.154 14.838 17.21C14.9407 17.266 14.992 17.378 14.992 17.546V23.622C14.992 23.7713 14.9547 23.874 14.88 23.93C14.8054 23.9767 14.6514 24 14.418 24C14.1754 24 14.0167 23.9767 13.942 23.93C13.8674 23.874 13.83 23.7713 13.83 23.622C13.83 23.4727 13.8394 21.8113 13.858 18.638H13.746L12.15 22.838C12.0847 23.0153 12.0054 23.132 11.912 23.188C11.828 23.2347 11.6787 23.258 11.464 23.258C11.2587 23.258 11.1094 23.2347 11.016 23.188C10.932 23.132 10.8574 23.0153 10.792 22.838L9.19603 18.638H9.08403C9.09336 20.2247 9.09803 21.886 9.09803 23.622C9.09803 23.7713 9.0607 23.874 8.98603 23.93ZM19.4014 24.14C18.8507 24.14 18.4167 24.1027 18.0994 24.028C17.782 23.9533 17.4974 23.7947 17.2454 23.552C17.0027 23.3 16.83 22.9453 16.7274 22.488C16.634 22.0213 16.5874 21.4007 16.5874 20.626C16.5874 19.9727 16.6294 19.422 16.7134 18.974C16.8067 18.5167 16.9234 18.162 17.0634 17.91C17.2034 17.6487 17.3994 17.448 17.6514 17.308C17.9034 17.168 18.1507 17.0793 18.3934 17.042C18.636 17.0047 18.9487 16.986 19.3314 16.986C19.8727 16.986 20.3067 17.0467 20.6334 17.168C20.9694 17.2893 21.2167 17.504 21.3754 17.812C21.5434 18.1107 21.6507 18.4373 21.6974 18.792C21.7534 19.1467 21.7814 19.632 21.7814 20.248C21.7814 20.4533 21.744 20.6027 21.6694 20.696C21.604 20.7893 21.4734 20.836 21.2774 20.836H17.7634C17.7727 21.8253 17.8754 22.4553 18.0714 22.726C18.2767 22.9967 18.7574 23.132 19.5134 23.132C19.8307 23.132 20.1387 23.1087 20.4374 23.062C20.736 23.0153 20.974 22.9687 21.1514 22.922C21.338 22.866 21.45 22.838 21.4874 22.838C21.618 22.838 21.6834 22.992 21.6834 23.3C21.6834 23.4773 21.66 23.6033 21.6134 23.678C21.576 23.7433 21.4874 23.7993 21.3474 23.846C20.806 24.042 20.1574 24.14 19.4014 24.14ZM19.3034 17.966C18.7247 17.966 18.328 18.092 18.1134 18.344C17.908 18.5867 17.7914 19.1513 17.7634 20.038H20.6614C20.6614 19.6927 20.6567 19.436 20.6474 19.268C20.638 19.0907 20.61 18.904 20.5634 18.708C20.5167 18.5027 20.4467 18.358 20.3534 18.274C20.26 18.19 20.1247 18.12 19.9474 18.064C19.7794 17.9987 19.5647 17.966 19.3034 17.966ZM24.4242 19.926H27.2662V17.49C27.2662 17.3407 27.3035 17.2427 27.3782 17.196C27.4622 17.1493 27.6209 17.126 27.8542 17.126C28.0875 17.126 28.2415 17.1493 28.3162 17.196C28.3909 17.2427 28.4282 17.3407 28.4282 17.49V23.622C28.4282 23.7713 28.3909 23.874 28.3162 23.93C28.2415 23.9767 28.0875 24 27.8542 24C27.6115 24 27.4529 23.9767 27.3782 23.93C27.3035 23.874 27.2662 23.7713 27.2662 23.622V20.948H24.4242V23.622C24.4242 23.7713 24.3869 23.874 24.3122 23.93C24.2375 23.9767 24.0835 24 23.8502 24C23.6169 24 23.4629 23.9767 23.3882 23.93C23.3135 23.874 23.2762 23.7713 23.2762 23.622V17.49C23.2762 17.3407 23.3135 17.2427 23.3882 17.196C23.4629 17.1493 23.6169 17.126 23.8502 17.126C24.0835 17.126 24.2375 17.1493 24.3122 17.196C24.3869 17.2427 24.4242 17.3407 24.4242 17.49V19.926ZM34.7868 17.126C35.0482 17.126 35.2302 17.1447 35.3328 17.182C35.4542 17.2473 35.5148 17.3687 35.5148 17.546V23.622C35.5148 23.7713 35.4775 23.874 35.4028 23.93C35.3282 23.9767 35.1742 24 34.9408 24C34.6982 24 34.5395 23.9767 34.4648 23.93C34.3902 23.874 34.3528 23.7713 34.3528 23.622V18.652H34.2548L31.7628 23.594C31.6788 23.762 31.5762 23.874 31.4548 23.93C31.3428 23.9767 31.1515 24 30.8808 24C30.6102 24 30.4328 23.9767 30.3488 23.93C30.2275 23.8833 30.1668 23.7667 30.1668 23.58V17.49C30.1668 17.3407 30.2042 17.2427 30.2788 17.196C30.3535 17.1493 30.5075 17.126 30.7408 17.126C30.9742 17.126 31.1282 17.1493 31.2028 17.196C31.2775 17.2427 31.3148 17.3407 31.3148 17.49V22.418H31.4128L33.9608 17.448C34.0355 17.308 34.1195 17.2193 34.2128 17.182C34.3155 17.1447 34.5068 17.126 34.7868 17.126ZM41.2269 19.03H44.4609V15.754C44.4609 15.6047 44.4983 15.5067 44.5729 15.46C44.6476 15.4133 44.8016 15.39 45.0349 15.39C45.2683 15.39 45.4223 15.4133 45.4969 15.46C45.5716 15.5067 45.6089 15.6047 45.6089 15.754V23.622C45.6089 23.7807 45.5716 23.8833 45.4969 23.93C45.4223 23.9767 45.2683 24 45.0349 24C44.8016 24 44.6476 23.9767 44.5729 23.93C44.4983 23.874 44.4609 23.7713 44.4609 23.622V20.052H41.2269V23.622C41.2269 23.7713 41.1896 23.874 41.1149 23.93C41.0403 23.9767 40.8863 24 40.6529 24C40.4196 24 40.2656 23.9767 40.1909 23.93C40.1163 23.874 40.0789 23.7713 40.0789 23.622V15.754C40.0789 15.6047 40.1163 15.5067 40.1909 15.46C40.2656 15.4133 40.4196 15.39 40.6529 15.39C40.8863 15.39 41.0403 15.4133 41.1149 15.46C41.1896 15.5067 41.2269 15.6047 41.2269 15.754V19.03ZM47.6887 24C47.4367 24 47.2687 23.972 47.1847 23.916C47.1007 23.86 47.0587 23.7433 47.0587 23.566V23.132C47.0587 22.9547 47.1007 22.838 47.1847 22.782C47.2687 22.726 47.4367 22.698 47.6887 22.698C47.95 22.698 48.118 22.726 48.1927 22.782C48.2767 22.838 48.3187 22.9547 48.3187 23.132V23.566C48.3187 23.7433 48.2767 23.86 48.1927 23.916C48.118 23.972 47.95 24 47.6887 24ZM50.9203 19.03H54.1543V15.754C54.1543 15.6047 54.1916 15.5067 54.2663 15.46C54.341 15.4133 54.495 15.39 54.7283 15.39C54.9616 15.39 55.1156 15.4133 55.1903 15.46C55.265 15.5067 55.3023 15.6047 55.3023 15.754V23.622C55.3023 23.7807 55.265 23.8833 55.1903 23.93C55.1156 23.9767 54.9616 24 54.7283 24C54.495 24 54.341 23.9767 54.2663 23.93C54.1916 23.874 54.1543 23.7713 54.1543 23.622V20.052H50.9203V23.622C50.9203 23.7713 50.883 23.874 50.8083 23.93C50.7336 23.9767 50.5796 24 50.3463 24C50.113 24 49.959 23.9767 49.8843 23.93C49.8096 23.874 49.7723 23.7713 49.7723 23.622V15.754C49.7723 15.6047 49.8096 15.5067 49.8843 15.46C49.959 15.4133 50.113 15.39 50.3463 15.39C50.5796 15.39 50.7336 15.4133 50.8083 15.46C50.883 15.5067 50.9203 15.6047 50.9203 15.754V19.03ZM57.3821 24C57.1301 24 56.9621 23.972 56.8781 23.916C56.7941 23.86 56.7521 23.7433 56.7521 23.566V23.132C56.7521 22.9547 56.7941 22.838 56.8781 22.782C56.9621 22.726 57.1301 22.698 57.3821 22.698C57.6434 22.698 57.8114 22.726 57.8861 22.782C57.9701 22.838 58.0121 22.9547 58.0121 23.132V23.566C58.0121 23.7433 57.9701 23.86 57.8861 23.916C57.8114 23.972 57.6434 24 57.3821 24ZM64.4237 24C64.1904 24 64.0364 23.9767 63.9617 23.93C63.8871 23.874 63.8497 23.7713 63.8497 23.622V16.44H61.9177C61.7777 16.44 61.6844 16.4073 61.6377 16.342C61.5911 16.2673 61.5677 16.1227 61.5677 15.908C61.5677 15.6933 61.5911 15.5533 61.6377 15.488C61.6844 15.4227 61.7777 15.39 61.9177 15.39H66.9297C67.0697 15.39 67.1631 15.4273 67.2097 15.502C67.2657 15.5673 67.2937 15.7027 67.2937 15.908C67.2937 16.1227 67.2657 16.2673 67.2097 16.342C67.1631 16.4073 67.0697 16.44 66.9297 16.44H65.0117V23.622C65.0117 23.7713 64.9744 23.874 64.8997 23.93C64.8251 23.9767 64.6664 24 64.4237 24ZM69.8237 24.14C69.1984 24.14 68.741 23.986 68.4517 23.678C68.1624 23.37 68.0177 22.866 68.0177 22.166C68.0177 21.4473 68.2044 20.9387 68.5777 20.64C68.9604 20.332 69.6184 20.178 70.5517 20.178H72.0637V19.1C72.0637 18.624 71.9704 18.3207 71.7837 18.19C71.597 18.05 71.2517 17.98 70.7477 17.98C70.3184 17.98 69.8657 18.0267 69.3897 18.12C68.9137 18.204 68.6664 18.246 68.6477 18.246C68.4984 18.246 68.4237 18.092 68.4237 17.784C68.4237 17.4947 68.5217 17.322 68.7177 17.266C69.315 17.0793 70.0337 16.986 70.8737 16.986C71.7137 16.986 72.311 17.112 72.6657 17.364C73.0204 17.6067 73.1977 18.1107 73.1977 18.876V21.48C73.1977 21.872 73.2257 22.236 73.2817 22.572C73.3377 22.908 73.389 23.174 73.4357 23.37C73.4917 23.566 73.5197 23.6827 73.5197 23.72C73.5197 23.8133 73.4824 23.8833 73.4077 23.93C73.3424 23.9767 73.1977 24 72.9737 24C72.7684 24 72.633 23.9813 72.5677 23.944C72.5117 23.9067 72.4604 23.818 72.4137 23.678L72.1757 22.768C71.9704 23.2253 71.6577 23.5707 71.2377 23.804C70.827 24.028 70.3557 24.14 69.8237 24.14ZM70.1597 23.174C70.6917 23.174 71.1397 23.02 71.5037 22.712C71.877 22.404 72.0637 21.984 72.0637 21.452V20.948L70.4957 20.99C69.9544 20.9993 69.5904 21.0787 69.4037 21.228C69.2264 21.368 69.1377 21.6433 69.1377 22.054C69.1377 22.5207 69.2124 22.824 69.3617 22.964C69.511 23.104 69.777 23.174 70.1597 23.174ZM76.3103 26.576C76.2356 26.6227 76.0816 26.646 75.8483 26.646C75.6149 26.646 75.4563 26.6227 75.3723 26.576C75.2976 26.5293 75.2603 26.4267 75.2603 26.268V19.646C75.2603 19.254 75.2323 18.89 75.1763 18.554C75.1296 18.2087 75.0783 17.938 75.0223 17.742C74.9756 17.546 74.9523 17.4293 74.9523 17.392C74.9523 17.2987 74.9849 17.2333 75.0503 17.196C75.1249 17.1493 75.2696 17.126 75.4843 17.126C75.6989 17.126 75.8389 17.1447 75.9043 17.182C75.9696 17.21 76.0209 17.294 76.0583 17.434L76.2403 18.19C76.6043 17.3873 77.3603 16.986 78.5083 16.986C79.4696 16.986 80.0996 17.224 80.3983 17.7C80.7063 18.176 80.8603 19.1233 80.8603 20.542C80.8603 21.5407 80.7623 22.306 80.5663 22.838C80.3703 23.3607 80.0949 23.7107 79.7403 23.888C79.3949 24.056 78.9003 24.14 78.2563 24.14C77.3416 24.14 76.7303 23.888 76.4223 23.384V26.268C76.4223 26.4267 76.3849 26.5293 76.3103 26.576ZM78.0463 23.146C78.7183 23.146 79.1569 22.9873 79.3623 22.67C79.5769 22.3433 79.6843 21.6153 79.6843 20.486C79.6843 19.4313 79.5956 18.75 79.4183 18.442C79.2409 18.1247 78.8489 17.966 78.2423 17.966C77.5889 17.966 77.1176 18.12 76.8283 18.428C76.5483 18.7267 76.4083 19.3193 76.4083 20.206V21.074C76.4083 21.8673 76.5156 22.4133 76.7303 22.712C76.9449 23.0013 77.3836 23.146 78.0463 23.146ZM84.9958 24.14C84.5944 24.14 84.2631 24.1167 84.0018 24.07C83.7404 24.0233 83.4931 23.9347 83.2598 23.804C83.0264 23.664 82.8444 23.4633 82.7138 23.202C82.5924 22.9407 82.4944 22.6 82.4198 22.18C82.3544 21.76 82.3218 21.242 82.3218 20.626C82.3218 19.9727 82.3638 19.422 82.4478 18.974C82.5411 18.5167 82.6578 18.162 82.7978 17.91C82.9378 17.6487 83.1291 17.448 83.3718 17.308C83.6238 17.168 83.8664 17.0793 84.0998 17.042C84.3424 17.0047 84.6504 16.986 85.0238 16.986C85.6211 16.986 86.1904 17.0653 86.7318 17.224C86.8718 17.2707 86.9651 17.3313 87.0118 17.406C87.0584 17.4713 87.0818 17.5927 87.0818 17.77C87.0818 18.078 87.0118 18.232 86.8718 18.232C86.8531 18.232 86.6291 18.19 86.1998 18.106C85.7704 18.022 85.4111 17.98 85.1218 17.98C84.6738 17.98 84.3471 18.0313 84.1418 18.134C83.9364 18.2367 83.7778 18.47 83.6658 18.834C83.5538 19.198 83.4978 19.758 83.4978 20.514C83.4978 21.662 83.5864 22.3853 83.7638 22.684C83.9504 22.9827 84.4124 23.132 85.1498 23.132C85.5324 23.132 85.9151 23.0853 86.2978 22.992L86.8858 22.838C87.0164 22.838 87.0818 22.992 87.0818 23.3C87.0818 23.4773 87.0584 23.6033 87.0118 23.678C86.9744 23.7433 86.8858 23.7993 86.7458 23.846C86.2044 24.042 85.6211 24.14 84.9958 24.14ZM89.486 23.93C89.4114 23.9767 89.2574 24 89.024 24C88.7907 24 88.6367 23.9767 88.562 23.93C88.4874 23.8833 88.45 23.7807 88.45 23.622V17.49C88.45 17.3313 88.4874 17.2333 88.562 17.196C88.6367 17.1493 88.7907 17.126 89.024 17.126C89.2574 17.126 89.4114 17.1493 89.486 17.196C89.5607 17.2333 89.598 17.3313 89.598 17.49V20.024H89.724L91.922 17.406C92.0247 17.2847 92.118 17.21 92.202 17.182C92.2954 17.1447 92.4587 17.126 92.692 17.126C93.0654 17.126 93.252 17.1913 93.252 17.322C93.252 17.434 93.1867 17.5647 93.056 17.714L90.76 20.402L93.238 23.412C93.35 23.5427 93.406 23.664 93.406 23.776C93.406 23.9253 93.21 24 92.818 24C92.594 24 92.44 23.9813 92.356 23.944C92.2814 23.9067 92.1927 23.8273 92.09 23.706L89.71 20.808H89.598V23.622C89.598 23.7807 89.5607 23.8833 89.486 23.93ZM96.9717 24.14C96.4303 24.14 96.001 24.0933 95.6837 24C95.3663 23.916 95.1003 23.7433 94.8857 23.482C94.671 23.2207 94.5217 22.866 94.4377 22.418C94.363 21.97 94.3257 21.3727 94.3257 20.626C94.3257 19.2167 94.5357 18.26 94.9557 17.756C95.385 17.2427 96.1317 16.986 97.1957 16.986C97.905 16.986 98.437 17.0747 98.7917 17.252C99.1557 17.4293 99.417 17.7653 99.5757 18.26C99.7437 18.7547 99.8277 19.4967 99.8277 20.486C99.8277 21.8953 99.6177 22.8567 99.1977 23.37C98.7777 23.8833 98.0357 24.14 96.9717 24.14ZM96.9997 23.146C97.681 23.146 98.1243 22.9827 98.3297 22.656C98.5443 22.3293 98.6517 21.648 98.6517 20.612C98.6517 19.4733 98.563 18.75 98.3857 18.442C98.2177 18.1247 97.807 17.966 97.1537 17.966C96.4723 17.966 96.0243 18.1293 95.8097 18.456C95.6043 18.7733 95.5017 19.45 95.5017 20.486C95.5017 21.634 95.5857 22.3667 95.7537 22.684C95.931 22.992 96.3463 23.146 96.9997 23.146ZM102.461 23.93C102.386 23.9767 102.232 24 101.999 24C101.765 24 101.611 23.9767 101.537 23.93C101.462 23.874 101.425 23.7713 101.425 23.622V17.476C101.425 17.336 101.453 17.2427 101.509 17.196C101.565 17.1493 101.677 17.126 101.845 17.126H104.827C104.967 17.126 105.06 17.1633 105.107 17.238C105.163 17.3033 105.191 17.4387 105.191 17.644C105.191 17.8587 105.163 18.0033 105.107 18.078C105.06 18.1433 104.967 18.176 104.827 18.176H102.573V23.622C102.573 23.7713 102.535 23.874 102.461 23.93ZM108.702 24.14C108.161 24.14 107.731 24.0933 107.414 24C107.097 23.916 106.831 23.7433 106.616 23.482C106.401 23.2207 106.252 22.866 106.168 22.418C106.093 21.97 106.056 21.3727 106.056 20.626C106.056 19.2167 106.266 18.26 106.686 17.756C107.115 17.2427 107.862 16.986 108.926 16.986C109.635 16.986 110.167 17.0747 110.522 17.252C110.886 17.4293 111.147 17.7653 111.306 18.26C111.474 18.7547 111.558 19.4967 111.558 20.486C111.558 21.8953 111.348 22.8567 110.928 23.37C110.508 23.8833 109.766 24.14 108.702 24.14ZM108.73 23.146C109.411 23.146 109.855 22.9827 110.06 22.656C110.275 22.3293 110.382 21.648 110.382 20.612C110.382 19.4733 110.293 18.75 110.116 18.442C109.948 18.1247 109.537 17.966 108.884 17.966C108.203 17.966 107.755 18.1293 107.54 18.456C107.335 18.7733 107.232 19.45 107.232 20.486C107.232 21.634 107.316 22.3667 107.484 22.684C107.661 22.992 108.077 23.146 108.73 23.146ZM115.843 14.858C116.095 14.858 116.258 14.886 116.333 14.942C116.408 14.998 116.445 15.1147 116.445 15.292V15.684C116.445 15.9827 116.384 16.3467 116.263 16.776L116.025 17.602C115.969 17.7607 115.904 17.868 115.829 17.924C115.754 17.9707 115.619 17.994 115.423 17.994C115.274 17.994 115.176 17.98 115.129 17.952C115.082 17.9147 115.059 17.854 115.059 17.77C115.059 17.714 115.092 17.476 115.157 17.056C115.222 16.636 115.255 16.2907 115.255 16.02V15.292C115.255 15.1147 115.292 14.998 115.367 14.942C115.442 14.886 115.6 14.858 115.843 14.858ZM113.743 14.858C113.986 14.858 114.144 14.8907 114.219 14.956C114.303 15.012 114.345 15.124 114.345 15.292V15.684C114.345 15.9827 114.284 16.3467 114.163 16.776L113.925 17.602C113.869 17.7607 113.804 17.868 113.729 17.924C113.654 17.9707 113.519 17.994 113.323 17.994C113.174 17.994 113.076 17.98 113.029 17.952C112.982 17.9147 112.959 17.854 112.959 17.77C112.959 17.714 112.987 17.476 113.043 17.056C113.108 16.636 113.141 16.2907 113.141 16.02V15.292C113.141 15.1147 113.178 14.998 113.253 14.942C113.328 14.886 113.491 14.858 113.743 14.858Z" fill="black"/>
</svg>
